<?xml version="1.0" encoding="UTF-8"?>
<!DOCTYPE svg PUBLIC "-//W3C//DTD SVG 1.1//EN" "http://www.w3.org/Graphics/SVG/1.1/DTD/svg11.dtd">
<!-- Creator: CorelDRAW X8 -->
<svg xmlns="http://www.w3.org/2000/svg" xml:space="preserve" width="100%" height="100%" version="1.1" style="shape-rendering:geometricPrecision; text-rendering:geometricPrecision; image-rendering:optimizeQuality; fill-rule:evenodd; clip-rule:evenodd"
viewBox="0 0 5750000 4200000"
 xmlns:xlink="http://www.w3.org/1999/xlink">
 <defs>
  <style type="text/css">
   <![CDATA[
    .fil21 {fill:none}
    .fil8 {fill:#35497D}
    .fil10 {fill:#39588D}
    .fil9 {fill:#4572AD}
    .fil12 {fill:#5D96CF}
    .fil18 {fill:#825DA5}
    .fil3 {fill:#8EA0BE}
    .fil14 {fill:#B1C6DE}
    .fil16 {fill:#C3DAED}
    .fil17 {fill:#CA7DB4}
    .fil5 {fill:#D12D90}
    .fil11 {fill:#D5E9F8}
    .fil15 {fill:#DFEFFA}
    .fil6 {fill:#E179AF}
    .fil13 {fill:#E9F2FB}
    .fil20 {fill:#EA9E95}
    .fil4 {fill:#EE4698}
    .fil19 {fill:#FAC1B2}
    .fil7 {fill:#FEFEFE}
    .fil1 {fill:url(#id0)}
    .fil0 {fill:url(#id1)}
    .fil2 {fill:url(#id2)}
   ]]>
  </style>
  <linearGradient id="id0" gradientUnits="userSpaceOnUse" x1="1.54339e+07" y1="-3.16584e+07" x2="1.56141e+07" y2="-3.18517e+07">
   <stop offset="0" style="stop-opacity:1; stop-color:#F177AD"/>
   <stop offset="1" style="stop-opacity:1; stop-color:#EE4389"/>
  </linearGradient>
  <linearGradient id="id1" gradientUnits="userSpaceOnUse" x1="-7.28108e+07" y1="-2.58014e+07" x2="-7.30638e+07" y2="-2.54825e+07">
   <stop offset="0" style="stop-opacity:1; stop-color:#B9E3FB"/>
   <stop offset="1" style="stop-opacity:1; stop-color:#36A2FB"/>
  </linearGradient>
  <linearGradient id="id2" gradientUnits="userSpaceOnUse" x1="2.1009e+06" y1="3.43781e+06" x2="2.26811e+06" y2="3.43781e+06">
   <stop offset="0" style="stop-opacity:1; stop-color:#C3DA59"/>
   <stop offset="1" style="stop-opacity:1; stop-color:#4FB852"/>
  </linearGradient>
 </defs>
 <g id="Layer_x0020_1">
  <metadata id="CorelCorpID_0Corel-Layer"/>
  <g id="_1709584011760">
   <g id="cursos-connectvest.svg">
    <g id="Layer_x0020_1_0">
     <g id="_2425317919568">
      <path class="fil0" d="M3606998 3272542l-369427 208824c-41610,23720 -56387,76607 -33055,118605l64164 113551 338318 0 0 -440980z"/>
      <path class="fil1" d="M3206850 1482567c-7778,0 -15555,-3111 -20999,-8944l-147382 -156326c-7000,-7388 -9722,-18277 -6611,-27998 3111,-9722 10888,-17500 20999,-19832l209212 -49387c10111,-2333 20611,778 27610,8166 7000,7389 9722,18278 6611,27999l-61830 206102c-3111,9721 -10889,17499 -20999,19832 -2333,0 -4667,388 -6611,388zm-118995 -170714l107328 113551 44720 -149716 -152048 36165z"/>
      <path class="fil2" d="M2104011 3272542c92552,0 167603,75053 167603,167603 0,92552 -75052,167604 -167603,167604l0 0 0 -40831 0 0c69997,0 126772,-56776 126772,-126773 0,-69996 -56775,-126772 -126772,-126772l0 0 0 -40831 0 0z"/>
     </g>
     <g id="_2425317921648">
      <path class="fil3" d="M3310678 3869459c-32665,0 -65719,-8167 -94884,-25277l-1490155 -854349c-33442,-19055 -33442,-67275 -389,-86718l1411992 -820519 1585039 908792c33443,19055 33832,67275 389,86718l-1317107 765688c-29166,17110 -62219,25665 -94885,25665z"/>
      <path class="fil4" d="M3166407 1625672c0,-94495 -66886,-132605 -148549,-85163l-1389048 805353c-22555,12832 -40831,44720 -40442,70775 0,26054 18277,36554 40831,23332l1388660 -805742c36942,-21388 66885,-4278 66885,38498l389 155549c26832,-1944 54054,-1944 81275,-1556l-1 -201046z"/>
      <path class="fil5" d="M1629587 2719567l1389437 -510977c81664,-47442 148161,-162937 147772,-257432l-389 -124439c-27221,-389 -54442,-389 -81275,1556l389 170326c0,42776 -29942,94495 -66497,115883l-1389825 510976c-22555,13222 -40442,44720 -40442,70775 -1,25665 18276,36164 40830,23332z"/>
      <polygon class="fil5" points="1599256,2721511 3294346,3695634 4724614,2837006 4837776,2667069 4826110,2727345 4795000,2569852 2135898,2679125 1667309,2650348 "/>
      <polygon class="fil6" points="1654475,2425969 1654864,2634015 3293179,3575472 3336733,3376759 "/>
      <polygon class="fil4" points="4816388,2502966 3124020,1530399 1603145,2420524 1600034,2442302 3295124,3416424 "/>
      <path class="fil7" d="M4278967 3006554l396649 -236822c33443,-23721 59498,-71164 59498,-110828l389 -31110c0,-25277 -10500,-41609 -26832,-46276l-781243 437091 -635804 346096 1167 210768 986176 -568919z"/>
      <path class="fil5" d="M3348788 3384148l-1681479 -966345 -35777 -20610 -32665 -18667c-6611,12056 -10889,25666 -10889,37721 0,12832 4667,21777 11667,26055l0 0 389 0 0 0 1694312 973733 54442 -31887z"/>
      <polygon class="fil7" points="3273347,3683579 3294346,3695634 3298235,3689023 3285012,3678524 "/>
      <polygon class="fil7" points="3272958,3403592 3294735,3416035 3289290,3404369 "/>
      <path class="fil4" d="M3323900 3319596l1388659 -805742c81663,-47442 148160,-8943 148549,85163l-389 31110c0,94496 -66108,209991 -147771,257044l-1388659 806130c-22555,13221 -40832,2722 -40832,-23332 0,-26055 18278,-57553 40443,-70775l1388659 -805741c36942,-21388 66886,-73497 66497,-115884l389 -31110c0,-42776 -29943,-59886 -66886,-38498l-1388659 805742c-22555,12832 -40831,2332 -40831,-23332 0,-26055 18277,-57554 40831,-70775z"/>
      <path class="fil7" d="M3283457 3669968c0,-26055 18278,-57553 40443,-70775l1388659 -805741c36942,-21388 66886,-73497 66497,-115884l389 -31110c0,-27998 -12833,-44720 -32277,-47442 6222,8167 9722,19833 9722,34610l-389 31109c0,42777 -29943,94496 -66497,115884l-1388269 806131c-22555,13221 -40442,44720 -40442,70775 0,19832 10499,30331 25276,28776 -1945,-4667 -3112,-10110 -3112,-16333z"/>
      <path class="fil7" d="M3283069 3390370c0,-26055 18277,-57554 40442,-70775l1388659 -805742c34998,-20610 67664,-24888 92940,-15943 -27221,-22943 -68830,-24110 -115495,3111l-1388269 805741c-22555,13222 -40831,44720 -40442,70775 0,19832 10499,30332 25276,28777 -1945,-4278 -2723,-9722 -3111,-15944z"/>
      <path class="fil8" d="M4868886 1066864l-1503377 -862127c-17499,-10111 -34999,-11667 -50942,-6222l0 0 -2722 1167 -778 389 -54053 20999 48608 23721 -777 2722 -241101 1113727c-12055,55609 12444,120551 55220,145050l1467211 841518 -5055 62219 59108 -23332c19832,-9333 35776,-30332 42387,-60664l241100 -1113728c12446,-55998 -12442,-121329 -54829,-145439z"/>
      <path class="fil9" d="M4868886 1066864l-1503377 -862127c-17499,-10111 -34999,-11667 -50942,-6222l0 0 -2722 1167 -778 389 -54053 20999 48608 23721 -777 2722 -159049 733800 736133 570085 1034398 -424259c-10110,-26443 -26442,-48220 -47441,-60275z"/>
      <path class="fil10" d="M4812888 1237967l113939 -48998c1944,-44331 -16332,-89829 -46665,-114328l-180825 76608 113551 86718z"/>
      <path class="fil11" d="M4529012 2403414l-1503376 -862127c-42387,-24499 -67275,-89440 -55219,-145049l241100 -1113728c12055,-55608 56386,-81274 98773,-56775l1503376 862128c42387,24499 67275,89440 55220,145049l-241100 1113728c-12056,55608 -55998,80884 -98774,56774z"/>
      <path class="fil7" d="M4828443 1082808l-1503376 -862517c-20610,-11666 -41610,-11666 -59109,-2333 14000,-3111 29555,-1167 44720,7778l1503376 862128c42387,24499 67275,89440 55220,145049l-241100 1113728c-6222,28777 -20999,48998 -39666,59108 25277,-5444 46276,-28777 54054,-64553l241100 -1113728c12055,-55609 -12832,-120550 -55219,-144660z"/>
      <path class="fil7" d="M4496347 2320585l-1413936 -810407c-38888,-22166 -61442,-81664 -50554,-132605l220879 -1018843c10889,-51332 51332,-74664 90219,-52110l1413936 810408c38887,22166 61441,81664 50553,132605l-220879 1018843c-10888,51331 -51331,74275 -90218,52109z"/>
      <path class="fil8" d="M4496347 2320585l-1413936 -810407c-38888,-22166 -61442,-81664 -50554,-132605l220879 -1018843c10889,-51332 51332,-74664 90219,-52110l1413936 810408c38887,22166 61441,81664 50553,132605l-220879 1018843c-10888,51331 -51331,74275 -90218,52109z"/>
      <path class="fil12" d="M4508402 2315529l-1413936 -810407c-38887,-22166 -61441,-81663 -50554,-132605l220879 -1018843c5444,-25666 18666,-44331 35388,-53665 -22166,5833 -40831,26832 -47831,58720l-220879 1018843c-10889,50941 11666,110439 50554,132605l1414324 810408c19055,10889 38887,10889 55219,1944 -13610,3500 -28387,1556 -43164,-7000z"/>
      <path class="fil8" d="M4550011 2441136l-205324 -26443 -1326439 -761022c-42388,-24499 -116662,-20999 -165660,7389l-936791 544419 -124050 -15943 389 70386 0 0c-778,16332 8556,31887 28777,43554l1503376 862128c42387,24499 116661,20999 165659,-7389l1020398 -592640c27610,-15943 41220,-36554 40442,-55998l-777 -68441z"/>
      <path class="fil9" d="M3553334 1960879l-94106 -54053 -1034398 3111 -509033 295542 -124050 -15943 389 70386 0 0c-778,16332 8556,31887 28777,43554l1503376 862128c22555,12832 53664,17888 85552,15943l143493 -1220668z"/>
      <path class="fil12" d="M1846578 2196535l-55220 -7000 389 70386 0 0c-778,16332 8556,31887 28777,43554l26443 15166 -389 -122106z"/>
      <path class="fil10" d="M3339066 3172213c40442,15167 97996,11667 140772,-9332l-389 -157104 -140772 389 389 166047z"/>
      <path class="fil11" d="M3323511 3095217l-1503376 -862517c-42387,-24499 -37332,-67275 11666,-95663l1020398 -593029c48998,-28388 123272,-31887 165660,-7389l1503375 862128c42388,24499 37332,67275 -11666,95663l-1020398 593418c-48998,28388 -122883,31499 -165659,7389z"/>
      <path class="fil7" d="M4509569 2469134l-1020399 593028c-48998,28388 -123272,31888 -165659,7389l-1503376 -862517c-14000,-8166 -22555,-17888 -26443,-28777 -6611,20222 1944,40443 26443,54442l1503376 862128c42387,24499 116661,20999 165659,-7389l1020398 -593029c33054,-19055 45887,-44720 38109,-66886 -4666,15167 -17498,29556 -38108,41611z"/>
      <path class="fil12" d="M2457884 1944158l-68053 -38887c-5444,-3111 -4667,-8556 1556,-12444l80107 -46665c6222,-3499 15944,-3888 21388,-777l68053 38887c5444,3111 4667,8555 -1556,12443l-80107 46665c-6611,3500 -15944,3889 -21388,778z"/>
      <path class="fil12" d="M2562879 2004432l-68053 -38887c-5444,-3111 -4667,-8556 1556,-12443l80108 -46665c6221,-3500 15943,-3889 21388,-778l68052 38887c5444,3111 4667,8556 -1555,12443l-80108 46665c-6611,3501 -15944,3889 -21388,778z"/>
      <path class="fil12" d="M2667874 2064708l-68053 -38888c-5443,-3111 -4666,-8555 1556,-12443l80108 -46665c6221,-3500 15943,-4278 21388,-778l68053 38887c5443,3111 4667,8556 -1556,12444l-80108 46665c-6610,3499 -15944,3888 -21388,778z"/>
      <path class="fil12" d="M2812534 2014155l-68053 -38887c-5444,-3111 -4667,-8556 1556,-12444l67275 -38887c6222,-3500 15943,-3889 21388,-778l68053 38887c5443,3111 4667,8556 -1556,12444l-67275 38887c-6222,3500 -15554,3889 -21388,778z"/>
      <path class="fil12" d="M2917918 2074429l-68053 -38887c-5444,-3111 -4667,-8556 1556,-12444l67275 -38887c6222,-3500 15943,-3889 21388,-778l68053 38888c5444,3110 4667,8555 -1556,12443l-67275 38887c-6611,3501 -15943,3889 -21388,778z"/>
      <path class="fil12" d="M3022913 2134704l-68053 -38887c-5443,-3111 -4666,-8555 1556,-12443l67275 -38887c6222,-3500 15944,-3889 21388,-778l68053 38887c5444,3111 4667,8555 -1556,12443l-67275 38887c-6610,3500 -15943,3889 -21388,778z"/>
      <path class="fil12" d="M3127909 2194980l-68053 -38888c-5444,-3110 -4667,-8555 1556,-12443l67275 -38887c6221,-3500 15943,-3889 21388,-778l68052 38887c5444,3111 4667,8556 -1555,12443l-67275 38888c-6611,3500 -15944,3889 -21388,778z"/>
      <path class="fil12" d="M3232904 2255255l-68053 -38887c-5444,-3111 -4667,-8556 1556,-12444l67275 -38887c6221,-3500 15943,-3889 21388,-778l68053 38887c5443,3111 4666,8556 -1556,12444l-67275 38887c-6222,3500 -15943,3889 -21388,778z"/>
      <path class="fil12" d="M3337899 2315529l-68053 -38887c-5444,-3111 -4667,-8556 1556,-12443l67275 -38888c6222,-3500 15943,-3888 21388,-778l68053 38888c5444,3110 4667,8555 -1556,12443l-67275 38887c-6222,3501 -15943,3890 -21388,778z"/>
      <path class="fil12" d="M3442894 2375805l-68053 -38888c-5443,-3111 -4666,-8555 1556,-12443l67275 -38887c6222,-3500 15944,-3889 21388,-778l68053 38887c5444,3111 4667,8555 -1556,12443l-67275 38888c-6221,3499 -15943,3888 -21388,778z"/>
      <path class="fil12" d="M3547890 2436080l-68053 -38887c-5444,-3111 -4667,-8556 1556,-12444l67274 -38887c6222,-3500 15944,-3889 21389,-778l68052 38887c5444,3111 4667,8556 -1555,12444l-67275 38887c-6222,3500 -15944,3889 -21388,778z"/>
      <path class="fil12" d="M3653274 2495966l-68053 -38887c-5444,-3111 -4667,-8556 1556,-12444l67275 -38887c6221,-3500 15943,-3889 21388,-778l68053 38887c5443,3111 4666,8556 -1556,12444l-67275 38887c-6611,3500 -15944,4278 -21388,778z"/>
      <path class="fil12" d="M3758269 2556241l-68053 -38887c-5444,-3111 -4667,-8555 1556,-12443l67275 -38888c6222,-3499 15943,-4277 21388,-778l68053 38888c5444,3111 4667,8555 -1556,12443l-67275 38887c-6611,3500 -15943,3889 -21388,778z"/>
      <path class="fil12" d="M2967305 1984989l-68053 -38887c-5444,-3111 -4667,-8556 1556,-12443l67275 -38888c6222,-3500 15943,-3889 21388,-778l68053 38888c5443,3110 4667,8555 -1556,12443l-67275 38887c-6611,3500 -15943,3889 -21388,778z"/>
      <path class="fil12" d="M2860366 1923936l-68053 -38887c-5444,-3111 -4667,-8556 1556,-12444l67275 -38887c6221,-3500 15943,-4278 21388,-778l68053 38887c5443,3111 4666,8556 -1556,12444l-67275 38887c-6223,3501 -15945,3889 -21388,778z"/>
      <path class="fil12" d="M2753814 1862884l-146604 -83996c-5444,-3111 -4667,-8556 1556,-12444l67275 -38887c6222,-3500 15943,-3889 21388,-778l146604 83996c5444,3111 4667,8556 -1556,12444l-67274 38887c-6611,3500 -15944,3889 -21389,778z"/>
      <path class="fil12" d="M2828089 1787442l-118994 -68053c-5444,-3111 -4667,-8555 1555,-12443l67275 -38887c6222,-3500 15944,-4278 21388,-778l118995 68052c5444,3111 4667,8556 -1556,12444l-67275 38887c-6611,3501 -15944,4278 -21388,778z"/>
      <path class="fil12" d="M3072300 2045264l-68053 -38887c-5444,-3111 -4667,-8555 1556,-12443l67275 -38887c6222,-3500 15943,-3889 21388,-778l68053 38887c5444,3111 4667,8555 -1556,12443l-67275 38888c-6611,3499 -15943,3888 -21388,777z"/>
      <path class="fil12" d="M3177295 2105539l-68053 -38887c-5443,-3111 -4666,-8556 1556,-12444l67275 -38887c6222,-3500 15944,-3889 21388,-778l68053 38887c5444,3111 4667,8556 -1556,12444l-67275 38887c-6610,3501 -15943,3890 -21388,778z"/>
      <path class="fil12" d="M3282291 2165814l-68053 -38887c-5444,-3111 -4667,-8556 1556,-12444l67275 -38887c6221,-3500 15943,-4278 21388,-778l68052 38887c5444,3111 4667,8556 -1555,12444l-67275 38887c-6222,3500 -15944,3889 -21388,778z"/>
      <path class="fil12" d="M3387286 2226089l-68053 -38887c-5444,-3111 -4667,-8556 1556,-12443l67275 -38888c6221,-3499 15943,-3888 21388,-778l68053 38888c5443,3111 4666,8555 -1556,12443l-67275 38887c-6222,3500 -15943,3889 -21388,778z"/>
      <path class="fil12" d="M3492281 2286365l-68053 -38888c-5444,-3111 -4667,-8555 1556,-12443l67275 -38887c6222,-3500 15943,-3889 21388,-778l68053 38887c5444,3111 4667,8556 -1556,12443l-67275 38888c-6222,3499 -15943,3888 -21388,778z"/>
      <path class="fil12" d="M3597276 2346640l-68053 -38887c-5443,-3111 -4666,-8556 1556,-12444l67275 -38887c6222,-3500 15944,-3889 21388,-778l68053 38887c5444,3111 4667,8556 -1556,12444l-67275 38887c-6221,3500 -15554,3889 -21388,778z"/>
      <path class="fil12" d="M3702661 2406914l-68053 -38887c-5444,-3111 -4667,-8556 1556,-12444l67274 -38887c6222,-3500 15944,-3889 21389,-778l68052 38887c5444,3111 4667,8556 -1556,12444l-67274 38887c-6611,3501 -15944,3889 -21388,778z"/>
      <path class="fil12" d="M3807656 2467189l-68053 -38887c-5444,-3111 -4667,-8555 1556,-12443l67275 -38888c6221,-3499 15943,-3888 21388,-777l68053 38887c5443,3111 4666,8555 -1556,12443l-67275 38887c-6611,3500 -15943,3889 -21388,778z"/>
      <path class="fil12" d="M3912651 2527465l-68053 -38888c-5444,-3110 -4667,-8555 1556,-12443l67275 -38887c6222,-3500 15943,-3889 21388,-778l68053 38887c5444,3111 4667,8556 -1556,12443l-67275 38888c-6611,3500 -15943,3889 -21388,778z"/>
      <path class="fil12" d="M4099310 2634404l-148550 -85163c-5443,-3111 -4667,-8556 1556,-12444l67275 -38887c6222,-3500 15943,-3889 21388,-778l148159 85163c5444,3111 4667,8556 -1555,12444l-67275 38887c-5833,3501 -15555,3889 -20998,778z"/>
      <path class="fil12" d="M4303078 2515798l-125216 -71941c-5444,-3110 -4667,-8555 1556,-12443l67275 -38887c6222,-3500 15943,-3889 21388,-778l125216 71941c5444,3110 4667,8555 -1556,12443l-67275 38887c-6222,3500 -15944,3889 -21388,778z"/>
      <path class="fil12" d="M3255848 2032820l-68053 -38887c-5444,-3111 -4667,-8556 1556,-12444l67275 -38887c6221,-3500 15943,-4278 21388,-778l68053 38887c5443,3111 4666,8556 -1556,12444l-67275 38887c-6611,3500 -15944,3889 -21388,778z"/>
      <path class="fil12" d="M3148131 1971379l-68053 -38887c-5444,-3111 -4667,-8556 1556,-12444l67275 -38887c6221,-3500 15943,-3889 21388,-778l68053 38887c5443,3111 4666,8556 -1556,12444l-67275 38887c-6223,3500 -15945,3889 -21388,778z"/>
      <path class="fil12" d="M3040413 1909548l-68053 -38888c-5444,-3110 -4667,-8555 1556,-12443l67274 -38887c6222,-3500 15944,-4278 21389,-778l68052 38887c5444,3111 4667,8556 -1556,12443l-67274 38888c-6222,3500 -15944,3889 -21388,778z"/>
      <path class="fil12" d="M2932695 1847717l-68053 -38887c-5443,-3111 -4666,-8555 1556,-12443l67275 -38888c6222,-3499 15944,-3888 21388,-777l68053 38887c5444,3111 4667,8555 -1556,12443l-67275 38887c-6221,3500 -15943,3889 -21388,778z"/>
      <path class="fil12" d="M3360843 2093095l-68053 -38887c-5444,-3111 -4667,-8556 1556,-12443l67275 -38888c6222,-3499 15943,-3888 21388,-778l68053 38888c5444,3111 4667,8555 -1556,12443l-67275 38887c-6223,3500 -15944,3889 -21388,778z"/>
      <path class="fil12" d="M3465838 2153371l-68053 -38888c-5443,-3111 -4666,-8555 1556,-12443l67275 -38887c6222,-3500 15943,-3889 21388,-778l68053 38887c5444,3111 4667,8556 -1556,12443l-67275 38888c-6222,3499 -15944,3888 -21388,778z"/>
      <path class="fil12" d="M3570833 2213646l-68052 -38887c-5444,-3111 -4667,-8556 1555,-12444l67275 -38887c6222,-3500 15944,-3889 21388,-778l68053 38887c5444,3111 4667,8556 -1556,12444l-67274 38887c-6223,3500 -15945,3889 -21389,778z"/>
      <path class="fil12" d="M3676218 2273920l-68053 -38887c-5444,-3111 -4667,-8556 1556,-12444l67275 -38887c6221,-3500 15943,-4278 21388,-778l68053 38887c5443,3111 4666,8556 -1556,12444l-67275 38887c-6612,3501 -15945,3889 -21388,778z"/>
      <path class="fil12" d="M3781213 2334195l-68053 -38887c-5444,-3111 -4667,-8555 1556,-12443l67275 -38888c6222,-3499 15943,-3888 21388,-777l68053 38887c5444,3111 4667,8555 -1556,12443l-67275 38887c-6612,3500 -15944,3889 -21388,778z"/>
      <path class="fil12" d="M3886208 2394471l-68053 -38888c-5443,-3110 -4667,-8555 1556,-12443l67275 -38887c6222,-3500 15943,-3889 21388,-778l68053 38887c5444,3111 4667,8556 -1556,12443l-67275 38888c-6611,3500 -15944,3889 -21388,778z"/>
      <path class="fil12" d="M3991203 2454746l-68052 -38887c-5444,-3111 -4667,-8556 1555,-12444l67275 -38887c6222,-3500 15944,-3889 21388,-778l68053 38887c5444,3111 4667,8556 -1556,12444l-67275 38887c-6611,3500 -15944,3889 -21388,778z"/>
      <path class="fil12" d="M4096199 2515020l-68053 -38887c-5444,-3111 -4667,-8556 1556,-12443l67275 -38888c6221,-3500 15943,-3889 21388,-778l68053 38888c5443,3110 4666,8555 -1556,12443l-67275 38887c-6223,3501 -15945,3890 -21388,778z"/>
      <path class="fil12" d="M4201194 2575295l-68053 -38887c-5444,-3111 -4667,-8555 1556,-12443l67275 -38887c6222,-3500 15943,-3889 21388,-778l68053 38887c5444,3111 4667,8555 -1556,12443l-67275 38888c-6223,3499 -15944,3888 -21388,777z"/>
      <path class="fil12" d="M3200239 1883494l-68053 -38887c-5443,-3111 -4666,-8556 1556,-12444l67275 -38887c6222,-3500 15944,-3889 21388,-778l68053 38887c5444,3111 4667,8556 -1556,12444l-67275 38887c-6611,3500 -15944,3889 -21388,778z"/>
      <path class="fil12" d="M3095633 1823219l-68053 -38888c-5444,-3111 -4667,-8555 1556,-12443l67275 -38887c6222,-3500 15943,-3889 21388,-778l68053 38887c5444,3111 4667,8555 -1556,12443l-67275 38888c-6223,3499 -15944,4277 -21388,778z"/>
      <path class="fil12" d="M2991026 1763332l-68053 -38887c-5444,-3111 -4667,-8556 1556,-12443l67275 -38888c6221,-3500 15943,-3889 21388,-778l68053 38888c5443,3110 4666,8555 -1556,12443l-67275 38887c-6222,3500 -15944,3889 -21388,778z"/>
      <path class="fil12" d="M2886419 1703446l-68052 -38887c-5444,-3111 -4667,-8556 1555,-12444l67275 -38887c6222,-3500 15944,-4278 21388,-778l68053 38887c5444,3111 4667,8556 -1556,12444l-67274 38887c-6222,3501 -15944,3889 -21389,778z"/>
      <path class="fil12" d="M2993749 1641227l-68053 -38887c-5444,-3111 -4667,-8556 1556,-12444l22166 -12832c6221,-3500 15943,-3889 21388,-778l68053 38887c5443,3111 4666,8556 -1556,12443l-22166 12833c-6612,3500 -15945,3889 -21388,778z"/>
      <path class="fil12" d="M3130242 1719390l-68052 -38887c-5444,-3111 -4667,-8556 1555,-12443l22166 -12833c6222,-3500 15944,-3889 21388,-778l68053 38887c5444,3111 4667,8556 -1556,12444l-22166 12832c-6611,3500 -15944,3889 -21388,778z"/>
      <path class="fil12" d="M3234071 1779277l-68053 -38888c-5444,-3111 -4667,-8555 1556,-12443l22166 -12833c6221,-3499 15943,-3888 21388,-778l68053 38888c5443,3111 4666,8555 -1556,12443l-22166 12833c-6222,3499 -15945,3888 -21388,778z"/>
      <path class="fil12" d="M3338288 1838774l-68053 -38887c-5444,-3111 -4667,-8556 1556,-12444l22166 -12832c6222,-3500 15943,-3889 21388,-778l68053 38887c5444,3111 4667,8556 -1556,12443l-22166 12833c-6222,3500 -15943,3889 -21388,778z"/>
      <path class="fil12" d="M3442505 1898660l-68053 -38887c-5443,-3111 -4666,-8556 1556,-12444l22166 -12832c6222,-3500 15944,-3889 21388,-778l68053 38887c5444,3111 4667,8556 -1556,12444l-22166 12832c-6610,3500 -15943,3889 -21388,778z"/>
      <path class="fil12" d="M4023479 2231922l-68053 -38887c-5444,-3111 -4667,-8556 1556,-12444l22166 -12832c6222,-3500 15943,-3889 21388,-778l68053 38887c5444,3111 4667,8556 -1556,12444l-22166 12832c-6222,3501 -15943,3889 -21388,778z"/>
      <path class="fil12" d="M4127697 2291419l-68053 -38887c-5443,-3111 -4666,-8556 1556,-12443l22166 -12833c6222,-3500 15944,-3889 21388,-778l68053 38888c5444,3110 4667,8555 -1556,12443l-22166 12832c-6611,3501 -15944,3889 -21388,778z"/>
      <path class="fil12" d="M4231526 2351306l-68053 -38888c-5444,-3110 -4667,-8555 1556,-12443l22166 -12832c6221,-3500 15943,-3889 21388,-778l68053 38887c5443,3111 4666,8555 -1556,12443l-22166 12833c-6222,3500 -15556,3888 -21388,778z"/>
      <path class="fil12" d="M4335743 2410803l-68053 -38887c-5444,-3111 -4667,-8556 1556,-12444l22166 -12832c6222,-3500 15943,-3889 21388,-778l68053 38887c5444,3111 4667,8556 -1556,12444l-22166 12832c-6222,3500 -15943,3889 -21388,778z"/>
      <path class="fil12" d="M3305235 1943769l-68053 -38887c-5444,-3111 -4667,-8556 1556,-12444l67274 -38887c6222,-3500 15944,-3889 21389,-778l68052 38887c5444,3111 4667,8556 -1556,12444l-67274 38887c-6612,3500 -15945,3889 -21388,778z"/>
      <path class="fil12" d="M3410230 2003655l-68053 -38887c-5444,-3111 -4667,-8555 1556,-12443l67275 -38888c6221,-3499 15943,-4277 21388,-778l68053 38888c5443,3111 4666,8555 -1556,12443l-67275 38887c-6223,3500 -15944,4278 -21388,778z"/>
      <path class="fil12" d="M3515225 2063930l-68053 -38888c-5444,-3110 -4667,-8555 1556,-12443l67275 -38887c6222,-3500 15943,-4278 21388,-778l68053 38887c5444,3111 4667,8556 -1556,12443l-67275 38888c-6223,3501 -15944,3888 -21388,778z"/>
      <path class="fil12" d="M3620220 2124205l-68053 -38887c-5443,-3111 -4666,-8556 1556,-12444l67275 -38887c6222,-3500 15943,-3889 21388,-778l68053 38887c5444,3111 4667,8556 -1556,12444l-67275 38887c-6222,3500 -15944,3889 -21388,778z"/>
      <path class="fil12" d="M3725604 2184480l-68052 -38887c-5444,-3111 -4667,-8556 1555,-12443l67275 -38888c6222,-3500 15944,-3889 21388,-778l68053 38888c5444,3110 4667,8555 -1556,12443l-67275 38887c-6611,3500 -15944,3889 -21388,778z"/>
      <path class="fil12" d="M3830600 2244755l-68053 -38887c-5444,-3111 -4667,-8555 1556,-12443l67275 -38887c6221,-3500 15943,-4278 21388,-778l68053 38887c5443,3111 4666,8555 -1556,12443l-67275 38887c-6612,3500 -15945,3889 -21388,778z"/>
      <path class="fil12" d="M3935595 2305030l-68053 -38888c-5444,-3110 -4667,-8555 1556,-12443l67275 -38887c6222,-3500 15943,-3889 21388,-778l68053 38887c5444,3111 4667,8556 -1556,12444l-67275 38887c-6612,3501 -15944,3890 -21388,778z"/>
      <path class="fil12" d="M4040590 2365305l-68053 -38887c-5443,-3111 -4667,-8556 1556,-12444l67275 -38887c6222,-3500 15943,-3889 21388,-778l68053 38887c5444,3111 4667,8556 -1556,12444l-67275 38887c-6611,3500 -15944,3889 -21388,778z"/>
      <path class="fil12" d="M4145585 2425580l-68052 -38887c-5444,-3111 -4667,-8556 1555,-12443l67275 -38888c6222,-3499 15944,-3888 21388,-778l68053 38888c5444,3110 4667,8555 -1556,12443l-67275 38887c-6222,3500 -15944,3889 -21388,778z"/>
      <path class="fil12" d="M2705595 1952713l-200269 -114717c-5444,-3111 -4667,-8556 1556,-12444l67275 -38887c6221,-3500 15943,-4278 21388,-778l200269 114717c5443,3111 4666,8556 -1556,12443l-67275 38888c-6222,3500 -15945,3889 -21388,778z"/>
      <path class="fil12" d="M3996258 2692735l-200269 -114717c-5443,-3110 -4667,-8555 1556,-12443l67275 -38887c6222,-3500 15943,-3889 21388,-778l200269 114717c5444,3110 4667,8555 -1556,12443l-67275 38887c-6610,3500 -15943,4278 -21388,778z"/>
      <path class="fil12" d="M3576666 2585795l-68053 -38887c-5443,-3111 -4666,-8556 1556,-12444l80108 -46665c6221,-3499 15943,-3888 21388,-778l68053 38888c5443,3111 4666,8555 -1556,12443l-80108 46665c-6610,3500 -15943,3889 -21388,778z"/>
      <path class="fil12" d="M2813701 2148315l-108884 -62219c-5444,-3111 -4667,-8556 1556,-12444l80107 -46665c6222,-3500 15943,-3889 21388,-778l108884 62220c5444,3110 4667,8555 -1556,12443l-80107 46665c-6611,3500 -15943,3889 -21388,778z"/>
      <path class="fil12" d="M3475171 2527854l-108884 -62220c-5444,-3110 -4667,-8555 1556,-12443l80107 -46665c6222,-3500 15943,-3889 21388,-778l108884 62219c5444,3111 4667,8556 -1556,12444l-80107 46665c-6222,3500 -15943,3889 -21388,778z"/>
      <path class="fil12" d="M2965361 2235033l-108884 -62219c-5444,-3111 -4667,-8556 1556,-12444l80107 -46665c6222,-3499 15943,-3888 21388,-778l108884 62220c5444,3110 4667,8555 -1556,12443l-80107 46665c-6611,3501 -15944,3890 -21388,778z"/>
      <path class="fil12" d="M2959916 2113316l472868 271432c5832,3500 5832,8944 0,12056l-81664 47441c-5832,3500 -15166,3500 -21388,0l-472867 -271431 103051 -59498z"/>
      <path class="fil12" d="M3869875 2694679l75829 43554c4667,2722 3889,7000 -1166,10111l-32666 19055c-5056,3111 -12832,3500 -17499,778l-75830 -43554c-4667,-2722 -3889,-7000 1167,-10111l32666 -19055c5444,-3111 13222,-3500 17499,-778z"/>
      <path class="fil12" d="M3764103 2634015l75829 43554c4667,2722 3889,7000 -1167,10110l-32665 19056c-5056,3110 -12833,3499 -17499,778l-75830 -43555c-4667,-2721 -3889,-6999 1167,-10110l32666 -19055c5054,-3111 12832,-3500 17499,-778z"/>
      <path class="fil12" d="M3659107 2573741l75830 43554c4667,2721 3889,6999 -1167,10110l-32665 19055c-5056,3111 -12833,3500 -17500,778l-75829 -43554c-4667,-2722 -3889,-6999 1167,-10110l32665 -19055c5055,-3112 12833,-3501 17499,-778z"/>
      <path class="fil12" d="M3821655 2600183l75830 43554c4277,2722 3889,7000 -1167,10111l-32666 19055c-5056,3111 -12832,3500 -17499,778l-75830 -43554c-4666,-2722 -3888,-7000 1167,-10111l32666 -19055c5445,-2722 13221,-3111 17499,-778z"/>
      <polygon class="fil11" points="4232692,1417626 3666884,1093308 3673884,1056364 4239692,1381072 "/>
      <polygon class="fil11" points="4030479,1480234 3635386,1253522 3642774,1216968 4037867,1443292 "/>
      <polygon class="fil7" points="3992758,1369406 3651330,1173415 3658330,1136861 4000147,1332463 "/>
      <polygon class="fil4" points="4217137,1497733 4046034,1399738 4053423,1363184 4224137,1461180 "/>
      <polygon class="fil11" points="3605832,772877 3434729,674881 3442117,638328 3612832,736324 "/>
      <polygon class="fil7" points="3587555,858429 3416451,760434 3423840,723490 3594554,821486 "/>
      <polygon class="fil11" points="4427906,2039820 4257191,1941824 4264191,1904882 4435294,2002877 "/>
      <polygon class="fil11" points="3551000,1029143 3379897,931148 3387286,894206 3558000,992201 "/>
      <path class="fil4" d="M3919651 1054420c-5444,12056 -19055,16333 -30721,9722 -11666,-6611 -16332,-21777 -10888,-33443 5443,-12055 19055,-16332 30720,-9721 11278,6610 16333,21776 10889,33442z"/>
      <path class="fil7" d="M3993147 1096807c-5443,12056 -19055,16333 -30720,9722 -11667,-6611 -16333,-21777 -10889,-33443 5444,-12055 19055,-16332 30721,-9721 11277,6610 16333,21387 10888,33442z"/>
      <path class="fil11" d="M4066644 1138805c-5444,12056 -19055,16333 -30721,9722 -11666,-6611 -16332,-21777 -11277,-33442 5444,-12056 19055,-16333 30721,-9333 11666,6221 16722,21387 11277,33053z"/>
      <path class="fil4" d="M4140141 1181193c-5444,12055 -19055,16332 -30721,9721 -11666,-6611 -16332,-21777 -11277,-33442 5443,-12056 19055,-16333 30720,-9722 12056,6610 16722,21387 11278,33443z"/>
      <path class="fil3" d="M3782768 4200000c-14777,0 -29943,-3111 -41220,-9722 -22943,-13221 -22943,-34609 0,-47830l1064730 -619084c11277,-6611 26442,-10111 41220,-10111 14777,0 29942,3111 41220,9722 22943,13221 22943,34609 0,47830l-1065119 619472c-10887,6223 -26054,9723 -40831,9723z"/>
      <path class="fil11" d="M5070321 3188546l0 0c-1167,-1556 -3111,-2722 -5056,-2333l-64553 13999 25666 43165 43554 -49775c1167,-1167 1167,-3112 389,-5056z"/>
      <path class="fil12" d="M5044656 3220433c0,-9332 -6611,-20610 -14778,-25277 -3888,-1943 -6999,-2332 -9721,-1166 -74664,-389 -147771,19443 -211935,57553l-4666 2722 80496 136105 23721 -15944c50165,-33442 92163,-77385 123272,-128716l10111 -16721c2333,-1167 3889,-3889 3500,-8556z"/>
      <path class="fil11" d="M4899995 3354205c-389,-35776 -26055,-78940 -56775,-96439 -31110,-17500 -55998,-2722 -55609,33054 389,35777 26055,78553 57165,96440 30720,17498 55608,2721 55219,-33055z"/>
      <polygon class="fil11" points="4409239,3688245 4884052,3390759 4803556,3254654 4313966,3527641 "/>
      <path class="fil11" d="M4428295 3645469c-389,-41998 -30721,-92940 -67275,-113551 -36555,-20610 -66108,-3111 -65719,38887 389,41999 30720,92940 67275,113939 36553,20222 66108,2723 65719,-39275z"/>
      <path class="fil11" d="M4401074 3661413c-389,-41998 -30721,-92939 -67275,-113551 -36554,-20610 -66108,-3110 -65719,38888 389,41998 30720,92940 67275,113551 36942,20610 66107,3110 65719,-38888z"/>
      <polygon class="fil11" points="3753991,4076339 4382408,3704578 4287134,3543586 3658718,3915346 "/>
      <path class="fil11" d="M3772657 4033175c-389,-41999 -30720,-92940 -67275,-113551 -36554,-20610 -66108,-3111 -65719,38887 389,41998 30721,92940 67275,113939 36943,20222 66497,2723 65719,-39275z"/>
      <path class="fil9" d="M3748936 4019952c-1556,-24888 -21777,-55608 -45498,-69219 -23720,-13221 -41609,-3889 -40054,20999 1556,24888 21777,55609 45498,69219 23722,13223 41609,3889 40054,-20999z"/>
      <path class="fil7" d="M4432960 3642747c-389,-41998 -30720,-92940 -67275,-113551 -14777,-8166 -28387,-10499 -39276,-7388 11667,-12444 31499,-14000 53665,-1556 36554,20610 66886,71553 67275,113551 389,25276 -10111,41609 -26443,46276 7778,-8166 12054,-20999 12054,-37332z"/>
      <path class="fil12" d="M4432960 3642747c-389,-41998 -30720,-92940 -67275,-113939 -18277,-10499 -34998,-11277 -46664,-4277l-35777 20999 17110 28776c3111,38499 29166,82053 61054,103052l17110 28776 35776 -20999c11667,-6611 19055,-21389 18666,-42388z"/>
      <path class="fil11" d="M4397185 3663746c-389,-41998 -30721,-92940 -67275,-113939 -36554,-20610 -66108,-3110 -65719,38888 389,41998 30721,92939 67275,113551 36942,20998 66496,3498 65719,-38500z"/>
      <path class="fil4" d="M3719382 4038618l-41220 -69219 -132994 78941c-19055,11277 -25666,36165 -14000,55219 11278,19055 36166,25666 55220,14000l132994 -78941z"/>
      <path class="fil4" d="M3727548 4019952c0,-18277 -13221,-40054 -29165,-48998 -15944,-8943 -28388,-1556 -28388,16722 0,18277 13221,40054 29166,48997 15944,8945 28776,1556 28387,-16721z"/>
      <path class="fil12" d="M3875320 3774186l-19832 -11277c-11667,-6611 -26832,-4667 -42776,4667l-68441 40442c-12833,7777 -23332,26055 -23332,41220l389 34220c0,5833 -2722,12444 -7000,17111l2722 15943 -17110 -9722 0 0c-2333,-1167 -3889,-4278 -4278,-8166l-389 -34221c-389,-31109 21388,-69608 48220,-85552l68441 -40442c22943,-13611 44331,-15943 60664,-6611l20221 11278c11666,6610 26832,4666 42776,-4667l275709 -163326c3500,-1944 6611,-2333 8944,-778l0 0 17110 9722 -14388 5833c-1944,6221 -6222,12055 -11278,15166l-275709 163326c-22943,12834 -44331,15167 -60663,5834z"/>
      <path class="fil12" d="M3872598 3772630c-11667,-6610 -26832,-4666 -42776,4667l-68442 40831c-12833,7778 -23332,26055 -23332,41220l389 34221c0,8166 -5444,18277 -12444,22166 -6999,4278 -12832,778 -12832,-7389l-389 -34220c-389,-31110 21388,-69608 48220,-85552l68441 -40443c22943,-13610 44331,-15943 60664,-6610l19832 11277c11667,6611 26832,4667 42776,-4667l275710 -163325c6999,-4278 12832,-778 12832,7388 0,8167 -5444,18278 -12443,22166l-275710 163326c-22943,13610 -44331,15943 -61053,6611l-19443 -11667z"/>
      <path class="fil7" d="M3737270 3864793l389 34221 0 778c778,-2333 778,-4278 778,-6222l-389 -34221 389 -3110c-778,2720 -1167,5832 -1167,8554z"/>
      <path class="fil3" d="M2326056 4114060c-23332,0 -45498,-4667 -61830,-13999l-386927 -222046c-27610,-15944 -31887,-40832 -13999,-62998l-107718 -62219c-75053,39665 -169937,59498 -265210,59887 -100718,388 -201435,-21389 -278432,-65720 -149715,-85940 -154382,-224378 -13610,-314207 2722,2333 5444,4666 8167,6999 3499,8556 7777,17111 13221,25277 -87496,73886 -74275,175381 39665,240711 64164,36943 148160,55220 232157,54831 83996,-389 167992,-19055 231767,-55998 94107,-54830 118606,-134550 73886,-201823 12832,-10889 23332,-22555 31887,-34610 82053,78941 73108,180825 -26442,255489l106551 61830c18277,-6611 38498,-10111 58330,-10111 23332,0 45109,4667 61830,14000l386927 222046c36554,20999 32276,57941 -10111,82440 -22556,13221 -52110,20221 -80109,20221z"/>
      <path class="fil5" d="M1862133 3409814l-54831 -71164 -166048 -76608 -142716 -12055 -167214 20999 -115884 60275 -73885 47442 -13611 -76996 24888 -88663c0,0 63386,-41998 67275,-45887 3889,-3889 148160,-55998 148160,-55998l144272 -10110 115883 14388 118217 34609 78164 54442 58719 73886 7000 92552 -28389 38888z"/>
      <polygon class="fil5" points="1088279,3320762 1088668,3470866 1128722,3405536 "/>
      <path class="fil5" d="M1751694 3326596c-139994,-80108 -366317,-79719 -505921,1555 -43942,25666 -73886,55998 -90218,88274 -12444,-10888 -28388,-19443 -34999,-34220 19833,-27221 48998,-52887 87497,-75053 160214,-92939 419980,-93717 580584,-1556 34999,20222 62608,43166 82440,67664 -6610,15167 -16332,29555 -29165,41998 -15944,-33054 -46276,-63387 -90218,-88662z"/>
      <path class="fil13" d="M1499316 3526086c-91385,389 -183158,-19443 -253155,-59886 -14778,-8555 -27999,-17499 -39276,-26832 0,0 0,0 0,0 0,0 0,0 389,389 6221,-4277 12443,-8555 19443,-12443 69608,-40442 160992,-61053 252766,-61053 91385,-389 183159,19443 253156,59886 14777,8556 27610,17499 39276,26832 25666,-17499 45498,-36943 59497,-57165l0 0c-17499,25277 -43554,48998 -78940,69219 -69998,40442 -161383,60664 -253156,61053zm-300597 -93329c-12832,-11278 -23332,-22943 -31888,-35388 0,0 0,0 0,0 8555,12445 19444,24110 31888,35388l0 0z"/>
      <path class="fil14" d="M1206885 3439756c-2722,-2333 -5444,-4666 -8167,-6999l1 0c2722,2334 5444,4666 8166,6999 0,0 0,0 0,0z"/>
      <path class="fil15" d="M1771526 3452590c-11666,-9333 -24499,-18277 -39276,-26832 -69997,-40054 -161382,-59886 -253156,-59886 -91385,389 -183158,20610 -252766,61053 -7000,3889 -13222,8167 -19443,12443 0,0 0,0 -389,-389 -1167,-3110 -2333,-6610 -3500,-9721 -1556,778 -3111,1944 -4667,3111 -12832,-11278 -23332,-22943 -31888,-35388 17500,-25277 43554,-48997 78941,-69219 69608,-40442 161382,-61053 252766,-61053 91385,-389 183159,19443 253156,59887 35387,20221 61830,43554 79329,68829 -13609,20610 -33441,39666 -59107,57165z"/>
      <path class="fil16" d="M1206885 3439756c-2722,-2333 -5444,-4666 -8167,-6999 1556,-1167 3111,-1944 4667,-3111 1167,3500 2334,6611 3500,10110z"/>
      <path class="fil17" d="M1145832 3353427c-389,-1944 -1167,-3889 -1556,-5832 9722,-43554 43554,-85553 101107,-119384 69608,-40442 161382,-61053 252766,-61053 91385,-389 183159,19443 253156,59886 57941,33442 91774,75053 101884,118606 -389,1944 -778,3888 -1556,5832 -17110,-16721 -38109,-32276 -62997,-46276 -80496,-45886 -185491,-68829 -290487,-68440 -104995,389 -209990,23720 -290097,70385 -24499,14000 -45109,29555 -62220,46276z"/>
      <path class="fil17" d="M1167220 3397369c-10110,-14388 -17110,-29165 -21388,-43942 17111,-16721 37721,-32276 62608,-46665 80108,-46664 185103,-69996 290098,-70385 104996,-389 210380,22555 290487,68440 24888,14389 45887,29943 62997,46276 -4277,15167 -11277,29943 -20999,44331l0 0c-17499,-25276 -43942,-48608 -79329,-68829 -69997,-40055 -161382,-59887 -253156,-59887 -91385,389 -183158,20610 -252766,61053 -34999,21000 -61441,44720 -78552,69608 0,0 0,0 0,0z"/>
      <path class="fil5" d="M1120944 3381815c2722,6222 7389,11277 12444,16332l0 -1556 36942 22166 45498 41998 62997 27610 87107 31110 77386 17888 106551 4278 68830 -7389 136494 -36165 88663 -78941c-778,-1556 -1167,-3111 -1944,-4666 12832,-12056 22943,-26832 29165,-41999 2333,3111 4667,5833 7000,8944l31110 -64941 389 155549 0 0c389,60664 -39665,121716 -119773,167992 -160215,92940 -419981,93718 -580585,1556 -121717,-69609 -151271,-173048 -88274,-259766z"/>
      <path class="fil4" d="M1812357 3447534l31888 -28388c-778,-1556 -1167,-3111 -1944,-4666 12832,-12056 22943,-26832 29165,-41999 2333,3111 4667,5833 7000,8944l31110 -64941 389 155549 0 0c389,54441 -31888,109273 -96829,153604l-779 -178103z"/>
      <path class="fil4" d="M1245383 3174546c139604,-80885 365927,-81663 505921,-1556 139994,80108 140383,210769 778,292043 -139605,80886 -365928,81664 -505921,1556 -139605,-80496 -139994,-211157 -778,-292043zm-36554 313430c160604,92163 420759,91385 580585,-1556 160215,-92940 159826,-243045 -778,-335207 -160604,-92162 -420759,-91384 -580584,1556 -160215,93330 -159826,243434 777,335207z"/>
      <polygon class="fil11" points="2058513,3655581 1830634,3523753 1800692,3572750 2029736,3705355 "/>
      <path class="fil18" d="M2023904 3692134c0,12832 9332,18277 20610,11666 11277,-6610 20221,-22555 20221,-35387 0,-12832 -9333,-18277 -20610,-11666 -11278,6610 -20610,22555 -20221,35387z"/>
      <path class="fil18" d="M2023904 3692134c0,12832 9332,18277 20610,11666 11277,-6610 20221,-22555 20221,-35387 0,-12832 -9333,-18277 -20610,-11666 -11278,6610 -20610,22555 -20221,35387z"/>
      <path class="fil11" d="M1795636 3560307c0,12832 9332,18277 20610,11666 11277,-6610 20221,-22555 20221,-35387 0,-12832 -9333,-18277 -20610,-11666 -10889,6610 -20221,22554 -20221,35387z"/>
      <path class="fil12" d="M1911909 3702245c0,-55998 38887,-124051 87496,-152438 24888,-14388 47054,-15555 62997,-5443l0 0 481811 278042 -125216 214268 -476757 -275709c-3111,-1556 -6221,-3111 -9332,-5444l-389 -389 0 0c-12833,-9722 -20610,-28000 -20610,-52887z"/>
      <path class="fil11" d="M2509604 3881903l-539365 -309153c8944,-8943 18666,-16721 28777,-22555 24888,-14388 47054,-15555 62997,-5443l0 0 482200 277654 -34609 59497z"/>
      <path class="fil11" d="M2394109 3980677c0,55997 39665,78552 87885,50554 48220,-27999 87496,-96440 87496,-152437 0,-55998 -39665,-78553 -87885,-50554 -48609,28387 -87885,96439 -87496,152437z"/>
      <path class="fil12" d="M2465273 3954233c0,31499 25665,57165 57164,57165 31499,0 57164,-25666 57164,-57165 0,-31498 -25665,-57164 -57164,-57164 -31889,1 -57164,25666 -57164,57164z"/>
      <path class="fil7" d="M2532935 3933234c0,9333 7778,16721 17111,16721 9332,0 16721,-7777 16721,-17110 0,-9332 -7778,-16721 -17110,-16721 -9333,0 -16722,7777 -16722,17110z"/>
      <path class="fil7" d="M2474994 3824739c26055,-15166 48998,-15555 65330,-4278 -15555,-7389 -36165,-5444 -58719,7778 -48220,27999 -87496,96439 -87496,152437 0,26055 8555,44720 22555,54441 -17888,-8166 -29166,-28387 -29166,-58330 0,-55996 38887,-124049 87496,-152048z"/>
      <path class="fil7" d="M1245383 3174546c139604,-80885 365927,-81663 505921,-1556 72719,41610 107717,97218 104995,152438 -3111,-50554 -37720,-100718 -104995,-139216 -139994,-80108 -366317,-79719 -505921,1556 -66886,38887 -101496,89052 -104217,139604 -2722,-55219 31887,-110828 104217,-152826z"/>
      <path class="fil7" d="M1208829 3487976c160604,92163 420759,91385 580585,-1556 77386,-44719 117050,-103050 119773,-161380 3111,62997 -36555,126383 -119384,174603 -160215,92939 -419981,93717 -580585,1556 -83218,-47831 -123272,-110828 -120550,-173826 2722,58331 42776,116272 120161,160603z"/>
      <path class="fil4" d="M2574157 3172213c0,0 -43165,-21777 -69608,10889 -26443,32277 -64164,108884 -64941,160604 -1167,51719 40831,48220 66108,35776 24888,-12443 97606,-118606 101884,-139216 4278,-20610 -5444,-48997 -12443,-54441 -7001,-5057 -21000,-13612 -21000,-13612z"/>
      <path class="fil11" d="M2583489 3161714l1944 44720c389,9333 -4278,18666 -12443,23332 -7389,4278 -18277,7778 -33443,5444 -32665,-5056 -35387,-14389 -37720,-59109 -2334,-44720 81662,-14387 81662,-14387z"/>
      <path class="fil4" d="M2416275 3086661c0,0 -43165,-21777 -69608,10889 -26443,32276 -64164,108884 -64941,160604 -1167,51719 40831,48219 66108,35776 24888,-12443 97606,-118606 101884,-139216 4278,-20610 -5443,-48998 -12443,-54441 -7390,-5056 -21000,-13612 -21000,-13612z"/>
      <path class="fil11" d="M2425607 3076551l1944 44720c389,9332 -4278,18666 -12443,23332 -7389,4278 -18277,7777 -33443,5443 -32665,-5055 -35387,-14388 -37720,-59108 -2334,-45108 81662,-14387 81662,-14387z"/>
      <path class="fil8" d="M2807868 2254866c-13221,-207658 -224768,31110 -224768,31110l-144660 142715 -130272 143883c-25277,27998 -37332,66108 -32277,103828l54054 402482c2722,19832 19832,34609 39665,34220 5833,0 12055,-778 19443,-1944 47054,-7388 43554,-52497 43554,-52497l-10888 -376816 274154 -166437c389,777 125605,-52887 111995,-260544z"/>
      <path class="fil8" d="M2966139 2333417c-13222,-207657 -224768,31110 -224768,31110l-144660 142716 -130272 143882c-25277,27999 -37332,66108 -32277,103828l53665 402872c2721,19832 19832,34610 39665,34221 5832,0 12055,-778 19443,-1944 47054,-7389 43554,-52498 43554,-52498l-10500 -365927 273766 -177325c389,777 125605,-53277 112384,-260935z"/>
      <path class="fil4" d="M2838589 1667282c160992,66108 158270,161381 158270,161381 0,0 -30331,348817 -19055,581363 4667,97218 -516809,106162 -439813,-153604 90996,-306430 55609,-554142 98385,-591862 42776,-37333 160604,-14389 202213,2722z"/>
      <path class="fil19" d="M2890697 1751278c-8166,32665 -50941,50165 -95273,38887 -44331,-11277 -73497,-47054 -65330,-79718 8166,-32666 50941,-50165 95273,-38888 44331,11277 73497,47053 65330,79719z"/>
      <path class="fil7" d="M2826533 1790553l-29554 32277c-3889,4277 -5833,9721 -5056,15555l20999 175770c389,5056 -778,9721 -3889,13999l-63386 83607c-2722,3889 -8556,2722 -10111,-1555l-34998 -108885c-1167,-4277 -1167,-8555 389,-12832l60664 -159826c1167,-3500 1556,-7388 778,-10888l-8943 -42387 73107 15165z"/>
      <path class="fil7" d="M2797757 1675836c-29942,0 -54830,14000 -60664,36555 -3500,13221 778,27998 11278,41220 11277,13610 28387,24110 48220,29165 19832,5056 40054,4278 56386,-2722 15555,-6221 26055,-17110 29555,-30720 7388,-28388 -19443,-59886 -59887,-70386 -7777,-1945 -16722,-3112 -24888,-3112zm24888 125217c-9721,0 -19443,-1167 -29554,-3889 -22943,-5833 -43165,-17888 -56387,-34221 -13999,-17110 -19055,-36554 -14388,-54441 9332,-36555 56386,-56776 104995,-44331 48609,12443 80108,52108 70775,89052 -4667,18277 -18277,32665 -38887,41220 -11278,4277 -23721,6610 -36554,6610z"/>
      <path class="fil19" d="M2774036 1659893c0,0 1556,6611 -1167,57553 -778,15944 55219,30721 69607,16333 14389,-14389 8556,-29555 12056,-83997 3500,-54831 -80496,10111 -80496,10111z"/>
      <path class="fil20" d="M2854532 1649782c0,0 -13610,50554 -81663,70386l778 -45887 80885 -24499z"/>
      <path class="fil19" d="M2897308 1521065c17499,66108 -22166,133772 -88274,151271 -66108,17500 -133772,-22166 -151271,-88274 -17499,-66108 22166,-133772 88274,-151271 66497,-17498 134161,22166 151271,88274z"/>
      <path class="fil20" d="M2805923 1556842c0,0 -68053,29554 -115495,29942 -47054,389 -36942,-39276 -36942,-39276l139994 -20610 12443 29944z"/>
      <path class="fil11" d="M2676818 1565008c0,0 59497,-25277 111606,-15166 12443,2333 23721,8943 31498,18666 2722,3111 5833,6222 9722,7000 9333,1944 24110,-36166 42387,-37332 17888,-778 29943,11667 15166,35388 -14777,23721 -9721,50165 -2721,53664 6610,3889 90606,-54830 26831,-180435 -63775,-125217 -236433,-53665 -261710,-28388 0,0 -26443,22943 -47831,2722 -389,-1 -24110,180435 75052,143881z"/>
      <path class="fil19" d="M2907419 2083374l389 94106c0,10889 -4667,21000 -12444,28388l-192880 176936 22166 33443 265988 -175770c12055,-8556 19443,-22166 20999,-36555l17888 -174992 -122106 54444z"/>
      <path class="fil4" d="M2982860 1781220c0,0 59108,88274 81663,320430 0,0 -100328,32665 -157103,14388 -57165,-17887 75440,-334818 75440,-334818z"/>
      <path class="fil5" d="M2896142 1893215c0,0 -22555,123273 -23721,180825 -389,15943 9333,30332 24499,35388l-778 -216213z"/>
      <path class="fil12" d="M2847532 2504910l-42776 -5444 -276487 -158660c-8944,-5056 -24499,-4278 -34610,1556l-195213 113551 -26055 -3500 0 25666 1 -1c0,3500 1944,6611 5833,8943l313430 179659c8943,5056 24499,4278 34609,-1556l212713 -123661c5832,-3500 8555,-7778 8555,-11666l0 -24887z"/>
      <path class="fil9" d="M2639876 2404970l-19832 -11277 -215824 778 -106162 61830 -26055 -3500 0 25666 0 0c0,3500 1944,6611 5833,8943l313430 179659c4667,2722 11277,3889 17888,3111l30722 -265210z"/>
      <path class="fil12" d="M2284058 2453968l-11667 -1556 0 25666 1 0c0,3500 1944,6611 5833,8943l5444 3111 389 -36164z"/>
      <path class="fil12" d="M2595156 2668625c8555,3111 20221,2333 29165,-1944l0 -43942 -29165 0 0 45886z"/>
      <path class="fil7" d="M2592044 2641404l-313430 -179658c-8944,-5056 -7778,-14000 2333,-19832l212712 -123662c10111,-5833 25666,-6611 34610,-1556l313430 179659c8943,5056 7777,13999 -2333,19832l-212713 123662c-10498,5832 -26054,6610 -34609,1555z"/>
      <path class="fil11" d="M2586600 2614183l-260544 -149327c-7389,-4277 -6611,-11666 1944,-16721l113939 -64553c8555,-5056 21388,-5444 28776,-1167l260545 149326c7388,4278 6610,11667 -1944,16722l-113939 64553c-8556,4667 -21388,5445 -28777,1167z"/>
      <path class="fil19" d="M2505715 2312029l-3111 21777c-2722,18278 -2333,37332 1556,55220l3889 19055c2333,10889 10888,19055 21388,20999 8555,1556 16332,-4278 17110,-12832l5056 -46276c0,0 12055,15555 17499,15555 5833,0 -6611,-46276 -19443,-72330 -12835,-26054 -43944,-1168 -43944,-1168z"/>
      <path class="fil19" d="M2610710 1968657l-33443 66497c-7777,15555 -12443,33054 -13610,50554l-13999 227489 -44331 -778 -20610 -255099c-778,-7778 -389,-15943 1167,-23721l22555 -129494 102271 64552z"/>
      <path class="fil8" d="M2581544 2658903l-26443 -34221 -276487 -159048c-8944,-5055 -15943,-18666 -15943,-30720l-389 -225934 -15944 -20610 14778 -8556 0 0c2722,-1944 6611,-1944 10888,778l313042 180048c8944,5056 15943,18666 15943,30721l389 246156c0,6610 -2332,11277 -5832,13221l-14002 8165z"/>
      <path class="fil9" d="M2390220 2529798l-19443 -11278 -108106 -186658 -389 -122884 -15944 -20610 14778 -8556 0 0c2722,-1944 6611,-1944 10888,778l313042 180048c4667,2722 8944,7778 11667,13611l-206493 155549z"/>
      <path class="fil12" d="M2253337 2197702l-7000 -9333 14778 -8556 0 0c2722,-1944 6611,-1944 10888,778l5444 3111 -24110 14000z"/>
      <path class="fil10" d="M2588156 2362583c7000,5833 12443,16332 13221,26443l-30331 17888 -14778 -25277 31888 -19054z"/>
      <path class="fil12" d="M2570268 2369194l-313042 -180048c-8944,-5056 -15943,389 -15943,12055l389 246156c0,11667 7388,25666 15943,30721l313042 180048c8943,5056 15943,-389 15943,-12056l-389 -246156c0,-11665 -7000,-25664 -15943,-30720z"/>
      <path class="fil19" d="M2724261 2416637l-5056 10499c-5833,12056 -14777,22166 -26055,29166l-31109 19055c-9722,5833 -21777,6611 -31888,778l-1167 -778c-9721,-6222 -10888,-20221 -2722,-28777l32277 -33442c0,0 -18277,13999 -23332,8555 -3889,-4277 17499,-24109 34220,-24887 16333,-778 32277,-13611 32277,-13611l22555 33442z"/>
      <path class="fil4" d="M2639876 1664171c0,0 -118606,129883 -166437,248877 0,0 40831,73108 140383,101496 99939,28387 26054,-350373 26054,-350373z"/>
      <path class="fil5" d="M2591656 2006766l18666 -186269 -45110 174603c8167,4278 17110,8166 26444,11666z"/>
      <path class="fil7" d="M2728538 1637727l-31888 -8556c0,0 15166,24110 37720,29943 22166,6222 25666,-12832 25666,-12832l-31498 -8555z"/>
      <path class="fil7" d="M2899253 1586007c0,9722 -7778,17888 -17888,17888 -9722,0 -17888,-7777 -17888,-17888 0,-9721 7777,-17888 17888,-17888 10110,0 17888,8167 17888,17888z"/>
      <path class="fil3" d="M977062 2833506c-66886,0 -133383,-14389 -184325,-43554 -101884,-58331 -102273,-153604 -778,-212713 50942,-29554 117439,-44331 184325,-44720 66886,-389 133383,14389 184325,43554 101884,58331 102273,153605 778,212713 -50942,29555 -117828,44332 -184325,44720z"/>
      <path class="fil4" d="M1272604 2553518l-389 -83218 -15556 0c-13999,-24110 -37720,-47054 -71163,-66497 -115884,-66497 -303709,-66108 -419592,1167 -33443,19443 -56776,42387 -70775,66886l-15556 0 389 82829 2 0c0,43942 28777,87885 87107,121328 115884,66497 303709,66108 419592,-1167 57554,-33831 86330,-77773 85941,-121328z"/>
      <path class="fil4" d="M1185886 2591629c-115495,67275 -303320,67664 -419592,1167 -115884,-66497 -116273,-174992 -778,-242267 115494,-67275 303319,-67664 419592,-1167 116272,66497 116661,174992 778,242267z"/>
      <path class="fil7" d="M1185886 2591629c-115495,67275 -303320,67664 -419592,1167 -55609,-31888 -84386,-73497 -86719,-115495 -2332,45498 26443,91774 86719,126383 115883,66497 303708,66108 419592,-1167 60275,-34998 88663,-81274 85940,-126772 -1944,41998 -30332,83607 -85940,115884z"/>
      <path class="fil7" d="M833179 2528243c-5055,-2722 -7777,-6611 -7777,-10889l0 -111606c0,-8555 12055,-15555 26832,-15555 14777,0 26831,7000 26831,15166l0 92552 268321 -33831c14389,-1944 28777,3499 31888,11666 3111,8167 -6222,16332 -20610,18277l-300598 37720c-7777,1167 -15943,0 -22555,-3110l-2332 -390z"/>
      <path class="fil5" d="M2906642 806710l-443313 -254322c-8944,-5056 -17500,-5056 -25277,-1944l0 -389 -52887 24888c0,0 19832,7000 31499,10889l-62997 322374c-5056,26055 6610,56775 26442,68053l423870 243045 -7388 37720 53275 -25277 -389 0c8944,-4667 16332,-14388 19055,-28387l64164 -329375c5444,-25666 -6222,-55999 -26054,-67275z"/>
      <path class="fil4" d="M2770148 1256244l-443313 -254321c-19832,-11278 -31499,-41609 -26443,-68053l64164 -329374c5056,-26055 25277,-38499 45109,-27221l443313 254321c19832,11278 31499,41610 26443,68053l-64164 329374c-5445,26443 -25277,38499 -45109,27221z"/>
      <path class="fil7" d="M2863088 828097l-443313 -254322c-10500,-5833 -20610,-5444 -29166,389 5833,-1167 12443,0 19055,3500l443313 254321c19832,11278 31499,41609 26443,68053l-64163 328985c-2333,12444 -8167,21777 -15944,26832 12444,-1944 22555,-13221 26055,-30720l64164 -329375c5054,-26053 -7001,-56386 -26444,-67663z"/>
      <path class="fil7" d="M2514659 887983c-3888,19055 -20221,26832 -36554,17499 -16721,-9333 -26832,-32665 -23332,-51720 3889,-19055 20221,-26831 36554,-17499 16721,9722 27220,32666 23332,51720z"/>
      <path class="fil7" d="M2605266 940091c-3889,19056 -20221,26832 -36554,17500 -16332,-9333 -26832,-32666 -23332,-51720 3889,-19055 20221,-26832 36554,-17499 16722,9333 27221,32665 23332,51719z"/>
      <path class="fil7" d="M2695873 992201c-3889,19055 -20221,26832 -36554,17499 -16332,-9332 -26832,-32665 -23332,-51719 3889,-19055 20221,-26832 36554,-17500 16721,9333 27221,32665 23332,51720z"/>
      <path class="fil12" d="M4631674 258400l-443312 -254321c-8944,-5056 -17500,-5056 -25277,-1944l0 -389 -52887 24888c0,0 19832,6999 31499,10888l-62998 322375c-5055,26443 6611,56775 26443,68053l423870 243045 -7389 37720 53276 -25277 -389 0c8944,-4667 16332,-14388 19055,-28388l64164 -329374c5444,-25278 -6611,-55998 -26055,-67276z"/>
      <path class="fil11" d="M4495181 708325l-443313 -254322c-19832,-11277 -31499,-41609 -26443,-68052l64164 -329375c5056,-26054 25277,-38498 45109,-27220l443313 254321c19832,11278 31498,41609 26443,68053l-64164 329374c-5445,26054 -25666,38497 -45109,27221z"/>
      <path class="fil7" d="M4587731 279788l-443313 -254321c-10499,-5833 -20610,-5444 -29165,389 5833,-1167 12443,0 19055,3500l443313 254321c19832,11278 31498,41609 26443,68053l-64164 329374c-2333,12444 -8167,21777 -15944,26832 12444,-1944 22555,-13221 26055,-30721l64164 -329374c5055,-26055 -6610,-56775 -26444,-68053z"/>
      <path class="fil7" d="M4239692 340064c-3889,19055 -20221,26831 -36554,17499 -16332,-9333 -26832,-32666 -23332,-51720 3889,-19055 20221,-26832 36554,-17499 16721,9333 26832,32664 23332,51720z"/>
      <path class="fil7" d="M4330299 391783c-3889,19055 -20221,26832 -36554,17499 -16333,-9332 -26832,-32665 -23332,-51719 3889,-19055 20221,-26832 36554,-17499 16721,9721 26832,32665 23332,51719z"/>
      <path class="fil7" d="M4420906 443892c-3889,19055 -20221,26832 -36554,17499 -16333,-9332 -26832,-32665 -23332,-51720 3889,-19055 20221,-26831 36554,-17499 16721,9722 27221,32666 23332,51720z"/>
     </g>
    </g>
   </g>
   <rect class="fil21" width="5749999" height="4200000"/>
  </g>
 </g>
</svg>
