<?xml version="1.0" encoding="UTF-8"?>
<!DOCTYPE svg PUBLIC "-//W3C//DTD SVG 1.1//EN" "http://www.w3.org/Graphics/SVG/1.1/DTD/svg11.dtd">
<!-- Creator: CorelDRAW X8 -->
<svg xmlns="http://www.w3.org/2000/svg" xml:space="preserve" width="100%" height="100%" version="1.1" style="shape-rendering:geometricPrecision; text-rendering:geometricPrecision; image-rendering:optimizeQuality; fill-rule:evenodd; clip-rule:evenodd"
viewBox="0 0 150756 199101"
 xmlns:xlink="http://www.w3.org/1999/xlink">
 <defs>
  <style type="text/css">
   <![CDATA[
    .fil2 {fill:#FEFEFE;fill-rule:nonzero}
    .fil5 {fill:#F6936B;fill-rule:nonzero}
    .fil1 {fill:#F26839;fill-rule:nonzero}
    .fil4 {fill:#F1F5F7;fill-rule:nonzero}
    .fil0 {fill:#EEF2F4;fill-rule:nonzero}
    .fil6 {fill:#009ECC;fill-rule:nonzero}
    .fil3 {fill:#00AFEF;fill-rule:nonzero}
   ]]>
  </style>
 </defs>
 <g id="Layer_x0020_1">
  <metadata id="CorelCorpID_0Corel-Layer"/>
  <g id="_1816451851024">
   <path class="fil0" d="M147133 151253c0,-27749 -15766,-51805 -38813,-63739 -1778,-921 -3259,-3207 -3259,-5207l0 -74151 -59359 0 0 74151c0,2000 -1481,4286 -3259,5207 -23054,11934 -38820,35990 -38820,63739 0,15389 4858,29634 13106,41314 1157,1637 3788,2907 5789,2907l105720 0c2000,0 4639,-1270 5789,-2907 8248,-11680 13106,-25925 13106,-41314z"/>
   <path class="fil1" d="M134027 192567c8248,-11680 13106,-25925 13106,-41314 0,-11260 -2632,-21893 -7257,-31372l-128989 0c-4632,9479 -7264,20112 -7264,31372 0,15389 4858,29634 13106,41314 1157,1637 3788,2907 5789,2907l105720 0c2000,0 4639,-1270 5789,-2907z"/>
   <path class="fil2" d="M50285 139354c-5486,0 -9952,4466 -9952,9945 0,5486 4466,9948 9952,9948 5482,0 9948,-4462 9948,-9948 0,-5479 -4466,-9945 -9948,-9945zm0 23516c-7483,0 -13568,-6089 -13568,-13571 0,-7479 6085,-13568 13568,-13568 7482,0 13571,6089 13571,13568 0,7482 -6089,13571 -13571,13571z"/>
   <path class="fil1" d="M87429 91867c-5486,0 -9949,4462 -9949,9945 0,5485 4463,9948 9949,9948 5485,0 9948,-4463 9948,-9948 0,-5483 -4463,-9945 -9948,-9945zm0 23516c-7483,0 -13568,-6085 -13568,-13571 0,-7479 6085,-13568 13568,-13568 7482,0 13575,6089 13575,13568 0,7486 -6093,13571 -13575,13571z"/>
   <path class="fil2" d="M95864 155762c-3655,0 -6622,2967 -6622,6618 0,3651 2967,6618 6622,6618 3651,0 6614,-2967 6614,-6618 0,-3651 -2963,-6618 -6614,-6618zm0 16859c-5652,0 -10248,-4593 -10248,-10241 0,-5648 4596,-10245 10248,-10245 5641,0 10237,4597 10237,10245 0,5648 -4596,10241 -10237,10241z"/>
   <path class="fil1" d="M67239 60685c-3651,0 -6614,2970 -6614,6621 0,3652 2963,6619 6614,6619 3652,0 6622,-2967 6622,-6619 0,-3651 -2970,-6621 -6622,-6621zm0 16866c-5648,0 -10237,-4597 -10237,-10245 0,-5648 4589,-10241 10237,-10241 5652,0 10241,4593 10241,10241 0,5648 -4589,10245 -10241,10245z"/>
   <path class="fil3" d="M131071 190475c-455,646 -1965,1376 -2833,1376l-105720 0c-865,0 -2371,-730 -2826,-1372 -8139,-11525 -12443,-25093 -12443,-39226 0,-25562 14122,-48750 36862,-60522 3016,-1563 5214,-5108 5214,-8424l0 -65998 52113 0 0 65998c0,3316 2190,6861 5214,8424 22733,11772 36858,34960 36858,60522 0,14133 -4300,27701 -12439,39222zm-21089 -106179c-656,-342 -1298,-1429 -1298,-1989l0 -66884c2674,-1340 4529,-4074 4529,-7267 0,-4505 -3654,-8156 -8152,-8156l-59359 0c-4505,0 -8152,3651 -8152,8156 0,3193 1855,5927 4526,7267l0 66884c0,560 -639,1647 -1302,1989 -25150,13018 -40774,38675 -40774,66957 0,15639 4766,30650 13772,43406 1821,2572 5500,4442 8746,4442l105720 0c3253,0 6932,-1870 8753,-4442 9006,-12756 13765,-27767 13765,-43406 0,-28282 -15628,-53939 -40774,-66957z"/>
   <path class="fil4" d="M33972 119881l-19103 0c6354,-12263 16433,-22518 29242,-29150 3016,-1563 5214,-5108 5214,-8424l0 -65998 24053 0 0 42802c-1711,-1284 -3839,-2046 -6139,-2046 -5648,0 -10237,4593 -10237,10241 0,5648 4589,10245 10237,10245 2300,0 4428,-762 6139,-2046l0 6167c0,698 -798,2046 -1620,2469 -16072,8318 -29012,20800 -37786,35740z"/>
   <path class="fil5" d="M24469 191851l-1951 0c-865,0 -2371,-730 -2826,-1372 -8139,-11525 -12443,-25093 -12443,-39226 0,-11161 2692,-21868 7620,-31372l19103 0c-8269,14079 -12834,30349 -12834,47381 0,8404 1147,16648 3331,24589z"/>
   <path class="fil4" d="M67239 73925c-3651,0 -6614,-2967 -6614,-6619 0,-3651 2963,-6621 6614,-6621 2773,0 5151,1711 6139,4131l0 4981c-988,2420 -3366,4128 -6139,4128z"/>
   <path class="fil5" d="M67239 77551c-5648,0 -10237,-4597 -10237,-10245 0,-5648 4589,-10241 10237,-10241 2300,0 4428,762 6139,2046l0 5705c-988,-2420 -3366,-4131 -6139,-4131 -3651,0 -6614,2970 -6614,6621 0,3652 2963,6619 6614,6619 2773,0 5151,-1708 6139,-4128l0 5708c-1711,1284 -3839,2046 -6139,2046z"/>
   <path class="fil6" d="M26776 199101l-4258 0c-3246,0 -6925,-1870 -8746,-4442 -9006,-12756 -13772,-27767 -13772,-43406 0,-28282 15624,-53939 40774,-66957 663,-342 1302,-1429 1302,-1989l0 -66884c-2671,-1340 -4526,-4074 -4526,-7267 0,-4505 3647,-8156 8152,-8156l27676 0 0 16309 -24053 0 0 65998c0,3316 -2198,6861 -5214,8424 -12809,6632 -22888,16887 -29242,29150 -4928,9504 -7620,20211 -7620,31372 0,14133 4304,27701 12443,39226 455,642 1961,1372 2826,1372l1951 0c670,2448 1439,4865 2307,7250z"/>
  </g>
 </g>
</svg>
