<?xml version="1.0" encoding="UTF-8"?>
<!DOCTYPE svg PUBLIC "-//W3C//DTD SVG 1.1//EN" "http://www.w3.org/Graphics/SVG/1.1/DTD/svg11.dtd">
<!-- Creator: CorelDRAW X8 -->
<svg xmlns="http://www.w3.org/2000/svg" xml:space="preserve" width="100%" height="100%" version="1.1" style="shape-rendering:geometricPrecision; text-rendering:geometricPrecision; image-rendering:optimizeQuality; fill-rule:evenodd; clip-rule:evenodd"
viewBox="0 0 5750000 4200000"
 xmlns:xlink="http://www.w3.org/1999/xlink">
 <defs>
  <style type="text/css">
   <![CDATA[
    .fil16 {fill:none}
    .fil1 {fill:#F7CAB2}
    .fil6 {fill:#33AAFC;fill-rule:nonzero}
    .fil9 {fill:#34363F;fill-rule:nonzero}
    .fil3 {fill:#35497D;fill-rule:nonzero}
    .fil10 {fill:#3C434D;fill-rule:nonzero}
    .fil0 {fill:#5CC6D0;fill-rule:nonzero}
    .fil15 {fill:#6A4F8A;fill-rule:nonzero}
    .fil8 {fill:#765896;fill-rule:nonzero}
    .fil4 {fill:#CECACA;fill-rule:nonzero}
    .fil14 {fill:#EE4698;fill-rule:nonzero}
    .fil5 {fill:#EEEAE9;fill-rule:nonzero}
    .fil7 {fill:#F27064;fill-rule:nonzero}
    .fil13 {fill:#F5968E;fill-rule:nonzero}
    .fil12 {fill:#F7A69B;fill-rule:nonzero}
    .fil11 {fill:#F9B6AA;fill-rule:nonzero}
    .fil2 {fill:#FEFEFE;fill-rule:nonzero}
   ]]>
  </style>
 </defs>
 <g id="Layer_x0020_1">
  <metadata id="CorelCorpID_0Corel-Layer"/>
  <g id="_1745817558512">
   <g id="_2425181835824">
    <path class="fil0" d="M2184769 3673888c273493,35173 549348,40431 824557,50972 126181,4834 249886,-986 366380,44273 109061,42389 196162,127463 308710,163934 87358,28287 181572,27296 272802,16918 385868,-43903 749135,-258794 973417,-575835 205420,-290381 291190,-661930 237387,-1013202 -32638,-213065 -130679,-411768 -154182,-626451 -24854,-226950 61828,-424819 116607,-640647 38187,-150503 54878,-306446 49398,-461615 -3162,-89390 -14403,-181034 -56688,-259854 -114891,-214121 -404581,-254518 -646373,-230383 -299284,29866 -597878,122205 -861185,267598 -207901,114802 -413820,281902 -652420,327206 -269043,51075 -477147,-133294 -719274,-217391 -544795,-189212 -1202542,182475 -1442711,676831 -296487,610278 -262740,1608618 292201,2061522 302426,246813 692126,363465 1079123,414515 4084,547 8168,1075 12252,1608l-1 1z"/>
    <path class="fil1" d="M2709020 2224735c0,-1697 -3482,-3423 -4301,0 0,1677 3458,3413 4301,0z"/>
    <path class="fil2" d="M4401342 2917187c858,-498 6175,6545 14052,20415 7941,13821 17786,34813 26951,61902 18768,53990 30551,133698 23582,220602 -6945,86909 -27035,163194 -42532,217495 -15843,54326 -27523,87299 -29535,86741 -2220,-612 5643,-34729 18654,-89587 12686,-54844 30778,-130729 37550,-215852 6817,-85099 -2876,-162558 -18457,-216104 -15138,-53813 -32761,-84305 -30265,-85612z"/>
    <path class="fil2" d="M4454868 2482236c1006,-439 7458,11379 18225,33161 10758,21777 25861,53512 43755,93099 35469,79205 83215,190076 117830,318802 17037,64373 28638,126975 34522,184448 5914,57482 6511,109702 3551,153285 -2876,43598 -8370,78573 -13673,102387 -5238,23819 -9401,36663 -10324,36446 -2940,-567 10023,-53038 12780,-139370 3413,-86150 -7892,-205844 -42207,-333116 -34246,-127301 -80019,-238231 -112799,-318422 -16504,-40125 -29861,-72590 -39089,-95053 -9036,-22541 -13569,-35203 -12573,-35666l2 -1z"/>
    <path class="fil2" d="M2473147 2992736c1840,1988 -16183,19162 -39568,51075 -5805,8025 -12104,16790 -17993,26808 -6457,9643 -12065,20711 -18319,32130 -11616,23306 -22635,49778 -31138,78588 -8119,28929 -12869,57206 -15429,83111 -774,12992 -1909,25353 -1573,36964 -335,11616 335,22393 982,32273 2846,39449 8967,63584 6353,64289 -1573,543 -11670,-22758 -17525,-63145 -1386,-10077 -2737,-21165 -2994,-33161 -903,-11981 -256,-24785 163,-38280 1815,-26916 6304,-56397 14758,-86445 8814,-29930 20691,-57300 33471,-81054 6822,-11655 13081,-22827 20228,-32500 6580,-10023 13623,-18714 20169,-26497 26428,-31084 47376,-45452 48417,-44155l-2 -1z"/>
    <path class="fil2" d="M2515443 3131988c1327,2126 -8721,9806 -21826,24494 -6649,7265 -13633,16652 -20514,27552 -6595,11078 -12908,23789 -17870,37807 -4740,14097 -7586,28001 -9229,40791 -1312,12829 -1583,24519 -834,34339 1273,19651 4449,31898 2081,32746 -1712,710 -8849,-10481 -13219,-31257 -2279,-10348 -3216,-23015 -2629,-37057 927,-13993 3611,-29343 8804,-44747 5401,-15325 12755,-29052 20657,-40653 8173,-11414 16721,-20820 24899,-27557 16238,-13673 28776,-18077 29678,-16459l2 1z"/>
    <path class="fil2" d="M1928323 1834265c834,-720 7931,6294 20129,19636 6215,6605 13525,14911 21274,25170 7843,10166 17244,21451 26078,35020 4572,6698 9347,13707 14324,21027 4923,7344 9386,15394 14363,23528 10181,16144 19301,34369 29234,53384 18738,38571 36643,82352 50917,129816 13806,47588 22586,94076 27814,136638 1998,21347 4247,41615 4474,60698 242,9524 868,18723 730,27557 -197,8834 -395,17328 -592,25422 -44,16203 -1810,30788 -2856,43583 -937,12814 -2555,23774 -4163,32672 -2994,17845 -5154,27582 -6230,27434 -2816,-370 2461,-39918 2022,-103817 -138,-7991 -291,-16341 -439,-25062 -187,-8696 -1100,-17742 -1633,-27099 -784,-18758 -3492,-38631 -5840,-59574 -5944,-41733 -14975,-87240 -28534,-133955 -14003,-46577 -31168,-89691 -48851,-127952 -9406,-18852 -17939,-36998 -27474,-53181 -4646,-8138 -8790,-16223 -13367,-23636 -4602,-7394 -9031,-14496 -13258,-21259 -34359,-53896 -60279,-84211 -58124,-86051l2 1z"/>
    <path class="fil2" d="M2108262 1908715c1351,-1204 19601,15868 42813,48772 11685,16376 23986,37023 35972,60822 11636,23967 22748,51179 31607,80684 8582,29560 14052,58454 17303,84892 2871,26497 3768,50508 2846,70608 -1598,40239 -7645,64481 -9426,64205 -2560,-311 -523,-24869 -1805,-64205 -533,-19680 -2555,-43021 -6131,-68699 -3956,-25629 -9692,-53576 -18028,-82302 -8617,-28647 -18980,-55228 -29585,-78889 -10955,-23513 -21930,-44204 -32179,-60999 -20297,-33738 -35356,-53236 -33388,-54888l1 -1z"/>
    <polygon class="fil3" points="1478171,3209018 1464350,3180780 1079247,3475003 1247260,3747194 1630597,3423963 "/>
    <polygon class="fil4" points="1095386,3481297 1242969,3736539 1252419,3732317 1120985,3493692 "/>
    <path class="fil5" d="M1470570 3203429l-375184 277868c0,0 1578,5968 10891,9643 9312,3680 14708,2752 14708,2752l394440 -269966c0,0 -22743,-5283 -30995,-11438 -8252,-6175 -13860,-8859 -13860,-8859z"/>
    <path class="fil3" d="M1525068 3212840l-411132 274607 133520 253048 21515 35069 411146 -304310c0,0 -43312,-64629 -69310,-103650 -26004,-39020 -77030,-131054 -79821,-136948 -2772,-5879 -5919,-17816 -5919,-17816l1 0z"/>
    <polygon class="fil6" points="4915516,1317008 4927132,1293288 5250496,1540367 5109429,1768921 4787535,1497505 "/>
    <polygon class="fil4" points="5236966,1545640 5113025,1759978 5105093,1756437 5215461,1556052 "/>
    <path class="fil5" d="M4921904 1312317l315063 233323c0,0 -1332,5021 -9150,8109 -7818,3078 -12356,2303 -12356,2303l-331231 -226689c0,0 19098,-4444 26028,-9623 6925,-5169 11645,-7423 11645,-7423l1 0z"/>
    <path class="fil6" d="M4876136 1320214l345239 230595 -112109 212498 -18077 29437 -345259 -255534c0,0 36372,-54266 58212,-87032 21821,-32766 64674,-110057 67022,-114999 2338,-4952 4972,-14965 4972,-14965z"/>
    <path class="fil7" d="M1018421 872306c0,0 -24411,16898 -12208,45072 12208,28174 65729,111749 138043,108927 2959,-118 -91087,-154000 -91087,-154000l-34749 0 1 1z"/>
    <path class="fil8" d="M907801 2413025c0,0 -90416,-80783 -119369,-66316 -35365,17683 -237802,216025 -229890,309474 3246,38261 47795,5470 127192,-76877 79402,-82337 179387,-47050 179387,-47050l42680 -119231z"/>
    <path class="fil8" d="M1127496 2549233l-109169 -65483c0,0 -282938,265270 -238734,300626 33535,26837 53236,2777 132633,-79555 79397,-82352 179984,-35015 179984,-35015l35286 -120573z"/>
    <path class="fil9" d="M1360360 1858838c0,0 397479,25057 450403,7394 0,0 77681,763074 -60545,845401 -138221,82357 -448391,-38226 -448391,-38226l83747 -164664 180566 -11774 0 -294061 -12943 2940 -192838 -347010 1 0z"/>
    <path class="fil10" d="M862127 2379346c0,0 -99965,41171 -67623,141161 0,0 341264,267593 507323,205835 93035,-34581 192976,-298549 262888,-524044l246049 -336065c0,0 -116035,5805 -154759,5657 -73976,-281 -295644,-13051 -295644,-13051 0,0 -115774,605794 -157028,620493 -41255,14689 -341205,-99985 -341205,-99985l-1 -1z"/>
    <path class="fil11" d="M1452991 1099054c0,0 238206,-223498 279367,-282322 41166,-58809 129402,-255830 238191,-338181l-52930 -111734c0,0 32352,-17638 52930,29397 0,0 76447,-152910 94086,-149970 17658,2935 -35267,117618 -35267,117618 0,0 73537,-105869 94110,-102910 20568,2940 -52945,119014 -52945,119014 0,0 82332,-95487 94110,-83728 11759,11764 -64703,83728 -64703,83728 0,0 82327,-47272 91151,-31691 8839,15586 -82322,56762 -82322,56762 0,0 -8829,67638 -64689,97035 0,0 -110624,298875 -210614,395920l-321194 333811 -59283 -132751 2 2z"/>
    <path class="fil11" d="M1168637 1214887c0,0 -225692,236100 -284901,276708 -59204,40584 -257028,127000 -340376,235030l-111256 -53990c0,0 -17939,32184 28924,53201 0,0 -153630,75017 -150843,92715 2762,17668 117949,-34191 117949,-34191 0,0 -106555,72541 -103803,93124 2747,20613 119498,-51810 119498,-51810 0,0 -96251,81434 -84591,93297 11636,11892 84315,-63899 84315,-63899 0,0 -48032,81888 -32514,90865 15493,8962 57507,-81794 57507,-81794 0,0 67717,-8178 97652,-63796 0,0 283101,-112617 381083,-211704l352293 -249625 -130936 -124129 -1 -2z"/>
    <path class="fil2" d="M1253248 1120787l-114146 111739 28943 125984c0,0 112479,270000 129466,335868 26428,102427 -16316,258587 -16316,258587 0,0 190662,-15823 364145,-21708 173478,-5875 230225,-61764 230225,-61764 0,0 -150409,-500956 -254246,-640997 -103872,-140012 -141644,-183851 -141644,-183851l-152910 33432 -73518 42710 1 0z"/>
    <path class="fil2" d="M1588272 1211982l118945 -75999c0,0 18171,-81424 -125269,-177453l-168200 105386 174524 148066z"/>
    <path class="fil2" d="M1163152 1223696c-65207,9150 -184369,174415 -197662,174090 0,0 83866,136855 150301,141299 0,0 292349,-349748 47361,-315388l0 -1z"/>
    <path class="fil11" d="M1393338 1116160c0,0 -94781,-70805 -91501,-99048 834,-7103 13974,-18659 17387,-28904 18373,-55125 -70238,-197198 -124667,-227128 -42833,-23562 -24060,-25644 -114185,27917 -90135,53566 -38789,146192 1465,194086 38049,45280 81631,64689 120834,67949l55751 123823 134916 -58696 0 1z"/>
    <path class="fil11" d="M1081837 983083c0,0 -30739,-1702 -34152,18797 -3413,20494 56353,20494 78554,5120l-44402 -23917z"/>
    <path class="fil7" d="M1097211 1001881c-5850,-37023 -45284,-64551 -43326,-100626 18916,138 31059,-23281 22447,-43287 -3384,-7867 -9125,-14610 -12785,-22368 -3660,-7749 -4632,-17905 982,-22280 2654,-2067 6249,-2427 9702,-2787 28041,-2876 76063,5529 101864,-4025 24578,-9100 50903,-26818 48333,-56915 -2229,-26196 -25362,-47450 -46616,-63495 -12193,-9204 -46991,-33274 -60111,-31099 -20055,3344 -24904,30073 -26354,52461 -14018,-13357 -34695,-11206 -46888,-345 -12193,10846 -17959,28105 -23271,44772 -5322,16662 -10950,33970 -22975,45023 -11216,10328 -28938,18136 -26625,35681 2772,20913 30088,28347 42720,46167 -3102,-4370 -5746,23552 -3961,28292 5396,14260 18842,23685 28573,34606 20721,23246 30847,46656 58291,60225z"/>
    <path class="fil2" d="M1268943 917216l-70040 36224c0,0 84127,61068 70040,-36224z"/>
    <path class="fil12" d="M1172578 931584c3832,7261 -1840,17767 -12652,23454 -10812,5692 -22674,4419 -26502,-2846 -3823,-7261 1845,-17762 12657,-23454 10817,-5692 22684,-4419 26497,2846z"/>
    <path class="fil12" d="M1274857 861716c3828,7261 -1840,17762 -12652,23463 -10817,5692 -22684,4405 -26497,-2856 -3832,-7251 1840,-17752 12652,-23444 10817,-5702 22679,-4429 26497,2836l0 1z"/>
    <path class="fil7" d="M1220048 914651c-326,-404 982,-2131 4025,-4316 2876,-2244 7912,-4636 11645,-8661 3699,-3911 5041,-12030 -626,-13174 -5894,-1998 -12573,4755 -20238,11172 -1909,1573 -3783,3137 -5633,4676 -1746,1583 -5401,3926 -9199,3458 -7226,-1159 -10289,-5993 -13076,-9209 -5554,-7137 -8977,-14595 -10876,-21052 -3754,-13041 -2067,-21461 -1164,-21382 1273,-69 1687,8025 6461,19498 2397,5702 6003,12183 11246,18299 2540,3098 5756,5988 8045,6082 977,49 1716,-276 3532,-1790 1825,-1539 3675,-3102 5559,-4671 3852,-3127 7196,-6284 11616,-9219 4291,-2895 10422,-4720 15887,-2856 5870,1524 9293,8360 8272,13100 -656,4834 -3053,8400 -5781,10999 -5786,4824 -10940,5993 -14191,7448 -3334,1263 -5149,2047 -5505,1598l1 0z"/>
    <path class="fil13" d="M1202671 1051032c0,0 44683,252 68935,-14664 0,0 -20519,25175 -61552,31715l-7384 -17051 1 0z"/>
    <path class="fil10" d="M1222045 850678c-404,2210 -6649,2895 -13253,5810 -6688,2703 -11517,6718 -13392,5470 -1909,-1021 1258,-8987 10294,-12795 9031,-3837 16953,-567 16351,1514l0 1z"/>
    <path class="fil10" d="M1134495 908101c-1687,-1233 952,-8439 7394,-15636 6501,-7354 14822,-9806 15700,-7759 927,2012 -4143,6674 -9845,13135 -5796,6447 -11428,11636 -13248,10259l-1 1z"/>
    <path class="fil7" d="M1100550 897013c-3615,-2698 -6442,-14166 7413,-29644 13988,-15818 29614,-13046 31489,-8642 2007,4316 -3191,10457 -15463,24361 -12459,13865 -19508,16859 -23439,13924l0 1z"/>
    <path class="fil7" d="M1174107 836048c-2003,-3749 207,-14654 18225,-22250 18275,-7852 30453,809 30280,5307 -35,4474 -6915,7611 -22955,14526 -16193,6792 -23399,6501 -25550,2417z"/>
    <path class="fil8" d="M5017543 944546c1174,1169 -18230,23005 -58503,46774 -39760,23755 -102357,47312 -174341,47835 -71998,533 -134926,-22087 -175037,-45255 -40609,-23177 -60348,-44727 -59184,-45921 1682,-2126 23759,16055 64403,35972 40283,19976 100967,39810 169690,39311 68733,-508 129121,-21244 169093,-41807 40377,-20509 62163,-39015 63880,-36909l-1 0z"/>
    <path class="fil8" d="M4578376 911549c-1110,2432 -22586,-6501 -58785,-14560 -18033,-4267 -39928,-7542 -64319,-10585 -24475,-2693 -51514,-4844 -80083,-6881 -28588,-2012 -55943,-4301 -80798,-7374 -24820,-3310 -47154,-7231 -65542,-12203 -36919,-9638 -57833,-21032 -57093,-22650 952,-2427 22941,5080 59495,11670 18255,3472 40253,6166 64758,8617 24568,2244 51702,4074 80315,6096 28638,2037 56027,4646 80867,8212 24785,3897 47060,8429 65241,14225 36569,11147 56752,23917 55943,25432l1 1z"/>
    <path class="fil8" d="M4142918 441914c68615,-14551 139735,-2012 208932,9505 69212,11532 141057,21930 208720,3364 122156,-33526 214890,-156944 341555,-155963 52160,419 101336,22694 152160,34478 63100,14644 128830,13056 192778,23503 63919,10457 129964,36155 166094,89923 42863,63806 31099,153827 -13865,216163 -44984,62341 -117022,100296 -190810,121811 -51480,15004 -106338,23676 -150878,53527 -45058,30201 -74484,78795 -116479,113150 -105342,86140 -269295,61458 -378119,-20267 -27340,-20539 -52693,-44352 -83412,-59386 -124943,-61162 -304631,19809 -412236,-91477 -109273,-112997 -93706,-302431 75560,-338329l0 -2z"/>
    <path class="fil12" d="M4108622 2630495c0,0 114476,245368 127873,199950 13357,-45462 8938,-154577 1771,-170168 -7206,-15586 -54000,-84408 -54000,-84408l-75644 54626z"/>
    <path class="fil11" d="M4936395 646357c10585,13569 3517,-1016 15508,18575 49852,-1756 83308,-43938 83308,-43938 0,0 79136,2091 78208,-12030 -903,-14156 -75846,-8868 -75846,-8868 0,0 79284,-24914 74933,-37343 -4326,-12410 -95857,27212 -95857,27212 0,0 92364,-57344 78716,-66528 -13638,-9179 -102510,40890 -102510,40890 0,0 77237,-63456 65660,-71629 -11557,-8178 -118674,74376 -118674,74376 1559,-40609 -27587,-39183 -27587,-39183l1218 99176c0,0 18038,13046 22921,19291l2 -1z"/>
    <path class="fil11" d="M3763595 197493c-16948,3112 -3798,-2772 -25782,3931 -36095,-34418 -31311,-88502 -31311,-88502 0,0 -60531,-50957 -50493,-60915 10097,-9978 62617,43716 62617,43716 0,0 -42725,-71254 -31237,-77671 11468,-6397 53640,83989 53640,83989 0,0 -31030,-104187 -14723,-102007 16287,2195 49526,98594 49526,98594 0,0 -15626,-98688 -1564,-97124 14062,1544 39385,134423 39385,134423 25792,-31410 46616,-10999 46616,-10999l-65379 71895c0,0 -23513,-755 -31296,671l1 -1z"/>
    <path class="fil11" d="M4174273 611752c-21910,-3581 -74844,31602 -101332,88946 -14812,32080 -25027,64684 -8000,116893 8000,24554 24785,27617 28509,38616 4755,13939 -10930,57828 -10930,57828l62489 25239c4069,-30152 8661,-60501 39405,-73592 11497,-4893 23789,-8005 34635,-14215 29289,-16795 44924,-53507 56945,-83560 8972,-22452 -46843,-147154 -101721,-156155z"/>
    <path class="fil12" d="M4099877 1463964l-104690 -42014c0,0 -310703,576175 -309420,736030 1297,159860 426743,479904 426743,479904l71757 -62015c0,0 -131355,-229032 -201583,-309785 -70213,-80773 117194,-802119 117194,-802119l-1 -1z"/>
    <path class="fil11" d="M4619690 2120311c0,0 230748,-109485 184379,-119152 -46365,-9623 -154804,3645 -169734,12065 -14965,8429 -79747,60649 -79747,60649l65103 46439 -1 -1z"/>
    <path class="fil11" d="M4202713 1458968l-158824 57783c0,0 -158863,698741 -98219,808457 60629,109746 230960,37116 473541,-95279 203196,-110915 203196,-110915 203196,-110915l-67821 -45141c0,0 -236440,46330 -302840,92527 0,0 34640,-98180 80857,-236776 46182,-138606 78036,-280087 -129890,-470656z"/>
    <path class="fil11" d="M4007217 982926c0,-46429 14940,-80019 61374,-80019 46444,0 110595,16292 110595,62726 0,46439 -36584,121845 -83017,121845 -46429,0 -88951,-58109 -88951,-104552l-1 0z"/>
    <path class="fil11" d="M4043889 896273c0,0 -144367,-156244 -173241,-309282 -28894,-153033 -77957,-401355 -77957,-401355l-54878 15789c0,0 -25999,339375 0,391353 25974,51973 152959,397997 191634,488871l114442 -185375 0 -1z"/>
    <path class="fil11" d="M4198989 1018034c0,0 11088,-48599 193656,-114649 182549,-66055 526945,-280112 526945,-280112l34369 39301c0,0 -187131,216153 -295999,254074 -108868,37925 -340100,187402 -363889,199373 -35972,18087 -35533,40870 -95082,-97987z"/>
    <path class="fil10" d="M4043889 896273c0,0 -146675,47534 -146675,270706 0,0 89,305681 34665,361289 0,0 56195,14388 126260,0 73463,-15113 144574,-69300 144574,-69300l115364 -346379 -13796 -162291 -156875 -30305c0,0 45013,210313 -117811,119902 -31646,-17569 46542,-136889 46542,-136889l-32248 -6733z"/>
    <path class="fil10" d="M3919780 1077781l-72280 -150572c0,0 10363,-91334 143050,-124075 0,0 13416,46039 28130,63633 14694,17594 57512,36293 57512,36293l-156412 174721z"/>
    <path class="fil10" d="M4193016 1138306l229826 -47105c0,0 39957,-82791 -54784,-181261 0,0 -179259,10817 -202461,12745 -22857,1909 -7162,19488 -7162,19488l34581 196133z"/>
    <path class="fil10" d="M3931504 1453813c0,0 -217376,401893 -253289,473719 0,0 641308,294579 901645,-60018 0,0 -148101,-313430 -377034,-432755l0 0 -98762 -29560 -168698 46675 -3862 1938 0 1z"/>
    <path class="fil11" d="M4267569 764109c0,0 24761,-24761 39997,-7621 15231,17140 -55213,41901 -55213,41901l15216 -34280z"/>
    <path class="fil8" d="M4720508 426391c256,868 -9312,4997 -27587,9332 -18215,4380 -45255,8360 -78815,9046 -33555,671 -73454,-2313 -117130,-8237 -43691,-5796 -91181,-14304 -141136,-19754 -49872,-5327 -97825,-6304 -140293,557 -42478,6752 -79249,20667 -107339,36904 -28120,16381 -47662,34547 -59672,48313 -12084,13747 -17510,22541 -18733,21801 -671,-350 2935,-10250 13904,-25663 10856,-15399 30048,-35696 58661,-54049 28588,-18240 66597,-33900 110752,-41753 44214,-7956 93671,-7334 144406,-1909 50789,5544 98313,14536 141521,21061 43198,6654 82218,10723 115088,11497 65892,1825 105771,-9870 106372,-7147l1 1z"/>
    <path class="fil7" d="M4141482 750056c-69,972 -7127,1642 -17895,-1919 -2668,-937 -5805,-2175 -8730,-4858 -1455,-1332 -2787,-3122 -3620,-5263 -1169,-2994 -1075,-6383 79,-8977 360,-528 350,-1766 1021,-1790l2081 -54c1351,-197 2940,252 4498,543 2831,543 3734,449 5771,592 3541,74 7241,-281 10906,-1100 15024,-3162 25101,-14102 29609,-23098 4740,-9056 5149,-15873 6407,-15789 883,-113 2649,7122 -1258,18053 -1993,5347 -5450,11497 -11039,16889 -5549,5376 -13239,9796 -21984,11705 -4360,972 -8745,1327 -12953,1110 -1840,-79 -4730,-449 -5588,-636 -774,-138 -671,-311 -809,-207 -94,84 -148,242 -138,449 311,1051 878,2037 1677,2940 1608,1805 3931,3167 6210,4301 9322,4558 15927,5924 15754,7113l1 -4z"/>
    <path class="fil2" d="M4089934 752730l84650 33353c0,0 -74401,51307 -84650,-33353z"/>
    <path class="fil12" d="M4210738 768785c-3009,5702 -12331,6708 -20844,2229 -8489,-4479 -12953,-12721 -9934,-18437 3009,-5702 12321,-6708 20830,-2229 8489,4474 12953,12721 9949,18437l-1 0z"/>
    <path class="fil12" d="M4116253 718681c-2565,5919 -11779,7630 -20598,3818 -8819,-3808 -13885,-11705 -11335,-17628 2570,-5924 11788,-7621 20613,-3818 8799,3818 13880,11705 11320,17628z"/>
    <path class="fil13" d="M4084888 845578c0,0 29693,24854 60639,16844 0,0 -10674,16016 -51766,10141 0,0 3423,-17638 -8873,-26985z"/>
    <path class="fil10" d="M4202615 715604c0,3714 -3004,6708 -6703,6708 -3714,0 -6698,-2994 -6698,-6708 0,-3704 2984,-6693 6698,-6693 3699,0 6703,2989 6703,6693z"/>
    <path class="fil10" d="M4147727 695839c0,3699 -3009,6703 -6708,6703 -3699,0 -6693,-3004 -6693,-6703 0,-3704 2994,-6708 6693,-6708 3699,0 6708,3004 6708,6708z"/>
    <path class="fil8" d="M4224164 697743c-2072,873 -6072,-3966 -12134,-7887 -5934,-4094 -11946,-5929 -11936,-8188 -197,-2151 8203,-3887 16346,1583 8173,5426 9796,13845 7724,14491l0 1z"/>
    <path class="fil8" d="M4127430 665199c-138,-2091 7068,-4740 16711,-4474 9820,207 17071,4972 16080,6965 -937,2007 -7773,1144 -16390,977 -8666,-252 -16262,-1189 -16400,-3467l-1 -1z"/>
    <path class="fil10" d="M4157661 2730204c0,0 35217,124992 71579,114758 36367,-10225 9026,-184684 9026,-184684l-36293 -57344c0,0 34083,292024 -44313,127271l1 -1z"/>
    <polygon class="fil10" points="4557709,2070656 4592453,2141195 4611408,2130674 4565073,2061171 "/>
    <polygon class="fil10" points="4169207,2547606 4083921,2624448 4109190,2645519 4180784,2567602 "/>
    <path class="fil10" d="M2386174 1782381c-24253,-60185 -33575,-127197 -69764,-181074 -52081,-77503 -152106,-115956 -194377,-199230 -17934,-35370 -23582,-75816 -23755,-115473 -360,-78475 23143,-161887 83733,-211744 69641,-57300 174124,-56491 255686,-17998 81548,38478 143844,108345 196828,181325 52969,72985 99349,151292 161048,217056 45733,48762 99990,90806 134453,148091 94461,157048 -2742,355760 -169493,412444 -146532,49803 -323670,-107571 -374360,-233397l1 0z"/>
    <path class="fil11" d="M2177434 2890019c14501,11936 -1317,3680 19779,17406 -4710,52703 -53458,85913 -53458,85913 0,0 -2072,83920 -17732,82184 -15680,-1702 -5633,-80788 -5633,-80788 0,0 -32095,82652 -45674,77375 -13564,-5238 35568,-100079 35568,-100079 0,0 -68861,94786 -78322,79851 -9451,-14930 51144,-106402 51144,-106402 0,0 -74820,78435 -83274,65749 -8444,-12671 89287,-121762 89287,-121762 -45235,-498 -42034,-31286 -42034,-31286l110180 6535c0,0 13495,19809 20169,25303l0 1z"/>
    <path class="fil11" d="M2768722 1765764c34093,-5322 138039,62035 111586,198826 -2225,11483 -17219,36766 -20948,47223 -4730,13253 32051,61714 32051,61714l-94919 30324c-4064,-28672 2752,-70578 -27922,-83032 -11473,-4661 -23755,-7606 -34581,-13520 -29225,-15956 -44826,-50878 -56831,-79466 -8967,-21352 -15789,-44333 -15537,-67500 636,-58360 52328,-86026 107102,-94569l-1 0z"/>
    <path class="fil11" d="M2958808 2140386c0,-49235 -15626,-68028 -67293,-68028 -51677,0 -119892,18792 -119892,68028 0,49245 36490,110871 88192,110871 51662,0 98994,-61626 98994,-110871l-1 0z"/>
    <path class="fil11" d="M2918002 2048500c0,0 160668,-165685 192808,-327961 32154,-162276 86771,-425618 86771,-425618l61078 16760c0,0 28934,359869 0,414989 -28929,55110 -192838,437865 -189622,535828l-151035 -213998z"/>
    <path class="fil11" d="M2631567 2128706c0,0 -54641,9184 -138201,199038 -83565,189834 -340657,543261 -340657,543261l41787 38478c0,0 250660,-186761 298870,-300034 48204,-113298 109258,-254148 138201,-248041 28909,6141 151055,-162291 0,-232701l0 -1z"/>
    <path class="fil14" d="M3061747 2287815l74825 -206505c0,0 -11537,-96863 -159218,-131582l-83654 120548 168047 217539z"/>
    <path class="fil14" d="M2656510 2112863c0,0 -88270,7433 -159815,164575 0,0 78692,108627 136243,112291 0,0 213791,-182736 23572,-276866z"/>
    <path class="fil11" d="M2899047 3976427c0,0 -127424,260180 -142320,212010 -14871,-48195 -9959,-163924 -1968,-180438 8005,-16529 60097,-89509 60097,-89509l84191 57936 0 1z"/>
    <path class="fil15" d="M2908783 2739403l116513 -44554c0,0 345812,610983 344381,780515 -1435,169507 -474947,508907 -474947,508907l-79876 -65779c0,0 224445,-329983 302594,-415625 39080,-42838 -240692,-252702 -283066,-454640 -42379,-201938 74401,-308823 74401,-308823l0 -1z"/>
    <path class="fil11" d="M2208173 3840110c0,0 -238344,175683 -228430,126378 9944,-49349 69947,-150064 84981,-161270 15073,-11197 96463,-53334 96463,-53334l46986 88226z"/>
    <path class="fil8" d="M2591752 2955758l344741 -199792c0,0 13692,694030 -69069,844099 -82766,150064 -666857,245136 -666857,245136l-39380 -93316c0,0 360352,-214703 471001,-256722 110649,-42039 -40436,-539404 -40436,-539404l0 -1z"/>
    <path class="fil8" d="M2797069 2619288c0,0 -253847,89893 -205317,336470 48520,246581 129402,292813 129402,292813l145575 -238872 146167 -312814 -146167 -18531 -69660 -59066z"/>
    <path class="fil14" d="M2918002 2048500c0,0 186874,104735 186874,341397 0,0 -23740,269813 -62213,328785 0,0 -62543,15261 -140534,0 -81770,-16016 -160915,-73498 -160915,-73498l-63850 -330329 -49689 -192882 26926 -8878 140559 -15443c0,0 -20193,209963 136766,105687 33042,-21959 -41151,-131434 -41151,-131434l27227 -23404 0 -1z"/>
    <polygon class="fil2" points="3577515,3147151 3857765,2973663 3626242,2569511 3370048,2735639 "/>
    <path class="fil10" d="M2197652 1425008c740,-646 9377,7196 23074,23217 13623,16040 32209,40431 50853,73350 18738,32776 37279,74376 50498,122640 13692,47933 22877,101790 43923,153674 10930,25619 24174,49482 39938,70588 15902,20958 33540,39346 51702,55391 37087,31212 75974,52703 110614,65113 34606,12573 64245,18230 84857,20252 20583,2269 32209,2609 32233,3956 54,843 -11542,2614 -32687,2205 -21130,-148 -51879,-4197 -88108,-15808 -36243,-11453 -77197,-32638 -116375,-64551 -19182,-16395 -37866,-35375 -54696,-57216 -16662,-21939 -30749,-47050 -42187,-73902 -21930,-54242 -30591,-108577 -43351,-155859 -12178,-47440 -29111,-88261 -46236,-121115 -17002,-32929 -33891,-57911 -45862,-74923 -12040,-16992 -19093,-26206 -18191,-27010l1 -2z"/>
    <path class="fil10" d="M2679076 1157587c2871,-439 5677,38132 27261,95186 10767,28406 26808,61118 49822,93889 11522,16415 24761,32569 39750,48683 14891,16193 31104,32628 46429,51065 30729,37205 51859,77419 71786,112918 19754,35839 35499,69937 43499,100434 8341,30403 8839,56565 6190,73927 -2767,17456 -7103,26290 -7823,26048 -1371,-360 868,-9692 1657,-26591 681,-16874 -1470,-41467 -10792,-70203 -9041,-28860 -25259,-61379 -45511,-96458 -20563,-35069 -41891,-74475 -71244,-109934 -14738,-17742 -30719,-34118 -45699,-50705 -15059,-16504 -28761,-33693 -40303,-50888 -23182,-34433 -38655,-68748 -48348,-98412 -9914,-29668 -14131,-54686 -16134,-71929 -1978,-17278 -1445,-26946 -543,-27030l3 0z"/>
    <path class="fil7" d="M2799210 1914437c-163,-1100 6220,-2116 12247,-9204 1386,-1623 2787,-4000 2772,-5401 -44,-1480 -1085,-4084 -2866,-5579 -1874,-1652 -3931,-2471 -6664,-2195 -2816,212 -6254,1608 -10753,2279 -9820,1307 -17485,-4247 -22531,-8745 -5179,-4730 -9135,-9529 -12099,-13830 -5860,-8661 -7690,-14921 -6787,-15374 1031,-562 4582,4617 11197,11882 3305,3606 7482,7749 12420,11749 4858,3877 10817,7389 16736,6452 3147,-390 6802,-1869 11280,-2170 4543,-439 9584,1642 12361,4760 2959,3196 4602,6955 4271,11409 -893,4558 -3300,6683 -5302,8676 -8637,7571 -16573,6333 -16282,5292l0 -1z"/>
    <path class="fil2" d="M2845505 1920962l-75244 27365c0,0 63855,55860 75244,-27365z"/>
    <path class="fil12" d="M2762744 1916301c3004,5712 -1445,13959 -9949,18447 -8489,4464 -17826,3472 -20830,-2244 -3009,-5702 1455,-13959 9944,-18432 8503,-4479 17826,-3472 20835,2229z"/>
    <path class="fil12" d="M2851962 1870543c2461,5973 -2742,13776 -11616,17441 -8878,3670 -18077,1810 -20539,-4163 -2466,-5953 2742,-13761 11621,-17426 8873,-3665 18067,-1805 20534,4148z"/>
    <path class="fil10" d="M2798203 1853650c2821,2392 3181,6629 784,9451 -2392,2821 -6629,3181 -9446,784 -2821,-2392 -3186,-6629 -789,-9451 2392,-2816 6629,-3181 9451,-784z"/>
    <path class="fil10" d="M2747636 1882746c2821,2397 3172,6629 774,9451 -2392,2821 -6629,3172 -9446,784 -2826,-2392 -3172,-6624 -779,-9455 2392,-2821 6619,-3172 9451,-779l0 -1z"/>
    <path class="fil10" d="M2798504 1825658c-671,2141 -6955,2072 -13860,4163 -6960,1879 -12247,5278 -13959,3808 -1766,-1238 2338,-8755 11779,-11438 9426,-2733 16884,1480 16040,3467z"/>
    <path class="fil10" d="M2711136 1878425c-1677,-1253 962,-8459 7389,-15641 6501,-7354 14832,-9806 15695,-7759 937,2003 -4128,6659 -9840,13125 -5786,6442 -11419,11650 -13244,10274l0 1z"/>
    <path class="fil11" d="M2682755 1934309c0,0 -24139,-20277 -35730,-1934 -11576,18344 52141,28001 52141,28001l-16410 -26068 -1 1z"/>
    <path class="fil14" d="M2102373 3783013c0,0 -34606,15044 -43637,24080 -9021,9031 -91772,151953 -81237,170015 10526,18043 93519,-43242 93519,-43242 0,0 -69453,13150 31355,-150853z"/>
    <path class="fil14" d="M2777625 3972018c0,0 -24578,26576 -28371,38769 -3778,12178 -10570,177197 7147,188275 17722,11093 66168,-79964 66168,-79964 0,0 -57907,45363 -44944,-146700l0 -380z"/>
    <path class="fil11" d="M3229962 1307503c18852,3300 4222,-2940 28697,4178 40165,-36505 34833,-93869 34833,-93869 0,0 67397,-54035 56210,-64585 -11241,-10595 -69695,46370 -69695,46370 0,0 47573,-75570 34778,-82371 -12780,-6792 -59702,89070 -59702,89070 0,0 34522,-110501 16376,-108178 -18122,2313 -55135,104552 -55135,104552 0,0 17406,-104656 1761,-103004 -15660,1657 -40988,138764 -40988,138764 -36904,-30043 -62721,-10812 -62721,-10812l80753 79180c0,0 26171,-809 34833,705z"/>
    <polygon class="fil2" points="3032384,1154149 3424230,1382737 3644655,966392 3277289,762304 "/>
    <path class="fil10" d="M4645141 2009100c0,0 26339,-28726 58242,-33511 31928,-4789 146019,-18354 162784,-3196 16755,15162 -92483,65996 -92483,65996 0,0 38059,-24248 22260,-33269 -27922,-15971 -150804,3980 -150804,3980l1 0z"/>
   </g>
   <rect class="fil16" width="5749999" height="4200000"/>
  </g>
 </g>
</svg>
