<?xml version="1.0" encoding="UTF-8"?>
<!DOCTYPE svg PUBLIC "-//W3C//DTD SVG 1.1//EN" "http://www.w3.org/Graphics/SVG/1.1/DTD/svg11.dtd">
<!-- Creator: CorelDRAW X8 -->
<svg xmlns="http://www.w3.org/2000/svg" xml:space="preserve" width="100%" height="100%" version="1.1" style="shape-rendering:geometricPrecision; text-rendering:geometricPrecision; image-rendering:optimizeQuality; fill-rule:evenodd; clip-rule:evenodd"
viewBox="0 0 1040000 851510"
 xmlns:xlink="http://www.w3.org/1999/xlink">
 <defs>
  <style type="text/css">
   <![CDATA[
    .fil1 {fill:#F7CAB2}
    .fil2 {fill:#FEFEFE;fill-rule:nonzero}
    .fil11 {fill:#F9B6AA;fill-rule:nonzero}
    .fil12 {fill:#F7A69B;fill-rule:nonzero}
    .fil13 {fill:#F5968E;fill-rule:nonzero}
    .fil7 {fill:#F27064;fill-rule:nonzero}
    .fil14 {fill:#EE4698;fill-rule:nonzero}
    .fil5 {fill:#EEEAE9;fill-rule:nonzero}
    .fil4 {fill:#CECACA;fill-rule:nonzero}
    .fil0 {fill:#5CC6D0;fill-rule:nonzero}
    .fil8 {fill:#765896;fill-rule:nonzero}
    .fil15 {fill:#6A4F8A;fill-rule:nonzero}
    .fil10 {fill:#3C434D;fill-rule:nonzero}
    .fil9 {fill:#34363F;fill-rule:nonzero}
    .fil3 {fill:#35497D;fill-rule:nonzero}
    .fil6 {fill:#33AAFC;fill-rule:nonzero}
   ]]>
  </style>
 </defs>
 <g id="Layer_x0020_1">
  <metadata id="CorelCorpID_0Corel-Layer"/>
  <g id="_2425181835824">
   <path class="fil0" d="M380062 744846c55448,7131 111375,8197 167171,10334 25582,980 50662,-200 74280,8976 22111,8594 39770,25842 62588,33236 17711,5735 36812,5534 55308,3430 78231,-8901 151880,-52468 197351,-116745 41647,-58872 59036,-134200 48128,-205417 -6617,-43197 -26494,-83482 -31259,-127007 -5039,-46012 12535,-86128 23641,-129885 7742,-30513 11126,-62129 10015,-93588 -641,-18123 -2920,-36703 -11493,-52683 -23293,-43411 -82025,-51601 -131046,-46708 -60677,6055 -121214,24776 -174597,54253 -42150,23275 -83898,57153 -132272,66338 -54546,10355 -96737,-27024 -145826,-44074 -110452,-38361 -243804,36995 -292496,137221 -60110,123728 -53268,326132 59241,417954 61314,50039 140322,73689 218782,84039 828,111 1656,218 2484,326z"/>
   <path class="fil1" d="M486349 451044c0,-344 -706,-694 -872,0 0,340 701,692 872,0z"/>
   <path class="fil2" d="M829451 591432c174,-101 1252,1327 2849,4139 1610,2802 3606,7058 5464,12550 3805,10946 6194,27106 4781,44725 -1408,17620 -5481,33086 -8623,44095 -3212,11014 -5580,17699 -5988,17586 -450,-124 1144,-7041 3782,-18163 2572,-11119 6240,-26504 7613,-43762 1382,-17253 -583,-32957 -3742,-43813 -3069,-10910 -6642,-17092 -6136,-17357z"/>
   <path class="fil2" d="M840303 503250c204,-89 1512,2307 3695,6723 2181,4415 5243,10849 8871,18875 7191,16058 16871,38536 23889,64634 3454,13051 5806,25743 6999,37395 1199,11654 1320,22241 720,31077 -583,8839 -1697,15930 -2772,20758 -1062,4829 -1906,7433 -2093,7389 -596,-115 2032,-10753 2591,-28256 692,-17466 -1600,-41733 -8557,-67536 -6943,-25809 -16223,-48299 -22869,-64557 -3346,-8135 -6054,-14717 -7925,-19271 -1832,-4570 -2751,-7137 -2549,-7231z"/>
   <path class="fil2" d="M438528 606749c373,403 -3281,3885 -8022,10355 -1177,1627 -2454,3404 -3648,5435 -1309,1955 -2446,4199 -3714,6514 -2355,4725 -4589,10092 -6313,15933 -1646,5865 -2609,11598 -3128,16850 -157,2634 -387,5140 -319,7494 -68,2355 68,4540 199,6543 577,7998 1818,12891 1288,13034 -319,110 -2366,-4614 -3553,-12802 -281,-2043 -555,-4291 -607,-6723 -183,-2429 -52,-5025 33,-7761 368,-5457 1278,-11434 2992,-17526 1787,-6068 4195,-11617 6786,-16433 1383,-2363 2652,-4628 4101,-6589 1334,-2032 2762,-3794 4089,-5372 5358,-6302 9605,-9215 9816,-8952z"/>
   <path class="fil2" d="M447103 634981c269,431 -1768,1988 -4425,4966 -1348,1473 -2764,3376 -4159,5586 -1337,2246 -2617,4823 -3623,7665 -961,2858 -1538,5677 -1871,8270 -266,2601 -321,4971 -169,6962 258,3984 902,6467 422,6639 -347,144 -1794,-2125 -2680,-6337 -462,-2098 -652,-4666 -533,-7513 188,-2837 732,-5949 1785,-9072 1095,-3107 2586,-5890 4188,-8242 1657,-2314 3390,-4221 5048,-5587 3292,-2772 5834,-3665 6017,-3337z"/>
   <path class="fil2" d="M328070 371880c169,-146 1608,1276 4081,3981 1260,1339 2742,3023 4313,5103 1590,2061 3496,4349 5287,7100 927,1358 1895,2779 2904,4263 998,1489 1903,3121 2912,4770 2064,3273 3913,6968 5927,10823 3799,7820 7429,16696 10323,26319 2799,9648 4579,19073 5639,27702 405,4328 861,8437 907,12306 49,1931 176,3796 148,5587 -40,1791 -80,3513 -120,5154 -9,3285 -367,6242 -579,8836 -190,2598 -518,4820 -844,6624 -607,3618 -1045,5592 -1263,5562 -571,-75 499,-8093 410,-21048 -28,-1620 -59,-3313 -89,-5081 -38,-1763 -223,-3597 -331,-5494 -159,-3803 -708,-7832 -1184,-12078 -1205,-8461 -3036,-17687 -5785,-27158 -2839,-9443 -6319,-18184 -9904,-25941 -1907,-3822 -3637,-7501 -5570,-10782 -942,-1650 -1782,-3289 -2710,-4792 -933,-1499 -1831,-2939 -2688,-4310 -6966,-10927 -12221,-17073 -11784,-17446z"/>
   <path class="fil2" d="M364551 386974c274,-244 3974,3217 8680,9888 2369,3320 4863,7506 7293,12331 2359,4859 4612,10376 6408,16358 1740,5993 2849,11851 3508,17211 582,5372 764,10240 577,14315 -324,8158 -1550,13073 -1911,13017 -519,-63 -106,-5042 -366,-13017 -108,-3990 -518,-8722 -1243,-13928 -802,-5196 -1965,-10862 -3655,-16686 -1747,-5808 -3848,-11197 -5998,-15994 -2221,-4767 -4446,-8962 -6524,-12367 -4115,-6840 -7168,-10793 -6769,-11128z"/>
   <polygon class="fil3" points="236806,650598 234004,644873 155928,704524 189991,759708 267709,694176 "/>
   <polygon class="fil4" points="159200,705800 189121,757548 191037,756692 164390,708313 "/>
   <path class="fil5" d="M235265 649465l-76065 56335c0,0 320,1210 2208,1955 1888,746 2982,558 2982,558l79969 -54733c0,0 -4611,-1071 -6284,-2319 -1673,-1252 -2810,-1796 -2810,-1796z"/>
   <path class="fil3" d="M246314 651373l-83353 55674 27070 51303 4362 7110 83356 -61696c0,0 -8781,-13103 -14052,-21014 -5272,-7911 -15617,-26570 -16183,-27765 -562,-1192 -1200,-3612 -1200,-3612z"/>
   <polygon class="fil6" points="933695,267011 936050,262202 1001609,312295 973009,358632 907748,303605 "/>
   <polygon class="fil4" points="998866,313364 973738,356819 972130,356101 994506,315475 "/>
   <path class="fil5" d="M934990 266060l63876 47304c0,0 -270,1018 -1855,1644 -1585,624 -2505,467 -2505,467l-67154 -45959c0,0 3872,-901 5277,-1951 1404,-1048 2361,-1505 2361,-1505z"/>
   <path class="fil6" d="M925711 267661l69994 46751 -22729 43082 -3665 5968 -69998 -51807c0,0 7374,-11002 11802,-17645 4424,-6643 13112,-22313 13588,-23315 474,-1004 1008,-3034 1008,-3034z"/>
   <path class="fil7" d="M143596 176852c0,0 -4949,3426 -2475,9138 2475,5712 13326,22656 27987,22084 600,-24 -18467,-31222 -18467,-31222l-7045 0z"/>
   <path class="fil8" d="M121169 489218c0,0 -18331,-16378 -24201,-13445 -7170,3585 -48212,43797 -46608,62743 658,7757 9690,1109 25787,-15586 16098,-16693 36369,-9539 36369,-9539l8653 -24173z"/>
   <path class="fil8" d="M165710 516833l-22133 -13276c0,0 -57363,53781 -48401,60949 6799,5441 10793,563 26890,-16129 16097,-16696 36490,-7099 36490,-7099l7154 -24445z"/>
   <path class="fil9" d="M212921 376862c0,0 80585,5080 91315,1499 0,0 15749,154706 -12275,171397 -28023,16697 -90907,-7750 -90907,-7750l16979 -33384 36608 -2387 0 -59618 -2624 596 -39096 -70353z"/>
   <path class="fil10" d="M111909 482390c0,0 -20267,8347 -13710,28619 0,0 69188,54252 102855,41731 18862,-7011 39124,-60528 53298,-106245l49884 -68134c0,0 -23525,1177 -31376,1147 -14998,-57 -59939,-2646 -59939,-2646 0,0 -23472,122819 -31836,125799 -8364,2978 -69176,-20271 -69176,-20271z"/>
   <path class="fil11" d="M231701 222823c0,0 48294,-45312 56639,-57238 8346,-11923 26235,-51867 48291,-68563l-10731 -22653c0,0 6559,-3576 10731,5960 0,0 15499,-31001 19075,-30405 3580,595 -7150,23846 -7150,23846 0,0 14909,-21464 19080,-20864 4170,596 -10734,24129 -10734,24129 0,0 16692,-19359 19080,-16975 2384,2385 -13118,16975 -13118,16975 0,0 16691,-9584 18480,-6425 1792,3160 -16690,11508 -16690,11508 0,0 -1790,13713 -13115,19673 0,0 -22428,60594 -42700,80269l-65119 67677 -12019 -26914z"/>
   <path class="fil11" d="M174051 246307c0,0 -45757,47867 -57761,56100 -12003,8228 -52110,25748 -69008,47650l-22556 -10946c0,0 -3637,6525 5864,10786 0,0 -31147,15209 -30582,18797 560,3582 23913,-6932 23913,-6932 0,0 -21603,14707 -21045,18880 557,4179 24227,-10504 24227,-10504 0,0 -19514,16510 -17150,18915 2359,2411 17094,-12955 17094,-12955 0,0 -9738,16602 -6592,18422 3141,1817 11659,-16583 11659,-16583 0,0 13729,-1658 19798,-12934 0,0 57396,-22832 77261,-42921l71424 -50609 -26546 -25166z"/>
   <path class="fil2" d="M191205 227229l-23142 22654 5868 25542c0,0 22804,54740 26248,68094 5358,20766 -3308,52426 -3308,52426 0,0 38655,-3208 73827,-4401 35171,-1191 46676,-12522 46676,-12522 0,0 -30494,-101564 -51546,-129956 -21059,-28386 -28717,-37274 -28717,-37274l-31001 6778 -14905 8659z"/>
   <path class="fil2" d="M259128 245718l24115 -15408c0,0 3684,-16508 -25397,-35977l-34101 21366 35383 30019z"/>
   <path class="fil2" d="M172939 248093c-13220,1855 -37379,35361 -40074,35295 0,0 17003,27746 30472,28647 0,0 59271,-70908 9602,-63942z"/>
   <path class="fil11" d="M219607 226291c0,0 -19216,-14355 -18551,-20081 169,-1440 2833,-3783 3525,-5860 3725,-11176 -14240,-39980 -25275,-46048 -8684,-4777 -4878,-5199 -23150,5660 -18274,10860 -7864,29639 297,39349 7714,9180 16550,13115 24498,13776l11303 25104 27353 -11900z"/>
   <path class="fil11" d="M156453 199311c0,0 -6232,-345 -6924,3811 -692,4155 11425,4155 15926,1038l-9002 -4849z"/>
   <path class="fil7" d="M159570 203122c-1186,-7506 -9181,-13087 -8784,-20401 3835,28 6297,-4720 4551,-8776 -686,-1595 -1850,-2962 -2592,-4535 -742,-1571 -939,-3630 199,-4517 538,-419 1267,-492 1967,-565 5685,-583 15421,1121 20652,-816 4983,-1845 10320,-5437 9799,-11539 -452,-5311 -5142,-9620 -9451,-12873 -2472,-1866 -9527,-6746 -12187,-6305 -4066,678 -5049,6097 -5343,10636 -2842,-2708 -7034,-2272 -9506,-70 -2472,2199 -3641,5698 -4718,9077 -1079,3378 -2220,6887 -4658,9128 -2274,2094 -5867,3677 -5398,7234 562,4240 6100,5747 8661,9360 -629,-886 -1165,4775 -803,5736 1094,2891 3820,4802 5793,7016 4201,4713 6254,9459 11818,12210z"/>
   <path class="fil2" d="M194387 185957l-14200 7344c0,0 17056,12381 14200,-7344z"/>
   <path class="fil12" d="M174850 188870c777,1472 -373,3602 -2565,4755 -2192,1154 -4597,896 -5373,-577 -775,-1472 374,-3601 2566,-4755 2193,-1154 4599,-896 5372,577z"/>
   <path class="fil12" d="M195586 174705c776,1472 -373,3601 -2565,4757 -2193,1154 -4599,893 -5372,-579 -777,-1470 373,-3599 2565,-4753 2193,-1156 4598,-898 5372,575z"/>
   <path class="fil7" d="M184474 185437c-66,-82 199,-432 816,-875 583,-455 1604,-940 2361,-1756 750,-793 1022,-2439 -127,-2671 -1195,-405 -2549,964 -4103,2265 -387,319 -767,636 -1142,948 -354,321 -1095,796 -1865,701 -1465,-235 -2086,-1215 -2651,-1867 -1126,-1447 -1820,-2959 -2205,-4268 -761,-2644 -419,-4351 -236,-4335 258,-14 342,1627 1310,3953 486,1156 1217,2470 2280,3710 515,628 1167,1214 1631,1233 198,10 348,-56 716,-363 370,-312 745,-629 1127,-947 781,-634 1459,-1274 2355,-1869 870,-587 2113,-957 3221,-579 1190,309 1884,1695 1677,2656 -133,980 -619,1703 -1172,2230 -1173,978 -2218,1215 -2877,1510 -676,256 -1044,415 -1116,324z"/>
   <path class="fil13" d="M180951 213087c0,0 9059,51 13976,-2973 0,0 -4160,5104 -12479,6430l-1497 -3457z"/>
   <path class="fil10" d="M184879 172467c-82,448 -1348,587 -2687,1178 -1356,548 -2335,1362 -2715,1109 -387,-207 255,-1822 2087,-2594 1831,-778 3437,-115 3315,307z"/>
   <path class="fil10" d="M167129 184109c-342,-250 193,-1711 1499,-3170 1318,-1491 3005,-1988 3183,-1573 188,408 -840,1353 -1996,2663 -1175,1307 -2317,2359 -2686,2080z"/>
   <path class="fil7" d="M160247 181861c-733,-547 -1306,-2872 1503,-6010 2836,-3207 6004,-2645 6384,-1752 407,875 -647,2120 -3135,4939 -2526,2811 -3955,3418 -4752,2823z"/>
   <path class="fil7" d="M175160 169501c-406,-760 42,-2971 3695,-4511 3705,-1592 6174,164 6139,1076 -7,907 -1402,1543 -4654,2945 -3283,1377 -4744,1318 -5180,490z"/>
   <path class="fil8" d="M954380 191498c238,237 -3696,4664 -11861,9483 -8061,4816 -20752,9592 -35346,9698 -14597,108 -27355,-4478 -35487,-9175 -8233,-4699 -12235,-9068 -11999,-9310 341,-431 4817,3255 13057,7293 8167,4050 20470,8071 34403,7970 13935,-103 26178,-4307 34282,-8476 8186,-4158 12603,-7910 12951,-7483z"/>
   <path class="fil8" d="M865343 184808c-225,493 -4579,-1318 -11918,-2952 -3656,-865 -8095,-1529 -13040,-2146 -4962,-546 -10444,-982 -16236,-1395 -5796,-408 -11342,-872 -16381,-1495 -5032,-671 -9560,-1466 -13288,-2474 -7485,-1954 -11725,-4264 -11575,-4592 193,-492 4651,1030 12062,2366 3701,704 8161,1250 13129,1747 4981,455 10482,826 16283,1236 5806,413 11359,942 16395,1665 5025,790 9541,1709 13227,2884 7414,2260 11506,4849 11342,5156z"/>
   <path class="fil8" d="M777058 89594c13911,-2950 28330,-408 42359,1927 14032,2338 28598,4446 42316,682 24766,-6797 43567,-31819 69247,-31620 10575,85 20545,4601 30849,6990 12793,2969 26119,2647 39084,4765 12959,2120 26349,7330 33674,18231 8690,12936 6305,31187 -2811,43825 -9120,12639 -23725,20334 -38685,24696 -10437,3042 -21559,4800 -30589,10852 -9135,6123 -15101,15975 -23615,22940 -21357,17464 -54597,12460 -76660,-4109 -5543,-4164 -10683,-8992 -16911,-12040 -25331,-12400 -61761,4016 -83577,-18546 -22154,-22909 -18998,-61315 15319,-68593z"/>
   <path class="fil12" d="M770105 533308c0,0 23209,49746 25925,40538 2708,-9217 1812,-31339 359,-34500 -1461,-3160 -10948,-17113 -10948,-17113l-15336 11075z"/>
   <path class="fil11" d="M937928 131043c2146,2751 713,-206 3144,3766 10107,-356 16890,-8908 16890,-8908 0,0 16044,424 15856,-2439 -183,-2870 -15377,-1798 -15377,-1798 0,0 16074,-5051 15192,-7571 -877,-2516 -19434,5517 -19434,5517 0,0 18726,-11626 15959,-13488 -2765,-1861 -20783,8290 -20783,8290 0,0 15659,-12865 13312,-14522 -2343,-1658 -24060,15079 -24060,15079 316,-8233 -5593,-7944 -5593,-7944l247 20107c0,0 3657,2645 4647,3911z"/>
   <path class="fil11" d="M700154 40040c-3436,631 -770,-562 -5227,797 -7318,-6978 -6348,-17943 -6348,-17943 0,0 -12272,-10331 -10237,-12350 2047,-2023 12695,8863 12695,8863 0,0 -8662,-14446 -6333,-15747 2325,-1297 10875,17028 10875,17028 0,0 -6291,-21123 -2985,-20681 3302,445 10041,19989 10041,19989 0,0 -3168,-20008 -317,-19691 2851,313 7985,27253 7985,27253 5229,-6368 9451,-2230 9451,-2230l-13255 14576c0,0 -4767,-153 -6345,136z"/>
   <path class="fil11" d="M783415 124027c-4442,-726 -15174,6407 -20544,18033 -3003,6504 -5074,13114 -1622,23699 1622,4978 5025,5599 5780,7829 964,2826 -2216,11724 -2216,11724l12669 5117c825,-6113 1756,-12266 7989,-14920 2331,-992 4823,-1623 7022,-2882 5938,-3405 9108,-10848 11545,-16941 1819,-4552 -9497,-29834 -20623,-31659z"/>
   <path class="fil12" d="M768332 296805l-21225 -8518c0,0 -62992,116814 -62732,149223 263,32410 86518,97296 86518,97296l14548 -12573c0,0 -26631,-46434 -40869,-62806 -14235,-16376 23760,-162622 23760,-162622z"/>
   <path class="fil11" d="M873719 429873c0,0 46782,-22197 37381,-24157 -9400,-1951 -31385,739 -34412,2446 -3034,1709 -16168,12296 -16168,12296l13199 9415z"/>
   <path class="fil11" d="M789181 295792l-32200 11715c0,0 -32208,141663 -19913,163907 12292,22250 46825,7525 96006,-19317 41196,-22487 41196,-22487 41196,-22487l-13750 -9152c0,0 -47936,9393 -61398,18759 0,0 7023,-19905 16393,-48004 9363,-28101 15821,-56785 -26334,-95421z"/>
   <path class="fil11" d="M749546 199279c0,-9413 3029,-16223 12443,-16223 9416,0 22422,3303 22422,12717 0,9415 -7417,24703 -16831,24703 -9413,0 -18034,-11781 -18034,-21197z"/>
   <path class="fil11" d="M756981 181711c0,0 -29269,-31677 -35123,-62704 -5858,-31026 -15805,-81371 -15805,-81371l-11126 3201c0,0 -5271,68805 0,79343 5266,10537 31011,80690 38852,99114l23202 -37583z"/>
   <path class="fil11" d="M788426 206397c0,0 2248,-9853 39262,-23244 37010,-13392 106833,-56790 106833,-56790l6968 7968c0,0 -37939,43823 -60011,51511 -22072,7689 -68952,37994 -73775,40421 -7293,3667 -7204,8286 -19277,-19866z"/>
   <path class="fil10" d="M756981 181711c0,0 -29737,9637 -29737,54883 0,0 18,61974 7028,73248 0,0 11393,2917 25598,0 14894,-3064 29311,-14050 29311,-14050l23389 -70225 -2797 -32903 -31805 -6144c0,0 9126,42639 -23885,24309 -6416,-3562 9436,-27753 9436,-27753l-6538 -1365z"/>
   <path class="fil10" d="M731819 218510l-14654 -30527c0,0 2101,-18517 29002,-25155 0,0 2720,9334 5703,12901 2979,3567 11660,7358 11660,7358l-31711 35423z"/>
   <path class="fil10" d="M787215 230781l46595 -9550c0,0 8101,-16785 -11107,-36749 0,0 -36343,2193 -41047,2584 -4634,387 -1452,3951 -1452,3951l7011 39764z"/>
   <path class="fil10" d="M734196 294747c0,0 -44071,81480 -51352,96042 0,0 130019,59723 182800,-12168 0,0 -30026,-63545 -76440,-87737l0 0 -20023 -5993 -34202 9463 -783 393z"/>
   <path class="fil11" d="M802330 154916c0,0 5020,-5020 8109,-1545 3088,3475 -11194,8495 -11194,8495l3085 -6950z"/>
   <path class="fil8" d="M894159 86447c52,176 -1888,1013 -5593,1892 -3693,888 -9175,1695 -15979,1834 -6803,136 -14892,-469 -23747,-1670 -8858,-1175 -18486,-2900 -28614,-4005 -10111,-1080 -19833,-1278 -28443,113 -8612,1369 -16067,4190 -21762,7482 -5701,3321 -9663,7004 -12098,9795 -2450,2787 -3550,4570 -3798,4420 -136,-71 595,-2078 2819,-5203 2201,-3122 6092,-7237 11893,-10958 5796,-3698 13502,-6873 22454,-8465 8964,-1613 18991,-1487 29277,-387 10297,1124 19932,2947 28692,4270 8758,1349 16669,2174 23333,2331 13359,370 21444,-2001 21566,-1449z"/>
   <path class="fil7" d="M776767 152067c-14,197 -1445,333 -3628,-389 -541,-190 -1177,-441 -1770,-985 -295,-270 -565,-633 -734,-1067 -237,-607 -218,-1294 16,-1820 73,-107 71,-358 207,-363l422 -11c274,-40 596,51 912,110 574,110 757,91 1170,120 718,15 1468,-57 2211,-223 3046,-641 5089,-2859 6003,-4683 961,-1836 1044,-3218 1299,-3201 179,-23 537,1444 -255,3660 -404,1084 -1105,2331 -2238,3424 -1125,1090 -2684,1986 -4457,2373 -884,197 -1773,269 -2626,225 -373,-16 -959,-91 -1133,-129 -157,-28 -136,-63 -164,-42 -19,17 -30,49 -28,91 63,213 178,413 340,596 326,366 797,642 1259,872 1890,924 3229,1201 3194,1442z"/>
   <path class="fil2" d="M766316 152609l17162 6762c0,0 -15084,10402 -17162,-6762z"/>
   <path class="fil12" d="M790808 155864c-610,1156 -2500,1360 -4226,452 -1721,-908 -2626,-2579 -2014,-3738 610,-1156 2498,-1360 4223,-452 1721,907 2626,2579 2017,3738z"/>
   <path class="fil12" d="M771652 145706c-520,1200 -2388,1547 -4176,774 -1788,-772 -2815,-2373 -2298,-3574 521,-1201 2390,-1545 4179,-774 1784,774 2814,2373 2295,3574z"/>
   <path class="fil13" d="M765293 171433c0,0 6020,5039 12294,3415 0,0 -2164,3247 -10495,2056 0,0 694,-3576 -1799,-5471z"/>
   <path class="fil10" d="M789161 145082c0,753 -609,1360 -1359,1360 -753,0 -1358,-607 -1358,-1360 0,-751 605,-1357 1358,-1357 750,0 1359,606 1359,1357z"/>
   <path class="fil10" d="M778033 141075c0,750 -610,1359 -1360,1359 -750,0 -1357,-609 -1357,-1359 0,-751 607,-1360 1357,-1360 750,0 1360,609 1360,1360z"/>
   <path class="fil8" d="M793530 141461c-420,177 -1231,-804 -2460,-1599 -1203,-830 -2422,-1202 -2420,-1660 -40,-436 1663,-788 3314,321 1657,1100 1986,2807 1566,2938z"/>
   <path class="fil8" d="M773918 134863c-28,-424 1433,-961 3388,-907 1991,42 3461,1008 3260,1412 -190,407 -1576,232 -3323,198 -1757,-51 -3297,-241 -3325,-703z"/>
   <path class="fil10" d="M780047 553523c0,0 7140,25341 14512,23266 7373,-2073 1830,-37443 1830,-37443l-7358 -11626c0,0 6910,59205 -8984,25803z"/>
   <polygon class="fil10" points="861153,419806 868197,434107 872040,431974 862646,417883 "/>
   <polygon class="fil10" points="782388,516503 765097,532082 770220,536354 784735,520557 "/>
   <path class="fil10" d="M420895 361361c-4917,-12202 -6807,-25788 -14144,-36711 -10559,-15713 -30838,-23509 -39408,-40392 -3636,-7171 -4781,-15371 -4816,-23411 -73,-15910 4692,-32821 16976,-42929 14119,-11617 35302,-11453 51838,-3649 16533,7801 29163,21966 39905,36762 10739,14797 20142,30673 32651,44006 9272,9886 20272,18410 27259,30024 19151,31840 -556,72127 -34363,83619 -29708,10097 -65621,-21809 -75898,-47319z"/>
   <path class="fil11" d="M378575 585924c2940,2420 -267,746 4010,3529 -955,10685 -10838,17418 -10838,17418 0,0 -420,17014 -3595,16662 -3179,-345 -1142,-16379 -1142,-16379 0,0 -6507,16757 -9260,15687 -2750,-1062 7211,-20290 7211,-20290 0,0 -13961,19217 -15879,16189 -1916,-3027 10369,-21572 10369,-21572 0,0 -15169,15902 -16883,13330 -1712,-2569 18102,-24686 18102,-24686 -9171,-101 -8522,-6343 -8522,-6343l22338 1325c0,0 2736,4016 4089,5130z"/>
   <path class="fil11" d="M498453 357992c6912,-1079 27986,12577 22623,40310 -451,2328 -3491,7454 -4247,9574 -959,2687 6498,12512 6498,12512l-19244 6148c-824,-5813 558,-14309 -5661,-16834 -2326,-945 -4816,-1542 -7011,-2741 -5925,-3235 -9088,-10315 -11522,-16111 -1818,-4329 -3201,-8988 -3150,-13685 129,-11832 10609,-17441 21714,-19173z"/>
   <path class="fil11" d="M536991 433943c0,-9982 -3168,-13792 -13643,-13792 -10477,0 -24307,3810 -24307,13792 0,9984 7398,22478 17880,22478 10474,0 20070,-12494 20070,-22478z"/>
   <path class="fil11" d="M528718 415314c0,0 32574,-33591 39090,-66491 6519,-32900 17592,-86290 17592,-86290l12383 3398c0,0 5866,72960 0,84135 -5865,11173 -39096,88773 -38444,108634l-30621 -43386z"/>
   <path class="fil11" d="M470646 431575c0,0 -11078,1862 -28019,40353 -16942,38487 -69065,110141 -69065,110141l8472 7801c0,0 50819,-37864 60593,-60829 9773,-22970 22151,-51526 28019,-50288 5861,1245 30625,-32903 0,-47178z"/>
   <path class="fil14" d="M557861 463833l15170 -41867c0,0 -2339,-19638 -32280,-26677l-16960 24440 34070 44104z"/>
   <path class="fil14" d="M475703 428363c0,0 -17896,1507 -32401,33366 0,0 15954,22023 27622,22766 0,0 43344,-37048 4779,-56132z"/>
   <path class="fil11" d="M524875 806183c0,0 -25834,52749 -28854,42983 -3015,-9771 -2019,-33234 -399,-36582 1623,-3351 12184,-18147 12184,-18147l17069 11746z"/>
   <path class="fil15" d="M526849 555388l23622 -9033c0,0 70110,123871 69820,158242 -291,34366 -96291,103176 -96291,103176l-16194 -13336c0,0 45504,-66901 61348,-84264 7923,-8685 -48798,-51233 -57389,-92174 -8592,-40941 15084,-62611 15084,-62611z"/>
   <path class="fil11" d="M384807 778546c0,0 -48322,35618 -46312,25622 2016,-10005 14181,-30424 17229,-32696 3056,-2270 19557,-10813 19557,-10813l9526 17887z"/>
   <path class="fil8" d="M462574 599252l69893 -40506c0,0 2776,140708 -14003,171133 -16780,30424 -135199,49699 -135199,49699l-7984 -18919c0,0 73058,-43529 95491,-52048 22433,-8523 -8198,-109359 -8198,-109359z"/>
   <path class="fil8" d="M504200 531036c0,0 -51465,18225 -41626,68216 9837,49992 26235,59365 26235,59365l29514 -48429 29634 -63420 -29634 -3757 -14123 -11975z"/>
   <path class="fil14" d="M528718 415314c0,0 37887,21234 37887,69215 0,0 -4813,54702 -12613,66658 0,0 -12680,3094 -28492,0 -16578,-3247 -32624,-14901 -32624,-14901l-12945 -66971 -10074 -39105 5459 -1800 28497 -3131c0,0 -4094,42568 27728,21427 6699,-4452 -8343,-26647 -8343,-26647l5520 -4745z"/>
   <polygon class="fil2" points="662428,638055 719246,602882 672307,520944 620366,554625 "/>
   <path class="fil10" d="M382674 288907c150,-131 1901,1459 4678,4707 2762,3252 6530,8197 10310,14871 3799,6645 7558,15079 10238,24864 2776,9718 4638,20637 8905,31156 2216,5194 4901,10032 8097,14311 3224,4249 6800,7977 10482,11230 7519,6328 15403,10685 22426,13201 7016,2549 13025,3696 17204,4106 4173,460 6530,529 6535,802 11,171 -2340,530 -6627,447 -4284,-30 -10518,-851 -17863,-3205 -7348,-2322 -15651,-6617 -23594,-13087 -3889,-3324 -7677,-7172 -11089,-11600 -3378,-4448 -6234,-9539 -8553,-14983 -4446,-10997 -6202,-22013 -8789,-31599 -2469,-9618 -5902,-17894 -9374,-24555 -3447,-6676 -6871,-11741 -9298,-15190 -2441,-3445 -3871,-5313 -3688,-5476z"/>
   <path class="fil10" d="M480278 234690c582,-89 1151,7731 5527,19298 2183,5759 5435,12391 10101,19035 2336,3328 5020,6603 8059,9870 3019,3283 6306,6615 9413,10353 6230,7543 10514,15696 14554,22893 4005,7266 7197,14179 8819,20362 1691,6164 1792,11468 1255,14988 -561,3539 -1440,5330 -1586,5281 -278,-73 176,-1965 336,-5391 138,-3421 -298,-8407 -2188,-14233 -1833,-5851 -5121,-12444 -9227,-19556 -4169,-7110 -8493,-15099 -14444,-22288 -2988,-3597 -6228,-6917 -9265,-10280 -3053,-3346 -5831,-6831 -8171,-10317 -4700,-6981 -7837,-13938 -9802,-19952 -2010,-6015 -2865,-11087 -3271,-14583 -401,-3503 -293,-5463 -110,-5480z"/>
   <path class="fil7" d="M504634 388134c-33,-223 1261,-429 2483,-1866 281,-329 565,-811 562,-1095 -9,-300 -220,-828 -581,-1131 -380,-335 -797,-501 -1351,-445 -571,43 -1268,326 -2180,462 -1991,265 -3545,-861 -4568,-1773 -1050,-959 -1852,-1932 -2453,-2804 -1188,-1756 -1559,-3025 -1376,-3117 209,-114 929,936 2270,2409 670,731 1517,1571 2518,2382 985,786 2193,1498 3393,1308 638,-79 1379,-379 2287,-440 921,-89 1943,333 2506,965 600,648 933,1410 866,2313 -181,924 -669,1355 -1075,1759 -1751,1535 -3360,1284 -3301,1073z"/>
   <path class="fil2" d="M514020 389457l-15255 5548c0,0 12946,11325 15255,-5548z"/>
   <path class="fil12" d="M497241 388512c609,1158 -293,2830 -2017,3740 -1721,905 -3614,704 -4223,-455 -610,-1156 295,-2830 2016,-3737 1724,-908 3614,-704 4224,452z"/>
   <path class="fil12" d="M515329 379235c499,1211 -556,2793 -2355,3536 -1800,744 -3665,367 -4164,-844 -500,-1207 556,-2790 2356,-3533 1799,-743 3663,-366 4163,841z"/>
   <path class="fil10" d="M504430 375810c572,485 645,1344 159,1916 -485,572 -1344,645 -1915,159 -572,-485 -646,-1344 -160,-1916 485,-571 1344,-645 1916,-159z"/>
   <path class="fil10" d="M494178 381709c572,486 643,1344 157,1916 -485,572 -1344,643 -1915,159 -573,-485 -643,-1343 -158,-1917 485,-572 1342,-643 1916,-158z"/>
   <path class="fil10" d="M504491 370135c-136,434 -1410,420 -2810,844 -1411,381 -2483,1070 -2830,772 -358,-251 474,-1775 2388,-2319 1911,-554 3423,300 3252,703z"/>
   <path class="fil10" d="M486778 380833c-340,-254 195,-1715 1498,-3171 1318,-1491 3007,-1988 3182,-1573 190,406 -837,1350 -1995,2661 -1173,1306 -2315,2362 -2685,2083z"/>
   <path class="fil11" d="M481024 392163c0,0 -4894,-4111 -7244,-392 -2347,3719 10571,5677 10571,5677l-3327 -5285z"/>
   <path class="fil14" d="M363357 766970c0,0 -7016,3050 -8847,4882 -1829,1831 -18606,30807 -16470,34469 2134,3658 18960,-8767 18960,-8767 0,0 -14081,2666 6357,-30584z"/>
   <path class="fil14" d="M500258 805289c0,0 -4983,5388 -5752,7860 -766,2469 -2143,35925 1449,38171 3593,2249 13415,-16212 13415,-16212 0,0 -11740,9197 -9112,-29742l0 -77z"/>
   <path class="fil11" d="M591965 265084c3822,669 856,-596 5818,847 8143,-7401 7062,-19031 7062,-19031 0,0 13664,-10955 11396,-13094 -2279,-2148 -14130,9401 -14130,9401 0,0 9645,-15321 7051,-16700 -2591,-1377 -12104,18058 -12104,18058 0,0 6999,-22403 3320,-21932 -3674,469 -11178,21197 -11178,21197 0,0 3529,-21218 357,-20883 -3175,336 -8310,28133 -8310,28133 -7482,-6091 -12716,-2192 -12716,-2192l16372 16053c0,0 5306,-164 7062,143z"/>
   <polygon class="fil2" points="551908,233993 631351,280337 676040,195927 601560,154550 "/>
   <path class="fil10" d="M878879 407326c0,0 5340,-5824 11808,-6794 6473,-971 29604,-3721 33003,-648 3397,3074 -18750,13380 -18750,13380 0,0 7716,-4916 4513,-6745 -5661,-3238 -30574,807 -30574,807z"/>
  </g>
 </g>
</svg>
