<?xml version="1.0" encoding="UTF-8"?>
<!DOCTYPE svg PUBLIC "-//W3C//DTD SVG 1.1//EN" "http://www.w3.org/Graphics/SVG/1.1/DTD/svg11.dtd">
<!-- Creator: CorelDRAW X8 -->
<svg xmlns="http://www.w3.org/2000/svg" xml:space="preserve" width="100%" height="100%" version="1.1" style="shape-rendering:geometricPrecision; text-rendering:geometricPrecision; image-rendering:optimizeQuality; fill-rule:evenodd; clip-rule:evenodd"
viewBox="0 0 304800 541867"
 xmlns:xlink="http://www.w3.org/1999/xlink">
 <defs>
  <style type="text/css">
   <![CDATA[
    .fil1 {fill:url(#id0)}
    .fil3 {fill:url(#id1)}
    .fil0 {fill:url(#id2)}
    .fil2 {fill:url(#id3)}
   ]]>
  </style>
  <linearGradient id="id0" gradientUnits="userSpaceOnUse" x1="298599" y1="530416" x2="248730" y2="469180">
   <stop offset="0" style="stop-opacity:1; stop-color:#B9E3FB"/>
   <stop offset="1" style="stop-opacity:1; stop-color:#36A2FB"/>
  </linearGradient>
  <linearGradient id="id1" gradientUnits="userSpaceOnUse" x1="-49733" y1="483298" x2="32063" y2="483298">
   <stop offset="0" style="stop-opacity:1; stop-color:#C3DA59"/>
   <stop offset="1" style="stop-opacity:1; stop-color:#4FB852"/>
  </linearGradient>
  <linearGradient id="id2" gradientUnits="userSpaceOnUse" x1="72923" y1="72970" x2="15380" y2="-7611">
   <stop offset="0" style="stop-opacity:1; stop-color:#FBDA25"/>
   <stop offset="1" style="stop-opacity:1; stop-color:#F9A431"/>
  </linearGradient>
  <linearGradient id="id3" gradientUnits="userSpaceOnUse" x1="203633" y1="34994" x2="241062" y2="74963">
   <stop offset="0" style="stop-opacity:1; stop-color:#F177AD"/>
   <stop offset="1" style="stop-opacity:1; stop-color:#EE4389"/>
  </linearGradient>
 </defs>
 <g id="Layer_x0020_1">
  <metadata id="CorelCorpID_0Corel-Layer"/>
  <g id="_2425317910608">
   <path class="fil0" d="M9714 126148l0 -3 -228 0c-1000,-11 -2012,-36 -3033,-72l0 -12 -348 0c-577,-22 -1158,-49 -1742,-79l0 -5 -85 0c-389,-19 -778,-41 -1169,-65l0 -18 -333 0c-304,-19 -614,-45 -920,-67l0 -17 -229 0c-368,-26 -739,-55 -1109,-84 -173,-13 -344,-24 -519,-39l0 -125687 131302 0c-23178,10615 -40745,35489 -45026,64178 -22,147 -47,294 -70,441l-2 0 0 12c-25,163 -51,326 -77,489l-6 0 0 38c-25,154 -48,309 -74,464l-10 0 0 63c-24,146 -51,292 -77,438l-7 0 0 39 -82 463 -1 0 0 8c-55,304 -109,608 -167,911l0 0 0 3c-27,139 -55,277 -82,415l-2 0 0 10 -80 408 -4 0 0 17c-26,134 -51,268 -79,401l-4 0 0 23c-79,383 -164,765 -248,1148l-3 0 0 14c-54,246 -109,492 -166,738l-1 0 0 5 -78 329 -6 0 0 24c-208,886 -429,1770 -667,2651l-1 0 0 4c-53,194 -108,388 -162,582l-6 0 0 20c-52,189 -103,377 -156,565l-11 0 0 37c-52,183 -108,365 -161,548l-6 0 0 19c-212,720 -435,1438 -668,2154l-1 0 0 2 -80 249 -3 0 0 11 -79 240 -5 0 0 16c-26,78 -54,156 -81,235l-3 0 0 8 -83 242 0 0 0 1c-162,475 -328,949 -499,1421l-3 0 0 8c-80,220 -160,441 -242,660l-8 0 0 24 -84 227 0 0 0 1c-52,139 -107,278 -160,417l-7 0 0 19c-137,357 -275,713 -417,1068l-1 0 0 2c-135,335 -274,668 -413,1001l-5 0 0 13c-80,191 -156,382 -237,572l-14 0 0 33c-79,184 -163,368 -243,552l-8 0 0 17c-83,190 -165,379 -250,569l-1 0 0 0c-162,364 -329,725 -497,1086l-4 0 0 8 -75 160 -9 0 0 19c-473,1007 -969,2003 -1490,2990l-15 0 0 28 -72 139 -11 0 0 21 -76 146 -8 0 0 14 -82 153 -1 0 0 3c-135,251 -275,500 -413,750l-5 0 0 8c-325,587 -656,1169 -998,1747l-5 0 0 9 -243 409 -8 0 0 13c-82,135 -166,270 -249,405l-2 0 0 4c-273,447 -552,892 -836,1334l0 0 0 0 -162 251 -5 0 0 8 -156 242 -11 0 0 17c-51,78 -100,156 -151,234l-17 0 0 25 -152 226 -15 0 0 22c-51,77 -104,152 -155,229l-12 0 0 17 -159 234 -8 0 0 11 -163 239 -4 0 0 7c-56,81 -110,163 -166,244l-1 0 0 2c-136,195 -275,389 -412,583l-6 0 0 9c-137,193 -275,385 -413,576l-5 0 0 7c-79,109 -155,219 -235,328l-16 0 0 21c-77,105 -158,209 -236,313l-15 0 0 20c-457,613 -926,1220 -1406,1819l-15 0 0 19c-106,132 -210,267 -318,399l-16 0 0 22c-109,133 -222,264 -332,396l-3 0 0 3 -67 81 -16 0 0 20c-111,133 -222,266 -333,398l-2 0 0 1c-165,195 -330,390 -497,584l-4 0 0 5c-193,223 -389,443 -585,664l-1 0 0 0 -73 83 -10 0 0 12 -63 72 -21 0 0 23c-219,245 -443,487 -667,729l-2 0 0 2 -76 82 -7 0 0 8c-1090,1174 -2230,2315 -3422,3419l-6 0 0 6c-239,221 -476,444 -719,663l-33 0 0 30 -62 54 -21 0 0 19 -75 64 -9 0 0 9c-218,193 -439,385 -660,576l-9 0 0 8c-354,307 -714,611 -1077,912l-10 0 0 8c-131,109 -262,218 -394,326l-23 0 0 19 -78 65 -6 0 0 5 -305 246 -29 0 0 23 -77 60 -7 0 0 6c-104,82 -209,163 -313,245l-21 0 0 16c-278,219 -554,438 -836,653 -298,226 -601,447 -903,669l-17 0 0 12c-108,79 -213,160 -321,238l-13 0 0 10 -221 157 -30 0 0 22c-108,77 -220,153 -329,229l-6 0 0 5 -232 162 -18 0 0 13c-357,249 -716,496 -1080,740l-7 0 0 4 -247 163 -4 0 0 3 -249 164 -2 0 0 1c-212,139 -421,280 -635,417l-33 0 0 21c-78,49 -158,97 -236,146l-15 0 0 10c-218,137 -437,273 -658,408l-11 0 0 8c-410,252 -825,500 -1244,745l-10 0 0 6c-187,109 -372,220 -561,328l-24 0 0 14c-189,108 -380,214 -571,321l-14 0 0 8 -138 75 -29 0 0 16c-193,107 -386,213 -580,319l-6 0 0 3c-576,311 -1159,618 -1751,916l-4 0 0 2c-53,27 -105,55 -158,82l-9 0 0 4c-52,26 -102,53 -154,79l-13 0 0 7 -160 77 -8 0 0 4 -166 80 -1 0 0 0c-521,256 -1048,507 -1581,752l-7 0 0 3c-245,112 -493,221 -740,331l-13 0 0 6c-182,81 -363,165 -546,245l-39 0 0 17 -150 67 -17 0 0 7c-127,54 -257,106 -384,160l-34 0 0 14c-189,79 -379,158 -569,237l-16 0 0 6c-548,227 -1102,447 -1661,662l-11 0 0 5 -206 79 -45 0 0 17c-130,50 -258,101 -389,150l-29 0 0 11 -190 73 -60 0 0 21c-136,50 -274,97 -410,146l-8 0 0 3 -227 80 -24 0 0 9c-305,109 -608,220 -916,326l-4 0 0 1c-164,56 -330,111 -495,166l-6 0 0 2c-83,28 -167,54 -250,82l-1 0 0 0c-340,113 -680,225 -1024,334l-63 0 0 21c-65,20 -128,42 -193,63l-58 0 0 17c-73,23 -148,43 -221,66l-29 0 0 9c-269,83 -542,162 -813,242l-23 0 0 7c-578,170 -1161,335 -1750,494l-6 0 0 2 -303 82 -31 0 0 8c-93,25 -186,51 -279,76l-56 0 0 15c-85,22 -168,46 -253,68l-81 0 0 22c-84,21 -171,40 -256,62l-78 0 0 19 -265 64 -70 0 0 17c-683,170 -1375,331 -2073,485l-17 0 0 4 -368 80 -50 0 0 11 -335 72 -83 0 0 18c-101,21 -200,45 -301,66l-117 0 0 25c-99,21 -201,38 -301,58l-33 0 0 7c-134,26 -270,51 -404,77l-14 0 0 3c-755,147 -1519,285 -2292,415l-49 0 0 8 -453 76 -48 0 0 8c-152,24 -301,51 -454,75l-132 0 0 22c-140,22 -283,41 -423,62l-78 0 0 11c-169,25 -341,48 -511,72l-74 0 0 11c-596,85 -1195,166 -1800,240l-39 0 0 5c-223,27 -446,53 -670,79l-83 0 0 10c-209,23 -415,51 -625,73l-211 0 0 24c-209,22 -423,39 -634,60l-118 0 0 11c-253,25 -507,50 -762,72l-74 0 0 8c-289,26 -578,52 -870,76l-49 0 0 4c-369,29 -742,54 -1114,80l-224 0 0 16c-353,24 -707,47 -1063,67l-358 0 0 18c-441,24 -882,47 -1328,66l-10 0 0 0c-1098,45 -2213,72 -3341,84l-1089 0 0 6c-388,1 -778,0 -1170,-3z"/>
   <path class="fil1" d="M304800 452429l-74945 42375c-8470,4789 -11458,15541 -6666,24016l13033 23047 68578 0 0 -89438z"/>
   <path class="fil2" d="M223662 89417c-1585,0 -3127,-648 -4240,-1829l-29923 -31739c-1427,-1512 -1939,-3674 -1341,-5667 599,-1995 2215,-3521 4240,-3996l42445 -10044c2020,-489 4154,159 5581,1674 1428,1510 1940,3674 1343,5667l-12524 41781c-597,1993 -2213,3519 -4241,3997 -443,106 -895,156 -1340,156zm-24115 -34597l21734 23052 9096 -30345 -30830 7293z"/>
   <path class="fil3" d="M1 452429c18782,0 34008,15227 34008,34009 0,18784 -15226,34011 -34008,34011l-1 0 0 -8283 1 0c14209,0 25727,-11518 25727,-25728 0,-14208 -11518,-25728 -25727,-25728l-1 0 0 -8281 1 0z"/>
  </g>
 </g>
</svg>
