<?xml version="1.0" encoding="UTF-8"?>
<!DOCTYPE svg PUBLIC "-//W3C//DTD SVG 1.1//EN" "http://www.w3.org/Graphics/SVG/1.1/DTD/svg11.dtd">
<!-- Creator: CorelDRAW X8 -->
<svg xmlns="http://www.w3.org/2000/svg" xml:space="preserve" width="100%" height="100%" version="1.1" style="shape-rendering:geometricPrecision; text-rendering:geometricPrecision; image-rendering:optimizeQuality; fill-rule:evenodd; clip-rule:evenodd"
viewBox="0 0 650240 866986"
 xmlns:xlink="http://www.w3.org/1999/xlink">
 <defs>
  <style type="text/css">
   <![CDATA[
    .fil1 {fill:url(#id0)}
    .fil3 {fill:url(#id1)}
    .fil2 {fill:url(#id2)}
    .fil0 {fill:url(#id3)}
   ]]>
  </style>
  <linearGradient id="id0" gradientUnits="userSpaceOnUse" x1="633914" y1="836840" x2="502640" y2="675647">
   <stop offset="0" style="stop-opacity:1; stop-color:#B9E3FB"/>
   <stop offset="1" style="stop-opacity:1; stop-color:#36A2FB"/>
  </linearGradient>
  <linearGradient id="id1" gradientUnits="userSpaceOnUse" x1="-142603" y1="701500" x2="91933" y2="701500">
   <stop offset="0" style="stop-opacity:1; stop-color:#C3DA59"/>
   <stop offset="1" style="stop-opacity:1; stop-color:#4FB852"/>
  </linearGradient>
  <linearGradient id="id2" gradientUnits="userSpaceOnUse" x1="417885" y1="90999" x2="494114" y2="172404">
   <stop offset="0" style="stop-opacity:1; stop-color:#F177AD"/>
   <stop offset="1" style="stop-opacity:1; stop-color:#EE4389"/>
  </linearGradient>
  <linearGradient id="id3" gradientUnits="userSpaceOnUse" x1="136095" y1="136184" x2="28702" y2="-14202">
   <stop offset="0" style="stop-opacity:1; stop-color:#FBDA25"/>
   <stop offset="0.0117647" style="stop-opacity:1; stop-color:#FBDA25"/>
   <stop offset="1" style="stop-opacity:1; stop-color:#F9A431"/>
  </linearGradient>
 </defs>
 <g id="Layer_x0020_1">
  <metadata id="CorelCorpID_0Corel-Layer"/>
  <g id="_1709642557152">
   <path class="fil0" d="M18128 235427l0 -7 -425 0c-1865,-19 -3754,-66 -5659,-133l0 -23 -650 0c-1076,-40 -2161,-91 -3250,-147l0 -8 -160 0c-725,-38 -1451,-78 -2181,-122l0 -35 -621 0c-568,-35 -1147,-83 -1719,-123l0 -33 -426 0c-687,-48 -1379,-102 -2070,-156 -323,-25 -642,-45 -968,-73l0 -234568 245044 0c-43255,19812 -76041,66234 -84030,119775 -41,274 -88,548 -130,822l-4 0 0 23c-47,304 -96,608 -145,913l-11 0 0 70c-47,289 -89,578 -138,866l-18 0 0 118c-46,273 -96,546 -143,818l-13 0 0 72 -153 864 -3 0 0 16c-102,567 -203,1134 -311,1700l-1 0 0 6c-49,258 -102,517 -153,774l-3 0 0 19 -150 762 -6 0 0 31c-50,249 -96,499 -148,749l-8 0 0 42c-147,715 -305,1428 -463,2142l-5 0 0 27c-102,459 -204,918 -310,1377l-2 0 0 8 -146 616 -10 0 0 45c-389,1653 -802,3303 -1247,4947l-1 0 0 7c-98,362 -201,724 -302,1085l-11 0 0 39c-97,351 -191,703 -292,1053l-19 0 0 70c-98,341 -201,682 -302,1023l-10 0 0 35c-397,1345 -812,2685 -1248,4021l0 0 0 2 -150 466 -7 0 0 20 -146 448 -10 0 0 30c-48,146 -101,291 -150,438l-6 0 0 16 -155 452 0 0 0 1c-302,886 -612,1770 -931,2651l-6 0 0 16c-149,411 -299,822 -452,1232l-16 0 0 44 -155 424 -1 0 0 1c-97,260 -199,520 -298,779l-14 0 0 36c-255,665 -513,1330 -778,1992l-2 0 0 5c-250,625 -510,1246 -770,1868l-10 0 0 25c-148,355 -291,712 -442,1067l-26 0 0 60c-148,345 -304,687 -454,1032l-14 0 0 31c-155,354 -309,708 -467,1061l-1 0 0 2c-303,678 -614,1352 -929,2026l-7 0 0 15 -139 297 -17 0 0 37c-883,1878 -1810,3739 -2781,5580l-27 0 0 52 -136 259 -20 0 0 40 -143 273 -13 0 0 25 -154 286 -2 0 0 5c-252,469 -514,933 -771,1399l-9 0 0 17c-606,1093 -1224,2181 -1863,3260l-9 0 0 17 -454 763 -15 0 0 23c-152,253 -309,504 -464,757l-4 0 0 6c-509,835 -1029,1665 -1559,2490l-1 0 0 1 -301 467 -11 0 0 16 -291 452 -21 0 0 31c-95,145 -186,292 -282,437l-30 0 0 47 -283 421 -29 0 0 42c-95,143 -194,284 -290,426l-22 0 0 32 -297 436 -15 0 0 23 -303 445 -9 0 0 14c-104,151 -205,303 -310,454l-2 0 0 4c-253,365 -511,726 -768,1088l-12 0 0 17c-255,359 -511,718 -771,1075l-9 0 0 14c-147,203 -289,408 -438,610l-30 0 0 41c-144,196 -295,388 -440,584l-28 0 0 37c-853,1144 -1729,2276 -2625,3395l-27 0 0 34c-199,248 -392,500 -593,746l-31 0 0 40c-203,249 -414,493 -619,740l-5 0 0 6 -125 150 -31 0 0 37c-207,248 -413,496 -622,743l-2 0 0 3c-308,364 -616,728 -929,1089l-8 0 0 10c-359,415 -724,827 -1090,1238l-1 0 0 2 -137 154 -20 0 0 23 -117 133 -39 0 0 44c-409,457 -828,908 -1245,1360l-3 0 0 3 -142 153 -14 0 0 16c-2034,2191 -4161,4320 -6385,6381l-11 0 0 10c-446,414 -889,830 -1343,1238l-61 0 0 55 -116 101 -40 0 0 35 -138 121 -18 0 0 16c-407,361 -819,719 -1232,1076l-16 0 0 14c-662,574 -1333,1141 -2011,1702l-18 0 0 14c-245,204 -488,409 -736,610l-43 0 0 36 -146 120 -10 0 0 9 -569 459 -55 0 0 44 -144 112 -13 0 0 10c-193,154 -390,305 -584,458l-40 0 0 31c-517,407 -1033,817 -1560,1217 -554,422 -1120,835 -1685,1249l-31 0 0 23c-201,147 -398,298 -600,445l-24 0 0 18 -411 293 -57 0 0 40c-202,145 -409,285 -613,429l-11 0 0 8 -434 303 -34 0 0 24c-666,465 -1336,926 -2016,1381l-12 0 0 8 -461 304 -7 0 0 5 -465 307 -3 0 0 2c-396,259 -786,522 -1187,778l-61 0 0 38c-145,93 -295,182 -441,274l-28 0 0 17c-405,257 -815,510 -1226,763l-21 0 0 13c-766,471 -1540,934 -2321,1391l-20 0 0 12c-349,204 -695,410 -1047,612l-45 0 0 26c-352,201 -709,399 -1065,598l-27 0 0 15 -257 141 -55 0 0 30c-359,199 -719,398 -1082,594l-10 0 0 6c-1075,582 -2164,1153 -3268,1710l-8 0 0 4c-99,50 -196,103 -295,152l-17 0 0 9c-96,48 -190,99 -287,147l-25 0 0 13 -298 143 -14 0 0 7 -311 150 -1 0 0 0c-974,478 -1956,946 -2952,1404l-13 0 0 5c-456,210 -919,413 -1380,619l-24 0 0 10c-341,152 -677,308 -1020,457l-72 0 0 32 -280 125 -32 0 0 13c-236,102 -479,198 -717,298l-63 0 0 26c-352,150 -707,296 -1062,443l-30 0 0 12c-1022,422 -2056,834 -3100,1236l-20 0 0 8 -385 148 -83 0 0 32c-243,92 -482,188 -726,280l-54 0 0 20 -354 136 -114 0 0 40c-253,93 -511,180 -765,272l-15 0 0 5 -423 151 -45 0 0 16c-569,204 -1135,410 -1710,608l-6 0 0 2c-306,105 -616,206 -924,310l-13 0 0 4c-153,52 -310,101 -465,152l-2 0 0 1c-635,210 -1269,420 -1910,623l-119 0 0 38c-121,38 -238,80 -360,118l-108 0 0 33c-136,42 -276,80 -413,123l-55 0 0 16c-502,154 -1010,302 -1517,452l-43 0 0 13c-1078,318 -2166,626 -3265,923l-11 0 0 3 -567 153 -57 0 0 15c-174,47 -346,95 -520,141l-104 0 0 28c-159,41 -314,87 -474,128l-150 0 0 40c-157,40 -320,76 -478,116l-146 0 0 36 -494 120 -130 0 0 32c-1276,315 -2566,617 -3869,904l-32 0 0 7 -686 149 -94 0 0 21 -625 135 -155 0 0 34c-188,39 -373,83 -562,122l-218 0 0 47c-186,38 -376,72 -563,109l-61 0 0 12c-249,50 -504,95 -754,144l-26 0 0 5c-1409,276 -2835,533 -4276,775l-92 0 0 15 -846 141 -90 0 0 15c-283,46 -562,97 -846,141l-247 0 0 41c-261,41 -528,76 -790,115l-145 0 0 21c-316,47 -637,90 -954,135l-139 0 0 20c-1111,159 -2230,309 -3359,448l-73 0 0 9c-415,50 -832,99 -1249,147l-155 0 0 18c-390,45 -775,96 -1167,138l-393 0 0 44c-391,42 -790,74 -1184,113l-220 0 0 20c-473,47 -946,92 -1422,135l-138 0 0 13c-540,49 -1079,99 -1623,143l-93 0 0 7c-688,55 -1385,102 -2079,149l-417 0 0 30c-660,45 -1319,89 -1985,127l-668 0 0 33c-823,44 -1646,88 -2478,122l-18 0 0 1c-2049,84 -4130,134 -6235,155l-2033 0 0 13c-725,2 -1453,0 -2185,-6z"/>
   <path class="fil1" d="M650241 631552l-197283 111547c-22297,12606 -30163,40908 -17548,63217l34306 60671 180525 0 0 -235435z"/>
   <path class="fil2" d="M458678 201841c-3229,0 -6369,-1319 -8637,-3725l-60941 -64640c-2906,-3080 -3951,-7483 -2732,-11542 1221,-4064 4512,-7171 8636,-8139l86446 -20455c4113,-996 8459,323 11366,3408 2908,3076 3950,7482 2735,11542l-25507 85094c-1216,4059 -4508,7166 -8637,8140 -904,216 -1823,317 -2729,317zm-49115 -70461l44266 46948 18525 -61801 -62791 14853z"/>
   <path class="fil3" d="M-1 612988c53857,0 97517,43660 97517,97518 0,53855 -43660,97517 -97517,97517l0 -23747c40743,0 73768,-33027 73768,-73770 0,-40744 -33025,-73773 -73768,-73773l0 -23745z"/>
  </g>
 </g>
</svg>
