<?xml version="1.0" encoding="UTF-8"?>
<!DOCTYPE svg PUBLIC "-//W3C//DTD SVG 1.1//EN" "http://www.w3.org/Graphics/SVG/1.1/DTD/svg11.dtd">
<!-- Creator: CorelDRAW X8 -->
<svg xmlns="http://www.w3.org/2000/svg" xml:space="preserve" width="100%" height="100%" version="1.1" style="shape-rendering:geometricPrecision; text-rendering:geometricPrecision; image-rendering:optimizeQuality; fill-rule:evenodd; clip-rule:evenodd"
viewBox="0 0 650240 866994"
 xmlns:xlink="http://www.w3.org/1999/xlink">
 <defs>
  <style type="text/css">
   <![CDATA[
    .fil1 {fill:url(#id0)}
    .fil0 {fill:url(#id1)}
    .fil3 {fill:url(#id2)}
    .fil2 {fill:url(#id3)}
   ]]>
  </style>
  <linearGradient id="id0" gradientUnits="userSpaceOnUse" x1="-129226" y1="684537" x2="83310" y2="684537">
   <stop offset="0" style="stop-opacity:1; stop-color:#C3DA59"/>
   <stop offset="1" style="stop-opacity:1; stop-color:#4FB852"/>
  </linearGradient>
  <linearGradient id="id1" gradientUnits="userSpaceOnUse" x1="634124" y1="837237" x2="504545" y2="678124">
   <stop offset="0" style="stop-opacity:1; stop-color:#B9E3FB"/>
   <stop offset="1" style="stop-opacity:1; stop-color:#36A2FB"/>
  </linearGradient>
  <linearGradient id="id2" gradientUnits="userSpaceOnUse" x1="458243" y1="90924" x2="555498" y2="194781">
   <stop offset="0" style="stop-opacity:1; stop-color:#F177AD"/>
   <stop offset="1" style="stop-opacity:1; stop-color:#EE4389"/>
  </linearGradient>
  <linearGradient id="id3" gradientUnits="userSpaceOnUse" x1="189485" y1="94153" x2="39962" y2="-115227">
   <stop offset="0" style="stop-opacity:1; stop-color:#FBDA25"/>
   <stop offset="0.0117647" style="stop-opacity:1; stop-color:#FBDA25"/>
   <stop offset="1" style="stop-opacity:1; stop-color:#F9A431"/>
  </linearGradient>
 </defs>
 <g id="Layer_x0020_1">
  <metadata id="CorelCorpID_0Corel-Layer"/>
  <g id="_2425323082576">
   <path class="fil0" d="M650240 634599l-194737 110107c-22008,12443 -29773,40379 -17321,62401l33863 59887 178195 0 0 -232395z"/>
   <path class="fil1" d="M0 604327c48806,1 88370,39565 88370,88371 0,48805 -39564,88369 -88370,88370l0 -21519c36921,-1 66851,-29930 66851,-66851 0,-36922 -29930,-66851 -66851,-66851l0 -21520z"/>
   <path class="fil2" d="M25241 232329l0 -9 -592 0c-2597,-27 -5227,-93 -7879,-185l0 -32 -906 0c-1498,-56 -3008,-127 -4525,-205l0 -12 -223 0c-1008,-51 -2019,-108 -3035,-169l0 -48 -866 0c-790,-50 -1596,-116 -2392,-173l0 -45 -593 0c-957,-67 -1920,-142 -2883,-217 -449,-35 -894,-63 -1347,-101l0 -231133 246607 0c-10922,21928 -18660,46047 -22429,71307 -56,382 -123,763 -182,1144l-5 0 0 32c-65,424 -133,847 -202,1271l-15 0 0 98c-64,402 -124,804 -192,1206l-25 0 0 164c-64,380 -134,760 -200,1139l-17 0 0 100 -214 1203 -4 0 0 23c-141,789 -283,1578 -432,2367l-2 0 0 8c-68,359 -142,719 -213,1078l-4 0 0 26 -209 1060 -9 0 0 44c-69,347 -133,695 -205,1042l-11 0 0 59c-205,995 -425,1988 -644,2982l-9 0 0 37c-141,640 -283,1279 -431,1918l-3 0 0 12 -202 857 -15 0 0 62c-541,2302 -1116,4599 -1735,6889l-2 0 0 8c-137,505 -280,1008 -420,1512l-15 0 0 54c-136,489 -267,978 -407,1466l-27 0 0 97c-136,476 -281,949 -420,1424l-15 0 0 49c-551,1873 -1130,3738 -1737,5598l-1 0 0 4 -208 648 -9 0 0 29 -203 623 -14 0 0 41c-68,204 -141,407 -209,610l-9 0 0 23 -216 629 -1 0 0 2c-419,1234 -851,2464 -1295,3691l-8 0 0 21c-207,573 -416,1146 -629,1717l-22 0 0 60 -217 591 -1 0 0 1c-136,362 -277,723 -415,1085l-20 0 0 49c-354,927 -714,1852 -1083,2775l-2 0 0 6c-349,870 -711,1735 -1072,2601l-14 0 0 34c-207,495 -405,992 -616,1486l-36 0 0 84c-206,481 -423,957 -632,1436l-20 0 0 44c-215,492 -430,986 -650,1477l-1 0 0 2c-423,944 -855,1884 -1294,2822l-9 0 0 21 -194 414 -24 0 0 51c-1229,2615 -2519,5205 -3872,7768l-38 0 0 73 -188 361 -29 0 0 55 -198 380 -19 0 0 36 -213 398 -4 0 0 6c-351,653 -715,1300 -1074,1949l-12 0 0 23c-843,1522 -1704,3037 -2593,4539l-14 0 0 23 -631 1063 -20 0 0 32c-213,353 -431,702 -646,1053l-6 0 0 10c-710,1162 -1434,2318 -2172,3466l0 0 0 1 -420 651 -14 0 0 22 -407 629 -28 0 0 44c-132,202 -260,406 -393,608l-42 0 0 65 -394 586 -40 0 0 58c-133,199 -270,396 -404,594l-31 0 0 45 -413 607 -21 0 0 31 -422 621 -12 0 0 18c-145,211 -286,423 -431,633l-3 0 0 5c-353,508 -713,1011 -1071,1516l-16 0 0 23c-355,500 -712,999 -1073,1497l-13 0 0 19c-205,282 -402,568 -609,850l-42 0 0 56c-201,273 -411,541 -613,813l-39 0 0 52c-1188,1594 -2407,3168 -3655,4727l-38 0 0 47c-276,346 -545,696 -825,1039l-44 0 0 55c-281,347 -575,686 -861,1030l-7 0 0 9 -175 209 -42 0 0 51c-288,346 -575,691 -866,1035l-3 0 0 4c-429,507 -858,1014 -1293,1517l-11 0 0 13c-500,579 -1008,1152 -1518,1724l-2 0 0 2 -190 216 -27 0 0 31 -164 185 -54 0 0 62c-570,636 -1152,1264 -1734,1894l-3 0 0 3 -198 214 -20 0 0 21c-2832,3051 -5793,6015 -8890,8885l-16 0 0 13c-621,576 -1236,1156 -1869,1724l-86 0 0 77 -160 140 -56 0 0 50 -193 168 -25 0 0 21c-565,504 -1140,1002 -1714,1499l-23 0 0 20c-922,798 -1856,1588 -2800,2370l-24 0 0 19c-342,283 -681,569 -1026,849l-60 0 0 50 -203 168 -14 0 0 12 -792 639 -77 0 0 61 -200 156 -18 0 0 14c-268,215 -543,425 -814,638l-54 0 0 43c-721,567 -1438,1137 -2173,1695 -772,586 -1559,1161 -2345,1738l-44 0 0 32c-280,205 -554,416 -835,619l-34 0 0 26 -573 408 -78 0 0 56c-282,201 -570,397 -854,596l-15 0 0 12 -605 422 -46 0 0 33c-928,648 -1861,1290 -2807,1922l-18 0 0 12 -641 423 -10 0 0 7 -647 427 -5 0 0 3c-551,361 -1094,727 -1652,1083l-85 0 0 53c-202,130 -410,254 -614,382l-39 0 0 24c-565,357 -1135,710 -1708,1062l-29 0 0 18c-1065,656 -2144,1300 -3231,1937l-27 0 0 16c-487,284 -968,572 -1459,853l-62 0 0 35c-490,281 -987,557 -1482,833l-38 0 0 22 -358 196 -76 0 0 42c-500,277 -1002,553 -1506,827l-15 0 0 8c-1497,810 -3013,1605 -4550,2380l-11 0 0 7c-139,70 -273,142 -411,211l-24 0 0 11c-134,68 -264,139 -400,206l-34 0 0 18 -415 200 -20 0 0 10 -432 207 -2 0 0 1c-1356,665 -2723,1317 -4110,1954l-17 0 0 8c-636,292 -1281,575 -1922,861l-33 0 0 14c-475,212 -944,429 -1421,637l-99 0 0 45 -391 173 -44 0 0 18c-330,142 -668,275 -999,416l-88 0 0 36c-490,208 -985,412 -1479,615l-41 0 0 18c-1422,588 -2862,1161 -4316,1721l-28 0 0 10 -536 207 -116 0 0 44c-338,129 -670,263 -1010,390l-76 0 0 29 -493 188 -158 0 0 56c-352,129 -711,251 -1065,379l-21 0 0 7 -589 209 -63 0 0 23c-792,284 -1579,571 -2381,846l-8 0 0 3c-427,147 -858,288 -1286,432l-18 0 0 6c-214,72 -432,140 -648,212l-3 0 0 1c-883,292 -1766,585 -2659,867l-165 0 0 54c-169,53 -332,111 -501,163l-151 0 0 46c-189,59 -385,112 -575,171l-76 0 0 23c-699,215 -1407,420 -2113,629l-59 0 0 18c-1501,443 -3016,871 -4547,1285l-15 0 0 4 -789 214 -80 0 0 21c-242,65 -481,132 -724,196l-144 0 0 39c-222,58 -438,121 -660,178l-209 0 0 56c-220,56 -446,105 -666,161l-203 0 0 50 -687 167 -182 0 0 45c-1776,439 -3572,859 -5386,1259l-45 0 0 9 -956 208 -130 0 0 28 -871 190 -215 0 0 46c-262,55 -520,116 -783,170l-303 0 0 66c-259,53 -524,99 -784,152l-85 0 0 15c-347,70 -701,134 -1050,202l-36 0 0 7c-1962,383 -3947,741 -5954,1079l-127 0 0 21 -1179 196 -125 0 0 22c-394,63 -782,134 -1178,195l-343 0 0 57c-364,57 -735,106 -1101,160l-202 0 0 29c-440,66 -886,125 -1328,189l-192 0 0 27c-1548,221 -3106,431 -4678,624l-101 0 0 12c-577,71 -1159,138 -1739,206l-216 0 0 25c-543,62 -1079,133 -1625,192l-547 0 0 61c-545,58 -1101,102 -1648,156l-307 0 0 29c-659,65 -1317,128 -1980,188l-192 0 0 19c-752,67 -1502,137 -2260,198l-129 0 0 9c-958,78 -1927,142 -2894,209l-582 0 0 42c-917,61 -1836,123 -2763,175l-930 0 0 46c-1146,62 -2292,123 -3450,171l-25 0 0 1c-2853,116 -5751,186 -8681,216l-2831 0 0 18c-1009,2 -2022,-1 -3041,-9z"/>
   <path class="fil3" d="M510287 232339c-4119,0 -8125,-1683 -11018,-4753l-77750 -82469c-3708,-3929 -5041,-9547 -3487,-14726 1559,-5184 5758,-9148 11019,-10384l110289 -26097c5248,-1270 10793,412 14501,4348 3710,3925 5040,9546 3490,14726l-32543 108565c-1551,5178 -5750,9142 -11018,10384 -1153,277 -2327,406 -3483,406zm-62662 -89896l56476 59896 23635 -78846 -80111 18950z"/>
  </g>
 </g>
</svg>
