<?xml version="1.0" encoding="UTF-8"?>
<!DOCTYPE svg PUBLIC "-//W3C//DTD SVG 1.1//EN" "http://www.w3.org/Graphics/SVG/1.1/DTD/svg11.dtd">
<!-- Creator: CorelDRAW X8 -->
<svg xmlns="http://www.w3.org/2000/svg" xml:space="preserve" width="100%" height="100%" version="1.1" style="shape-rendering:geometricPrecision; text-rendering:geometricPrecision; image-rendering:optimizeQuality; fill-rule:evenodd; clip-rule:evenodd"
viewBox="0 0 6773334 3288524"
 xmlns:xlink="http://www.w3.org/1999/xlink">
 <defs>
  <style type="text/css">
   <![CDATA[
    .fil2 {fill:url(#id0)}
    .fil0 {fill:url(#id1)}
    .fil1 {fill:url(#id2)}
    .fil3 {fill:url(#id3)}
   ]]>
  </style>
  <linearGradient id="id0" gradientUnits="userSpaceOnUse" x1="4.88822e+06" y1="528067" x2="5.43083e+06" y2="1.10751e+06">
   <stop offset="0" style="stop-opacity:1; stop-color:#F177AD"/>
   <stop offset="1" style="stop-opacity:1; stop-color:#EE4389"/>
  </linearGradient>
  <linearGradient id="id1" gradientUnits="userSpaceOnUse" x1="949710" y1="490697" x2="200295" y2="-558733">
   <stop offset="0" style="stop-opacity:1; stop-color:#FBDA25"/>
   <stop offset="0.0117647" style="stop-opacity:1; stop-color:#FBDA25"/>
   <stop offset="1" style="stop-opacity:1; stop-color:#F9A431"/>
  </linearGradient>
  <linearGradient id="id2" gradientUnits="userSpaceOnUse" x1="6.69128e+06" y1="3.13701e+06" x2="6.0315e+06" y2="2.32685e+06">
   <stop offset="0" style="stop-opacity:1; stop-color:#B9E3FB"/>
   <stop offset="1" style="stop-opacity:1; stop-color:#36A2FB"/>
  </linearGradient>
  <linearGradient id="id3" gradientUnits="userSpaceOnUse" x1="-716720" y1="2.44426e+06" x2="462056" y2="2.44426e+06">
   <stop offset="0" style="stop-opacity:1; stop-color:#C3DA59"/>
   <stop offset="1" style="stop-opacity:1; stop-color:#4FB852"/>
  </linearGradient>
 </defs>
 <g id="Layer_x0020_1">
  <metadata id="CorelCorpID_0Corel-Layer"/>
  <g id="_1709665943088">
   <path class="fil0" d="M126510 1183241l0 -43 -2970 0c-13014,-135 -26194,-467 -39488,-929l0 -161 -4539 0c-7509,-279 -15080,-635 -22682,-1024l0 -62 -1114 0c-5056,-258 -10124,-543 -15216,-848l0 -242 -4339 0c-3961,-246 -7999,-579 -11988,-862l0 -227 -2977 0c-4795,-340 -9620,-716 -14445,-1088 -2252,-178 -4482,-318 -6752,-510l0 -1177245 1245557 0c-59798,114850 -101989,242329 -121962,376188 -284,1912 -616,3826 -911,5735l-23 0 0 159c-328,2125 -669,4247 -1012,6373l-78 0 0 490c-324,2014 -624,4030 -961,6042l-129 0 0 824c-317,1904 -669,3808 -1000,5709l-89 0 0 504 -1067 6027 -23 0 0 114c-706,3957 -1416,7908 -2165,11863l-10 0 0 40c-343,1802 -712,3604 -1065,5402l-25 0 0 131 -1046 5315 -43 0 0 218c-348,1741 -669,3485 -1027,5226l-58 0 0 291c-1028,4990 -2130,9969 -3230,14950l-39 0 0 188c-709,3206 -1423,6408 -2162,9610l-13 0 0 58 -1017 4297 -73 0 0 311c-2712,11540 -5596,23053 -8698,34527l-11 0 0 43c-681,2527 -1401,5052 -2105,7576l-74 0 0 272c-682,2451 -1339,4904 -2040,7348l-135 0 0 487c-683,2383 -1405,4756 -2105,7136l-75 0 0 247c-2764,9384 -5666,18735 -8701,28059l-8 0 0 18 -1042 3246 -47 0 0 144 -1018 3124 -70 0 0 207c-341,1022 -704,2037 -1050,3059l-40 0 0 114 -1083 3149 -4 0 0 13c-2104,6182 -4267,12351 -6493,18497l-40 0 0 108c-1040,2870 -2087,5742 -3155,8602l-111 0 0 303 -1085 2962 -3 0 0 6c-683,1815 -1389,3627 -2083,5437l-96 0 0 247c-1781,4645 -3580,9283 -5431,13907l-11 0 0 33c-1748,4358 -3560,8697 -5372,13033l-70 0 0 173c-1037,2481 -2031,4970 -3090,7446l-178 0 0 422c-1030,2407 -2121,4797 -3170,7197l-95 0 0 218c-1081,2470 -2157,4942 -3259,7405l-7 0 0 12c-2117,4731 -4286,9440 -6483,14140l-50 0 0 106 -969 2073 -119 0 0 261c-6163,13101 -12629,26086 -19409,38931l-188 0 0 364 -945 1812 -146 0 0 275 -993 1905 -93 0 0 178 -1070 1996 -18 0 0 32c-1759,3271 -3582,6513 -5383,9766l-61 0 0 114c-4225,7634 -8542,15226 -12996,22751l-68 0 0 117 -3166 5324 -102 0 0 164c-1064,1769 -2159,3519 -3237,5279l-28 0 0 47c-3558,5826 -7188,11620 -10884,17375l-2 0 0 7 -2105 3259 -72 0 0 111 -2037 3153 -140 0 0 219c-664,1013 -1304,2037 -1971,3049l-209 0 0 324 -1979 2942 -197 0 0 289c-666,998 -1354,1981 -2024,2977l-154 0 0 223 -2072 3044 -104 0 0 154 -2117 3111 -63 0 0 92c-725,1055 -1431,2120 -2159,3174l-15 0 0 23c-1766,2547 -3571,5070 -5364,7598l-80 0 0 114c-1782,2509 -3571,5012 -5379,7506l-65 0 0 93c-1028,1416 -2018,2852 -3056,4262l-210 0 0 283c-1005,1367 -2058,2709 -3074,4074l-194 0 0 258c-5953,7987 -12063,15881 -18317,23693l-190 0 0 237c-1384,1731 -2734,3486 -4135,5207l-219 0 0 276c-1413,1738 -2885,3439 -4317,5164l-37 0 0 43 -873 1046 -217 0 0 260c-1440,1731 -2882,3463 -4336,5183l-18 0 0 22c-2148,2541 -4296,5079 -6477,7602l-57 0 0 64c-2509,2902 -5055,5774 -7610,8644l-8 0 0 9 -950 1081 -140 0 0 157 -818 929 -272 0 0 308c-2856,3188 -5778,6336 -8690,9490l-19 0 0 21 -991 1068 -97 0 0 108c-14194,15292 -29039,30148 -44559,44530l-78 0 0 69c-3114,2887 -6199,5791 -9370,8639l-428 0 0 386 -807 704 -279 0 0 247 -966 842 -125 0 0 108c-2835,2524 -5715,5018 -8595,7511l-113 0 0 99c-4620,4003 -9300,7958 -14035,11878l-122 0 0 99c-1712,1420 -3408,2849 -5137,4255l-303 0 0 250 -1015 840 -73 0 0 62 -3966 3204 -390 0 0 302 -1001 786 -87 0 0 68c-1350,1073 -2722,2130 -4080,3198l-274 0 0 212c-3615,2842 -7211,5704 -10889,8497 -3871,2940 -7816,5823 -11757,8711l-219 0 0 163c-1405,1029 -2776,2080 -4185,3102l-171 0 0 127 -2870 2050 -394 0 0 276c-1409,1009 -2859,1991 -4276,2991l-78 0 0 55 -3030 2120 -236 0 0 164c-4647,3246 -9326,6465 -14065,9635l-90 0 0 59 -3213 2119 -52 0 0 35 -3244 2142 -21 0 0 14c-2761,1809 -5488,3645 -8279,5429l-430 0 0 266c-1012,647 -2055,1271 -3074,1912l-195 0 0 121c-2832,1790 -5692,3559 -8561,5323l-147 0 0 92c-5338,3288 -10745,6516 -16196,9708l-135 0 0 79c-2438,1426 -4851,2866 -7311,4274l-308 0 0 179c-2461,1408 -4949,2786 -7431,4175l-192 0 0 105 -1792 986 -385 0 0 210c-2505,1388 -5016,2772 -7547,4143l-74 0 0 41c-7503,4060 -15098,8048 -22804,11934l-58 0 0 31c-690,348 -1365,712 -2058,1058l-116 0 0 58c-675,337 -1328,695 -2005,1030l-175 0 0 90 -2077 1001 -102 0 0 48 -2166 1041 -9 0 0 5c-6794,3333 -13650,6601 -20596,9793l-91 0 0 40c-3183,1462 -6414,2883 -9630,4314l-168 0 0 75c-2378,1057 -4727,2148 -7121,3191l-499 0 0 221 -1954 867 -224 0 0 93c-1651,713 -3345,1379 -5005,2083l-438 0 0 183c-2456,1039 -4938,2061 -7414,3085l-207 0 0 87c-7131,2947 -14346,5820 -21632,8623l-141 0 0 56 -2687 1033 -579 0 0 222c-1694,645 -3361,1317 -5063,1953l-381 0 0 146 -2471 944 -794 0 0 281c-1761,647 -3565,1259 -5335,1898l-108 0 0 36 -2951 1049 -317 0 0 114c-3969,1423 -7917,2862 -11931,4241l-43 0 0 16c-2136,735 -4296,1441 -6444,2163l-90 0 0 31c-1074,361 -2165,700 -3246,1058l-19 0 0 5c-4426,1469 -8849,2937 -13329,4350l-823 0 0 268c-847,266 -1667,556 -2512,821l-756 0 0 228c-951,297 -1929,562 -2883,858l-383 0 0 115c-3503,1077 -7050,2108 -10585,3153l-303 0 0 90c-7520,2222 -15114,4367 -22784,6440l-77 0 0 22 -3952 1068 -402 0 0 108c-1213,324 -2413,664 -3629,982l-725 0 0 194c-1112,289 -2195,608 -3306,894l-1048 0 0 279c-1100,279 -2233,531 -3338,811l-1017 0 0 246 -3444 840 -913 0 0 222c-8900,2204 -17903,4306 -26994,6312l-222 0 0 49 -4793 1039 -651 0 0 143 -4366 947 -1079 0 0 235c-1313,275 -2604,580 -3923,851l-1519 0 0 331c-1301,266 -2627,497 -3929,759l-427 0 0 81c-1741,348 -3514,666 -5265,1009l-177 0 0 33c-9836,1923 -19786,3719 -29843,5410l-639 0 0 105 -5907 985 -626 0 0 105c-1975,321 -3922,672 -5903,980l-1721 0 0 288c-1823,283 -3686,527 -5517,802l-1012 0 0 145c-2207,330 -4441,626 -6657,945l-966 0 0 135c-7754,1108 -15563,2160 -23444,3129l-506 0 0 60c-2895,354 -5808,693 -8718,1030l-1081 0 0 127c-2722,311 -5406,666 -8144,962l-2742 0 0 305c-2729,290 -5517,513 -8259,783l-1540 0 0 146c-3298,325 -6602,643 -9921,943l-964 0 0 92c-3771,338 -7529,688 -11329,996l-647 0 0 46c-4799,386 -9660,711 -14504,1043l-2914 0 0 211c-4602,308 -9206,618 -13850,879l-4660 0 0 230c-5744,310 -11489,615 -17294,856l-124 0 0 7c-14300,583 -28823,931 -43513,1083l-14187 0 0 88c-5058,13 -10133,-2 -15241,-45z"/>
   <path class="fil1" d="M6773334 2105232l-991542 560634c-112063,63357 -151598,205600 -88197,317728l172424 304930 907315 0 0 -1183292z"/>
   <path class="fil2" d="M5178586 1317046c-22982,0 -45329,-9390 -61473,-26518l-433779 -460108c-20687,-21918 -28122,-53260 -19451,-82155 8696,-28925 32120,-51042 61474,-57936l615322 -145597c29279,-7089 60214,2298 80902,24258 20699,21897 28116,53260 19467,82155l-181559 605703c-8655,28889 -32082,51006 -61474,57936 -6433,1543 -12979,2262 -19429,2262zm-349599 -501541l315085 334170 131865 -439898 -446950 105728z"/>
   <path class="fil3" d="M0 1999401c270684,0 490119,219435 490119,490128 0,270674 -219435,490119 -490119,490119l0 -119352c204773,0 370758,-165994 370758,-370767 0,-204782 -165985,-370786 -370758,-370786l0 -119342z"/>
  </g>
 </g>
</svg>
