<?xml version="1.0" encoding="UTF-8"?>
<!DOCTYPE svg PUBLIC "-//W3C//DTD SVG 1.1//EN" "http://www.w3.org/Graphics/SVG/1.1/DTD/svg11.dtd">
<!-- Creator: CorelDRAW X8 -->
<svg xmlns="http://www.w3.org/2000/svg" xml:space="preserve" width="100%" height="100%" version="1.1" style="shape-rendering:geometricPrecision; text-rendering:geometricPrecision; image-rendering:optimizeQuality; fill-rule:evenodd; clip-rule:evenodd"
viewBox="0 0 304800 541866"
 xmlns:xlink="http://www.w3.org/1999/xlink">
 <defs>
  <style type="text/css">
   <![CDATA[
    .fil1 {fill:url(#id0)}
    .fil0 {fill:url(#id1)}
    .fil3 {fill:url(#id2)}
    .fil2 {fill:url(#id3)}
   ]]>
  </style>
  <linearGradient id="id0" gradientUnits="userSpaceOnUse" x1="296052" y1="525713" x2="225713" y2="439341">
   <stop offset="0" style="stop-opacity:1; stop-color:#B9E3FB"/>
   <stop offset="1" style="stop-opacity:1; stop-color:#36A2FB"/>
  </linearGradient>
  <linearGradient id="id1" gradientUnits="userSpaceOnUse" x1="72923" y1="72970" x2="15380" y2="-7610">
   <stop offset="0" style="stop-opacity:1; stop-color:#FBDA25"/>
   <stop offset="0.0117647" style="stop-opacity:1; stop-color:#FBDA25"/>
   <stop offset="1" style="stop-opacity:1; stop-color:#F9A431"/>
  </linearGradient>
  <linearGradient id="id2" gradientUnits="userSpaceOnUse" x1="-73911" y1="449803" x2="47649" y2="449803">
   <stop offset="0" style="stop-opacity:1; stop-color:#C3DA59"/>
   <stop offset="1" style="stop-opacity:1; stop-color:#4FB852"/>
  </linearGradient>
  <linearGradient id="id3" gradientUnits="userSpaceOnUse" x1="193159" y1="56875" x2="240801" y2="107753">
   <stop offset="0" style="stop-opacity:1; stop-color:#F177AD"/>
   <stop offset="1" style="stop-opacity:1; stop-color:#EE4389"/>
  </linearGradient>
 </defs>
 <g id="Layer_x0020_1">
  <metadata id="CorelCorpID_0Corel-Layer"/>
  <g id="_1709654695216">
   <path class="fil0" d="M9714 126148l0 -3 -228 0c-999,-11 -2011,-36 -3032,-72l0 -12 -349 0c-576,-21 -1157,-49 -1741,-79l0 -4 -86 0c-388,-20 -777,-42 -1168,-65l0 -19 -333 0c-305,-19 -614,-45 -921,-66l0 -18 -228 0c-369,-26 -739,-55 -1110,-83 -173,-14 -344,-25 -518,-39l0 -125688 131301 0c-23178,10616 -40745,35490 -45026,64178 -21,147 -47,294 -70,441l-1 0 0 12c-26,163 -52,326 -78,489l-6 0 0 38c-25,155 -48,309 -74,464l-10 0 0 63c-24,146 -51,293 -77,439l-6 0 0 38 -82 463 -2 0 0 9c-54,304 -109,607 -166,911l-1 0 0 3c-26,138 -55,276 -82,415l-2 0 0 10 -80 408 -3 0 0 16c-27,134 -52,268 -79,402l-5 0 0 22c-79,383 -163,766 -248,1148l-3 0 0 14c-54,247 -109,492 -166,738l-1 0 0 5 -78 330 -6 0 0 24c-208,886 -429,1770 -667,2651l-1 0 0 3c-53,194 -108,388 -162,582l-6 0 0 21c-52,188 -102,376 -156,564l-11 0 0 37c-52,183 -107,365 -161,548l-6 0 0 19c-212,721 -435,1439 -668,2155l-1 0 0 1 -80 249 -3 0 0 11 -78 240 -6 0 0 16c-26,79 -54,157 -80,235l-4 0 0 9 -83 242 0 0 0 1c-162,474 -328,948 -498,1420l-4 0 0 8c-79,221 -160,441 -242,661l-8 0 0 23 -84 227 0 0 0 1c-52,139 -107,278 -160,417l-7 0 0 19c-137,357 -275,713 -417,1068l-1 0 0 3c-134,334 -273,667 -413,1000l-5 0 0 14c-80,190 -156,381 -237,571l-14 0 0 33c-79,185 -163,368 -243,553l-8 0 0 16c-83,190 -165,380 -250,569l0 0 0 1c-163,363 -329,725 -498,1086l-4 0 0 8 -74 159 -10 0 0 20c-473,1006 -969,2003 -1490,2989l-14 0 0 28 -73 139 -11 0 0 21 -76 147 -7 0 0 13 -83 154 -1 0 0 2c-135,251 -275,500 -413,750l-5 0 0 9c-324,586 -656,1169 -998,1747l-5 0 0 9 -243 408 -8 0 0 13c-82,136 -166,270 -249,405l-2 0 0 4c-273,447 -552,892 -836,1334l0 0 0 1 -161 250 -6 0 0 8 -156 242 -11 0 0 17c-51,78 -100,157 -151,234l-16 0 0 25 -152 226 -15 0 0 22c-52,77 -104,153 -156,229l-12 0 0 17 -159 234 -8 0 0 12 -162 238 -5 0 0 8c-56,81 -110,162 -166,243l-1 0 0 2c-136,196 -274,389 -412,584l-6 0 0 8c-137,193 -274,385 -413,577l-5 0 0 7c-79,108 -155,219 -235,327l-16 0 0 22c-77,105 -158,208 -236,313l-15 0 0 19c-457,614 -926,1220 -1406,1820l-15 0 0 18c-106,133 -210,268 -317,400l-17 0 0 21c-109,133 -222,264 -332,396l-3 0 0 4 -67 80 -16 0 0 20c-111,133 -222,266 -333,398l-2 0 0 2c-165,195 -329,390 -497,583l-4 0 0 5c-193,223 -388,444 -585,664l0 0 0 1 -73 83 -11 0 0 12 -63 71 -21 0 0 24c-219,245 -443,486 -667,728l-1 0 0 2 -76 82 -8 0 0 8c-1090,1174 -2230,2315 -3421,3419l-6 0 0 6c-239,221 -476,444 -720,663l-33 0 0 30 -62 54 -21 0 0 19 -74 64 -10 0 0 9c-218,194 -439,385 -660,577l-8 0 0 7c-355,307 -715,611 -1078,912l-9 0 0 8c-132,109 -262,218 -395,327l-23 0 0 19 -78 64 -6 0 0 5 -304 246 -30 0 0 23 -77 61 -7 0 0 5c-103,82 -209,163 -313,245l-21 0 0 17c-278,218 -554,438 -836,652 -297,226 -600,447 -903,669l-17 0 0 12c-108,79 -213,160 -321,239l-13 0 0 9 -221 158 -30 0 0 21c-108,77 -219,153 -328,230l-6 0 0 4 -233 163 -18 0 0 12c-357,250 -716,497 -1080,740l-7 0 0 5 -247 162 -4 0 0 3 -249 164 -1 0 0 2c-212,138 -422,279 -636,416l-33 0 0 21c-78,50 -158,97 -236,147l-15 0 0 9c-218,137 -437,273 -657,409l-12 0 0 7c-410,252 -825,500 -1243,745l-11 0 0 6c-187,110 -372,220 -561,328l-24 0 0 14c-189,108 -380,214 -570,321l-15 0 0 8 -138 75 -29 0 0 17c-193,106 -385,213 -580,318l-5 0 0 3c-576,312 -1160,618 -1751,916l-5 0 0 3c-53,26 -105,54 -158,81l-9 0 0 4c-52,26 -102,54 -154,79l-13 0 0 7 -160 77 -7 0 0 4 -167 80 -1 0 0 0c-521,256 -1048,507 -1581,752l-7 0 0 3c-244,113 -493,222 -739,331l-13 0 0 6c-183,81 -363,165 -547,245l-38 0 0 17 -151 67 -17 0 0 7c-126,55 -256,106 -384,160l-34 0 0 14c-188,80 -379,158 -569,237l-16 0 0 6c-547,227 -1101,447 -1661,663l-11 0 0 4 -206 79 -44 0 0 17c-130,50 -258,101 -389,150l-29 0 0 11 -190 73 -61 0 0 21c-135,50 -274,97 -410,146l-8 0 0 3 -227 81 -24 0 0 8c-305,110 -608,220 -916,326l-3 0 0 1c-164,57 -330,111 -495,166l-7 0 0 3c-83,27 -166,53 -249,81l-2 0 0 0c-340,113 -679,226 -1023,334l-63 0 0 21c-65,20 -128,43 -193,63l-58 0 0 17c-73,23 -149,44 -222,66l-29 0 0 9c-269,83 -542,162 -813,242l-23 0 0 7c-578,171 -1161,335 -1750,495l-6 0 0 1 -303 82 -31 0 0 9c-93,24 -185,51 -279,75l-55 0 0 15c-86,22 -169,47 -254,69l-81 0 0 21c-84,21 -171,41 -256,62l-78 0 0 19 -264 65 -71 0 0 17c-683,169 -1374,330 -2072,484l-17 0 0 4 -368 80 -50 0 0 11 -336 73 -82 0 0 18c-101,21 -200,44 -302,65l-116 0 0 25c-100,21 -202,39 -302,59l-33 0 0 6c-133,27 -270,51 -404,77l-14 0 0 3c-755,148 -1519,285 -2291,415l-49 0 0 8 -454 76 -48 0 0 8c-151,25 -301,52 -453,75l-132 0 0 22c-140,22 -283,41 -424,62l-78 0 0 11c-169,26 -341,48 -511,73l-74 0 0 10c-595,85 -1195,166 -1800,240l-39 0 0 5c-222,27 -446,53 -669,79l-83 0 0 10c-209,24 -415,51 -626,74l-210 0 0 23c-210,22 -424,39 -634,60l-119 0 0 11c-253,25 -506,50 -761,73l-74 0 0 7c-290,26 -579,53 -870,76l-50 0 0 4c-368,30 -742,54 -1114,80l-223 0 0 16c-354,24 -707,48 -1064,68l-358 0 0 17c-441,24 -882,48 -1328,66l-9 0 0 1c-1098,44 -2213,71 -3341,83l-1090 0 0 7c-388,1 -778,-1 -1170,-4z"/>
   <path class="fil1" d="M304800 415714l-105709 59770c-11947,6754 -16162,21919 -9403,33873l18382 32509 96730 0 0 -126152z"/>
   <path class="fil2" d="M218654 126151c-2018,0 -3980,-824 -5398,-2328l-38088 -40400c-1816,-1925 -2469,-4677 -1708,-7214 764,-2540 2821,-4482 5398,-5087l54029 -12785c2571,-622 5287,202 7103,2130 1818,1923 2469,4677 1710,7214l-15942 53184c-760,2537 -2817,4479 -5398,5087 -565,136 -1140,199 -1706,199zm-30697 -44038l27667 29342 11578 -38626 -39245 9284z"/>
   <path class="fil3" d="M0 403927c27914,0 50543,22629 50543,50544 0,27913 -22629,50543 -50543,50543l0 -12308c21117,0 38234,-17118 38234,-38235 0,-21118 -17117,-38237 -38234,-38237l0 -12307z"/>
  </g>
 </g>
</svg>
