<?xml version="1.0" encoding="utf-8"?>
<!-- Generator: Adobe Illustrator 23.0.2, SVG Export Plug-In . SVG Version: 6.00 Build 0)  -->
<svg version="1.1" id="Camada_1" xmlns="http://www.w3.org/2000/svg" xmlns:xlink="http://www.w3.org/1999/xlink" x="0px" y="0px"
	 viewBox="0 0 1313.4 1080" style="enable-background:new 0 0 1313.4 1080;" xml:space="preserve">
<style type="text/css">
	.st0{fill-rule:evenodd;clip-rule:evenodd;fill:url(#SVGID_1_);}
	.st1{fill-rule:evenodd;clip-rule:evenodd;fill:url(#SVGID_2_);}
	.st2{fill-rule:evenodd;clip-rule:evenodd;fill:url(#SVGID_3_);}
	.st3{fill:#8EA0BE;}
	.st4{fill:#EE4698;}
	.st5{fill:#D12D90;}
	.st6{fill:#E179AF;}
	.st7{fill:#FEFEFE;}
	.st8{fill:#35497D;}
	.st9{fill:#4572AD;}
	.st10{fill:#39588D;}
	.st11{fill:#D5E9F8;}
	.st12{fill:#5D96CF;}
	.st13{fill:#E9F2FB;}
	.st14{fill:#B1C6DE;}
	.st15{fill:#DFEFFA;}
	.st16{fill:#C3DAED;}
	.st17{fill:#CA7DB4;}
	.st18{fill:#825DA5;}
	.st19{fill:#FAC1B2;}
	.st20{fill:#EA9E95;}
</style>
<g id="Layer_x0020_1">
	<g id="_2425317919568">
		
			<linearGradient id="SVGID_1_" gradientUnits="userSpaceOnUse" x1="-19434.3672" y1="-6635.6323" x2="-19501.543" y2="-6553.145" gradientTransform="matrix(1.267984e-03 0 0 -1.267984e-03 47.8703 1.3694)">
			<stop  offset="0" style="stop-color:#B9E3FB"/>
			<stop  offset="1" style="stop-color:#36A2FB"/>
		</linearGradient>
		<path class="st0" d="M800.3,841.5l-95,53.7c-10.7,6.1-14.5,19.7-8.5,30.5l16.5,29.2h87V841.5z"/>
		
			<linearGradient id="SVGID_2_" gradientUnits="userSpaceOnUse" x1="3885.7444" y1="-8192.8848" x2="3932.6331" y2="-8242.9561" gradientTransform="matrix(1.267984e-03 0 0 -1.267984e-03 47.8703 1.3694)">
			<stop  offset="0" style="stop-color:#F177AD"/>
			<stop  offset="1" style="stop-color:#EE4389"/>
		</linearGradient>
		<path class="st1" d="M697.4,381.2c-2,0-4-0.8-5.4-2.3l-37.9-40.2c-1.8-1.9-2.5-4.7-1.7-7.2c0.8-2.5,2.8-4.5,5.4-5.1l53.8-12.7
			c2.6-0.6,5.3,0.2,7.1,2.1c1.8,1.9,2.5,4.7,1.7,7.2l-15.9,53c-0.8,2.5-2.8,4.5-5.4,5.1C698.5,381.1,697.9,381.2,697.4,381.2z
			 M666.8,337.3l27.6,29.2l11.5-38.5L666.8,337.3z"/>
		
			<linearGradient id="SVGID_3_" gradientUnits="userSpaceOnUse" x1="413.7788" y1="884.5873" x2="456.9017" y2="884.5873" gradientTransform="matrix(1.267984e-03 0 0 -1.267984e-03 47.8703 1.3694)">
			<stop  offset="0" style="stop-color:#C3DA59"/>
			<stop  offset="1" style="stop-color:#4FB852"/>
		</linearGradient>
		<path class="st2" d="M413.8,841.5c23.8,0,43.1,19.3,43.1,43.1c0,23.8-19.3,43.1-43.1,43.1h0v-10.5h0c18,0,32.6-14.6,32.6-32.6
			c0-18-14.6-32.6-32.6-32.6h0L413.8,841.5L413.8,841.5z"/>
	</g>
	<g id="_2425317921648">
		<path class="st3" d="M724.1,995c-8.4,0-16.9-2.1-24.4-6.5L316.5,768.8c-8.6-4.9-8.6-17.3-0.1-22.3l363.1-211l407.6,233.7
			c8.6,4.9,8.7,17.3,0.1,22.3L748.5,988.4C741,992.8,732.5,995,724.1,995z"/>
		<path class="st4" d="M687,418c0-24.3-17.2-34.1-38.2-21.9L291.6,603.2c-5.8,3.3-10.5,11.5-10.4,18.2c0,6.7,4.7,9.4,10.5,6
			l357.1-207.2c9.5-5.5,17.2-1.1,17.2,9.9l0.1,40c6.9-0.5,13.9-0.5,20.9-0.4L687,418z"/>
		<path class="st5" d="M291.8,699.3l357.3-131.4c21-12.2,38.1-41.9,38-66.2l-0.1-32c-7-0.1-14-0.1-20.9,0.4l0.1,43.8
			c0,11-7.7,24.3-17.1,29.8L291.7,675.1c-5.8,3.4-10.4,11.5-10.4,18.2C281.3,699.9,286,702.6,291.8,699.3z"/>
		<polygon class="st5" points="284,699.8 719.9,950.3 1087.7,729.5 1116.8,685.8 1113.8,701.3 1105.8,660.8 422,688.9 301.5,681.5 
					"/>
		<polygon class="st6" points="298.2,623.8 298.3,677.3 719.6,919.4 730.8,868.3 		"/>
		<polygon class="st4" points="1111.3,643.6 676.1,393.5 285,622.4 284.2,628 720.1,878.5 		"/>
		<path class="st7" d="M973.1,773.1l102-60.9c8.6-6.1,15.3-18.3,15.3-28.5l0.1-8c0-6.5-2.7-10.7-6.9-11.9L882.7,776.2l-163.5,89
			l0.3,54.2L973.1,773.1z"/>
		<path class="st5" d="M733.9,870.2L301.5,621.7l-9.2-5.3l-8.4-4.8c-1.7,3.1-2.8,6.6-2.8,9.7c0,3.3,1.2,5.6,3,6.7l0,0l0.1,0l0,0
			l435.7,250.4L733.9,870.2z"/>
		<polygon class="st7" points="714.5,947.2 719.9,950.3 720.9,948.6 717.5,945.9 		"/>
		<polygon class="st7" points="714.4,875.2 720,878.4 718.6,875.4 		"/>
		<path class="st4" d="M727.5,853.6l357.1-207.2c21-12.2,38.1-2.3,38.2,21.9l-0.1,8c0,24.3-17,54-38,66.1L727.6,949.7
			c-5.8,3.4-10.5,0.7-10.5-6c0-6.7,4.7-14.8,10.4-18.2l357.1-207.2c9.5-5.5,17.2-18.9,17.1-29.8l0.1-8c0-11-7.7-15.4-17.2-9.9
			L727.5,877.8c-5.8,3.3-10.5,0.6-10.5-6C717,865.1,721.7,857,727.5,853.6z"/>
		<path class="st7" d="M717.1,943.7c0-6.7,4.7-14.8,10.4-18.2l357.1-207.2c9.5-5.5,17.2-18.9,17.1-29.8l0.1-8
			c0-7.2-3.3-11.5-8.3-12.2c1.6,2.1,2.5,5.1,2.5,8.9l-0.1,8c0,11-7.7,24.3-17.1,29.8L721.8,922.3c-5.8,3.4-10.4,11.5-10.4,18.2
			c0,5.1,2.7,7.8,6.5,7.4C717.4,946.7,717.1,945.3,717.1,943.7z"/>
		<path class="st7" d="M717,871.8c0-6.7,4.7-14.8,10.4-18.2l357.1-207.2c9-5.3,17.4-6.4,23.9-4.1c-7-5.9-17.7-6.2-29.7,0.8
			L721.7,850.3c-5.8,3.4-10.5,11.5-10.4,18.2c0,5.1,2.7,7.8,6.5,7.4C717.3,874.8,717.1,873.4,717,871.8z"/>
		<path class="st8" d="M1124.8,274.3L738.2,52.6c-4.5-2.6-9-3-13.1-1.6l0,0l-0.7,0.3l-0.2,0.1l-13.9,5.4l12.5,6.1l-0.2,0.7
			l-62,286.4c-3.1,14.3,3.2,31,14.2,37.3l377.3,216.4l-1.3,16l15.2-6c5.1-2.4,9.2-7.8,10.9-15.6l62-286.4
			C1142.1,297.3,1135.7,280.5,1124.8,274.3z"/>
		<path class="st9" d="M1124.8,274.3L738.2,52.6c-4.5-2.6-9-3-13.1-1.6l0,0l-0.7,0.3l-0.2,0.1l-13.9,5.4l12.5,6.1l-0.2,0.7
			l-40.9,188.7l189.3,146.6l266-109.1C1134.4,283,1130.2,277.4,1124.8,274.3z"/>
		<path class="st10" d="M1110.4,318.3l29.3-12.6c0.5-11.4-4.2-23.1-12-29.4l-46.5,19.7L1110.4,318.3z"/>
		<path class="st11" d="M1037.4,618L650.8,396.3c-10.9-6.3-17.3-23-14.2-37.3l62-286.4c3.1-14.3,14.5-20.9,25.4-14.6l386.6,221.7
			c10.9,6.3,17.3,23,14.2,37.3l-62,286.4C1059.7,617.7,1048.4,624.2,1037.4,618z"/>
		<path class="st7" d="M1114.4,278.4L727.8,56.6c-5.3-3-10.7-3-15.2-0.6c3.6-0.8,7.6-0.3,11.5,2l386.6,221.7
			c10.9,6.3,17.3,23,14.2,37.3l-62,286.4c-1.6,7.4-5.4,12.6-10.2,15.2c6.5-1.4,11.9-7.4,13.9-16.6l62-286.4
			C1131.7,301.3,1125.3,284.6,1114.4,278.4z"/>
		<path class="st7" d="M1029,596.7L665.4,388.3c-10-5.7-15.8-21-13-34.1l56.8-262C712,79,722.4,73,732.4,78.8L1096,287.2
			c10,5.7,15.8,21,13,34.1l-56.8,262C1049.4,596.5,1039,602.4,1029,596.7z"/>
		<path class="st8" d="M1029,596.7L665.4,388.3c-10-5.7-15.8-21-13-34.1l56.8-262C712,79,722.4,73,732.4,78.8L1096,287.2
			c10,5.7,15.8,21,13,34.1l-56.8,262C1049.4,596.5,1039,602.4,1029,596.7z"/>
		<path class="st12" d="M1032.1,595.4L668.5,387c-10-5.7-15.8-21-13-34.1l56.8-262c1.4-6.6,4.8-11.4,9.1-13.8
			c-5.7,1.5-10.5,6.9-12.3,15.1l-56.8,262c-2.8,13.1,3,28.4,13,34.1L1029,596.7c4.9,2.8,10,2.8,14.2,0.5
			C1039.7,598.1,1035.9,597.6,1032.1,595.4z"/>
		<path class="st8" d="M1042.8,627.7l-52.8-6.8L648.9,425.2c-10.9-6.3-30-5.4-42.6,1.9l-240.9,140l-31.9-4.1l0.1,18.1l0,0
			c-0.2,4.2,2.2,8.2,7.4,11.2l386.6,221.7c10.9,6.3,30,5.4,42.6-1.9l262.4-152.4c7.1-4.1,10.6-9.4,10.4-14.4L1042.8,627.7z"/>
		<path class="st9" d="M786.5,504.2l-24.2-13.9l-266,0.8l-130.9,76l-31.9-4.1l0.1,18.1l0,0c-0.2,4.2,2.2,8.2,7.4,11.2l386.6,221.7
			c5.8,3.3,13.8,4.6,22,4.1L786.5,504.2z"/>
		<path class="st12" d="M347.6,564.8l-14.2-1.8l0.1,18.1l0,0c-0.2,4.2,2.2,8.2,7.4,11.2l6.8,3.9L347.6,564.8z"/>
		<path class="st10" d="M731.4,815.7c10.4,3.9,25.2,3,36.2-2.4l-0.1-40.4l-36.2,0.1L731.4,815.7z"/>
		<path class="st11" d="M727.4,795.9L340.8,574.1c-10.9-6.3-9.6-17.3,3-24.6l262.4-152.5c12.6-7.3,31.7-8.2,42.6-1.9l386.6,221.7
			c10.9,6.3,9.6,17.3-3,24.6L770,794C757.4,801.3,738.4,802.1,727.4,795.9z"/>
		<path class="st7" d="M1032.4,634.9L770,787.4c-12.6,7.3-31.7,8.2-42.6,1.9L340.8,567.5c-3.6-2.1-5.8-4.6-6.8-7.4
			c-1.7,5.2,0.5,10.4,6.8,14l386.6,221.7c10.9,6.3,30,5.4,42.6-1.9l262.4-152.5c8.5-4.9,11.8-11.5,9.8-17.2
			C1041,628.1,1037.7,631.8,1032.4,634.9z"/>
		<path class="st12" d="M504.8,499.9l-17.5-10c-1.4-0.8-1.2-2.2,0.4-3.2l20.6-12c1.6-0.9,4.1-1,5.5-0.2l17.5,10
			c1.4,0.8,1.2,2.2-0.4,3.2l-20.6,12C508.6,500.6,506.2,500.7,504.8,499.9z"/>
		<path class="st12" d="M531.8,515.4l-17.5-10c-1.4-0.8-1.2-2.2,0.4-3.2l20.6-12c1.6-0.9,4.1-1,5.5-0.2l17.5,10
			c1.4,0.8,1.2,2.2-0.4,3.2l-20.6,12C535.6,516.1,533.2,516.2,531.8,515.4z"/>
		<path class="st12" d="M558.8,530.9l-17.5-10c-1.4-0.8-1.2-2.2,0.4-3.2l20.6-12c1.6-0.9,4.1-1.1,5.5-0.2l17.5,10
			c1.4,0.8,1.2,2.2-0.4,3.2l-20.6,12C562.6,531.6,560.2,531.7,558.8,530.9z"/>
		<path class="st12" d="M596,517.9l-17.5-10c-1.4-0.8-1.2-2.2,0.4-3.2l17.3-10c1.6-0.9,4.1-1,5.5-0.2l17.5,10
			c1.4,0.8,1.2,2.2-0.4,3.2l-17.3,10C599.9,518.6,597.5,518.7,596,517.9z"/>
		<path class="st12" d="M623.1,533.4l-17.5-10c-1.4-0.8-1.2-2.2,0.4-3.2l17.3-10c1.6-0.9,4.1-1,5.5-0.2l17.5,10
			c1.4,0.8,1.2,2.2-0.4,3.2l-17.3,10C626.9,534.1,624.5,534.2,623.1,533.4z"/>
		<path class="st12" d="M650.1,548.9l-17.5-10c-1.4-0.8-1.2-2.2,0.4-3.2l17.3-10c1.6-0.9,4.1-1,5.5-0.2l17.5,10
			c1.4,0.8,1.2,2.2-0.4,3.2l-17.3,10C653.9,549.6,651.5,549.7,650.1,548.9z"/>
		<path class="st12" d="M677.1,564.4l-17.5-10c-1.4-0.8-1.2-2.2,0.4-3.2l17.3-10c1.6-0.9,4.1-1,5.5-0.2l17.5,10
			c1.4,0.8,1.2,2.2-0.4,3.2l-17.3,10C680.9,565.1,678.5,565.2,677.1,564.4z"/>
		<path class="st12" d="M704.1,579.9l-17.5-10c-1.4-0.8-1.2-2.2,0.4-3.2l17.3-10c1.6-0.9,4.1-1,5.5-0.2l17.5,10
			c1.4,0.8,1.2,2.2-0.4,3.2l-17.3,10C708,580.6,705.5,580.7,704.1,579.9z"/>
		<path class="st12" d="M731.1,595.4l-17.5-10c-1.4-0.8-1.2-2.2,0.4-3.2l17.3-10c1.6-0.9,4.1-1,5.5-0.2l17.5,10
			c1.4,0.8,1.2,2.2-0.4,3.2l-17.3,10C735,596.1,732.5,596.2,731.1,595.4z"/>
		<path class="st12" d="M758.1,610.9l-17.5-10c-1.4-0.8-1.2-2.2,0.4-3.2l17.3-10c1.6-0.9,4.1-1,5.5-0.2l17.5,10
			c1.4,0.8,1.2,2.2-0.4,3.2l-17.3,10C762,611.6,759.5,611.7,758.1,610.9z"/>
		<path class="st12" d="M785.1,626.4l-17.5-10c-1.4-0.8-1.2-2.2,0.4-3.2l17.3-10c1.6-0.9,4.1-1,5.5-0.2l17.5,10
			c1.4,0.8,1.2,2.2-0.4,3.2l-17.3,10C789,627.1,786.5,627.2,785.1,626.4z"/>
		<path class="st12" d="M812.2,641.8l-17.5-10c-1.4-0.8-1.2-2.2,0.4-3.2l17.3-10c1.6-0.9,4.1-1,5.5-0.2l17.5,10
			c1.4,0.8,1.2,2.2-0.4,3.2l-17.3,10C816,642.5,813.6,642.7,812.2,641.8z"/>
		<path class="st12" d="M839.2,657.3l-17.5-10c-1.4-0.8-1.2-2.2,0.4-3.2l17.3-10c1.6-0.9,4.1-1.1,5.5-0.2l17.5,10
			c1.4,0.8,1.2,2.2-0.4,3.2l-17.3,10C843,658,840.6,658.1,839.2,657.3z"/>
		<path class="st12" d="M635.8,510.4l-17.5-10c-1.4-0.8-1.2-2.2,0.4-3.2l17.3-10c1.6-0.9,4.1-1,5.5-0.2l17.5,10
			c1.4,0.8,1.2,2.2-0.4,3.2l-17.3,10C639.6,511.1,637.2,511.2,635.8,510.4z"/>
		<path class="st12" d="M608.3,494.7l-17.5-10c-1.4-0.8-1.2-2.2,0.4-3.2l17.3-10c1.6-0.9,4.1-1.1,5.5-0.2l17.5,10
			c1.4,0.8,1.2,2.2-0.4,3.2l-17.3,10C612.2,495.4,609.7,495.5,608.3,494.7z"/>
		<path class="st12" d="M580.9,479l-37.7-21.6c-1.4-0.8-1.2-2.2,0.4-3.2l17.3-10c1.6-0.9,4.1-1,5.5-0.2l37.7,21.6
			c1.4,0.8,1.2,2.2-0.4,3.2l-17.3,10C584.7,479.7,582.3,479.8,580.9,479z"/>
		<path class="st12" d="M600,459.6l-30.6-17.5c-1.4-0.8-1.2-2.2,0.4-3.2l17.3-10c1.6-0.9,4.1-1.1,5.5-0.2l30.6,17.5
			c1.4,0.8,1.2,2.2-0.4,3.2l-17.3,10C603.8,460.3,601.4,460.5,600,459.6z"/>
		<path class="st12" d="M662.8,525.9l-17.5-10c-1.4-0.8-1.2-2.2,0.4-3.2l17.3-10c1.6-0.9,4.1-1,5.5-0.2l17.5,10
			c1.4,0.8,1.2,2.2-0.4,3.2l-17.3,10C666.6,526.6,664.2,526.7,662.8,525.9z"/>
		<path class="st12" d="M689.8,541.4l-17.5-10c-1.4-0.8-1.2-2.2,0.4-3.2l17.3-10c1.6-0.9,4.1-1,5.5-0.2l17.5,10
			c1.4,0.8,1.2,2.2-0.4,3.2l-17.3,10C693.6,542.1,691.2,542.2,689.8,541.4z"/>
		<path class="st12" d="M716.8,556.9l-17.5-10c-1.4-0.8-1.2-2.2,0.4-3.2l17.3-10c1.6-0.9,4.1-1.1,5.5-0.2l17.5,10
			c1.4,0.8,1.2,2.2-0.4,3.2l-17.3,10C720.7,557.6,718.2,557.7,716.8,556.9z"/>
		<path class="st12" d="M743.8,572.4l-17.5-10c-1.4-0.8-1.2-2.2,0.4-3.2l17.3-10c1.6-0.9,4.1-1,5.5-0.2l17.5,10
			c1.4,0.8,1.2,2.2-0.4,3.2l-17.3,10C747.7,573.1,745.2,573.2,743.8,572.4z"/>
		<path class="st12" d="M770.8,587.9l-17.5-10c-1.4-0.8-1.2-2.2,0.4-3.2l17.3-10c1.6-0.9,4.1-1,5.5-0.2l17.5,10
			c1.4,0.8,1.2,2.2-0.4,3.2l-17.3,10C774.7,588.6,772.2,588.7,770.8,587.9z"/>
		<path class="st12" d="M797.8,603.4l-17.5-10c-1.4-0.8-1.2-2.2,0.4-3.2l17.3-10c1.6-0.9,4.1-1,5.5-0.2l17.5,10
			c1.4,0.8,1.2,2.2-0.4,3.2l-17.3,10C801.7,604.1,799.3,604.2,797.8,603.4z"/>
		<path class="st12" d="M824.9,618.9l-17.5-10c-1.4-0.8-1.2-2.2,0.4-3.2l17.3-10c1.6-0.9,4.1-1,5.5-0.2l17.5,10
			c1.4,0.8,1.2,2.2-0.4,3.2l-17.3,10C828.7,619.6,826.3,619.7,824.9,618.9z"/>
		<path class="st12" d="M851.9,634.4l-17.5-10c-1.4-0.8-1.2-2.2,0.4-3.2l17.3-10c1.6-0.9,4.1-1,5.5-0.2l17.5,10
			c1.4,0.8,1.2,2.2-0.4,3.2l-17.3,10C855.7,635.1,853.3,635.2,851.9,634.4z"/>
		<path class="st12" d="M878.9,649.9l-17.5-10c-1.4-0.8-1.2-2.2,0.4-3.2l17.3-10c1.6-0.9,4.1-1,5.5-0.2l17.5,10
			c1.4,0.8,1.2,2.2-0.4,3.2l-17.3,10C882.7,650.6,880.3,650.7,878.9,649.9z"/>
		<path class="st12" d="M926.9,677.4l-38.2-21.9c-1.4-0.8-1.2-2.2,0.4-3.2l17.3-10c1.6-0.9,4.1-1,5.5-0.2L950,664
			c1.4,0.8,1.2,2.2-0.4,3.2l-17.3,10C930.8,678.1,928.3,678.2,926.9,677.4z"/>
		<path class="st12" d="M979.3,646.9l-32.2-18.5c-1.4-0.8-1.2-2.2,0.4-3.2l17.3-10c1.6-0.9,4.1-1,5.5-0.2l32.2,18.5
			c1.4,0.8,1.2,2.2-0.4,3.2l-17.3,10C983.2,647.6,980.7,647.7,979.3,646.9z"/>
		<path class="st12" d="M710,522.7l-17.5-10c-1.4-0.8-1.2-2.2,0.4-3.2l17.3-10c1.6-0.9,4.1-1.1,5.5-0.2l17.5,10
			c1.4,0.8,1.2,2.2-0.4,3.2l-17.3,10C713.8,523.4,711.4,523.5,710,522.7z"/>
		<path class="st12" d="M682.3,506.9l-17.5-10c-1.4-0.8-1.2-2.2,0.4-3.2l17.3-10c1.6-0.9,4.1-1,5.5-0.2l17.5,10
			c1.4,0.8,1.2,2.2-0.4,3.2l-17.3,10C686.2,507.6,683.7,507.7,682.3,506.9z"/>
		<path class="st12" d="M654.6,491l-17.5-10c-1.4-0.8-1.2-2.2,0.4-3.2l17.3-10c1.6-0.9,4.1-1.1,5.5-0.2l17.5,10
			c1.4,0.8,1.2,2.2-0.4,3.2l-17.3,10C658.5,491.7,656,491.8,654.6,491z"/>
		<path class="st12" d="M626.9,475.1l-17.5-10c-1.4-0.8-1.2-2.2,0.4-3.2l17.3-10c1.6-0.9,4.1-1,5.5-0.2l17.5,10
			c1.4,0.8,1.2,2.2-0.4,3.2l-17.3,10C630.8,475.8,628.3,475.9,626.9,475.1z"/>
		<path class="st12" d="M737,538.2l-17.5-10c-1.4-0.8-1.2-2.2,0.4-3.2l17.3-10c1.6-0.9,4.1-1,5.5-0.2l17.5,10
			c1.4,0.8,1.2,2.2-0.4,3.2l-17.3,10C740.9,538.9,738.4,539,737,538.2z"/>
		<path class="st12" d="M764,553.7l-17.5-10c-1.4-0.8-1.2-2.2,0.4-3.2l17.3-10c1.6-0.9,4.1-1,5.5-0.2l17.5,10
			c1.4,0.8,1.2,2.2-0.4,3.2l-17.3,10C767.9,554.4,765.4,554.5,764,553.7z"/>
		<path class="st12" d="M791,569.2l-17.5-10c-1.4-0.8-1.2-2.2,0.4-3.2l17.3-10c1.6-0.9,4.1-1,5.5-0.2l17.5,10
			c1.4,0.8,1.2,2.2-0.4,3.2l-17.3,10C794.9,569.9,792.4,570,791,569.2z"/>
		<path class="st12" d="M818.1,584.7l-17.5-10c-1.4-0.8-1.2-2.2,0.4-3.2l17.3-10c1.6-0.9,4.1-1.1,5.5-0.2l17.5,10
			c1.4,0.8,1.2,2.2-0.4,3.2l-17.3,10C821.9,585.4,819.5,585.5,818.1,584.7z"/>
		<path class="st12" d="M845.1,600.2l-17.5-10c-1.4-0.8-1.2-2.2,0.4-3.2l17.3-10c1.6-0.9,4.1-1,5.5-0.2l17.5,10
			c1.4,0.8,1.2,2.2-0.4,3.2l-17.3,10C848.9,600.9,846.5,601,845.1,600.2z"/>
		<path class="st12" d="M872.1,615.7l-17.5-10c-1.4-0.8-1.2-2.2,0.4-3.2l17.3-10c1.6-0.9,4.1-1,5.5-0.2l17.5,10
			c1.4,0.8,1.2,2.2-0.4,3.2l-17.3,10C875.9,616.4,873.5,616.5,872.1,615.7z"/>
		<path class="st12" d="M899.1,631.2l-17.5-10c-1.4-0.8-1.2-2.2,0.4-3.2l17.3-10c1.6-0.9,4.1-1,5.5-0.2l17.5,10
			c1.4,0.8,1.2,2.2-0.4,3.2l-17.3,10C902.9,631.9,900.5,632,899.1,631.2z"/>
		<path class="st12" d="M926.1,646.7l-17.5-10c-1.4-0.8-1.2-2.2,0.4-3.2l17.3-10c1.6-0.9,4.1-1,5.5-0.2l17.5,10
			c1.4,0.8,1.2,2.2-0.4,3.2l-17.3,10C930,647.4,927.5,647.5,926.1,646.7z"/>
		<path class="st12" d="M953.1,662.2l-17.5-10c-1.4-0.8-1.2-2.2,0.4-3.2l17.3-10c1.6-0.9,4.1-1,5.5-0.2l17.5,10
			c1.4,0.8,1.2,2.2-0.4,3.2l-17.3,10C957,662.9,954.5,663,953.1,662.2z"/>
		<path class="st12" d="M695.7,484.3l-17.5-10c-1.4-0.8-1.2-2.2,0.4-3.2l17.3-10c1.6-0.9,4.1-1,5.5-0.2l17.5,10
			c1.4,0.8,1.2,2.2-0.4,3.2l-17.3,10C699.5,485,697.1,485.1,695.7,484.3z"/>
		<path class="st12" d="M668.8,468.8l-17.5-10c-1.4-0.8-1.2-2.2,0.4-3.2l17.3-10c1.6-0.9,4.1-1,5.5-0.2l17.5,10
			c1.4,0.8,1.2,2.2-0.4,3.2l-17.3,10C672.7,469.5,670.2,469.7,668.8,468.8z"/>
		<path class="st12" d="M641.9,453.4l-17.5-10c-1.4-0.8-1.2-2.2,0.4-3.2l17.3-10c1.6-0.9,4.1-1,5.5-0.2l17.5,10
			c1.4,0.8,1.2,2.2-0.4,3.2l-17.3,10C645.8,454.1,643.3,454.2,641.9,453.4z"/>
		<path class="st12" d="M615,438l-17.5-10c-1.4-0.8-1.2-2.2,0.4-3.2l17.3-10c1.6-0.9,4.1-1.1,5.5-0.2l17.5,10
			c1.4,0.8,1.2,2.2-0.4,3.2l-17.3,10C618.9,438.7,616.4,438.8,615,438z"/>
		<path class="st12" d="M642.6,422l-17.5-10c-1.4-0.8-1.2-2.2,0.4-3.2l5.7-3.3c1.6-0.9,4.1-1,5.5-0.2l17.5,10
			c1.4,0.8,1.2,2.2-0.4,3.2l-5.7,3.3C646.4,422.7,644,422.8,642.6,422z"/>
		<path class="st12" d="M677.7,442.1l-17.5-10c-1.4-0.8-1.2-2.2,0.4-3.2l5.7-3.3c1.6-0.9,4.1-1,5.5-0.2l17.5,10
			c1.4,0.8,1.2,2.2-0.4,3.2l-5.7,3.3C681.5,442.8,679.1,442.9,677.7,442.1z"/>
		<path class="st12" d="M704.4,457.5l-17.5-10c-1.4-0.8-1.2-2.2,0.4-3.2l5.7-3.3c1.6-0.9,4.1-1,5.5-0.2l17.5,10
			c1.4,0.8,1.2,2.2-0.4,3.2l-5.7,3.3C708.3,458.2,705.8,458.3,704.4,457.5z"/>
		<path class="st12" d="M731.2,472.8l-17.5-10c-1.4-0.8-1.2-2.2,0.4-3.2l5.7-3.3c1.6-0.9,4.1-1,5.5-0.2l17.5,10
			c1.4,0.8,1.2,2.2-0.4,3.2l-5.7,3.3C735.1,473.5,732.6,473.6,731.2,472.8z"/>
		<path class="st12" d="M758,488.2l-17.5-10c-1.4-0.8-1.2-2.2,0.4-3.2l5.7-3.3c1.6-0.9,4.1-1,5.5-0.2l17.5,10
			c1.4,0.8,1.2,2.2-0.4,3.2l-5.7,3.3C761.8,488.9,759.4,489,758,488.2z"/>
		<path class="st12" d="M907.4,573.9l-17.5-10c-1.4-0.8-1.2-2.2,0.4-3.2l5.7-3.3c1.6-0.9,4.1-1,5.5-0.2l17.5,10
			c1.4,0.8,1.2,2.2-0.4,3.2l-5.7,3.3C911.3,574.6,908.8,574.7,907.4,573.9z"/>
		<path class="st12" d="M934.2,589.2l-17.5-10c-1.4-0.8-1.2-2.2,0.4-3.2l5.7-3.3c1.6-0.9,4.1-1,5.5-0.2l17.5,10
			c1.4,0.8,1.2,2.2-0.4,3.2l-5.7,3.3C938,589.9,935.6,590,934.2,589.2z"/>
		<path class="st12" d="M960.9,604.6l-17.5-10c-1.4-0.8-1.2-2.2,0.4-3.2l5.7-3.3c1.6-0.9,4.1-1,5.5-0.2l17.5,10
			c1.4,0.8,1.2,2.2-0.4,3.2l-5.7,3.3C964.8,605.3,962.4,605.4,960.9,604.6z"/>
		<path class="st12" d="M987.7,619.9l-17.5-10c-1.4-0.8-1.2-2.2,0.4-3.2l5.7-3.3c1.6-0.9,4.1-1,5.5-0.2l17.5,10
			c1.4,0.8,1.2,2.2-0.4,3.2l-5.7,3.3C991.6,620.6,989.1,620.7,987.7,619.9z"/>
		<path class="st12" d="M722.7,499.8l-17.5-10c-1.4-0.8-1.2-2.2,0.4-3.2l17.3-10c1.6-0.9,4.1-1,5.5-0.2l17.5,10
			c1.4,0.8,1.2,2.2-0.4,3.2l-17.3,10C726.5,500.5,724.1,500.6,722.7,499.8z"/>
		<path class="st12" d="M749.7,515.2l-17.5-10c-1.4-0.8-1.2-2.2,0.4-3.2l17.3-10c1.6-0.9,4.1-1.1,5.5-0.2l17.5,10
			c1.4,0.8,1.2,2.2-0.4,3.2l-17.3,10C753.6,515.9,751.1,516.1,749.7,515.2z"/>
		<path class="st12" d="M776.7,530.7l-17.5-10c-1.4-0.8-1.2-2.2,0.4-3.2l17.3-10c1.6-0.9,4.1-1.1,5.5-0.2l17.5,10
			c1.4,0.8,1.2,2.2-0.4,3.2l-17.3,10C780.6,531.4,778.1,531.5,776.7,530.7z"/>
		<path class="st12" d="M803.7,546.2l-17.5-10c-1.4-0.8-1.2-2.2,0.4-3.2l17.3-10c1.6-0.9,4.1-1,5.5-0.2l17.5,10
			c1.4,0.8,1.2,2.2-0.4,3.2l-17.3,10C807.6,546.9,805.1,547,803.7,546.2z"/>
		<path class="st12" d="M830.8,561.7l-17.5-10c-1.4-0.8-1.2-2.2,0.4-3.2l17.3-10c1.6-0.9,4.1-1,5.5-0.2l17.5,10
			c1.4,0.8,1.2,2.2-0.4,3.2l-17.3,10C834.6,562.4,832.2,562.5,830.8,561.7z"/>
		<path class="st12" d="M857.8,577.2l-17.5-10c-1.4-0.8-1.2-2.2,0.4-3.2l17.3-10c1.6-0.9,4.1-1.1,5.5-0.2l17.5,10
			c1.4,0.8,1.2,2.2-0.4,3.2l-17.3,10C861.6,577.9,859.2,578,857.8,577.2z"/>
		<path class="st12" d="M884.8,592.7l-17.5-10c-1.4-0.8-1.2-2.2,0.4-3.2l17.3-10c1.6-0.9,4.1-1,5.5-0.2l17.5,10
			c1.4,0.8,1.2,2.2-0.4,3.2l-17.3,10C888.6,593.4,886.2,593.5,884.8,592.7z"/>
		<path class="st12" d="M911.8,608.2l-17.5-10c-1.4-0.8-1.2-2.2,0.4-3.2l17.3-10c1.6-0.9,4.1-1,5.5-0.2l17.5,10
			c1.4,0.8,1.2,2.2-0.4,3.2l-17.3,10C915.6,608.9,913.2,609,911.8,608.2z"/>
		<path class="st12" d="M938.8,623.7l-17.5-10c-1.4-0.8-1.2-2.2,0.4-3.2l17.3-10c1.6-0.9,4.1-1,5.5-0.2l17.5,10
			c1.4,0.8,1.2,2.2-0.4,3.2l-17.3,10C942.7,624.4,940.2,624.5,938.8,623.7z"/>
		<path class="st12" d="M568.5,502.1L517,472.6c-1.4-0.8-1.2-2.2,0.4-3.2l17.3-10c1.6-0.9,4.1-1.1,5.5-0.2l51.5,29.5
			c1.4,0.8,1.2,2.2-0.4,3.2l-17.3,10C572.4,502.8,569.9,502.9,568.5,502.1z"/>
		<path class="st12" d="M900.4,692.4l-51.5-29.5c-1.4-0.8-1.2-2.2,0.4-3.2l17.3-10c1.6-0.9,4.1-1,5.5-0.2l51.5,29.5
			c1.4,0.8,1.2,2.2-0.4,3.2l-17.3,10C904.2,693.1,901.8,693.3,900.4,692.4z"/>
		<path class="st12" d="M792.5,664.9l-17.5-10c-1.4-0.8-1.2-2.2,0.4-3.2l20.6-12c1.6-0.9,4.1-1,5.5-0.2l17.5,10
			c1.4,0.8,1.2,2.2-0.4,3.2l-20.6,12C796.3,665.6,793.9,665.7,792.5,664.9z"/>
		<path class="st12" d="M596.3,552.4l-28-16c-1.4-0.8-1.2-2.2,0.4-3.2l20.6-12c1.6-0.9,4.1-1,5.5-0.2l28,16c1.4,0.8,1.2,2.2-0.4,3.2
			l-20.6,12C600.1,553.1,597.7,553.2,596.3,552.4z"/>
		<path class="st12" d="M766.4,650l-28-16c-1.4-0.8-1.2-2.2,0.4-3.2l20.6-12c1.6-0.9,4.1-1,5.5-0.2l28,16c1.4,0.8,1.2,2.2-0.4,3.2
			l-20.6,12C770.3,650.7,767.8,650.8,766.4,650z"/>
		<path class="st12" d="M635.3,574.7l-28-16c-1.4-0.8-1.2-2.2,0.4-3.2l20.6-12c1.6-0.9,4.1-1,5.5-0.2l28,16c1.4,0.8,1.2,2.2-0.4,3.2
			l-20.6,12C639.1,575.4,636.7,575.5,635.3,574.7z"/>
		<path class="st12" d="M633.9,543.4l121.6,69.8c1.5,0.9,1.5,2.3,0,3.1l-21,12.2c-1.5,0.9-3.9,0.9-5.5,0l-121.6-69.8L633.9,543.4z"
			/>
		<path class="st12" d="M867.9,692.9l19.5,11.2c1.2,0.7,1,1.8-0.3,2.6l-8.4,4.9c-1.3,0.8-3.3,0.9-4.5,0.2l-19.5-11.2
			c-1.2-0.7-1-1.8,0.3-2.6l8.4-4.9C864.8,692.3,866.8,692.2,867.9,692.9z"/>
		<path class="st12" d="M840.7,677.3l19.5,11.2c1.2,0.7,1,1.8-0.3,2.6l-8.4,4.9c-1.3,0.8-3.3,0.9-4.5,0.2L827.5,685
			c-1.2-0.7-1-1.8,0.3-2.6l8.4-4.9C837.5,676.7,839.5,676.6,840.7,677.3z"/>
		<path class="st12" d="M813.7,661.8l19.5,11.2c1.2,0.7,1,1.8-0.3,2.6l-8.4,4.9c-1.3,0.8-3.3,0.9-4.5,0.2l-19.5-11.2
			c-1.2-0.7-1-1.8,0.3-2.6l8.4-4.9C810.5,661.2,812.5,661.1,813.7,661.8z"/>
		<path class="st12" d="M855.5,668.6l19.5,11.2c1.1,0.7,1,1.8-0.3,2.6l-8.4,4.9c-1.3,0.8-3.3,0.9-4.5,0.2l-19.5-11.2
			c-1.2-0.7-1-1.8,0.3-2.6l8.4-4.9C852.4,668.1,854.4,668,855.5,668.6z"/>
		<polygon class="st11" points="961.2,364.5 815.7,281.1 817.5,271.6 963,355.1 		"/>
		<polygon class="st11" points="909.2,380.6 807.6,322.3 809.5,312.9 911.1,371.1 		"/>
		<polygon class="st7" points="899.5,352.1 811.7,301.7 813.5,292.3 901.4,342.6 		"/>
		<polygon class="st4" points="957.2,385.1 913.2,359.9 915.1,350.5 959,375.7 		"/>
		<polygon class="st11" points="800,198.7 756,173.5 757.9,164.1 801.8,189.3 		"/>
		<polygon class="st7" points="795.3,220.7 751.3,195.5 753.2,186 797.1,211.2 		"/>
		<polygon class="st11" points="1011.4,524.5 967.5,499.3 969.3,489.8 1013.3,515 		"/>
		<polygon class="st11" points="785.9,264.6 741.9,239.4 743.8,229.9 787.7,255.1 		"/>
		<path class="st4" d="M880.7,271.1c-1.4,3.1-4.9,4.2-7.9,2.5c-3-1.7-4.2-5.6-2.8-8.6c1.4-3.1,4.9-4.2,7.9-2.5
			C880.8,264.2,882.1,268.1,880.7,271.1z"/>
		<path class="st7" d="M899.6,282c-1.4,3.1-4.9,4.2-7.9,2.5c-3-1.7-4.2-5.6-2.8-8.6c1.4-3.1,4.9-4.2,7.9-2.5
			C899.7,275.1,901,278.9,899.6,282z"/>
		<path class="st11" d="M918.5,292.8c-1.4,3.1-4.9,4.2-7.9,2.5c-3-1.7-4.2-5.6-2.9-8.6c1.4-3.1,4.9-4.2,7.9-2.4
			C918.6,285.9,919.9,289.8,918.5,292.8z"/>
		<path class="st4" d="M937.4,303.7c-1.4,3.1-4.9,4.2-7.9,2.5c-3-1.7-4.2-5.6-2.9-8.6c1.4-3.1,4.9-4.2,7.9-2.5
			C937.6,296.8,938.8,300.6,937.4,303.7z"/>
		<path class="st3" d="M845.5,1080c-3.8,0-7.7-0.8-10.6-2.5c-5.9-3.4-5.9-8.9,0-12.3L1108.7,906c2.9-1.7,6.8-2.6,10.6-2.6
			c3.8,0,7.7,0.8,10.6,2.5c5.9,3.4,5.9,8.9,0,12.3l-273.9,159.3C853.2,1079.1,849.3,1080,845.5,1080z"/>
		<path class="st11" d="M1176.6,819.9L1176.6,819.9c-0.3-0.4-0.8-0.7-1.3-0.6l-16.6,3.6l6.6,11.1l11.2-12.8
			C1176.8,820.9,1176.8,820.4,1176.6,819.9z"/>
		<path class="st12" d="M1170,828.1c0-2.4-1.7-5.3-3.8-6.5c-1-0.5-1.8-0.6-2.5-0.3c-19.2-0.1-38,5-54.5,14.8l-1.2,0.7l20.7,35
			l6.1-4.1c12.9-8.6,23.7-19.9,31.7-33.1l2.6-4.3C1169.7,830,1170.1,829.3,1170,828.1z"/>
		<path class="st11" d="M1132.8,862.5c-0.1-9.2-6.7-20.3-14.6-24.8c-8-4.5-14.4-0.7-14.3,8.5c0.1,9.2,6.7,20.2,14.7,24.8
			C1126.5,875.5,1132.9,871.7,1132.8,862.5z"/>
		<polygon class="st11" points="1006.6,948.4 1128.7,871.9 1108,836.9 982.1,907.1 		"/>
		<path class="st11" d="M1011.5,937.4c-0.1-10.8-7.9-23.9-17.3-29.2c-9.4-5.3-17-0.8-16.9,10c0.1,10.8,7.9,23.9,17.3,29.3
			C1004,952.7,1011.6,948.2,1011.5,937.4z"/>
		<path class="st11" d="M1004.5,941.5c-0.1-10.8-7.9-23.9-17.3-29.2c-9.4-5.3-17-0.8-16.9,10c0.1,10.8,7.9,23.9,17.3,29.2
			C997.1,956.8,1004.6,952.3,1004.5,941.5z"/>
		<polygon class="st11" points="838.1,1048.2 999.7,952.6 975.2,911.2 813.6,1006.8 		"/>
		<path class="st11" d="M842.9,1037.1c-0.1-10.8-7.9-23.9-17.3-29.2c-9.4-5.3-17-0.8-16.9,10c0.1,10.8,7.9,23.9,17.3,29.3
			C835.5,1052.4,843.1,1047.9,842.9,1037.1z"/>
		<path class="st9" d="M836.8,1033.7c-0.4-6.4-5.6-14.3-11.7-17.8c-6.1-3.4-10.7-1-10.3,5.4c0.4,6.4,5.6,14.3,11.7,17.8
			C832.6,1042.5,837.2,1040.1,836.8,1033.7z"/>
		<path class="st7" d="M1012.7,936.7c-0.1-10.8-7.9-23.9-17.3-29.2c-3.8-2.1-7.3-2.7-10.1-1.9c3-3.2,8.1-3.6,13.8-0.4
			c9.4,5.3,17.2,18.4,17.3,29.2c0.1,6.5-2.6,10.7-6.8,11.9C1011.6,944.2,1012.7,940.9,1012.7,936.7z"/>
		<path class="st12" d="M1012.7,936.7c-0.1-10.8-7.9-23.9-17.3-29.3c-4.7-2.7-9-2.9-12-1.1l-9.2,5.4l4.4,7.4
			c0.8,9.9,7.5,21.1,15.7,26.5l4.4,7.4l9.2-5.4C1010.9,945.9,1012.8,942.1,1012.7,936.7z"/>
		<path class="st11" d="M1003.5,942.1c-0.1-10.8-7.9-23.9-17.3-29.3c-9.4-5.3-17-0.8-16.9,10c0.1,10.8,7.9,23.9,17.3,29.2
			C996.1,957.4,1003.7,952.9,1003.5,942.1z"/>
		<path class="st4" d="M829.2,1038.5l-10.6-17.8l-34.2,20.3c-4.9,2.9-6.6,9.3-3.6,14.2c2.9,4.9,9.3,6.6,14.2,3.6L829.2,1038.5z"/>
		<path class="st4" d="M831.3,1033.7c0-4.7-3.4-10.3-7.5-12.6c-4.1-2.3-7.3-0.4-7.3,4.3c0,4.7,3.4,10.3,7.5,12.6
			C828.1,1040.3,831.4,1038.4,831.3,1033.7z"/>
		<path class="st12" d="M869.3,970.5l-5.1-2.9c-3-1.7-6.9-1.2-11,1.2l-17.6,10.4c-3.3,2-6,6.7-6,10.6l0.1,8.8c0,1.5-0.7,3.2-1.8,4.4
			l0.7,4.1l-4.4-2.5l0,0c-0.6-0.3-1-1.1-1.1-2.1l-0.1-8.8c-0.1-8,5.5-17.9,12.4-22l17.6-10.4c5.9-3.5,11.4-4.1,15.6-1.7l5.2,2.9
			c3,1.7,6.9,1.2,11-1.2l70.9-42c0.9-0.5,1.7-0.6,2.3-0.2v0l4.4,2.5l-3.7,1.5c-0.5,1.6-1.6,3.1-2.9,3.9l-70.9,42
			C879,972.3,873.5,972.9,869.3,970.5z"/>
		<path class="st12" d="M868.6,970.1c-3-1.7-6.9-1.2-11,1.2L840,981.8c-3.3,2-6,6.7-6,10.6l0.1,8.8c0,2.1-1.4,4.7-3.2,5.7
			c-1.8,1.1-3.3,0.2-3.3-1.9l-0.1-8.8c-0.1-8,5.5-17.9,12.4-22l17.6-10.4c5.9-3.5,11.4-4.1,15.6-1.7l5.1,2.9c3,1.7,6.9,1.2,11-1.2
			l70.9-42c1.8-1.1,3.3-0.2,3.3,1.9c0,2.1-1.4,4.7-3.2,5.7l-70.9,42c-5.9,3.5-11.4,4.1-15.7,1.7L868.6,970.1z"/>
		<path class="st7" d="M833.8,993.8l0.1,8.8l0,0.2c0.2-0.6,0.2-1.1,0.2-1.6l-0.1-8.8l0.1-0.8C833.9,992.3,833.8,993.1,833.8,993.8z"
			/>
		<path class="st3" d="M470.9,1057.9c-6,0-11.7-1.2-15.9-3.6l-99.5-57.1c-7.1-4.1-8.2-10.5-3.6-16.2L324.2,965
			c-19.3,10.2-43.7,15.3-68.2,15.4c-25.9,0.1-51.8-5.5-71.6-16.9c-38.5-22.1-39.7-57.7-3.5-80.8c0.7,0.6,1.4,1.2,2.1,1.8
			c0.9,2.2,2,4.4,3.4,6.5c-22.5,19-19.1,45.1,10.2,61.9c16.5,9.5,38.1,14.2,59.7,14.1c21.6-0.1,43.2-4.9,59.6-14.4
			c24.2-14.1,30.5-34.6,19-51.9c3.3-2.8,6-5.8,8.2-8.9c21.1,20.3,18.8,46.5-6.8,65.7l27.4,15.9c4.7-1.7,9.9-2.6,15-2.6
			c6,0,11.6,1.2,15.9,3.6l99.5,57.1c9.4,5.4,8.3,14.9-2.6,21.2C485.7,1056.1,478.1,1057.9,470.9,1057.9z"/>
		<path class="st5" d="M351.6,876.8l-14.1-18.3l-42.7-19.7l-36.7-3.1l-43,5.4l-29.8,15.5l-19,12.2l-3.5-19.8l6.4-22.8
			c0,0,16.3-10.8,17.3-11.8c1-1,38.1-14.4,38.1-14.4l37.1-2.6l29.8,3.7l30.4,8.9l20.1,14l15.1,19l1.8,23.8L351.6,876.8z"/>
		<polygon class="st5" points="152.6,853.9 152.7,892.5 163,875.7 		"/>
		<path class="st5" d="M323.2,855.4c-36-20.6-94.2-20.5-130.1,0.4c-11.3,6.6-19,14.4-23.2,22.7c-3.2-2.8-7.3-5-9-8.8
			c5.1-7,12.6-13.6,22.5-19.3c41.2-23.9,108-24.1,149.3-0.4c9,5.2,16.1,11.1,21.2,17.4c-1.7,3.9-4.2,7.6-7.5,10.8
			C342.3,869.7,334.5,861.9,323.2,855.4z"/>
		<path class="st13" d="M258.3,906.7c-23.5,0.1-47.1-5-65.1-15.4c-3.8-2.2-7.2-4.5-10.1-6.9c0,0,0,0,0,0c0,0,0,0,0.1,0.1
			c1.6-1.1,3.2-2.2,5-3.2c17.9-10.4,41.4-15.7,65-15.7c23.5-0.1,47.1,5,65.1,15.4c3.8,2.2,7.1,4.5,10.1,6.9
			c6.6-4.5,11.7-9.5,15.3-14.7l0,0c-4.5,6.5-11.2,12.6-20.3,17.8C305.4,901.4,281.9,906.6,258.3,906.7z M181,882.7
			c-3.3-2.9-6-5.9-8.2-9.1c0,0,0,0,0,0C175,876.8,177.8,879.8,181,882.7L181,882.7z"/>
		<path class="st14" d="M183.1,884.5c-0.7-0.6-1.4-1.2-2.1-1.8h0C181.7,883.3,182.4,883.9,183.1,884.5
			C183.1,884.5,183.1,884.5,183.1,884.5z"/>
		<path class="st15" d="M328.3,887.8c-3-2.4-6.3-4.7-10.1-6.9c-18-10.3-41.5-15.4-65.1-15.4c-23.5,0.1-47.1,5.3-65,15.7
			c-1.8,1-3.4,2.1-5,3.2c0,0,0,0-0.1-0.1c-0.3-0.8-0.6-1.7-0.9-2.5c-0.4,0.2-0.8,0.5-1.2,0.8c-3.3-2.9-6-5.9-8.2-9.1
			c4.5-6.5,11.2-12.6,20.3-17.8c17.9-10.4,41.5-15.7,65-15.7c23.5-0.1,47.1,5,65.1,15.4c9.1,5.2,15.9,11.2,20.4,17.7
			C340,878.4,334.9,883.3,328.3,887.8z"/>
		<path class="st16" d="M183.1,884.5c-0.7-0.6-1.4-1.2-2.1-1.8c0.4-0.3,0.8-0.5,1.2-0.8C182.5,882.8,182.8,883.6,183.1,884.5z"/>
		<path class="st17" d="M167.4,862.3c-0.1-0.5-0.3-1-0.4-1.5c2.5-11.2,11.2-22,26-30.7c17.9-10.4,41.5-15.7,65-15.7
			c23.5-0.1,47.1,5,65.1,15.4c14.9,8.6,23.6,19.3,26.2,30.5c-0.1,0.5-0.2,1-0.4,1.5c-4.4-4.3-9.8-8.3-16.2-11.9
			c-20.7-11.8-47.7-17.7-74.7-17.6c-27,0.1-54,6.1-74.6,18.1C177.1,854,171.8,858,167.4,862.3z"/>
		<path class="st17" d="M172.9,873.6c-2.6-3.7-4.4-7.5-5.5-11.3c4.4-4.3,9.7-8.3,16.1-12c20.6-12,47.6-18,74.6-18.1
			c27-0.1,54.1,5.8,74.7,17.6c6.4,3.7,11.8,7.7,16.2,11.9c-1.1,3.9-2.9,7.7-5.4,11.4l0,0c-4.5-6.5-11.3-12.5-20.4-17.7
			c-18-10.3-41.5-15.4-65.1-15.4c-23.5,0.1-47.1,5.3-65,15.7C184.1,861.1,177.3,867.2,172.9,873.6
			C172.9,873.6,172.9,873.6,172.9,873.6z"/>
		<path class="st5" d="M161,869.6c0.7,1.6,1.9,2.9,3.2,4.2l0-0.4l9.5,5.7l11.7,10.8l16.2,7.1l22.4,8l19.9,4.6l27.4,1.1l17.7-1.9
			l35.1-9.3l22.8-20.3c-0.2-0.4-0.3-0.8-0.5-1.2c3.3-3.1,5.9-6.9,7.5-10.8c0.6,0.8,1.2,1.5,1.8,2.3l8-16.7l0.1,40l0,0
			c0.1,15.6-10.2,31.3-30.8,43.2c-41.2,23.9-108,24.1-149.3,0.4C152.4,918.5,144.8,891.9,161,869.6z"/>
		<path class="st4" d="M338.8,886.5l8.2-7.3c-0.2-0.4-0.3-0.8-0.5-1.2c3.3-3.1,5.9-6.9,7.5-10.8c0.6,0.8,1.2,1.5,1.8,2.3l8-16.7
			l0.1,40l0,0c0.1,14-8.2,28.1-24.9,39.5L338.8,886.5z"/>
		<path class="st4" d="M193,816.3c35.9-20.8,94.1-21,130.1-0.4c36,20.6,36.1,54.2,0.2,75.1c-35.9,20.8-94.1,21-130.1,0.4
			C157.3,870.7,157.2,837.1,193,816.3z M183.6,896.9c41.3,23.7,108.2,23.5,149.3-0.4c41.2-23.9,41.1-62.5-0.2-86.2
			c-41.3-23.7-108.2-23.5-149.3,0.4C142.2,834.7,142.3,873.3,183.6,896.9z"/>
		<polygon class="st11" points="402.1,940 343.5,906.1 335.8,918.7 394.7,952.8 		"/>
		<path class="st18" d="M393.2,949.4c0,3.3,2.4,4.7,5.3,3c2.9-1.7,5.2-5.8,5.2-9.1c0-3.3-2.4-4.7-5.3-3
			C395.5,942,393.1,946.1,393.2,949.4z"/>
		<path class="st18" d="M393.2,949.4c0,3.3,2.4,4.7,5.3,3c2.9-1.7,5.2-5.8,5.2-9.1c0-3.3-2.4-4.7-5.3-3
			C395.5,942,393.1,946.1,393.2,949.4z"/>
		<path class="st11" d="M334.5,915.5c0,3.3,2.4,4.7,5.3,3c2.9-1.7,5.2-5.8,5.2-9.1c0-3.3-2.4-4.7-5.3-3
			C336.9,908.1,334.5,912.2,334.5,915.5z"/>
		<path class="st12" d="M364.4,952c0-14.4,10-31.9,22.5-39.2c6.4-3.7,12.1-4,16.2-1.4l0,0L527,982.9l-32.2,55.1l-122.6-70.9
			c-0.8-0.4-1.6-0.8-2.4-1.4l-0.1-0.1l0,0C366.4,963.1,364.4,958.4,364.4,952z"/>
		<path class="st11" d="M518.1,998.2l-138.7-79.5c2.3-2.3,4.8-4.3,7.4-5.8c6.4-3.7,12.1-4,16.2-1.4l0,0L527,982.9L518.1,998.2z"/>
		<path class="st11" d="M488.4,1023.6c0,14.4,10.2,20.2,22.6,13c12.4-7.2,22.5-24.8,22.5-39.2c0-14.4-10.2-20.2-22.6-13
			C498.4,991.7,488.3,1009.2,488.4,1023.6z"/>
		<path class="st12" d="M506.7,1016.8c0,8.1,6.6,14.7,14.7,14.7c8.1,0,14.7-6.6,14.7-14.7c0-8.1-6.6-14.7-14.7-14.7
			C513.2,1002.1,506.7,1008.7,506.7,1016.8z"/>
		<path class="st7" d="M524.1,1011.4c0,2.4,2,4.3,4.4,4.3c2.4,0,4.3-2,4.3-4.4c0-2.4-2-4.3-4.4-4.3
			C526,1007,524.1,1009,524.1,1011.4z"/>
		<path class="st7" d="M509.2,983.5c6.7-3.9,12.6-4,16.8-1.1c-4-1.9-9.3-1.4-15.1,2c-12.4,7.2-22.5,24.8-22.5,39.2
			c0,6.7,2.2,11.5,5.8,14c-4.6-2.1-7.5-7.3-7.5-15C486.7,1008.2,496.7,990.7,509.2,983.5z"/>
		<path class="st7" d="M193,816.3c35.9-20.8,94.1-21,130.1-0.4c18.7,10.7,27.7,25,27,39.2c-0.8-13-9.7-25.9-27-35.8
			c-36-20.6-94.2-20.5-130.1,0.4c-17.2,10-26.1,22.9-26.8,35.9C165.5,841.4,174.4,827.1,193,816.3z"/>
		<path class="st7" d="M183.6,896.9c41.3,23.7,108.2,23.5,149.3-0.4C352.8,885,363,870,363.7,855c0.8,16.2-9.4,32.5-30.7,44.9
			c-41.2,23.9-108,24.1-149.3,0.4c-21.4-12.3-31.7-28.5-31-44.7C153.4,870.6,163.7,885.5,183.6,896.9z"/>
		<path class="st4" d="M534.7,815.7c0,0-11.1-5.6-17.9,2.8c-6.8,8.3-16.5,28-16.7,41.3c-0.3,13.3,10.5,12.4,17,9.2
			c6.4-3.2,25.1-30.5,26.2-35.8c1.1-5.3-1.4-12.6-3.2-14C538.3,817.9,534.7,815.7,534.7,815.7z"/>
		<path class="st11" d="M537.1,813l0.5,11.5c0.1,2.4-1.1,4.8-3.2,6c-1.9,1.1-4.7,2-8.6,1.4c-8.4-1.3-9.1-3.7-9.7-15.2
			C515.5,805.2,537.1,813,537.1,813z"/>
		<path class="st4" d="M494.1,793.7c0,0-11.1-5.6-17.9,2.8c-6.8,8.3-16.5,28-16.7,41.3c-0.3,13.3,10.5,12.4,17,9.2
			c6.4-3.2,25.1-30.5,26.2-35.8c1.1-5.3-1.4-12.6-3.2-14C497.6,795.9,494.1,793.7,494.1,793.7z"/>
		<path class="st11" d="M496.5,791.1l0.5,11.5c0.1,2.4-1.1,4.8-3.2,6c-1.9,1.1-4.7,2-8.6,1.4c-8.4-1.3-9.1-3.7-9.7-15.2
			C474.9,783.2,496.5,791.1,496.5,791.1z"/>
		<path class="st8" d="M594.8,579.8c-3.4-53.4-57.8,8-57.8,8l-37.2,36.7l-33.5,37c-6.5,7.2-9.6,17-8.3,26.7l13.9,103.5
			c0.7,5.1,5.1,8.9,10.2,8.8c1.5,0,3.1-0.2,5-0.5c12.1-1.9,11.2-13.5,11.2-13.5l-2.8-96.9l70.5-42.8
			C566.1,647,598.3,633.2,594.8,579.8z"/>
		<path class="st8" d="M635.5,600c-3.4-53.4-57.8,8-57.8,8l-37.2,36.7l-33.5,37c-6.5,7.2-9.6,17-8.3,26.7L512.5,812
			c0.7,5.1,5.1,8.9,10.2,8.8c1.5,0,3.1-0.2,5-0.5c12.1-1.9,11.2-13.5,11.2-13.5l-2.7-94.1l70.4-45.6
			C606.7,667.3,638.9,653.4,635.5,600z"/>
		<path class="st4" d="M602.7,428.7c41.4,17,40.7,41.5,40.7,41.5s-7.8,89.7-4.9,149.5c1.2,25-132.9,27.3-113.1-39.5
			c23.4-78.8,14.3-142.5,25.3-152.2C561.7,418.4,592,424.3,602.7,428.7z"/>
		<path class="st19" d="M616.1,450.3c-2.1,8.4-13.1,12.9-24.5,10c-11.4-2.9-18.9-12.1-16.8-20.5c2.1-8.4,13.1-12.9,24.5-10
			C610.7,432.7,618.2,441.9,616.1,450.3z"/>
		<path class="st7" d="M599.6,460.4l-7.6,8.3c-1,1.1-1.5,2.5-1.3,4l5.4,45.2c0.1,1.3-0.2,2.5-1,3.6l-16.3,21.5
			c-0.7,1-2.2,0.7-2.6-0.4l-9-28c-0.3-1.1-0.3-2.2,0.1-3.3l15.6-41.1c0.3-0.9,0.4-1.9,0.2-2.8l-2.3-10.9L599.6,460.4z"/>
		<path class="st7" d="M592.2,430.9c-7.7,0-14.1,3.6-15.6,9.4c-0.9,3.4,0.2,7.2,2.9,10.6c2.9,3.5,7.3,6.2,12.4,7.5
			c5.1,1.3,10.3,1.1,14.5-0.7c4-1.6,6.7-4.4,7.6-7.9c1.9-7.3-5-15.4-15.4-18.1C596.6,431.2,594.3,430.9,592.2,430.9z M598.6,463.1
			c-2.5,0-5-0.3-7.6-1c-5.9-1.5-11.1-4.6-14.5-8.8c-3.6-4.4-4.9-9.4-3.7-14c2.4-9.4,14.5-14.6,27-11.4c12.5,3.2,20.6,13.4,18.2,22.9
			c-1.2,4.7-4.7,8.4-10,10.6C605.1,462.5,601.9,463.1,598.6,463.1z"/>
		<path class="st19" d="M586.1,426.8c0,0,0.4,1.7-0.3,14.8c-0.2,4.1,14.2,7.9,17.9,4.2c3.7-3.7,2.2-7.6,3.1-21.6
			C607.7,410.1,586.1,426.8,586.1,426.8z"/>
		<path class="st20" d="M606.8,424.2c0,0-3.5,13-21,18.1l0.2-11.8L606.8,424.2z"/>
		<path class="st19" d="M617.8,391.1c4.5,17-5.7,34.4-22.7,38.9c-17,4.5-34.4-5.7-38.9-22.7c-4.5-17,5.7-34.4,22.7-38.9
			C596,363.9,613.4,374.1,617.8,391.1z"/>
		<path class="st20" d="M594.3,400.3c0,0-17.5,7.6-29.7,7.7c-12.1,0.1-9.5-10.1-9.5-10.1l36-5.3L594.3,400.3z"/>
		<path class="st11" d="M561.1,402.4c0,0,15.3-6.5,28.7-3.9c3.2,0.6,6.1,2.3,8.1,4.8c0.7,0.8,1.5,1.6,2.5,1.8
			c2.4,0.5,6.2-9.3,10.9-9.6c4.6-0.2,7.7,3,3.9,9.1c-3.8,6.1-2.5,12.9-0.7,13.8c1.7,1,23.3-14.1,6.9-46.4
			c-16.4-32.2-60.8-13.8-67.3-7.3c0,0-6.8,5.9-12.3,0.7C541.7,365.4,535.6,411.8,561.1,402.4z"/>
		<path class="st19" d="M620.4,535.7l0.1,24.2c0,2.8-1.2,5.4-3.2,7.3l-49.6,45.5l5.7,8.6l68.4-45.2c3.1-2.2,5-5.7,5.4-9.4l4.6-45
			L620.4,535.7z"/>
		<path class="st4" d="M639.8,458c0,0,15.2,22.7,21,82.4c0,0-25.8,8.4-40.4,3.7C605.7,539.5,639.8,458,639.8,458z"/>
		<path class="st5" d="M617.5,486.8c0,0-5.8,31.7-6.1,46.5c-0.1,4.1,2.4,7.8,6.3,9.1L617.5,486.8z"/>
		<path class="st12" d="M605,644.1l-11-1.4l-71.1-40.8c-2.3-1.3-6.3-1.1-8.9,0.4l-50.2,29.2l-6.7-0.9l0,6.6h0c0,0.9,0.5,1.7,1.5,2.3
			l80.6,46.2c2.3,1.3,6.3,1.1,8.9-0.4l54.7-31.8c1.5-0.9,2.2-2,2.2-3L605,644.1z"/>
		<path class="st9" d="M551.6,618.4l-5.1-2.9l-55.5,0.2l-27.3,15.9l-6.7-0.9l0,6.6h0c0,0.9,0.5,1.7,1.5,2.3l80.6,46.2
			c1.2,0.7,2.9,1,4.6,0.8L551.6,618.4z"/>
		<path class="st12" d="M460.1,631l-3-0.4l0,6.6h0c0,0.9,0.5,1.7,1.5,2.3l1.4,0.8L460.1,631z"/>
		<path class="st12" d="M540.1,686.2c2.2,0.8,5.2,0.6,7.5-0.5l0-11.3l-7.5,0L540.1,686.2z"/>
		<path class="st7" d="M539.3,679.2L458.7,633c-2.3-1.3-2-3.6,0.6-5.1l54.7-31.8c2.6-1.5,6.6-1.7,8.9-0.4l80.6,46.2
			c2.3,1.3,2,3.6-0.6,5.1l-54.7,31.8C545.5,680.3,541.5,680.5,539.3,679.2z"/>
		<path class="st11" d="M537.9,672.2l-67-38.4c-1.9-1.1-1.7-3,0.5-4.3l29.3-16.6c2.2-1.3,5.5-1.4,7.4-0.3l67,38.4
			c1.9,1.1,1.7,3-0.5,4.3l-29.3,16.6C543.1,673.1,539.8,673.3,537.9,672.2z"/>
		<path class="st19" d="M517.1,594.5l-0.8,5.6c-0.7,4.7-0.6,9.6,0.4,14.2l1,4.9c0.6,2.8,2.8,4.9,5.5,5.4c2.2,0.4,4.2-1.1,4.4-3.3
			l1.3-11.9c0,0,3.1,4,4.5,4c1.5,0-1.7-11.9-5-18.6C525.1,588.1,517.1,594.5,517.1,594.5z"/>
		<path class="st19" d="M544.1,506.2l-8.6,17.1c-2,4-3.2,8.5-3.5,13l-3.6,58.5l-11.4-0.2l-5.3-65.6c-0.2-2-0.1-4.1,0.3-6.1l5.8-33.3
			L544.1,506.2z"/>
		<path class="st8" d="M536.6,683.7l-6.8-8.8L458.7,634c-2.3-1.3-4.1-4.8-4.1-7.9l-0.1-58.1l-4.1-5.3l3.8-2.2l0,0
			c0.7-0.5,1.7-0.5,2.8,0.2l80.5,46.3c2.3,1.3,4.1,4.8,4.1,7.9l0.1,63.3c0,1.7-0.6,2.9-1.5,3.4L536.6,683.7z"/>
		<path class="st9" d="M487.4,650.5l-5-2.9l-27.8-48l-0.1-31.6l-4.1-5.3l3.8-2.2l0,0c0.7-0.5,1.7-0.5,2.8,0.2l80.5,46.3
			c1.2,0.7,2.3,2,3,3.5L487.4,650.5z"/>
		<path class="st12" d="M452.2,565.1l-1.8-2.4l3.8-2.2l0,0c0.7-0.5,1.7-0.5,2.8,0.2l1.4,0.8L452.2,565.1z"/>
		<path class="st10" d="M538.3,607.5c1.8,1.5,3.2,4.2,3.4,6.8l-7.8,4.6l-3.8-6.5L538.3,607.5z"/>
		<path class="st12" d="M533.7,609.2l-80.5-46.3c-2.3-1.3-4.1,0.1-4.1,3.1l0.1,63.3c0,3,1.9,6.6,4.1,7.9l80.5,46.3
			c2.3,1.3,4.1-0.1,4.1-3.1l-0.1-63.3C537.8,614.1,536,610.5,533.7,609.2z"/>
		<path class="st19" d="M573.3,621.4l-1.3,2.7c-1.5,3.1-3.8,5.7-6.7,7.5l-8,4.9c-2.5,1.5-5.6,1.7-8.2,0.2l-0.3-0.2
			c-2.5-1.6-2.8-5.2-0.7-7.4l8.3-8.6c0,0-4.7,3.6-6,2.2c-1-1.1,4.5-6.2,8.8-6.4c4.2-0.2,8.3-3.5,8.3-3.5L573.3,621.4z"/>
		<path class="st4" d="M551.6,427.9c0,0-30.5,33.4-42.8,64c0,0,10.5,18.8,36.1,26.1C570.6,525.3,551.6,427.9,551.6,427.9z"/>
		<path class="st5" d="M539.2,516l4.8-47.9L532.4,513C534.5,514.1,536.8,515.1,539.2,516z"/>
		<path class="st7" d="M574.4,421.1l-8.2-2.2c0,0,3.9,6.2,9.7,7.7c5.7,1.6,6.6-3.3,6.6-3.3L574.4,421.1z"/>
		<path class="st7" d="M618.3,407.8c0,2.5-2,4.6-4.6,4.6c-2.5,0-4.6-2-4.6-4.6c0-2.5,2-4.6,4.6-4.6
			C616.3,403.2,618.3,405.3,618.3,407.8z"/>
		<path class="st3" d="M124,728.6c-17.2,0-34.3-3.7-47.4-11.2c-26.2-15-26.3-39.5-0.2-54.7c13.1-7.6,30.2-11.4,47.4-11.5
			c17.2-0.1,34.3,3.7,47.4,11.2c26.2,15,26.3,39.5,0.2,54.7C158.3,724.7,141.1,728.5,124,728.6z"/>
		<path class="st4" d="M200,656.6l-0.1-21.4l-4,0c-3.6-6.2-9.7-12.1-18.3-17.1c-29.8-17.1-78.1-17-107.9,0.3
			c-8.6,5-14.6,10.9-18.2,17.2l-4,0l0.1,21.3h0c0,11.3,7.4,22.6,22.4,31.2c29.8,17.1,78.1,17,107.9-0.3
			C192.7,679.1,200.1,667.8,200,656.6z"/>
		<path class="st4" d="M177.7,666.4c-29.7,17.3-78,17.4-107.9,0.3c-29.8-17.1-29.9-45-0.2-62.3c29.7-17.3,78-17.4,107.9-0.3
			C207.4,621.2,207.5,649.1,177.7,666.4z"/>
		<path class="st7" d="M177.7,666.4c-29.7,17.3-78,17.4-107.9,0.3c-14.3-8.2-21.7-18.9-22.3-29.7c-0.6,11.7,6.8,23.6,22.3,32.5
			c29.8,17.1,78.1,17,107.9-0.3c15.5-9,22.8-20.9,22.1-32.6C199.3,647.4,192,658.1,177.7,666.4z"/>
		<path class="st7" d="M87,650.1c-1.3-0.7-2-1.7-2-2.8l0-28.7c0-2.2,3.1-4,6.9-4c3.8,0,6.9,1.8,6.9,3.9l0,23.8l69-8.7
			c3.7-0.5,7.4,0.9,8.2,3c0.8,2.1-1.6,4.2-5.3,4.7l-77.3,9.7c-2,0.3-4.1,0-5.8-0.8L87,650.1z"/>
		<path class="st5" d="M620.2,207.4l-114-65.4c-2.3-1.3-4.5-1.3-6.5-0.5l0-0.1l-13.6,6.4c0,0,5.1,1.8,8.1,2.8l-16.2,82.9
			c-1.3,6.7,1.7,14.6,6.8,17.5l109,62.5l-1.9,9.7l13.7-6.5l-0.1,0c2.3-1.2,4.2-3.7,4.9-7.3l16.5-84.7
			C628.3,218.1,625.3,210.3,620.2,207.4z"/>
		<path class="st4" d="M585.1,323l-114-65.4c-5.1-2.9-8.1-10.7-6.8-17.5l16.5-84.7c1.3-6.7,6.5-9.9,11.6-7l114,65.4
			c5.1,2.9,8.1,10.7,6.8,17.5L596.7,316C595.3,322.8,590.2,325.9,585.1,323z"/>
		<path class="st7" d="M609,212.9l-114-65.4c-2.7-1.5-5.3-1.4-7.5,0.1c1.5-0.3,3.2,0,4.9,0.9l114,65.4c5.1,2.9,8.1,10.7,6.8,17.5
			L596.7,316c-0.6,3.2-2.1,5.6-4.1,6.9c3.2-0.5,5.8-3.4,6.7-7.9l16.5-84.7C617.1,223.6,614,215.8,609,212.9z"/>
		<path class="st7" d="M519.4,228.3c-1,4.9-5.2,6.9-9.4,4.5c-4.3-2.4-6.9-8.4-6-13.3c1-4.9,5.2-6.9,9.4-4.5
			C517.7,217.5,520.4,223.4,519.4,228.3z"/>
		<path class="st7" d="M542.7,241.7c-1,4.9-5.2,6.9-9.4,4.5c-4.2-2.4-6.9-8.4-6-13.3c1-4.9,5.2-6.9,9.4-4.5
			C541,230.8,543.7,236.8,542.7,241.7z"/>
		<path class="st7" d="M566,255.1c-1,4.9-5.2,6.9-9.4,4.5c-4.2-2.4-6.9-8.4-6-13.3c1-4.9,5.2-6.9,9.4-4.5
			C564.3,244.2,567,250.2,566,255.1z"/>
		<path class="st12" d="M1063.8,66.4l-114-65.4c-2.3-1.3-4.5-1.3-6.5-0.5l0-0.1l-13.6,6.4c0,0,5.1,1.8,8.1,2.8l-16.2,82.9
			c-1.3,6.8,1.7,14.6,6.8,17.5l109,62.5l-1.9,9.7l13.7-6.5l-0.1,0c2.3-1.2,4.2-3.7,4.9-7.3l16.5-84.7
			C1071.9,77.2,1068.8,69.3,1063.8,66.4z"/>
		<path class="st11" d="M1028.7,182.1l-114-65.4c-5.1-2.9-8.1-10.7-6.8-17.5l16.5-84.7c1.3-6.7,6.5-9.9,11.6-7l114,65.4
			c5.1,2.9,8.1,10.7,6.8,17.5l-16.5,84.7C1038.9,181.8,1033.7,185,1028.7,182.1z"/>
		<path class="st7" d="M1052.5,71.9l-114-65.4c-2.7-1.5-5.3-1.4-7.5,0.1c1.5-0.3,3.2,0,4.9,0.9l114,65.4c5.1,2.9,8.1,10.7,6.8,17.5
			l-16.5,84.7c-0.6,3.2-2.1,5.6-4.1,6.9c3.2-0.5,5.8-3.4,6.7-7.9l16.5-84.7C1060.6,82.7,1057.6,74.8,1052.5,71.9z"/>
		<path class="st7" d="M963,87.4c-1,4.9-5.2,6.9-9.4,4.5c-4.2-2.4-6.9-8.4-6-13.3c1-4.9,5.2-6.9,9.4-4.5
			C961.3,76.5,963.9,82.5,963,87.4z"/>
		<path class="st7" d="M986.3,100.7c-1,4.9-5.2,6.9-9.4,4.5c-4.2-2.4-6.9-8.4-6-13.3c1-4.9,5.2-6.9,9.4-4.5
			C984.6,89.9,987.2,95.8,986.3,100.7z"/>
		<path class="st7" d="M1009.6,114.1c-1,4.9-5.2,6.9-9.4,4.5c-4.2-2.4-6.9-8.4-6-13.3c1-4.9,5.2-6.9,9.4-4.5
			C1007.9,103.3,1010.6,109.2,1009.6,114.1z"/>
	</g>
</g>
</svg>
