<?xml version="1.0" encoding="UTF-8"?>
<!DOCTYPE svg PUBLIC "-//W3C//DTD SVG 1.1//EN" "http://www.w3.org/Graphics/SVG/1.1/DTD/svg11.dtd">
<!-- Creator: CorelDRAW X8 -->
<svg xmlns="http://www.w3.org/2000/svg" xml:space="preserve" width="100%" height="100%" version="1.1" style="shape-rendering:geometricPrecision; text-rendering:geometricPrecision; image-rendering:optimizeQuality; fill-rule:evenodd; clip-rule:evenodd"
viewBox="0 0 890636 851746"
 xmlns:xlink="http://www.w3.org/1999/xlink">
 <defs>
  <style type="text/css">
   <![CDATA[
    .fil8 {fill:#FEFEFE;fill-rule:nonzero}
    .fil20 {fill:#FAC1B2;fill-rule:nonzero}
    .fil5 {fill:#EE4698;fill-rule:nonzero}
    .fil21 {fill:#EA9E95;fill-rule:nonzero}
    .fil14 {fill:#E9F2FB;fill-rule:nonzero}
    .fil7 {fill:#E179AF;fill-rule:nonzero}
    .fil16 {fill:#DFEFFA;fill-rule:nonzero}
    .fil6 {fill:#D12D90;fill-rule:nonzero}
    .fil12 {fill:#D5E9F8;fill-rule:nonzero}
    .fil18 {fill:#CA7DB4;fill-rule:nonzero}
    .fil17 {fill:#C3DAED;fill-rule:nonzero}
    .fil15 {fill:#B1C6DE;fill-rule:nonzero}
    .fil4 {fill:#8EA0BE;fill-rule:nonzero}
    .fil19 {fill:#825DA5;fill-rule:nonzero}
    .fil13 {fill:#5D96CF;fill-rule:nonzero}
    .fil10 {fill:#4572AD;fill-rule:nonzero}
    .fil11 {fill:#39588D;fill-rule:nonzero}
    .fil9 {fill:#35497D;fill-rule:nonzero}
    .fil1 {fill:url(#id0)}
    .fil3 {fill:url(#id1)}
    .fil0 {fill:url(#id2)}
    .fil2 {fill:url(#id3)}
   ]]>
  </style>
  <linearGradient id="id0" gradientUnits="userSpaceOnUse" x1="587522" y1="741610" x2="537653" y2="680374">
   <stop offset="0" style="stop-opacity:1; stop-color:#B9E3FB"/>
   <stop offset="1" style="stop-opacity:1; stop-color:#36A2FB"/>
  </linearGradient>
  <linearGradient id="id1" gradientUnits="userSpaceOnUse" x1="239190" y1="694492" x2="320986" y2="694492">
   <stop offset="0" style="stop-opacity:1; stop-color:#C3DA59"/>
   <stop offset="1" style="stop-opacity:1; stop-color:#4FB852"/>
  </linearGradient>
  <linearGradient id="id2" gradientUnits="userSpaceOnUse" x1="361846" y1="284164" x2="304303" y2="203583">
   <stop offset="0" style="stop-opacity:1; stop-color:#FBDA25"/>
   <stop offset="1" style="stop-opacity:1; stop-color:#F9A431"/>
  </linearGradient>
  <linearGradient id="id3" gradientUnits="userSpaceOnUse" x1="492556" y1="246188" x2="529985" y2="286157">
   <stop offset="0" style="stop-opacity:1; stop-color:#F177AD"/>
   <stop offset="1" style="stop-opacity:1; stop-color:#EE4389"/>
  </linearGradient>
 </defs>
 <g id="Layer_x0020_1">
  <metadata id="CorelCorpID_0Corel-Layer"/>
  <g id="_2425317919568">
   <path class="fil0" d="M298637 337342l0 -3 -228 0c-1000,-11 -2012,-36 -3033,-72l0 -12 -348 0c-577,-22 -1158,-49 -1742,-79l0 -5 -85 0c-389,-19 -778,-41 -1169,-65l0 -18 -333 0c-304,-19 -614,-45 -920,-67l0 -17 -229 0c-368,-26 -739,-55 -1109,-84 -173,-13 -344,-24 -519,-39l0 -125687 131302 0c-23178,10615 -40745,35489 -45026,64178 -22,147 -47,294 -70,441l-2 0 0 12c-25,163 -51,326 -77,489l-6 0 0 38c-25,154 -48,309 -74,464l-10 0 0 63c-24,146 -51,292 -77,438l-7 0 0 39 -82 463 -1 0 0 8c-55,304 -109,608 -167,911l0 0 0 3c-27,139 -55,277 -82,415l-2 0 0 10 -80 408 -4 0 0 17c-26,134 -51,268 -79,401l-4 0 0 23c-79,383 -164,765 -248,1148l-3 0 0 14c-54,246 -109,492 -166,738l-1 0 0 5 -78 329 -6 0 0 24c-208,886 -429,1770 -667,2651l-1 0 0 4c-53,194 -108,388 -162,582l-6 0 0 20c-52,189 -103,377 -156,565l-11 0 0 37c-52,183 -108,365 -161,548l-6 0 0 19c-212,720 -435,1438 -668,2154l-1 0 0 2 -80 249 -3 0 0 11 -79 240 -5 0 0 16c-26,78 -54,156 -81,235l-3 0 0 8 -83 242 0 0 0 1c-162,475 -328,949 -499,1421l-3 0 0 8c-80,220 -160,441 -242,660l-8 0 0 24 -84 227 0 0 0 1c-52,139 -107,278 -160,417l-7 0 0 19c-137,357 -275,713 -417,1068l-1 0 0 2c-135,335 -274,668 -413,1001l-5 0 0 13c-80,191 -156,382 -237,572l-14 0 0 33c-79,184 -163,368 -243,552l-8 0 0 17c-83,190 -165,379 -250,569l-1 0 0 0c-162,364 -329,725 -497,1086l-4 0 0 8 -75 160 -9 0 0 19c-473,1007 -969,2003 -1490,2990l-15 0 0 28 -72 139 -11 0 0 21 -76 146 -8 0 0 14 -82 153 -1 0 0 3c-135,251 -275,500 -413,750l-5 0 0 8c-325,587 -656,1169 -998,1747l-5 0 0 9 -243 409 -8 0 0 13c-82,135 -166,270 -249,405l-2 0 0 4c-273,447 -552,892 -836,1334l0 0 0 0 -162 251 -5 0 0 8 -156 242 -11 0 0 17c-51,78 -100,156 -151,234l-17 0 0 25 -152 226 -15 0 0 22c-51,77 -104,152 -155,229l-12 0 0 17 -159 234 -8 0 0 11 -163 239 -4 0 0 7c-56,81 -110,163 -166,244l-1 0 0 2c-136,195 -275,389 -412,583l-6 0 0 9c-137,193 -275,385 -413,576l-5 0 0 7c-79,109 -155,219 -235,328l-16 0 0 21c-77,105 -158,209 -236,313l-15 0 0 20c-457,613 -926,1220 -1406,1819l-15 0 0 19c-106,132 -210,267 -318,399l-16 0 0 22c-109,133 -222,264 -332,396l-3 0 0 3 -67 81 -16 0 0 20c-111,133 -222,266 -333,398l-2 0 0 1c-165,195 -330,390 -497,584l-4 0 0 5c-193,223 -389,443 -585,664l-1 0 0 0 -73 83 -10 0 0 12 -63 72 -21 0 0 23c-219,245 -443,487 -667,729l-2 0 0 2 -76 82 -7 0 0 8c-1090,1174 -2230,2315 -3422,3419l-6 0 0 6c-239,221 -476,444 -719,663l-33 0 0 30 -62 54 -21 0 0 19 -75 64 -9 0 0 9c-218,193 -439,385 -660,576l-9 0 0 8c-354,307 -714,611 -1077,912l-10 0 0 8c-131,109 -262,218 -394,326l-23 0 0 19 -78 65 -6 0 0 5 -305 246 -29 0 0 23 -77 60 -7 0 0 6c-104,82 -209,163 -313,245l-21 0 0 16c-278,219 -554,438 -836,653 -298,226 -601,447 -903,669l-17 0 0 12c-108,79 -213,160 -321,238l-13 0 0 10 -221 157 -30 0 0 22c-108,77 -220,153 -329,229l-6 0 0 5 -232 162 -18 0 0 13c-357,249 -716,496 -1080,740l-7 0 0 4 -247 163 -4 0 0 3 -249 164 -2 0 0 1c-212,139 -421,280 -635,417l-33 0 0 21c-78,49 -158,97 -236,146l-15 0 0 10c-218,137 -437,273 -658,408l-11 0 0 8c-410,252 -825,500 -1244,745l-10 0 0 6c-187,109 -372,220 -561,328l-24 0 0 14c-189,108 -380,214 -571,321l-14 0 0 8 -138 75 -29 0 0 16c-193,107 -386,213 -580,319l-6 0 0 3c-576,311 -1159,618 -1751,916l-4 0 0 2c-53,27 -105,55 -158,82l-9 0 0 4c-52,26 -102,53 -154,79l-13 0 0 7 -160 77 -8 0 0 4 -166 80 -1 0 0 0c-521,256 -1048,507 -1581,752l-7 0 0 3c-245,112 -493,221 -740,331l-13 0 0 6c-182,81 -363,165 -546,245l-39 0 0 17 -150 67 -17 0 0 7c-127,54 -257,106 -384,160l-34 0 0 14c-189,79 -379,158 -569,237l-16 0 0 6c-548,227 -1102,447 -1661,662l-11 0 0 5 -206 79 -45 0 0 17c-130,50 -258,101 -389,150l-29 0 0 11 -190 73 -60 0 0 21c-136,50 -274,97 -410,146l-8 0 0 3 -227 80 -24 0 0 9c-305,109 -608,220 -916,326l-4 0 0 1c-164,56 -330,111 -495,166l-6 0 0 2c-83,28 -167,54 -250,82l-1 0 0 0c-340,113 -680,225 -1024,334l-63 0 0 21c-65,20 -128,42 -193,63l-58 0 0 17c-73,23 -148,43 -221,66l-29 0 0 9c-269,83 -542,162 -813,242l-23 0 0 7c-578,170 -1161,335 -1750,494l-6 0 0 2 -303 82 -31 0 0 8c-93,25 -186,51 -279,76l-56 0 0 15c-85,22 -168,46 -253,68l-81 0 0 22c-84,21 -171,40 -256,62l-78 0 0 19 -265 64 -70 0 0 17c-683,170 -1375,331 -2073,485l-17 0 0 4 -368 80 -50 0 0 11 -335 72 -83 0 0 18c-101,21 -200,45 -301,66l-117 0 0 25c-99,21 -201,38 -301,58l-33 0 0 7c-134,26 -270,51 -404,77l-14 0 0 3c-755,147 -1519,285 -2292,415l-49 0 0 8 -453 76 -48 0 0 8c-152,24 -301,51 -454,75l-132 0 0 22c-140,22 -283,41 -423,62l-78 0 0 11c-169,25 -341,48 -511,72l-74 0 0 11c-596,85 -1195,166 -1800,240l-39 0 0 5c-223,27 -446,53 -670,79l-83 0 0 10c-209,23 -415,51 -625,73l-211 0 0 24c-209,22 -423,39 -634,60l-118 0 0 11c-253,25 -507,50 -762,72l-74 0 0 8c-289,26 -578,52 -870,76l-49 0 0 4c-369,29 -742,54 -1114,80l-224 0 0 16c-353,24 -707,47 -1063,67l-358 0 0 18c-441,24 -882,47 -1328,66l-10 0 0 0c-1098,45 -2213,72 -3341,84l-1089 0 0 6c-388,1 -778,0 -1170,-3z"/>
   <path class="fil1" d="M593723 663623l-74945 42375c-8470,4789 -11458,15541 -6666,24016l13033 23047 68578 0 0 -89438z"/>
   <path class="fil2" d="M512585 300611c-1585,0 -3127,-648 -4240,-1829l-29923 -31739c-1427,-1512 -1939,-3674 -1341,-5667 599,-1995 2215,-3521 4240,-3996l42445 -10044c2020,-489 4154,159 5581,1674 1428,1510 1940,3674 1343,5667l-12524 41781c-597,1993 -2213,3519 -4241,3997 -443,106 -895,156 -1340,156zm-24115 -34597l21734 23052 9096 -30345 -30830 7293z"/>
   <path class="fil3" d="M288924 663623c18782,0 34008,15227 34008,34009 0,18784 -15226,34011 -34008,34011l-1 0 0 -8283 1 0c14209,0 25727,-11518 25727,-25728 0,-14208 -11518,-25728 -25727,-25728l-1 0 0 -8281 1 0z"/>
  </g>
  <g id="_2425317921648">
   <path class="fil4" d="M533665 784720c-6651,20 -13308,-1680 -19279,-5104l-302161 -173283c-6791,-3891 -6820,-13677 -51,-17610l286340 -166412 321450 184344c6794,3893 6822,13680 52,17612l-267109 155240c-5949,3455 -12595,5194 -19242,5213z"/>
   <path class="fil5" d="M504373 329619c-39,-19156 -13551,-26918 -30121,-17309l-281650 163372c-4556,2640 -8242,9055 -8232,14321 11,5266 3715,7394 8268,4752l281654 -163370c7471,-4339 13566,-836 13584,7803l62 31552c5474,-356 10968,-379 16516,-298l-81 -40823z"/>
   <path class="fil6" d="M192701 551487l281825 -103627c16571,-9611 30018,-33015 29979,-52170l-51 -25248c-5548,-81 -11042,-58 -16516,298l70 34522c16,8639 -6047,19191 -13521,23526l-281825 103626c-4555,2643 -8240,9055 -8229,14321 8,5266 3713,7394 8268,4752z"/>
   <polygon class="fil6" points="186583,551885 530355,749468 820415,575340 843367,540868 841009,553065 834722,521169 295420,543311 200373,537469 "/>
   <polygon class="fil7" points="197791,491924 197821,534168 530073,725101 538917,684812 "/>
   <polygon class="fil5" points="838996,507574 495771,310334 187361,490890 186735,495301 530467,692832 "/>
   <path class="fil8" d="M730054 609691l80426 -48022c6773,-4790 12067,-14446 12050,-22504l40 -6330c-10,-5116 -2164,-8411 -5461,-9362l-158334 88689 -128945 70224 243 42715 199981 -115410z"/>
   <path class="fil6" d="M541422 686253l-341046 -195986 -7229 -4155 -6603 -3796c-1342,2477 -2178,5202 -2174,7687 6,2587 911,4407 2363,5284l2 14 56 33 24 14 343650 197484 10957 -6579z"/>
   <polygon class="fil8" points="526069,747009 530355,749468 531142,748104 528468,746015 "/>
   <polygon class="fil8" points="526015,690267 530408,692790 529300,690399 "/>
   <path class="fil5" d="M536328 673210l281651 -163370c16570,-9613 30082,-1846 30121,17308l-42 6329c39,19155 -13410,42557 -29979,52168l-281653 163369c-4553,2644 -8258,518 -8268,-4750 -11,-5267 3675,-11678 8231,-14322l281650 -163370c7475,-4333 13538,-14886 13522,-23526l42 -6330c-18,-8638 -6110,-12139 -13585,-7803l-281652 163370c-4554,2640 -8258,511 -8268,-4752 -11,-5266 3675,-11678 8230,-14321z"/>
   <path class="fil8" d="M528160 744266c-10,-5269 3673,-11680 8229,-14324l281650 -163370c7475,-4333 13538,-14886 13522,-23526l42 -6330c-12,-5657 -2637,-9088 -6539,-9583 1262,1648 2004,4000 2010,6982l-40 6329c16,8639 -6047,19193 -13521,23526l-281651 163371c-4555,2642 -8241,9054 -8231,14322 9,3991 2141,6165 5155,5844 -397,-886 -625,-1968 -626,-3241z"/>
   <path class="fil8" d="M528098 687531c-11,-5266 3675,-11678 8230,-14321l281651 -163370c7137,-4141 13699,-5040 18867,-3212 -5528,-4687 -13961,-4863 -23396,610l-281648 163370c-4555,2643 -8242,9055 -8231,14321 9,3989 2141,6165 5154,5841 -396,-886 -624,-1963 -627,-3239z"/>
   <path class="fil9" d="M849658 216308l-304904 -174855c-3541,-2031 -7135,-2332 -10318,-1234l19 -30 -553 209 -133 52 -10990 4243 9887 4803 -140 539 -48922 225833c-2449,11302 2559,24473 11184,29420l297572 170649 -1026 12592 12012 -4694c4032,-1902 7256,-6183 8572,-12271l48924 -225836c2450,-11299 -2558,-24474 -11184,-29420z"/>
   <path class="fil10" d="M849658 216308l-304904 -174855c-3541,-2031 -7135,-2332 -10318,-1234l19 -30 -553 209 -133 52 -10990 4243 9887 4803 -140 539 -32243 148837 149273 115603 209752 -86063c-2033,-5227 -5399,-9666 -9650,-12104z"/>
   <path class="fil11" d="M838281 251036l23145 -9934c399,-8976 -3343,-18235 -9455,-23174l-36635 15535 22945 17573z"/>
   <path class="fil12" d="M780758 487363l-304905 -174855c-8626,-4947 -13633,-18118 -11183,-29420l48923 -225833c2447,-11302 11424,-16453 20049,-11506l304905 174854c8625,4944 13634,18119 11187,29420l-48925 225833c-2449,11301 -11425,16453 -20051,11507z"/>
   <path class="fil8" d="M841467 219524l-304905 -174855c-4178,-2395 -8424,-2381 -11988,-485 2863,-634 5983,-207 9068,1565l304907 174854c8623,4944 13632,18119 11185,29420l-48925 225833c-1261,5824 -4273,9975 -8065,11992 5136,-1140 9411,-5811 10986,-13071l48921 -225831c2450,-11302 -2558,-24476 -11184,-29422z"/>
   <path class="fil8" d="M774111 470596l-286758 -164370c-7891,-4523 -12474,-16579 -10234,-26918l44768 -206658c2241,-10342 10455,-15055 18349,-10529l286759 164365c7891,4528 12474,16581 10231,26921l-44768 206657c-2240,10343 -10455,15058 -18347,10532z"/>
   <path class="fil9" d="M774111 470596l-286758 -164370c-7891,-4523 -12474,-16579 -10234,-26918l44768 -206658c2241,-10342 10455,-15055 18349,-10529l286759 164365c7891,4528 12474,16581 10231,26921l-44768 206657c-2240,10343 -10455,15058 -18347,10532z"/>
   <path class="fil13" d="M776602 469572l-286758 -164365c-7892,-4527 -12474,-16580 -10232,-26922l44766 -206660c1136,-5234 3805,-9007 7182,-10888 -4532,1180 -8273,5446 -9673,11913l-44768 206658c-2240,10339 2343,22395 10234,26918l286758 164370c3898,2235 7869,2200 11165,362 -2716,710 -5717,310 -8674,-1386z"/>
   <path class="fil9" d="M784982 495002l-41623 -5370 -269044 -154289c-8623,-4949 -23665,-4279 -33589,1491l-190003 110397 -25171 -3251 42 14276 25 5c-156,3299 1732,6469 5802,8799l304905 174857c8626,4944 23665,4280 33591,-1491l206921 -120229c5583,-3247 8359,-7415 8184,-11323l-40 -13872z"/>
   <path class="fil10" d="M582886 397604l-19113 -10959 -209797 612 -103253 59974 -25171 -3251 42 14276 25 5c-156,3299 1732,6469 5802,8799l304905 174857c4559,2614 10909,3645 17349,3197l29211 -247510z"/>
   <path class="fil13" d="M236722 445424l-11170 -1444 42 14276 25 5c-156,3299 1732,6469 5802,8799l5373 3083 -72 -24719z"/>
   <path class="fil11" d="M539396 643331c8172,3073 19840,2364 28539,-1856l-93 -31841 -28544 83 98 33614z"/>
   <path class="fil12" d="M536284 627658l-304904 -174855c-8626,-4947 -7570,-13633 2356,-19404l206921 -120231c9924,-5770 24966,-6435 33589,-1488l304907 174855c8623,4946 7568,13630 -2356,19401l-206921 120231c-9927,5771 -24966,6437 -33592,1491z"/>
   <path class="fil8" d="M776782 500721l-206921 120232c-9927,5768 -24966,6437 -33592,1491l-304904 -174855c-2828,-1620 -4595,-3649 -5371,-5840 -1335,4077 394,8192 5386,11054l304904 174855c8626,4946 23665,4280 33592,-1488l206921 -120234c6673,-3876 9313,-9071 7725,-13562 -971,2969 -3559,5918 -7740,8347z"/>
   <path class="fil13" d="M360674 394245l-13795 -7913c-1110,-633 -975,-1749 301,-2490l16229 -9433c1274,-741 3205,-826 4316,-192l13794 7913c1108,633 971,1751 -303,2490l-16231 9435c-1272,739 -3206,824 -4311,190z"/>
   <path class="fil13" d="M381978 406462l-13796 -7911c-1107,-634 -970,-1752 304,-2490l16227 -9436c1276,-740 3205,-825 4315,-191l13795 7913c1108,636 971,1749 -303,2492l-16227 9431c-1276,743 -3208,828 -4315,192z"/>
   <path class="fil13" d="M403281 418681l-13795 -7910c-1108,-639 -971,-1752 303,-2496l16232 -9430c1271,-741 3205,-829 4310,-193l13796 7911c1109,636 975,1752 -301,2493l-16230 9433c-1273,741 -3205,826 -4315,192z"/>
   <path class="fil13" d="M432671 408454l-13798 -7913c-1107,-634 -973,-1750 304,-2490l13623 -7919c1276,-741 3205,-828 4312,-190l13798 7911c1105,634 971,1749 -303,2490l-13625 7918c-1274,744 -3206,829 -4311,193z"/>
   <path class="fil13" d="M453975 420671l-13796 -7911c-1107,-637 -973,-1749 301,-2493l13625 -7916c1274,-743 3206,-828 4313,-195l13796 7914c1109,636 973,1751 -304,2492l-13623 7919c-1273,738 -3208,825 -4312,190z"/>
   <path class="fil13" d="M475278 432890l-13795 -7911c-1108,-636 -971,-1752 303,-2493l13623 -7918c1274,-741 3205,-826 4315,-192l13795 7910c1108,637 971,1752 -303,2493l-13623 7921c-1273,738 -3205,823 -4315,190z"/>
   <path class="fil13" d="M496584 445107l-13795 -7912c-1111,-633 -974,-1751 303,-2492l13620 -7918c1277,-742 3205,-827 4316,-190l13795 7911c1108,633 971,1751 -304,2490l-13622 7918c-1274,743 -3205,828 -4313,193z"/>
   <path class="fil13" d="M517887 457325l-13795 -7913c-1105,-636 -971,-1749 304,-2492l13624 -7917c1272,-741 3206,-828 4311,-191l13797 7913c1109,633 974,1749 -303,2490l-13622 7918c-1277,741 -3208,826 -4316,192z"/>
   <path class="fil13" d="M539193 469542l-13797 -7911c-1106,-636 -971,-1749 303,-2493l13625 -7918c1274,-741 3205,-826 4313,-192l13797 7911c1106,638 972,1752 -303,2495l-13625 7918c-1274,739 -3205,826 -4313,190z"/>
   <path class="fil13" d="M560499 481759l-13795 -7911c-1110,-634 -973,-1752 300,-2491l13623 -7918c1277,-743 3206,-828 4316,-192l13795 7911c1107,633 971,1751 -303,2493l-13625 7918c-1272,741 -3206,826 -4311,190z"/>
   <path class="fil13" d="M581803 493977l-13796 -7910c-1107,-636 -970,-1752 303,-2493l13623 -7918c1274,-741 3206,-826 4313,-192l13796 7913c1109,633 973,1751 -304,2490l-13620 7919c-1276,741 -3208,828 -4315,191z"/>
   <path class="fil13" d="M603106 506197l-13795 -7911c-1108,-638 -971,-1752 303,-2495l13622 -7919c1275,-738 3206,-825 4316,-189l13795 7911c1108,636 971,1749 -300,2492l-13626 7919c-1274,741 -3205,826 -4315,192z"/>
   <path class="fil13" d="M624411 518411l-13794 -7911c-1108,-633 -974,-1749 303,-2490l13622 -7918c1275,-741 3206,-829 4314,-193l13797 7913c1106,634 971,1750 -303,2491l-13625 7918c-1274,741 -3205,828 -4314,190z"/>
   <path class="fil13" d="M463991 402549l-13795 -7911c-1110,-634 -973,-1752 303,-2493l13621 -7918c1276,-741 3207,-826 4315,-193l13795 7914c1108,634 971,1752 -301,2490l-13625 7918c-1274,741 -3205,828 -4313,193z"/>
   <path class="fil13" d="M442367 390148l-13795 -7910c-1108,-636 -971,-1752 303,-2493l13623 -7918c1274,-741 3205,-829 4314,-190l13794 7911c1111,633 974,1749 -301,2490l-13622 7919c-1277,743 -3208,828 -4316,191z"/>
   <path class="fil13" d="M420711 377730l-29715 -17041c-1107,-633 -970,-1751 304,-2492l13623 -7918c1273,-741 3205,-826 4315,-192l29712 17040c1105,636 973,1749 -303,2492l-13623 7919c-1274,741 -3208,826 -4313,192z"/>
   <path class="fil13" d="M435777 362503l-24110 -13828c-1110,-636 -973,-1752 304,-2490l13620 -7918c1276,-744 3208,-829 4315,-195l24113 13827c1108,639 971,1752 -301,2496l-13625 7918c-1274,738 -3206,823 -4316,190z"/>
   <path class="fil13" d="M485295 414768l-13796 -7911c-1105,-639 -970,-1752 303,-2495l13626 -7918c1271,-739 3205,-826 4310,-190l13798 7910c1107,637 973,1750 -303,2493l-13623 7918c-1276,741 -3208,826 -4315,193z"/>
   <path class="fil13" d="M506600 426985l-13797 -7914c-1105,-634 -971,-1749 303,-2490l13625 -7918c1274,-741 3206,-828 4313,-193l13798 7911c1105,636 971,1752 -303,2493l-13626 7918c-1273,741 -3205,828 -4313,193z"/>
   <path class="fil13" d="M527906 439201l-13795 -7911c-1110,-633 -973,-1751 301,-2490l13622 -7918c1277,-744 3209,-829 4316,-192l13795 7910c1108,634 971,1752 -303,2493l-13623 7918c-1274,739 -3206,826 -4313,190z"/>
   <path class="fil13" d="M549209 451420l-13794 -7911c-1108,-636 -972,-1751 303,-2492l13622 -7921c1275,-739 3206,-824 4314,-190l13794 7911c1111,636 974,1752 -303,2493l-13620 7918c-1276,741 -3207,826 -4316,192z"/>
   <path class="fil13" d="M570513 463639l-13795 -7913c-1108,-636 -971,-1751 303,-2493l13623 -7918c1274,-739 3205,-828 4316,-189l13794 7910c1108,634 972,1750 -300,2490l-13625 7919c-1275,743 -3206,828 -4316,194z"/>
   <path class="fil13" d="M591819 475854l-13795 -7912c-1108,-633 -973,-1749 303,-2490l13623 -7918c1274,-743 3207,-828 4313,-192l13797 7913c1106,634 971,1749 -303,2491l-13625 7918c-1274,738 -3205,828 -4313,190z"/>
   <path class="fil13" d="M613125 488072l-13798 -7910c-1105,-636 -970,-1752 303,-2493l13626 -7918c1274,-741 3205,-826 4310,-192l13798 7911c1107,638 973,1751 -303,2494l-13623 7919c-1276,738 -3208,823 -4313,189z"/>
   <path class="fil13" d="M634428 500291l-13795 -7913c-1107,-633 -971,-1751 301,-2490l13625 -7921c1274,-738 3206,-825 4315,-189l13796 7911c1107,635 970,1751 -303,2490l-13623 7918c-1274,744 -3206,829 -4316,194z"/>
   <path class="fil13" d="M655734 512508l-13795 -7911c-1110,-635 -973,-1751 303,-2492l13620 -7919c1277,-740 3209,-828 4316,-190l13795 7911c1108,634 971,1749 -303,2491l-13623 7918c-1274,743 -3205,828 -4313,192z"/>
   <path class="fil13" d="M693609 534228l-30102 -17263c-1106,-634 -971,-1749 303,-2490l13625 -7919c1274,-743 3205,-828 4311,-192l30102 17263c1108,636 973,1750 -303,2493l-13623 7918c-1274,741 -3205,826 -4313,190z"/>
   <path class="fil13" d="M734948 510201l-25408 -14570c-1107,-634 -973,-1752 304,-2491l13623 -7920c1273,-739 3205,-826 4312,-190l25408 14568c1108,638 971,1752 -303,2495l-13623 7916c-1274,741 -3205,825 -4313,192z"/>
   <path class="fil13" d="M522534 412256l-13795 -7913c-1108,-634 -971,-1752 303,-2490l13623 -7918c1274,-741 3205,-829 4313,-193l13795 7911c1110,636 973,1752 -301,2490l-13623 7921c-1276,741 -3205,826 -4315,192z"/>
   <path class="fil13" d="M500702 399733l-13797 -7911c-1108,-636 -973,-1752 303,-2492l13623 -7919c1276,-740 3205,-825 4313,-192l13797 7913c1106,637 971,1749 -303,2493l-13625 7918c-1274,739 -3205,824 -4311,190z"/>
   <path class="fil13" d="M478866 387210l-13797 -7911c-1106,-633 -971,-1749 303,-2490l13625 -7918c1274,-741 3205,-829 4313,-193l13795 7913c1108,634 974,1749 -303,2491l-13623 7918c-1274,741 -3208,828 -4313,190z"/>
   <path class="fil13" d="M457032 374691l-13795 -7913c-1110,-635 -973,-1749 301,-2493l13623 -7918c1276,-738 3205,-826 4315,-189l13795 7911c1108,635 971,1749 -303,2492l-13623 7918c-1274,741 -3205,826 -4313,192z"/>
   <path class="fil13" d="M543842 424473l-13797 -7911c-1108,-636 -973,-1751 301,-2492l13625 -7919c1274,-741 3205,-826 4313,-190l13797 7911c1106,634 971,1752 -303,2490l-13625 7918c-1274,741 -3205,829 -4311,193z"/>
   <path class="fil13" d="M565145 436692l-13797 -7913c-1105,-637 -973,-1749 303,-2493l13623 -7918c1277,-739 3208,-826 4313,-190l13798 7911c1105,636 973,1749 -303,2492l-13625 7919c-1274,740 -3206,825 -4312,192z"/>
   <path class="fil13" d="M586449 448909l-13795 -7913c-1107,-634 -971,-1750 301,-2491l13625 -7918c1274,-741 3206,-828 4313,-192l13795 7910c1110,639 973,1752 -303,2493l-13620 7918c-1276,741 -3206,829 -4316,193z"/>
   <path class="fil13" d="M607755 461126l-13795 -7912c-1110,-633 -973,-1751 300,-2490l13623 -7918c1277,-744 3206,-829 4316,-192l13795 7911c1107,633 971,1751 -303,2490l-13623 7921c-1274,740 -3206,825 -4313,190z"/>
   <path class="fil13" d="M629058 473344l-13794 -7911c-1108,-635 -974,-1751 302,-2494l13621 -7919c1277,-739 3208,-823 4316,-189l13794 7910c1109,636 974,1752 -300,2493l-13626 7918c-1273,741 -3205,826 -4313,192z"/>
   <path class="fil13" d="M650364 485563l-13797 -7915c-1106,-634 -971,-1749 303,-2491l13625 -7918c1275,-738 3206,-826 4311,-189l13797 7911c1108,635 974,1749 -303,2492l-13623 7916c-1276,743 -3205,828 -4313,194z"/>
   <path class="fil13" d="M671670 497778l-13797 -7911c-1108,-633 -973,-1750 301,-2491l13625 -7918c1276,-743 3205,-828 4313,-192l13797 7911c1106,636 971,1751 -303,2493l-13625 7918c-1274,741 -3205,828 -4311,190z"/>
   <path class="fil13" d="M692974 509997l-13795 -7911c-1108,-636 -973,-1752 300,-2493l13623 -7918c1276,-741 3208,-826 4316,-192l13795 7911c1107,636 973,1751 -303,2494l-13623 7919c-1274,739 -3206,824 -4313,190z"/>
   <path class="fil13" d="M714277 522216l-13795 -7913c-1107,-634 -971,-1752 303,-2493l13623 -7918c1274,-739 3206,-824 4313,-190l13795 7911c1110,636 973,1751 -303,2492l-13620 7919c-1277,741 -3206,826 -4316,192z"/>
   <path class="fil13" d="M511249 381915l-13797 -7910c-1107,-637 -973,-1752 303,-2496l13623 -7918c1274,-738 3206,-823 4313,-190l13797 7913c1106,634 971,1750 -302,2491l-13626 7918c-1274,741 -3205,826 -4311,192z"/>
   <path class="fil13" d="M490049 369759l-13796 -7913c-1109,-634 -973,-1749 304,-2490l13620 -7921c1276,-739 3206,-824 4315,-190l13796 7911c1107,636 970,1752 -303,2492l-13623 7919c-1274,740 -3206,825 -4313,192z"/>
   <path class="fil13" d="M468850 357600l-13795 -7911c-1110,-633 -973,-1751 301,-2490l13623 -7921c1276,-741 3208,-826 4315,-189l13795 7911c1108,633 971,1751 -303,2490l-13623 7918c-1273,743 -3205,828 -4313,192z"/>
   <path class="fil13" d="M447652 345444l-13797 -7911c-1106,-636 -974,-1752 303,-2490l13622 -7918c1277,-744 3208,-829 4314,-195l13797 7913c1106,634 973,1752 -303,2490l-13623 7919c-1276,741 -3207,828 -4313,192z"/>
   <path class="fil13" d="M469378 332815l-13798 -7911c-1107,-634 -973,-1751 303,-2490l4505 -2617c1274,-743 3206,-828 4311,-195l13797 7913c1107,637 973,1752 -303,2493l-4505 2617c-1271,741 -3205,826 -4310,190z"/>
   <path class="fil13" d="M497042 348681l-13797 -7911c-1107,-634 -973,-1752 303,-2490l4505 -2620c1273,-741 3205,-826 4310,-191l13798 7913c1107,633 973,1751 -303,2490l-4505 2616c-1274,744 -3205,829 -4311,193z"/>
   <path class="fil13" d="M518152 360786l-13795 -7911c-1108,-634 -973,-1749 300,-2490l4505 -2619c1274,-741 3206,-826 4313,-192l13796 7913c1109,636 973,1749 -301,2492l-4505 2617c-1274,741 -3208,828 -4313,190z"/>
   <path class="fil13" d="M539262 372894l-13796 -7911c-1107,-636 -970,-1752 303,-2493l4503 -2617c1273,-740 3205,-825 4315,-192l13795 7911c1108,636 971,1751 -303,2492l-4502 2620c-1276,738 -3208,823 -4315,190z"/>
   <path class="fil13" d="M560371 385001l-13795 -7911c-1108,-638 -971,-1751 303,-2494l4502 -2617c1276,-739 3206,-828 4315,-190l13796 7910c1107,634 970,1750 -303,2491l-4502 2619c-1277,741 -3206,826 -4316,192z"/>
   <path class="fil13" d="M678230 452586l-13795 -7910c-1111,-637 -974,-1750 301,-2493l4504 -2617c1274,-741 3205,-826 4313,-192l13795 7911c1110,638 973,1751 -303,2494l-4502 2617c-1274,739 -3206,826 -4313,190z"/>
   <path class="fil13" d="M699339 464694l-13795 -7911c-1110,-636 -973,-1751 303,-2492l4502 -2620c1275,-738 3206,-825 4314,-190l13794 7911c1111,637 974,1752 -303,2491l-4502 2621c-1274,738 -3205,823 -4313,190z"/>
   <path class="fil13" d="M720448 476801l-13794 -7913c-1108,-636 -973,-1751 303,-2492l4502 -2617c1274,-741 3205,-828 4316,-190l13794 7911c1108,634 972,1749 -303,2490l-4502 2617c-1276,743 -3207,828 -4316,194z"/>
   <path class="fil13" d="M741558 488905l-13795 -7911c-1105,-634 -971,-1752 304,-2491l4504 -2616c1274,-744 3205,-828 4313,-192l13797 7910c1106,634 971,1752 -303,2493l-4504 2617c-1277,741 -3206,826 -4316,190z"/>
   <path class="fil13" d="M532553 394134l-13798 -7915c-1105,-634 -973,-1747 303,-2490l13623 -7919c1276,-738 3208,-825 4314,-190l13797 7911c1105,636 973,1749 -303,2493l-13623 7918c-1276,741 -3208,826 -4313,192z"/>
   <path class="fil13" d="M553856 406349l-13795 -7911c-1107,-634 -971,-1749 301,-2490l13625 -7918c1274,-744 3206,-829 4314,-193l13794 7911c1110,636 973,1751 -303,2492l-13620 7919c-1277,741 -3206,828 -4316,190z"/>
   <path class="fil13" d="M575162 418568l-13795 -7911c-1110,-636 -973,-1752 303,-2492l13621 -7916c1276,-744 3205,-829 4316,-195l13794 7913c1108,634 971,1752 -303,2490l-13623 7921c-1274,738 -3205,823 -4313,190z"/>
   <path class="fil13" d="M596465 430787l-13794 -7911c-1108,-636 -973,-1751 303,-2495l13620 -7918c1277,-739 3208,-824 4316,-190l13795 7910c1107,637 973,1752 -301,2493l-13623 7918c-1276,741 -3208,826 -4316,193z"/>
   <path class="fil13" d="M617771 443004l-13797 -7911c-1105,-637 -970,-1752 303,-2493l13626 -7918c1273,-741 3205,-828 4310,-190l13798 7911c1107,633 973,1749 -303,2490l-13623 7918c-1276,743 -3206,828 -4314,193z"/>
   <path class="fil13" d="M639077 455220l-13797 -7911c-1107,-636 -973,-1749 303,-2492l13623 -7916c1276,-744 3206,-829 4313,-195l13798 7913c1104,636 970,1752 -303,2493l-13626 7918c-1274,739 -3206,826 -4311,190z"/>
   <path class="fil13" d="M660381 467439l-13795 -7911c-1108,-636 -973,-1751 300,-2492l13623 -7919c1277,-741 3208,-826 4316,-192l13795 7911c1107,636 973,1752 -303,2495l-13621 7919c-1276,738 -3208,823 -4315,189z"/>
   <path class="fil13" d="M681684 479656l-13794 -7911c-1108,-633 -972,-1751 302,-2490l13623 -7921c1275,-741 3206,-826 4314,-189l13794 7910c1110,634 974,1752 -303,2490l-13620 7919c-1277,743 -3206,828 -4316,192z"/>
   <path class="fil13" d="M702990 491875l-13794 -7911c-1111,-638 -974,-1752 302,-2493l13621 -7918c1276,-741 3205,-828 4316,-192l13794 7913c1108,634 972,1749 -301,2491l-13625 7918c-1274,741 -3205,828 -4313,192z"/>
   <path class="fil13" d="M410958 396003l-40630 -23301c-1107,-634 -971,-1749 303,-2490l13623 -7918c1274,-744 3206,-829 4314,-193l40630 23301c1107,634 973,1752 -301,2490l-13625 7921c-1277,738 -3206,826 -4314,190z"/>
   <path class="fil13" d="M672693 546099l-40630 -23298c-1108,-634 -974,-1752 303,-2490l13620 -7921c1276,-741 3208,-826 4316,-190l40630 23301c1108,633 973,1749 -303,2490l-13623 7918c-1276,741 -3208,828 -4313,190z"/>
   <path class="fil13" d="M587572 524363l-13797 -7911c-1109,-634 -974,-1749 303,-2490l16228 -9433c1275,-741 3206,-826 4316,-193l13795 7911c1106,636 971,1752 -303,2493l-16231 9433c-1275,743 -3206,828 -4311,190z"/>
   <path class="fil13" d="M432855 435640l-22063 -12653c-1108,-636 -974,-1749 303,-2492l16229 -9431c1274,-743 3206,-828 4313,-193l22063 12654c1108,633 974,1749 -302,2490l-16230 9433c-1274,741 -3206,826 -4313,192z"/>
   <path class="fil13" d="M567042 512592l-22063 -12651c-1108,-638 -971,-1752 303,-2493l16231 -9433c1272,-741 3206,-828 4311,-192l22065 12653c1106,636 972,1751 -303,2491l-16228 9434c-1277,740 -3209,827 -4316,191z"/>
   <path class="fil13" d="M463593 453266l-22063 -12652c-1108,-635 -974,-1751 302,-2492l16230 -9433c1274,-741 3205,-826 4313,-192l22063 12653c1108,636 974,1751 -303,2492l-16229 9433c-1274,741 -3206,826 -4313,191z"/>
   <path class="fil13" d="M462525 428582l95924 55012c1191,685 1195,1795 7,2484l-16548 9621c-1186,690 -3113,695 -4304,13l-95925 -55014 20846 -12116z"/>
   <path class="fil13" d="M647080 546456l15365 8811c909,522 797,1435 -246,2042l-6641 3863c-1045,604 -2627,676 -3533,154l-15368 -8814c-909,-517 -797,-1435 248,-2042l6638 -3857c1046,-607 2628,-677 3537,-157z"/>
   <path class="fil13" d="M625599 534137l15365 8814c909,519 797,1434 -246,2042l-6641 3857c-1043,607 -2627,678 -3536,157l-15368 -8811c-907,-522 -795,-1437 251,-2042l6638 -3860c1043,-609 2627,-677 3537,-157z"/>
   <path class="fil13" d="M604295 521918l15365 8814c907,520 798,1435 -248,2042l-6638 3857c-1046,610 -2630,677 -3536,160l-15368 -8814c-909,-522 -797,-1435 248,-2042l6638 -3860c1046,-605 2630,-677 3539,-157z"/>
   <path class="fil13" d="M637323 527321l15368 8814c906,519 795,1434 -248,2042l-6641 3859c-1044,607 -2627,677 -3534,155l-15367 -8811c-907,-521 -798,-1435 248,-2045l6637 -3857c1046,-608 2628,-677 3537,-157z"/>
   <polygon class="fil12" points="720642,287466 605881,221656 607334,214205 722092,280015 "/>
   <polygon class="fil12" points="679645,300156 599537,254216 600990,246765 681098,292705 "/>
   <polygon class="fil8" points="672014,277678 602709,237936 604162,230485 673462,270227 "/>
   <polygon class="fil5" points="717469,303746 682817,283873 684268,276423 718919,296295 "/>
   <polygon class="fil12" points="593493,156713 558843,136841 560292,129387 594946,149262 "/>
   <polygon class="fil8" points="589787,174033 555137,154161 556590,146709 591240,166581 "/>
   <polygon class="fil12" points="760276,413614 725624,393745 727075,386293 761727,406163 "/>
   <polygon class="fil12" points="582383,208672 547731,188800 549183,181348 583833,201220 "/>
   <path class="fil5" d="M657141 213815c-1094,2409 -3877,3273 -6214,1933 -2335,-1339 -3342,-4378 -2246,-6784 1095,-2409 3878,-3273 6215,-1934 2334,1340 3339,4379 2245,6785z"/>
   <path class="fil8" d="M672065 222374c-1094,2410 -3878,3275 -6214,1936 -2337,-1340 -3340,-4379 -2246,-6786 1094,-2410 3877,-3275 6212,-1936 2337,1340 3344,4379 2248,6786z"/>
   <path class="fil12" d="M686991 230934c-1097,2407 -3878,3273 -6215,1934 -2336,-1340 -3342,-4379 -2248,-6787 1097,-2407 3878,-3273 6215,-1932 2337,1339 3344,4379 2248,6785z"/>
   <path class="fil5" d="M701916 239493c-1096,2408 -3877,3275 -6214,1936 -2336,-1342 -3344,-4379 -2248,-6788 1094,-2408 3878,-3275 6215,-1936 2337,1342 3342,4379 2247,6788z"/>
   <path class="fil4" d="M629381 851745c-3035,9 -6072,-652 -8390,-1982 -4641,-2662 -4656,-6998 -29,-9684l215991 -125591c2312,-1344 5346,-2022 8381,-2031 3035,-9 6073,652 8390,1982 4642,2660 4655,6997 29,9682l-215990 125594c-2313,1343 -5346,2022 -8382,2030z"/>
   <path class="fil12" d="M890503 646639l0 0c-208,-352 -620,-531 -1018,-443l-13080 2877 5179 8753 8815 -10081c270,-306 313,-752 104,-1106z"/>
   <path class="fil13" d="M885359 653123c-19,-1889 -1370,-4170 -3014,-5095 -760,-428 -1444,-480 -1963,-237 -15126,-80 -29987,3946 -43004,11645l-943 561 16334 27608 4792 -3197c10141,-6769 18678,-15669 25014,-26085l2046 -3361c463,-342 748,-964 738,-1839z"/>
   <path class="fil12" d="M856014 680228c-79,-7235 -5252,-15976 -11551,-19525 -6303,-3546 -11348,-561 -11273,6671 79,7232 5252,15970 11554,19521 6300,3549 11347,565 11270,-6667z"/>
   <polygon class="fil12" points="756468,747992 852769,687605 836435,659997 737165,715369 "/>
   <path class="fil12" d="M760298 739273c-90,-8546 -6202,-18872 -13649,-23066 -7448,-4194 -13408,-666 -13318,7879 93,8547 6202,18873 13648,23069 7450,4193 13412,664 13319,-7882z"/>
   <path class="fil12" d="M754804 742525c-90,-8546 -6202,-18875 -13647,-23066 -7448,-4194 -13413,-666 -13320,7879 90,8547 6202,18873 13650,23068 7447,4193 13410,665 13317,-7881z"/>
   <polygon class="fil12" points="623553,826642 750973,751243 731668,718621 604247,794019 "/>
   <path class="fil12" d="M627384 817922c-90,-8545 -6202,-18870 -13650,-23066 -7448,-4194 -13410,-666 -13317,7880 90,8545 6202,18875 13647,23069 7448,4192 13410,663 13320,-7883z"/>
   <path class="fil10" d="M622556 815204c-308,-5044 -4433,-11314 -9214,-14006 -4784,-2693 -8411,-787 -8102,4255 311,5043 4438,11317 9219,14010 4781,2692 8406,786 8097,-4259z"/>
   <path class="fil8" d="M761268 738699c-91,-8543 -6205,-18871 -13651,-23064 -2998,-1693 -5748,-2106 -7966,-1468 2404,-2529 6361,-2840 10875,-298 7448,4194 13558,14521 13650,23067 55,5105 -2058,8400 -5350,9347 1563,-1644 2477,-4213 2442,-7584z"/>
   <path class="fil13" d="M761268 738701c-91,-8545 -6203,-18873 -13651,-23069 -3723,-2095 -7075,-2263 -9486,-835l-7220 4272 3463 5852c653,7770 5879,16606 12380,20915l3460 5855 7222 -4272c2408,-1428 3876,-4446 3832,-8718z"/>
   <path class="fil12" d="M754048 742975c-93,-8548 -6203,-18875 -13651,-23069 -7445,-4194 -13409,-668 -13317,7880 92,8546 6203,18873 13650,23068 7445,4192 13410,667 13318,-7879z"/>
   <path class="fil5" d="M616559 819015l-8328 -14074 -27007 15983c-3887,2298 -5174,7315 -2872,11202 2298,3887 7316,5172 11200,2872l27007 -15983z"/>
   <path class="fil5" d="M618212 815257c-39,-3689 -2677,-8144 -5889,-9952 -3214,-1811 -5785,-290 -5744,3399 39,3687 2674,8142 5887,9953 3213,1807 5787,285 5746,-3400z"/>
   <path class="fil13" d="M648137 765399l-4061 -2289c-2335,-1313 -5418,-973 -8677,954l-13878 8213c-2620,1550 -4723,5286 -4693,8331l76 6959c13,1166 -557,2509 -1390,3499l530 3223 -3472 -1978 6 -4c-500,-251 -821,-833 -830,-1689l-76 -6960c-66,-6345 4323,-14139 9785,-17369l13879 -8214c4637,-2743 9017,-3224 12339,-1358l4064 2291c2333,1312 5414,973 8674,-954l55946 -33103c721,-430 1377,-467 1852,-186l0 -4 3460 1970 -2955 1148c-407,1247 -1273,2458 -2295,3061l-55944 33105c-4636,2743 -9019,3224 -12340,1354z"/>
   <path class="fil13" d="M647590 765111c-2334,-1314 -5413,-976 -8673,951l-13879 8214c-2620,1550 -4725,5288 -4693,8333l76 6957c19,1654 -1123,3678 -2546,4522 -1423,841 -2591,182 -2610,-1472l-74 -6957c-68,-6346 4319,-14142 9783,-17372l13879 -8214c4634,-2743 9019,-3224 12340,-1353l4061 2288c2335,1312 5415,976 8676,-954l55946 -33105c1422,-842 2591,-185 2610,1469 16,1655 -1123,3678 -2549,4522l-55940 33103c-4640,2745 -9022,3225 -12343,1357l-4064 -2289z"/>
   <path class="fil8" d="M620175 783757l72 6957 -18 142c125,-439 196,-875 192,-1290l-76 -6957 45 -610c-131,598 -221,1191 -215,1758z"/>
   <path class="fil4" d="M333955 834308c-4710,14 -9209,-923 -12574,-2854l-78486 -45008c-5634,-3232 -6461,-8316 -2804,-12753l-21783 -12664c-15214,8036 -34483,12094 -53751,12150 -20418,59 -40841,-4372 -56456,-13328 -30392,-17430 -31311,-45512 -2738,-63712 529,470 1074,933 1640,1391 693,1743 1608,3462 2714,5148 -17720,15013 -15049,35602 8005,48824 13014,7462 30052,11164 47080,11114 17026,-50 34044,-3850 47015,-11388 19121,-11115 24091,-27251 14966,-40945 2592,-2231 4753,-4575 6461,-7006 16606,16036 14835,36681 -5351,51814l21599 12556c3719,-1338 7842,-2027 11810,-2039 4699,-13 9186,921 12544,2847l78486 45010c7429,4257 6520,11736 -2027,16708 -4673,2715 -10665,4119 -16350,4135z"/>
   <path class="fil6" d="M239868 691525l-11110 -14393 -33643 -15517 -28956 -2484 -33889 4247 -23484 12223 -14994 9630 -2745 -15604 5020 -18000c0,0 12821,-8537 13610,-9330 788,-791 30009,-11354 30009,-11354l29245 -2061 23526 2897 23936 7046 15843 11019 11903 14988 1389 18772 -5660 7921z"/>
   <polygon class="fil6" points="82933,673451 83021,703841 91109,690642 "/>
   <path class="fil6" d="M217491 674638c-28373,-16269 -74295,-16136 -102573,299 -8895,5170 -14978,11338 -18265,17868 -2500,-2225 -5718,-3970 -7061,-6974 4044,-5533 9936,-10730 17722,-15253 32463,-18871 85184,-19024 117757,-345 7127,4087 12700,8737 16716,13709 -1303,3067 -3279,6031 -5918,8483 -3320,-6523 -9443,-12661 -18378,-17787z"/>
   <path class="fil14" d="M166318 715084c-18562,54 -37133,-3980 -51318,-12115 -2980,-1709 -5645,-3531 -7997,-5439 0,-3 -2,-3 -2,-5 18,14 37,31 53,44 1255,-857 2557,-1699 3950,-2508 14139,-8220 32689,-12362 51253,-12416 18559,-54 37135,3982 51320,12116 2963,1699 5591,3518 7930,5422 5197,-3543 9214,-7462 12058,-11584l2 3c-3520,5114 -8850,9912 -15996,14065 -14140,8219 -32692,12362 -51253,12417zm-60955 -18945c-2573,-2278 -4719,-4673 -6444,-7143 3,0 3,0 3,-2 1722,2472 3870,4867 6444,7145l-3 0z"/>
   <path class="fil15" d="M107003 697530c-566,-458 -1111,-921 -1640,-1391l3 0c526,468 1073,931 1635,1386 0,2 2,2 2,5z"/>
   <path class="fil16" d="M221507 700183c-2339,-1904 -4967,-3723 -7930,-5422 -14185,-8134 -32761,-12170 -51320,-12116 -18564,54 -37114,4196 -51253,12416 -1393,809 -2695,1651 -3950,2508 -16,-13 -35,-30 -53,-44 -262,-657 -492,-1316 -687,-1978 -320,196 -636,394 -948,592 -2574,-2278 -4722,-4673 -6444,-7145 3525,-5109 8855,-9907 15996,-14057 14140,-8219 32690,-12360 51254,-12414 18559,-54 37135,3982 51319,12115 7163,4109 12519,8871 16074,13961 -2844,4122 -6861,8041 -12058,11584z"/>
   <path class="fil17" d="M107001 697525c-562,-455 -1109,-918 -1635,-1386 312,-198 628,-396 948,-592 195,662 425,1321 687,1978z"/>
   <path class="fil18" d="M94619 680061c-108,-387 -207,-776 -297,-1163 1981,-8834 8815,-17381 20537,-24195 14140,-8219 32692,-12362 51254,-12416 18561,-54 37132,3978 51319,12115 11762,6745 18646,15252 20676,24073 -85,385 -182,767 -286,1153 -3479,-3355 -7729,-6515 -12751,-9395 -16287,-9341 -37608,-13971 -58917,-13909 -21310,62 -42608,4818 -58840,14254 -5012,2912 -9240,6102 -12695,9483z"/>
   <path class="fil18" d="M98919 688996c-2014,-2894 -3448,-5892 -4300,-8935 3455,-3381 7683,-6571 12695,-9483 16232,-9436 37530,-14192 58840,-14254 21309,-62 42630,4568 58917,13909 5022,2880 9272,6040 12751,9395 -833,3054 -2252,6065 -4255,8974l-2 -3c-3555,-5090 -8911,-9852 -16074,-13961 -14184,-8133 -32760,-12169 -51319,-12115 -18564,54 -37114,4195 -51254,12414 -7141,4150 -12471,8948 -15996,14057 0,2 0,2 -3,2z"/>
   <path class="fil6" d="M89592 685831c571,1277 1489,2322 2541,3278l22 -315 7526 4457 9247 8538 12797 5627 17674 6274 15692 3642 21611 861 13961 -1489 27648 -7329 17986 -15994c-148,-320 -266,-639 -428,-956 2639,-2452 4615,-5416 5918,-8483 489,607 953,1219 1396,1832l6281 -13184 92 31566 -14 -28c48,12313 -8031,24651 -24276,34090 -32463,18870 -85184,19025 -117756,346 -24760,-14199 -30728,-35190 -17918,-52733z"/>
   <path class="fil5" d="M229811 699151l6486 -5770c-148,-320 -266,-639 -428,-956 2639,-2452 4615,-5416 5918,-8483 489,607 953,1219 1396,1832l6281 -13184 92 31566 -14 -28c44,11067 -6505,22153 -19625,31138l-106 -36115z"/>
   <path class="fil5" d="M114827 643747c28278,-16435 74201,-16569 102574,-299 28370,16270 28447,42782 170,59219 -28278,16437 -74201,16571 -102571,302 -28373,-16273 -28450,-42785 -173,-59222zm-7408 63627c32572,18679 85293,18525 117756,-345 32466,-18869 32377,-49307 -195,-67986 -32573,-18679 -85294,-18524 -117757,343 -32465,18868 -32376,49309 196,67988z"/>
   <polygon class="fil12" points="279742,741324 233512,714603 227405,724562 273846,751427 "/>
   <path class="fil19" d="M272662 748775c8,2639 1863,3702 4146,2377 2280,-1327 4123,-4540 4115,-7179 -7,-2636 -1863,-3699 -4143,-2374 -2283,1324 -4126,4538 -4118,7176z"/>
   <path class="fil19" d="M272662 748775c8,2639 1863,3702 4146,2377 2280,-1327 4123,-4540 4115,-7179 -7,-2636 -1863,-3699 -4143,-2374 -2283,1324 -4126,4538 -4118,7176z"/>
   <path class="fil12" d="M226418 722046c8,2636 1863,3701 4146,2376 2280,-1324 4123,-4538 4115,-7177 -8,-2638 -1863,-3704 -4143,-2379 -2283,1327 -4126,4541 -4118,7180z"/>
   <path class="fil13" d="M249965 750790c-33,-11350 7896,-25178 17711,-30883 5024,-2922 9559,-3131 12803,-1132l4 -9 97739 56422 -25371 43473 -96706 -55926c-664,-280 -1285,-635 -1858,-1075l-82 -46 5 -7c-2628,-2057 -4230,-5760 -4245,-10817z"/>
   <path class="fil12" d="M371195 787228l-109389 -62733c1840,-1817 3809,-3390 5870,-4588 5024,-2922 9559,-3131 12803,-1132l4 -9 97739 56422 -7027 12040z"/>
   <path class="fil12" d="M347765 807254c33,11352 8016,15930 17830,10224 9815,-5704 17745,-19532 17712,-30882 -34,-11350 -8017,-15930 -17831,-10226 -9815,5706 -17744,19532 -17711,30884z"/>
   <path class="fil13" d="M362204 801909c19,6403 5226,11580 11629,11561 6404,-19 11580,-5225 11561,-11629 -18,-6405 -5224,-11581 -11628,-11562 -6404,19 -11580,5225 -11562,11630z"/>
   <path class="fil8" d="M375908 797620c5,1889 1543,3420 3437,3415 1892,-6 3420,-1546 3415,-3435 -6,-1892 -1543,-3423 -3435,-3417 -1894,5 -3423,1545 -3417,3437z"/>
   <path class="fil8" d="M364160 775612c5252,-3051 9964,-3137 13230,-837 -3161,-1464 -7330,-1068 -11914,1595 -9815,5706 -17744,19532 -17711,30884 15,5277 1764,9067 4602,11061 -3609,-1667 -5898,-5769 -5915,-11821 -33,-11350 7895,-25178 17708,-30882z"/>
   <path class="fil8" d="M114827 643747c28278,-16435 74201,-16569 102574,-299 14771,8473 21854,19723 21276,30881 -592,-10263 -7672,-20415 -21269,-28212 -28373,-16272 -74295,-16136 -102573,299 -13553,7876 -20571,18071 -21106,28338 -644,-11155 6374,-22446 21098,-31007z"/>
   <path class="fil8" d="M107419 707374c32572,18679 85293,18525 117756,-345 15645,-9093 23708,-20873 24241,-32731 646,12744 -7412,25624 -24233,35399 -32463,18872 -85184,19025 -117756,346 -16875,-9677 -25006,-22511 -24437,-35258 601,11855 8732,23588 24429,32589z"/>
   <path class="fil5" d="M384310 643323c0,0 -8762,-4386 -14115,2200 -5352,6583 -12987,22111 -13194,32591 -208,10478 8319,9747 13384,7252 5063,-2495 19812,-24025 20696,-28239 886,-4211 -1086,-9898 -2514,-11007 -1429,-1111 -4257,-2797 -4257,-2797z"/>
   <path class="fil12" d="M386212 641209l430 9063c92,1924 -873,3763 -2546,4722 -1527,870 -3744,1541 -6745,1067 -6592,-1037 -7186,-2921 -7683,-11981 -498,-9058 16544,-2871 16544,-2871z"/>
   <path class="fil5" d="M352239 625989c0,0 -8762,-4386 -14116,2200 -5353,6583 -12986,22115 -13194,32593 -207,10478 8320,9744 13382,7252 5065,-2497 19815,-24025 20698,-28236 884,-4214 -1087,-9901 -2514,-11012 -1429,-1106 -4256,-2797 -4256,-2797z"/>
   <path class="fil12" d="M354141 623877l430 9060c92,1930 -871,3768 -2548,4723 -1523,872 -3742,1541 -6744,1069 -6594,-1039 -7187,-2921 -7685,-11979 -495,-9060 16547,-2873 16547,-2873z"/>
   <path class="fil9" d="M431712 457259c-2710,-42120 -45607,6332 -45607,6332l-29368 28954 -26436 29212c-5163,5703 -7550,13395 -6525,21021l10967 81664c539,4033 4001,6997 8070,6955 1150,-13 2466,-120 3974,-362 9566,-1516 8835,-10615 8835,-10615l-2185 -76403 55601 -33736c0,0 25384,-10902 22674,-53022z"/>
   <path class="fil9" d="M463782 473217c-2715,-42120 -45607,6329 -45607,6329l-29368 28955 -26436 29214c-5165,5703 -7554,13395 -6530,21021l10967 81662c544,4034 4003,6999 8072,6957 1148,-13 2468,-122 3974,-362 9566,-1519 8833,-10615 8833,-10615l-2120 -74208 55538 -35934c0,0 25387,-10900 22677,-53019z"/>
   <path class="fil5" d="M437925 338060c32666,13432 32070,32721 32070,32721 0,0 -6187,70721 -3866,117935 967,19736 -104814,21550 -89193,-31157 18422,-62148 11304,-112395 19989,-120002 8687,-7608 32551,-2969 41000,503z"/>
   <path class="fil20" d="M448471 355131c-1686,6631 -10355,10146 -19360,7853 -9007,-2291 -14940,-9522 -13252,-16152 1686,-6629 10355,-10144 19360,-7854 9008,2292 14940,9527 13252,16153z"/>
   <path class="fil8" d="M435434 363110l-5984 6536c-777,847 -1149,1991 -1013,3134l4234 35674c115,1000 -158,2007 -767,2809l-12868 16933c-569,750 -1748,549 -2038,-351l-7094 -22108c-268,-837 -245,-1740 65,-2565l12277 -32443c267,-713 325,-1485 167,-2227l-1833 -8587 14854 3195z"/>
   <path class="fil8" d="M429639 339834c-6059,18 -11116,2850 -12270,7383 -691,2712 131,5671 2312,8329 2294,2795 5779,4899 9815,5927 4037,1029 8105,849 11454,-514 3185,-1292 5318,-3496 6010,-6213 1475,-5784 -3968,-12179 -12127,-14258 -1765,-450 -3517,-659 -5194,-654zm5048 25413c-1955,6 -3967,-245 -5961,-750 -4677,-1190 -8744,-3665 -11457,-6973 -2824,-3445 -3864,-7377 -2923,-11078 1898,-7450 11424,-11479 21258,-8979 9825,2501 16276,10599 14380,18049 -941,3698 -3732,6660 -7861,8333 -2275,923 -4805,1390 -7436,1398z"/>
   <path class="fil20" d="M424842 336629c0,0 284,1308 -248,11649 -168,3248 11221,6253 14152,3302 2933,-2950 1749,-6005 2423,-17069 673,-11062 -16327,2118 -16327,2118z"/>
   <path class="fil21" d="M441169 334511c0,0 -2774,10262 -16577,14238l184 -9323 16393 -4915z"/>
   <path class="fil20" d="M449844 308426c3511,13419 -4521,27142 -17940,30652 -13414,3511 -27139,-4521 -30650,-17938 -3510,-13416 4519,-27139 17938,-30652 13419,-3510 27142,4522 30652,17938z"/>
   <path class="fil21" d="M431320 315689c0,0 -13810,5961 -23385,6057 -9572,96 -7486,-7926 -7486,-7926l28409 -4192 2462 6061z"/>
   <path class="fil12" d="M405069 317327c0,0 12030,-5150 22603,-3050 2486,494 4790,1817 6396,3777 525,642 1184,1226 1936,1394 1875,419 4920,-7366 8562,-7554 3641,-187 6080,2386 3107,7173 -2975,4791 -1949,10138 -570,10901 1376,764 18349,-11154 5420,-36584 -12931,-25429 -47978,-10902 -53041,-5726 0,0 -5339,4676 -9700,543 0,0 -4771,36549 15287,29126z"/>
   <path class="fil20" d="M451842 422487l56 19108c6,2188 -909,4279 -2524,5758l-39141 35895 4480 6804 53967 -35610c2414,-1761 3967,-4464 4269,-7435l3594 -35466 -24701 10946z"/>
   <path class="fil5" d="M467205 361235c0,0 11957,17872 16532,64992 0,0 -20320,6636 -31875,2937 -11552,-3701 15343,-67929 15343,-67929z"/>
   <path class="fil6" d="M449556 383927c0,0 -4589,24963 -4818,36687 -63,3222 1912,6125 4946,7213l-128 -43900z"/>
   <path class="fil13" d="M439736 508005l-8680 -1120 -56086 -32166c-1797,-1031 -4935,-891 -7003,310l-39613 23017 -5247 -678 15 5221 7 0c-31,688 361,1347 1209,1835l63565 36453c1799,1033 4932,893 7003,-312l43140 -25064c1161,-675 1742,-1545 1705,-2359l-15 -5137z"/>
   <path class="fil10" d="M397603 487700l-3985 -2285 -43737 128 -21527 12503 -5247 -678 15 5221 7 0c-31,688 361,1347 1209,1835l63565 36453c949,545 2275,761 3616,666l6084 -53843z"/>
   <path class="fil13" d="M325436 497668l-2329 -300 15 5221 7 0c-31,688 361,1347 1209,1835l1120 643 -22 -7399z"/>
   <path class="fil13" d="M388543 541171c1703,641 4136,494 5948,-386l-26 -8882 -5949 17 27 9251z"/>
   <path class="fil8" d="M387888 535660l-63565 -36453c-1799,-1031 -1578,-2844 492,-4044l43137 -25066c2069,-1205 5206,-1343 7004,-312l63562 36452c1799,1033 1578,2845 -488,4048l-43139 25063c-2071,1203 -5204,1340 -7003,312z"/>
   <path class="fil12" d="M386798 530108l-52854 -30308c-1496,-857 -1313,-2365 410,-3366l23115 -13087c1723,-999 4329,-1115 5825,-258l52852 30308c1496,860 1311,2365 -407,3366l-23118 13088c-1721,1001 -4327,1114 -5823,257z"/>
   <path class="fil20" d="M370401 468888l-643 4378c-547,3733 -440,7533 319,11229l793 3854c446,2176 2175,3860 4360,4249 1708,306 3314,-895 3503,-2623l1018 -9360c0,0 2407,3129 3562,3125 1155,-3 -1322,-9368 -3952,-14668 -2629,-5295 -8960,-184 -8960,-184z"/>
   <path class="fil20" d="M391711 399234l-6771 13497c-1600,3192 -2540,6673 -2758,10239l-2821 46102 -8960 -184 -4215 -51755c-131,-1598 -59,-3208 217,-4788l4569 -26263 20739 13152z"/>
   <path class="fil9" d="M385747 539185l-5339 -6933 -56048 -32231c-1799,-1035 -3258,-3812 -3263,-6205l-84 -45811 -3230 -4190 3017 -1762 4 5c578,-375 1348,-368 2196,122l63520 36527c1795,1033 3257,3813 3259,6206l94 49892c2,1346 -460,2283 -1180,2663l-2946 1717z"/>
   <path class="fil10" d="M346978 513027l-3982 -2288 -21934 -37841 -49 -24893 -3230 -4190 3017 -1762 4 5c578,-375 1348,-368 2196,122l63520 36527c949,546 1801,1584 2397,2789l-41939 31531z"/>
   <path class="fil13" d="M319216 445674l-1433 -1859 3017 -1762 4 5c578,-375 1348,-368 2196,122l1117 641 -4901 2853z"/>
   <path class="fil11" d="M387098 479112c1410,1148 2509,3324 2661,5335l-6183 3594 -2985 -5147 6507 -3782z"/>
   <path class="fil13" d="M383504 480466l-63520 -36529c-1797,-1036 -3252,67 -3247,2461l93 49892c3,2393 1464,5172 3262,6203l63518 36532c1799,1033 3251,-70 3247,-2464l-92 -49891c-4,-2392 -1464,-5171 -3261,-6204z"/>
   <path class="fil20" d="M414713 490052l-1011 2110c-1164,2428 -2997,4472 -5283,5890l-6286 3901c-1956,1216 -4441,1321 -6432,170l-214 -130c-2006,-1249 -2196,-4121 -554,-5821l6564 -6785c0,0 -3690,2845 -4731,1705 -761,-833 3574,-4926 6910,-5071 3336,-141 6557,-2773 6557,-2773l4480 6804z"/>
   <path class="fil5" d="M397578 337457c0,0 -24054,26326 -33719,50440 0,0 8295,14842 28509,20616 20216,5773 5210,-71056 5210,-71056z"/>
   <path class="fil6" d="M387821 406968l3803 -37793 -9113 35426c1645,851 3423,1642 5310,2367z"/>
   <path class="fil8" d="M415636 332104l-6490 -1762c0,0 3109,4861 7633,6088 4522,1228 5213,-2600 5213,-2600l-6356 -1726z"/>
   <path class="fil8" d="M450238 321625c6,1995 -1607,3616 -3601,3622 -1993,6 -3614,-1606 -3620,-3601 -6,-1994 1606,-3616 3599,-3622 1994,-6 3616,1607 3622,3601z"/>
   <path class="fil4" d="M60364 574610c-13529,39 -27069,-2901 -37410,-8831 -20682,-11859 -20738,-31186 -125,-43170 10304,-5989 23824,-9008 37353,-9047 13531,-40 27071,2900 37415,8831 20682,11861 20740,31189 126,43168 -10304,5991 -23827,9009 -37359,9049z"/>
   <path class="fil5" d="M120349 517806l-49 -16889 -3189 9c-2877,-4921 -7657,-9548 -14467,-13454 -23530,-13494 -61617,-13383 -85064,247 -6789,3947 -11542,8601 -14390,13539l-3185 9 49 16798 5 0c-16,8917 5875,17825 17681,24594 23528,13496 61615,13385 85064,-245 11725,-6816 17571,-15722 17545,-24608z"/>
   <path class="fil5" d="M102755 525523c-23449,13630 -61536,13741 -85064,248 -23531,-13494 -23595,-35480 -143,-49112 23447,-13629 61533,-13739 85064,-246 23528,13493 23592,35480 143,49110z"/>
   <path class="fil8" d="M102755 525523c-23449,13630 -61536,13741 -85064,248 -11278,-6465 -17103,-14884 -17596,-23400 -479,9254 5350,18585 17602,25609 23529,13496 61615,13385 85064,-247 12212,-7096 17984,-16459 17451,-25712 -442,8519 -6219,16972 -17457,23502z"/>
   <path class="fil8" d="M31194 512674c-1014,-583 -1593,-1377 -1593,-2212l-6 -22626c0,-1724 2422,-3129 5413,-3135 2992,-8 5410,1387 5415,3115l3 18762 54431 -6829c2927,-364 5802,707 6428,2394 625,1686 -1239,3350 -4161,3715l-60977 7650c-1600,201 -3266,-27 -4537,-619l-416 -215z"/>
   <path class="fil6" d="M451714 163551l-89933 -51557c-1781,-1019 -3561,-1053 -5101,-358l19 -57 -10687 5062c0,0 4024,1393 6385,2216l-12768 65397c-1036,5323 1359,11493 5356,13784l85959 49278 -1499 7676 10794 -5100 -47 -15c1831,-911 3284,-2905 3842,-5767l13036 -66777c1037,-5320 -1360,-11491 -5356,-13782z"/>
   <path class="fil5" d="M424036 254736l-89932 -51556c-3996,-2289 -6394,-8462 -5354,-13782l13033 -66775c1039,-5322 5119,-7779 9118,-5485l89930 51556c3996,2291 6396,8460 5357,13782l-13034 66774c-1039,5321 -5121,7777 -9118,5486z"/>
   <path class="fil8" d="M442870 167886l-89930 -51557c-2094,-1202 -4203,-1071 -5893,64 1222,-205 2538,-12 3854,745l89930 51556c3996,2291 6396,8460 5357,13782l-13034 66774c-494,2533 -1690,4389 -3224,5420 2492,-422 4564,-2656 5263,-6228l13034 -66774c1039,-5320 -1361,-11491 -5357,-13782z"/>
   <path class="fil8" d="M372243 180072c-754,3863 -4081,5438 -7433,3519 -3353,-1925 -5457,-6613 -4703,-10479 754,-3863 4083,-5438 7432,-3518 3353,1924 5460,6612 4704,10478z"/>
   <path class="fil8" d="M390627 190610c-756,3863 -4083,5438 -7437,3519 -3348,-1925 -5455,-6612 -4701,-10476 754,-3865 4084,-5440 7435,-3521 3351,1925 5457,6613 4703,10478z"/>
   <path class="fil8" d="M409007 201149c-754,3863 -4081,5438 -7434,3518 -3349,-1922 -5455,-6612 -4702,-10475 757,-3866 4082,-5441 7435,-3519 3349,1922 5455,6610 4701,10476z"/>
   <path class="fil13" d="M801526 52387l-89935 -51557c-1780,-1019 -3560,-1053 -5098,-356l18 -59 -10689 5062c0,0 4024,1393 6385,2216l-12767 65397c-1036,5325 1361,11493 5357,13787l85960 49278 -1501 7673 10794 -5097 -47 -16c1831,-910 3283,-2907 3842,-5767l13036 -66779c1037,-5320 -1358,-11489 -5355,-13782z"/>
   <path class="fil12" d="M773849 143575l-89932 -51557c-3996,-2291 -6396,-8464 -5357,-13784l13033 -66775c1040,-5322 5122,-7779 9119,-5485l89932 51556c3996,2291 6394,8460 5354,13782l-13033 66777c-1040,5320 -5119,7774 -9116,5486z"/>
   <path class="fil8" d="M792683 56722l-89932 -51557c-2094,-1202 -4203,-1071 -5894,69 1222,-210 2539,-17 3855,740l89932 51556c3996,2291 6394,8463 5354,13785l-13033 66774c-495,2530 -1688,4386 -3225,5417 2493,-420 4565,-2656 5264,-6225l13033 -66775c1040,-5320 -1358,-11493 -5354,-13784z"/>
   <path class="fil8" d="M722056 68908c-757,3863 -4084,5438 -7435,3519 -3351,-1925 -5458,-6612 -4704,-10478 754,-3864 4084,-5439 7435,-3517 3351,1922 5458,6610 4704,10476z"/>
   <path class="fil8" d="M740438 79446c-754,3863 -4083,5439 -7437,3519 -3349,-1922 -5455,-6612 -4701,-10476 756,-3865 4083,-5438 7434,-3516 3351,1920 5458,6610 4704,10473z"/>
   <path class="fil8" d="M758818 89985c-754,3863 -4081,5438 -7432,3518 -3351,-1922 -5458,-6612 -4702,-10475 754,-3866 4082,-5441 7433,-3516 3350,1919 5455,6607 4701,10473z"/>
  </g>
 </g>
</svg>
