<?xml version="1.0" encoding="UTF-8"?>
<!DOCTYPE svg PUBLIC "-//W3C//DTD SVG 1.1//EN" "http://www.w3.org/Graphics/SVG/1.1/DTD/svg11.dtd">
<!-- Creator: CorelDRAW X8 -->
<svg xmlns="http://www.w3.org/2000/svg" xml:space="preserve" width="100%" height="100%" version="1.1" style="shape-rendering:geometricPrecision; text-rendering:geometricPrecision; image-rendering:optimizeQuality; fill-rule:evenodd; clip-rule:evenodd"
viewBox="0 0 233186 172074"
 xmlns:xlink="http://www.w3.org/1999/xlink">
 <defs>
  <style type="text/css">
   <![CDATA[
    .fil1 {fill:#FEFEFE;fill-rule:nonzero}
    .fil2 {fill:#FAC02F;fill-rule:nonzero}
    .fil5 {fill:#BEC8CA;fill-rule:nonzero}
    .fil0 {fill:#5CC6D0;fill-rule:nonzero}
    .fil4 {fill:#3E4095;fill-rule:nonzero}
    .fil3 {fill:#B9E3FB;fill-rule:nonzero}
   ]]>
  </style>
 </defs>
 <g id="Layer_x0020_1">
  <metadata id="CorelCorpID_0Corel-Layer"/>
  <g id="_1816451966576">
   <polygon class="fil0" points="129339,9676 0,9676 0,172074 233186,172074 233186,9676 "/>
   <path class="fil1" d="M220440 156979c-33655,-12891 -70189,-12891 -103847,0 0,-49096 0,-98203 0,-147303 33651,-12901 70192,-12901 103847,0 0,49100 4,98207 0,147303z"/>
   <path class="fil2" d="M205324 21477l-544 -74c-23720,-6283 -48803,-6280 -72531,-4 -1125,307 -2289,-370 -2586,-1506 -303,-1129 374,-2286 1503,-2586 24434,-6466 50264,-6466 74704,4 1129,299 1800,1457 1500,2585 -251,953 -1108,1581 -2046,1581z"/>
   <path class="fil2" d="M205324 38347l-540 -74c-23728,-6276 -48807,-6276 -72535,0 -1125,307 -2289,-371 -2586,-1503 -300,-1133 374,-2290 1503,-2590 24434,-6463 50267,-6463 74701,0 1129,300 1803,1457 1503,2590 -251,949 -1108,1577 -2046,1577z"/>
   <path class="fil2" d="M205324 55227l-544 -74c-23720,-6279 -48803,-6283 -72531,0 -1125,307 -2289,-374 -2586,-1506 -303,-1133 374,-2290 1503,-2590 24434,-6466 50264,-6466 74704,4 1129,300 1800,1457 1500,2589 -251,949 -1108,1577 -2046,1577z"/>
   <path class="fil2" d="M205324 72097l-540 -71c-23728,-6279 -48807,-6279 -72535,0 -1125,311 -2289,-374 -2586,-1506 -300,-1129 374,-2286 1503,-2586 24434,-6463 50267,-6463 74701,0 1129,300 1803,1457 1503,2586 -251,949 -1108,1577 -2046,1577z"/>
   <path class="fil2" d="M131706 88977c-935,0 -1796,-624 -2043,-1577 -303,-1128 374,-2286 1503,-2585 24437,-6470 50264,-6470 74704,0 1129,299 1800,1457 1500,2585 -297,1133 -1440,1817 -2590,1507 -23720,-6280 -48803,-6280 -72531,0l-543 70z"/>
   <path class="fil2" d="M131706 105854c-935,0 -1796,-628 -2043,-1580 -303,-1129 374,-2286 1503,-2586 24434,-6470 50264,-6466 74701,-4 1129,300 1803,1457 1503,2586 -297,1136 -1454,1806 -2586,1507 -23728,-6276 -48807,-6276 -72535,3l-543 74z"/>
   <path class="fil2" d="M205324 122735l-540 -74c-23728,-6276 -48807,-6276 -72535,0 -1125,310 -2289,-371 -2586,-1507 -303,-1129 374,-2286 1503,-2586 24434,-6470 50267,-6470 74701,0 1129,300 1803,1457 1503,2586 -251,953 -1108,1581 -2046,1581z"/>
   <path class="fil2" d="M131706 139608c-935,0 -1796,-628 -2043,-1577 -303,-1132 374,-2289 1503,-2589 24419,-6460 50253,-6467 74701,-7 1129,300 1799,1457 1503,2589 -297,1129 -1454,1806 -2586,1503 -23739,-6276 -48821,-6269 -72535,7l-543 74z"/>
   <path class="fil1" d="M116593 156979c-33655,-12891 -70189,-12891 -103847,0 0,-49096 0,-98203 0,-147303 33658,-12901 70195,-12901 103847,0 0,49100 3,98207 0,147303z"/>
   <path class="fil2" d="M101483 21477l-543 -74c-23724,-6280 -48803,-6283 -72534,-4 -1122,307 -2286,-370 -2590,-1506 -296,-1129 378,-2286 1506,-2586 24434,-6466 50264,-6463 74698,4 1129,299 1806,1457 1506,2585 -250,953 -1108,1581 -2043,1581z"/>
   <path class="fil2" d="M27862 38347c-938,0 -1792,-628 -2046,-1577 -296,-1133 378,-2290 1506,-2590 24434,-6463 50264,-6463 74698,0 1129,300 1806,1457 1506,2590 -300,1132 -1457,1810 -2586,1503 -23728,-6276 -48810,-6276 -72534,0l-544 74z"/>
   <path class="fil2" d="M101483 55227l-543 -74c-23724,-6283 -48803,-6279 -72534,0 -1122,307 -2286,-374 -2590,-1506 -296,-1133 378,-2290 1506,-2590 24434,-6466 50264,-6463 74698,4 1129,300 1806,1457 1506,2589 -250,949 -1108,1577 -2043,1577z"/>
   <path class="fil2" d="M27862 72097c-938,0 -1792,-628 -2046,-1577 -296,-1129 378,-2286 1506,-2586 24434,-6463 50264,-6463 74698,0 1129,300 1806,1457 1506,2586 -300,1132 -1457,1817 -2586,1506 -23728,-6279 -48810,-6279 -72534,0l-544 71z"/>
   <path class="fil2" d="M101483 88977l-543 -70c-23728,-6283 -48810,-6283 -72534,0 -1133,310 -2286,-374 -2590,-1507 -296,-1128 374,-2286 1503,-2585 24437,-6470 50267,-6470 74701,0 1129,299 1806,1457 1506,2585 -250,953 -1108,1577 -2043,1577z"/>
   <path class="fil2" d="M27862 105854c-938,0 -1792,-628 -2046,-1580 -296,-1129 378,-2286 1506,-2586 24427,-6470 50261,-6466 74698,-4 1129,300 1806,1457 1506,2586 -300,1136 -1457,1806 -2586,1507 -23728,-6276 -48810,-6276 -72534,3l-544 74z"/>
   <path class="fil2" d="M27862 122735c-938,0 -1792,-628 -2046,-1581 -296,-1129 378,-2286 1506,-2586 24434,-6470 50264,-6470 74698,0 1129,300 1806,1457 1506,2586 -300,1136 -1457,1817 -2586,1507 -23731,-6276 -48807,-6276 -72534,0l-544 74z"/>
   <path class="fil2" d="M27862 139608c-938,0 -1792,-628 -2046,-1577 -296,-1132 378,-2289 1506,-2589 24420,-6470 50250,-6467 74698,-7 1129,300 1806,1457 1506,2589 -300,1129 -1457,1806 -2586,1503 -23738,-6269 -48821,-6269 -72534,7l-544 74z"/>
   <path class="fil3" d="M12746 156979l103847 0c-33655,-12891 -70189,-12891 -103847,0z"/>
   <path class="fil3" d="M116593 156979l103847 0c-33655,-12891 -70189,-12891 -103847,0z"/>
   <path class="fil4" d="M227496 164034l-207695 0 -7055 -7055 103847 0 103847 0c0,-15343 0,-30688 0,-46031 0,-33757 0,-67518 0,-101272l7056 7056 0 147302z"/>
   <path class="fil5" d="M116593 156979c3,-49096 0,-98203 0,-147303 0,0 123,2301 346,6329 141,4025 490,9783 645,16687 155,6904 455,14957 561,23593 148,8629 173,17833 212,27041 -39,9207 -67,18415 -215,27044 -110,8632 -406,16686 -561,23590 -159,6904 -505,12661 -646,16690 -219,4025 -342,6329 -342,6329l0 0z"/>
   <path class="fil5" d="M116593 156979l0 0c0,0 -124,-2304 -342,-6329 -141,-4029 -487,-9786 -646,-16690 -155,-6904 -451,-14958 -561,-23590 -148,-8629 -176,-17837 -215,-27044 39,-9208 64,-18412 212,-27041 106,-8636 405,-16689 561,-23593 155,-6904 504,-12662 645,-16687 222,-4028 346,-6329 346,-6329l0 0c0,49100 3,98207 0,147303l0 0z"/>
  </g>
 </g>
</svg>
