<?xml version="1.0" encoding="UTF-8"?>
<!DOCTYPE svg PUBLIC "-//W3C//DTD SVG 1.1//EN" "http://www.w3.org/Graphics/SVG/1.1/DTD/svg11.dtd">
<!-- Creator: CorelDRAW X8 -->
<svg xmlns="http://www.w3.org/2000/svg" xml:space="preserve" width="100%" height="100%" version="1.1" style="shape-rendering:geometricPrecision; text-rendering:geometricPrecision; image-rendering:optimizeQuality; fill-rule:evenodd; clip-rule:evenodd"
viewBox="0 0 152128 238097"
 xmlns:xlink="http://www.w3.org/1999/xlink">
 <defs>
  <style type="text/css">
   <![CDATA[
    .fil0 {fill:#FAA954;fill-rule:nonzero}
    .fil3 {fill:#F26839;fill-rule:nonzero}
    .fil4 {fill:#B35038;fill-rule:nonzero}
    .fil2 {fill:#7999B1;fill-rule:nonzero}
    .fil7 {fill:#5A6E7E;fill-rule:nonzero}
    .fil1 {fill:#2F587D;fill-rule:nonzero}
    .fil5 {fill:#2C445C;fill-rule:nonzero}
    .fil6 {fill:#00A859;fill-rule:nonzero}
   ]]>
  </style>
 </defs>
 <g id="Layer_x0020_1">
  <metadata id="CorelCorpID_0Corel-Layer"/>
  <g id="_1816451686048">
   <path class="fil0" d="M126174 164993l5292 0 0 -5499 -28222 0 0 5499 5291 0 0 4152 -9648 0 0 7028 9648 0 0 2406c-9990,8806 -22697,13614 -36138,13614 -30195,0 -54758,-24561 -54755,-54762 4,-30194 24560,-54758 54758,-54758l0 -17639c-39924,0 -72400,32488 -72400,72397 0,39921 32473,72401 72397,72401 19342,0 37514,-7529 51195,-21203 1651,-1653 2586,-3897 2586,-6239l0 -6213 9634 0 0 -7032 -9638 0 0 -4152z"/>
   <polygon class="fil1" points="107272,100188 74111,119330 29749,42491 62914,23343 "/>
   <polygon class="fil2" points="110366,123415 92681,133621 81848,114860 99539,104654 "/>
   <polygon class="fil2" points="55181,27809 37482,38025 31192,27118 48881,16908 "/>
   <polygon class="fil1" points="52197,14993 27873,29033 19215,14040 43539,0 "/>
   <polygon class="fil0" points="42601,226465 98890,226465 98890,218362 42601,218362 "/>
   <path class="fil1" d="M70753 198828c-15547,0 -28152,8747 -28152,19534l56289 0c0,-10787 -12597,-19530 -28137,-19534z"/>
   <path class="fil1" d="M105226 238097c0,0 0,-5342 0,-7578 0,-2241 -3154,-4054 -7052,-4054l-54857 4c-3891,-4 -7052,1813 -7055,4050l0 7578 68964 0z"/>
   <path class="fil3" d="M65525 209187c0,-2890 2335,-5226 5224,-5226 2879,0 5221,2336 5221,5226 0,2877 -2342,5220 -5221,5220 -2889,0 -5224,-2343 -5224,-5220z"/>
   <path class="fil4" d="M70749 214407c-2889,0 -5224,-2343 -5224,-5220l63 -628c314,2585 2487,4599 5161,4599 2667,0 4847,-2014 5161,-4599l60 628c0,2877 -2342,5220 -5221,5220z"/>
   <polygon class="fil1" points="82581,152467 152128,152467 152128,159494 82578,159494 "/>
   <path class="fil5" d="M70746 229992c-3518,0 -7035,-161 -10333,-429 -3302,-251 -6378,-629 -9017,-1080 -4801,-762 -8114,-1795 -8679,-1978l600 -36 54857 -4 610 36c-525,172 -3852,1223 -8688,1990 -2639,454 -5715,836 -9017,1083 -3295,271 -6813,418 -10333,418z"/>
   <polygon class="fil1" points="82578,169552 152127,169552 152127,162524 82578,162524 "/>
   <polygon class="fil6" points="98887,173079 135811,173079 135811,169552 98887,169552 "/>
   <polygon class="fil6" points="103244,162524 131466,162524 131466,159493 103244,159493 "/>
   <polygon class="fil7" points="105427,114860 81848,114860 99539,104654 "/>
   <polygon class="fil7" points="54779,27118 31192,27118 40036,22013 48881,16908 "/>
   <polygon class="fil5" points="31192,27118 31192,27118 40036,22013 "/>
  </g>
 </g>
</svg>
