<?xml version="1.0" encoding="utf-8"?>
<!-- Generator: Adobe Illustrator 23.0.2, SVG Export Plug-In . SVG Version: 6.00 Build 0)  -->
<svg version="1.1" id="Camada_1" xmlns="http://www.w3.org/2000/svg" xmlns:xlink="http://www.w3.org/1999/xlink" x="0px" y="0px"
	 viewBox="0 0 1920 269.6" style="enable-background:new 0 0 1920 269.6;" xml:space="preserve">
<style type="text/css">
	.st0{fill:#FEFEFE;}
	.st1{fill:#FFD234;}
</style>
<g>
	<path class="st0" d="M453.6,188.2c3.7-6,0.3-13.1-8.4-11.4c-14.4,19.1-45.2,36.2-69.3,36.2c-18.1,0-32.1-9.7-32.1-36.2
		c0-48.2,21.8-84,40.5-84c8.4,0,12.4,3.3,12.4,9.7c0,4.7-1.7,13.7-5.4,21.8c3.7,3.3,9,4.7,13.4,4.7c12.4,0,23.4-8.7,23.4-27.5
		c0-21.8-13.4-32.5-40.5-32.5c-50.2,0-85.4,61.6-85.4,113.2c0,41.2,25.4,59.9,56.9,59.9C391.7,242.1,430.5,222,453.6,188.2
		L453.6,188.2z M612.6,86.4c-14.1,11.4-26.4,25.8-39.8,34.1c-5.4-9.7-15.1-15.4-26.4-15.4c-19.1,0-26.4,16.7-19.4,35.2
		c3.7,2.3,9.4,3.7,15.4,4c1,4.7,1.7,9.4,1.7,13.7c0,30.1-21.4,54.9-38.5,54.9c-11.7,0-21.8-11.4-21.8-40.8
		c0-32.8,19.8-77.7,50.2-77.7c8,0,15.1,1.3,21.4,3.7c5,2,10.7-1.7,11.4-9.4c-10-15.1-23.4-19.8-40.2-19.8
		c-50.6,0-85.7,63.3-85.7,113.8c0,31.5,14.7,59.3,49.2,59.3c40.2,0,87.4-50.6,87.4-101.8c0-1,0-2.3-0.3-3.7
		c13.7-8.7,26.8-24.4,35.5-31.8C617.3,100.8,619,91.8,612.6,86.4z M612.6,104.9c3-2.7,5-4,6.7-4c3,0,4.7,3,3.3,8.4l-27.5,128.6
		c4,2.7,9.7,4.4,15.7,4.4c12.1,0,24.8-5.7,28.1-21.1l20.4-95.4c7.4-9,20.8-17.4,29.8-17.4c7.4,0,12.1,5.7,9,19.8l-14.1,66.6
		c-8.4,39.2,9.4,47.5,26.1,47.5c22.4,0,44.9-15.4,60.6-33.1c2-2.3,3-5,3-7.4c0-3.3-2-6.4-5.7-8c-8.4,8.4-22.8,16.7-35.2,16.7
		c-6.7,0-11-4-9-13.7l16.4-77c7.7-35.2-5-49.2-22.8-49.2c-19.4,0-40.8,13.4-54.9,33.5l3.3-15.1c3-12.7-4-18.4-16.1-18.4
		c-14.1,0-26.1,7-37.5,16.1C606,91.8,608.3,102.2,612.6,104.9z M886.8,101.2c0-15.1-7.7-32.1-38.2-32.1c-55.2,0-84,69.6-84,113.2
		c0,41.2,25.4,59.9,56.9,59.9c32.5,0,71.3-20.1,94.4-53.9c3.7-6,0.3-13.1-8.4-11.4c-14.4,19.1-45.2,36.2-69.3,36.2
		c-15.4,0-27.8-6.7-31.1-24.8C871.8,152.4,886.8,129.6,886.8,101.2z M851,95.2c5.7,0,9.7,5.4,9.7,13.1c0,21.8-22.1,45.2-54.6,65.6
		C807.2,150.4,817.9,95.2,851,95.2z M1054.9,188.2c3.7-6,0.3-13.1-8.4-11.4c-14.4,19.1-45.2,36.2-69.3,36.2
		c-18.1,0-32.1-9.7-32.1-36.2c0-48.2,21.8-84,40.5-84c8.4,0,12.4,3.3,12.4,9.7c0,4.7-1.7,13.7-5.4,21.8c3.7,3.3,9,4.7,13.4,4.7
		c12.4,0,23.4-8.7,23.4-27.5c0-21.8-13.4-32.5-40.5-32.5c-50.2,0-85.4,61.6-85.4,113.2c0,41.2,25.4,59.9,56.9,59.9
		C993,242.1,1031.8,222,1054.9,188.2L1054.9,188.2z M1167,72.1h-57.8l9.4-44.2c-4-2.7-9.7-4.4-15.7-4.4c-12.1,0-24.8,5.7-28.1,21.1
		l-6,27.5h-6.7c-10.4,0-15.7,8.7-14.1,19.4h16.7l-21.4,101.1c-8.4,39.8,15.1,49.6,31.8,49.6c18.7,0,46.2-15.7,46.2-39.2
		c0-5.7-3.7-9-10-9c-5,12.1-12.7,16.1-18.7,16.1c-6.7,0-11-7.4-7.4-24.4l19.8-94.1h29.8h3.2c0.6-1.9,1.8-3.6,3.5-5
		C1149.3,80,1157.7,74.7,1167,72.1z"/>
	<path class="st1" d="M1151.7,105.9c-12.1,38.8-11,136.3,24.4,136.3c36.2,0,91.1-82,91.1-158.7c0-24.4-14.1-36.8-27.1-37.2
		c-11-0.3-21.8,8.4-22.4,25.8c14.1,6.4,20.8,26.1,20.8,48.5c0,31.5-16.7,66.6-42.2,86.7c-14.1-27.5-10-77.3-1.3-118.5
		c3-12.7-4-18.4-16.1-18.4c-14.1,0-26.1,7-37.5,16.1c-6.7,5.4-4.4,15.7,0,18.4c3-2.7,5-4,6.7-4
		C1151,100.8,1152.3,103.2,1151.7,105.9z M1389,101.2c0-15.1-7.7-32.1-38.2-32.1c-55.2,0-84,69.6-84,113.2c0,3.3,0.3,6.4,0.7,9.4
		c-7,3-13.7,4.7-21.4,3.7c-2.3,13.1,9.7,22.8,22.8,19.4c1.3-0.3,2.7-1,4-1.7c9.4,20.1,28.8,29.1,50.9,29.1
		c32.5,0,71.3-20.1,94.4-53.9c3.7-6,0.3-13.1-8.4-11.4c-14.4,19.1-45.2,36.2-69.3,36.2c-15.4,0-27.8-6.7-31.1-24.8
		C1374,152.4,1389,129.6,1389,101.2z M1353.2,95.2c5.7,0,9.7,5.4,9.7,13.1c0,21.8-22.1,45.2-54.6,65.6
		C1309.4,150.4,1320.1,95.2,1353.2,95.2z M1430.9,242.1c49.2,0,68.6-24.1,68.6-56.6c0-42.5-54.9-34.8-54.9-70.3
		c0-18.1,10.4-27.1,19.4-27.1c8,0,15.1,5.7,15.1,18.1c0,6.7-2.3,14.1-5.7,18.1c4.4,3,9,4.4,13.4,4.7c12.4,0.7,23.4-8.7,23.4-27.5
		c0-21.8-13.7-32.5-42.2-32.5c-38.8,0-57.3,24.8-57.3,51.6c0,50.2,55.2,47.2,55.2,72.7c0,16.4-13.7,26.8-26.4,26.8
		c-10.7,0-21.1-6.7-21.1-22.1c0-8,2.7-16.1,7-21.1c-3.7-3.3-8-4.7-13.4-4.7c-16.4,0-26.1,12.1-28.5,25.8
		C1380,220.4,1395.1,242.1,1430.9,242.1L1430.9,242.1z M1601.3,91.5c10.4,0,15.7-8.7,14.1-19.4h-24.4l9.4-44.2
		c-4-2.7-9.7-4.4-15.7-4.4c-12.1,0-24.8,5.7-28.1,21.1l-6,27.5h-6.7c-10.4,0-15.7,8.7-14.1,19.4h16.7L1525,192.6
		c-7.7,36.8,5.7,49.5,26.1,49.5c22.4,0,47.9-15.4,63.6-33.1c2-2.3,3-5,3-7.4c0-3.3-2-6.4-5.7-8c-8.4,8.4-22.8,16.7-35.2,16.7
		c-8.7,0-14.1-6-10-24.8l19.8-94.1H1601.3z"/>
</g>
</svg>
