<?xml version="1.0" encoding="UTF-8"?>
<!DOCTYPE svg PUBLIC "-//W3C//DTD SVG 1.1//EN" "http://www.w3.org/Graphics/SVG/1.1/DTD/svg11.dtd">
<!-- Creator: CorelDRAW X8 -->
<svg xmlns="http://www.w3.org/2000/svg" xml:space="preserve" width="100%" height="100%" version="1.1" style="shape-rendering:geometricPrecision; text-rendering:geometricPrecision; image-rendering:optimizeQuality; fill-rule:evenodd; clip-rule:evenodd"
viewBox="0 0 5750000 4200000"
 xmlns:xlink="http://www.w3.org/1999/xlink">
 <defs>
  <style type="text/css">
   <![CDATA[
    .str0 {stroke:#ED3237;stroke-width:762}
    .fil2 {fill:none}
    .fil5 {fill:#FEFEFE;fill-rule:nonzero}
    .fil1 {fill:#FFCC29;fill-rule:nonzero}
    .fil7 {fill:#EE4698;fill-rule:nonzero}
    .fil8 {fill:#D12D90;fill-rule:nonzero}
    .fil6 {fill:#5CC6D0;fill-rule:nonzero}
    .fil3 {fill:#3E4095;fill-rule:nonzero}
    .fil4 {fill:#F6EEFA;fill-rule:nonzero}
    .fil0 {fill:#FEFEFE;fill-rule:nonzero}
   ]]>
  </style>
 </defs>
 <g id="Layer_x0020_1">
  <metadata id="CorelCorpID_0Corel-Layer"/>
  <g id="_1709658399888">
   <g>
    <path class="fil0" d="M593928 3990380c14321,-23434 1300,-50777 -32552,-44268 -55985,74215 -175769,140613 -269510,140613 -70306,0 -124992,-37755 -124992,-140613 0,-187486 84633,-326795 157544,-326795 32547,0 48172,13016 48172,37755 0,18230 -6513,53381 -20834,84628 14321,13021 35156,18230 52081,18230 48173,0 91137,-33851 91137,-106762 0,-84628 -52077,-126292 -157539,-126292 -195295,0 -332004,239562 -332004,440070 0,160144 98949,233055 221337,233055 126292,0 277323,-78120 367160,-209621l0 0zm618439 -395802c-54681,44269 -102853,100254 -154935,132801 -20829,-37756 -58589,-59890 -102853,-59890 -74216,0 -102858,65098 -75515,136710 14321,9112 36455,14321 59889,15621 3904,18230 6509,36455 6509,53381 0,117179 -83324,213524 -149727,213524 -45568,0 -84628,-44263 -84628,-158839 0,-127596 76815,-302061 195295,-302061 31251,0 58589,5209 83328,14321 19530,7813 41664,-6508 44268,-36455 -39059,-58590 -91141,-76815 -156239,-76815 -196599,0 -333308,246076 -333308,442675 0,122383 57290,230450 191395,230450 156234,0 339817,-196599 339817,-395802 0,-3909 0,-9118 -1305,-14322 53381,-33856 104158,-95045 138009,-123692 18230,-15621 24739,-50777 0,-71607zm0 71607c11722,-10413 19530,-15621 26043,-15621 11717,0 18226,11717 13017,32551l-106762 499960c15626,10412 37760,16926 61194,16926 46873,0 96350,-22135 109366,-82029l79420 -371063c28647,-35151 80724,-67703 115880,-67703 28642,0 46868,22134 35151,76815l-54681 259098c-32552,152330 36455,184882 101553,184882 87233,0 174465,-59895 235659,-128897 7813,-9113 11717,-19530 11717,-28642 0,-13022 -7813,-24739 -22134,-31252 -32547,32551 -88532,65103 -136705,65103 -26043,0 -42969,-15626 -35156,-53381l63799 -299457c29942,-136710 -19530,-191391 -88537,-191391 -75515,0 -158839,52077 -213525,130197l13022 -58590c11717,-49472 -15626,-71607 -62499,-71607 -54681,0 -101553,27338 -145822,62494 -26038,20830 -16925,61194 0,71607zm623648 0c11722,-10413 19530,-15621 26043,-15621 11717,0 18226,11717 13017,32551l-106762 499960c15626,10412 37760,16926 61194,16926 46873,0 96350,-22135 109366,-82029l79420 -371063c28647,-35151 80724,-67703 115880,-67703 28642,0 46867,22134 35151,76815l-54681 259098c-32552,152330 36455,184882 101553,184882 87233,0 174465,-59895 235659,-128897 7813,-9113 11717,-19530 11717,-28642 0,-13022 -7813,-24739 -22134,-31252 -32547,32551 -88532,65103 -136705,65103 -26043,0 -42969,-15626 -35156,-53381l63799 -299457c29942,-136710 -19530,-191391 -88537,-191391 -75515,0 -158839,52077 -213525,130197l13022 -58590c11717,-49472 -15626,-71607 -62499,-71607 -54681,0 -101553,27338 -145822,62494 -26038,20830 -16925,61194 0,71607zm1066323 -14322c0,-58589 -29942,-124987 -148426,-124987 -214825,0 -326796,270809 -326796,440070 0,160144 98950,233055 221338,233055 126292,0 277323,-78120 367159,-209621 14322,-23434 1300,-50777 -32551,-44268 -55985,74215 -175769,140613 -269510,140613 -59889,0 -108067,-26038 -121084,-96345 251280,-139313 309870,-227846 309870,-338517zm-139309 -23434c22130,0 37755,20830 37755,50777 0,84628 -85932,175769 -212224,255189 3908,-91137 45573,-305966 174469,-305966zm792909 361951c14321,-23434 1300,-50777 -32551,-44268 -55986,74215 -175770,140613 -269510,140613 -70307,0 -124993,-37755 -124993,-140613 0,-187486 84633,-326795 157544,-326795 32547,0 48173,13016 48173,37755 0,18230 -6514,53381 -20835,84628 14321,13021 35156,18230 52081,18230 48173,0 91137,-33851 91137,-106762 0,-84628 -52077,-126292 -157539,-126292 -195295,0 -332004,239562 -332004,440070 0,160144 98949,233055 221337,233055 126293,0 277323,-78120 367160,-209621l0 0zm435708 -451787l-224788 0 36456 -171861c-15621,-10417 -37756,-16925 -61194,-16925 -46868,0 -96345,22134 -109367,82023l-23434 106763 -26038 0c-40365,0 -61194,33851 -54686,75515l65103 0 -83328 393198c-32552,154935 58590,192695 123688,192695 72911,0 179673,-61194 179673,-152336 0,-22129 -14321,-35151 -39060,-35151 -19530,46873 -49477,62494 -72911,62494 -26038,0 -42964,-28642 -28643,-95045l76816 -365855 128189 0c2489,-7259 6895,-14068 13724,-19530 31347,-24891 63994,-45860 99800,-55985z"/>
    <path class="fil1" d="M3932210 3670093c-46873,151031 -42964,529908 95045,529908 140614,0 354138,-318987 354138,-617140 0,-95045 -54685,-143218 -105462,-144522 -42964,-1300 -84628,32551 -87232,100254 54685,24738 80724,101553 80724,188786 0,122388 -65099,259097 -164048,337212 -54686,-106762 -39060,-300757 -5208,-460900 11717,-49472 -15626,-71607 -62499,-71607 -54681,0 -101554,27338 -145822,62494 -26038,20830 -16926,61194 0,71607 11722,-10413 19530,-15621 26043,-15621 11717,0 16926,9112 14321,19529zm923105 -18230c0,-58589 -29942,-124987 -148426,-124987 -214824,0 -326795,270809 -326795,440070 0,13017 1299,24734 2604,36456 -27343,11717 -53381,18225 -83328,14321 -9113,50777 37760,88532 88537,75515 5208,-1304 10412,-3908 15621,-6513 36455,78120 111971,113276 197903,113276 126292,0 277323,-78120 367160,-209621 14321,-23434 1299,-50777 -32552,-44268 -55985,74215 -175769,140613 -269510,140613 -59889,0 -108067,-26038 -121083,-96345 251280,-139313 309869,-227846 309869,-338517zm-139309 -23434c22130,0 37756,20830 37756,50777 0,84628 -85933,175769 -212225,255189 3909,-91137 45573,-305966 174469,-305966zm302062 571572c191390,0 266905,-93746 266905,-220038 0,-165352 -213524,-135405 -213524,-273414 0,-70307 40360,-105463 75515,-105463 31247,0 58585,22135 58585,70307 0,26043 -9112,54686 -22129,70307 16925,11722 35151,16926 52076,18230 48173,2604 91142,-33851 91142,-106762 0,-84628 -53382,-126292 -164053,-126292 -151030,0 -222637,96345 -222637,200503 0,195299 214824,183582 214824,282531 0,63798 -53381,104158 -102853,104158 -41664,0 -82029,-26038 -82029,-85933 0,-31246 10418,-62493 27343,-82023 -14321,-13017 -31247,-18226 -52076,-18226 -63799,0 -101559,46868 -110671,100249 -14322,87238 44268,171866 183582,171866l0 0zm662708 -585893c40359,0 61189,-33851 54681,-75515l-95046 0 36456 -171861c-15621,-10417 -37756,-16925 -61194,-16925 -46868,0 -96345,22134 -109367,82023l-23434 106763 -26038 0c-40365,0 -61194,33851 -54686,75515l65103 0 -83328 393198c-29947,143218 22134,192695 101553,192695 87233,0 186182,-59895 247376,-128897 7813,-9113 11717,-19530 11717,-28642 0,-13022 -7808,-24739 -22134,-31252 -32547,32551 -88532,65103 -136705,65103 -33851,0 -54685,-23439 -39059,-96350l76815 -365855 57290 0z"/>
    <g>
     <path class="fil2 str0" d="M2179073 34022l355453 0c64155,0 116646,52491 116646,116646l0 86826 -588746 0 0 -86826c0,-64155 52491,-116646 116647,-116646z"/>
     <path class="fil2 str0" d="M1978707 210039l1844590 0 84265 803921c17595,167850 -42238,317533 -157610,440745 -115371,123211 -260653,186206 -429449,186206l-839002 0c-168795,0 -314077,-62995 -429449,-186206 -115371,-123212 -175205,-272864 -157610,-440745l84265 -803921z"/>
     <path class="fil2 str0" d="M1555490 1363113l-238007 174711c-38928,28573 -63398,65406 -74659,112363l-194674 811859c-14481,60386 -1738,118400 36711,167160 38454,48761 91894,74679 153994,74679l179707 0c-8535,-44290 -10045,-90579 -4408,-138516l141336 -1202256z"/>
     <rect class="fil2 str0" x="2006810" y="1991296" width="705670" height="889005" rx="138367" ry="138367"/>
     <circle class="fil2 str0" cx="2359647" cy="2293972" r="147012"/>
     <rect class="fil2 str0" x="3089529" y="1991296" width="705670" height="889005" rx="138367" ry="138367"/>
     <circle class="fil2 str0" cx="3442366" cy="2293972" r="147012"/>
     <path class="fil3" d="M4253839 1333619l218426 160335c24042,17649 43767,38068 59356,61520 15402,23188 26518,49261 33528,78483l189081 788535c8991,37490 9535,74232 1871,109143 -7768,35371 -23650,68666 -47398,98780 -23745,30107 -52438,53322 -85075,69147 -32605,15813 -68510,23965 -106700,23965l-134236 0c-1151,3863 -2351,7715 -3600,11551 -21273,65223 -57204,125664 -107421,180217 -49935,54236 -107638,95561 -172022,123493 -64290,27889 -134301,42068 -208941,42068l-2033154 0c-74503,0 -144396,-14133 -208617,-41931 -64259,-27814 -121908,-69013 -171874,-123116 -50171,-54331 -86152,-114606 -107569,-179744 -1368,-4160 -2678,-8343 -3924,-12538l-132495 0c-38190,0 -74095,-8152 -106701,-23965 -32636,-15825 -61329,-39040 -85074,-69147 -23748,-30114 -39630,-63409 -47398,-98780 -7665,-34911 -7120,-71650 1871,-109143l189081 -788535c7006,-29222 18126,-55295 33528,-78483 15584,-23452 35310,-43871 59356,-61520l212277 -155824 90514 -769945c12621,-107356 65326,-201085 142758,-267923 75615,-65264 174617,-104864 282609,-106392l0 -26819c0,-45988 18781,-87767 49029,-118022 30247,-30248 72026,-49029 118022,-49029l345242 0c45988,0 87767,18781 118022,49029 30248,30255 49029,72034 49029,118022l0 26766 377797 0 0 -26766c0,-45988 18781,-87767 49029,-118022 30247,-30248 72026,-49029 118022,-49029l345242 0c45988,0 87767,18781 118022,49029 30248,30255 49029,72034 49029,118022l0 26952c105268,2960 201607,42031 275550,105657 77485,66671 130331,160110 143264,267180l92644 766779zm-1083290 -1139802l464319 0 0 -26766c0,-16316 -6720,-31192 -17531,-42007 -10815,-10812 -25691,-17532 -42007,-17532l-345242 0c-16316,0 -31192,6716 -42007,17532 -10812,10815 -17532,25691 -17532,42007l0 26766zm-1057141 0l464320 0 0 -26766c0,-16316 -6720,-31192 -17532,-42007 -10815,-10812 -25691,-17532 -42007,-17532l-345242 0c-16316,0 -31192,6716 -42007,17532 -10812,10815 -17532,25691 -17532,42007l0 26766z"/>
     <path class="fil4" d="M3721661 305138l-32709 0 -327 0 -571832 0 -327 0 -484655 0 -327 0 -571832 0 -327 0 -32713 0 -76780 732528c-7486,71447 1165,139146 23722,202232 23847,66696 63074,128312 115081,183854 50926,54385 108244,95390 171246,122708 62697,27185 131870,40930 206807,40930l814897 0c74937,0 144111,-13745 206808,-40930 63001,-27318 120319,-68323 171245,-122708 52004,-55539 91226,-117158 115078,-183858 22556,-63090 31215,-130789 23725,-202228l-76780 -732528z"/>
     <path class="fil5" d="M1593950 1373608l0 3 -137276 1167715 -114 994 -114 991 -76 689 -35 301c-4312,39021 -3123,76636 3482,112568 435,1767 785,3565 1040,5398 2758,13798 6320,27341 10686,40617 16518,50240 44773,97276 84476,140270 39916,43219 85307,75847 135333,97500 50065,21673 105745,32690 166202,32690l2033154 0c60567,0 116362,-11067 166525,-32827 50080,-21725 95528,-54480 135482,-97877 39669,-43090 67874,-90294 84327,-140743 16408,-50305 21296,-104502 14381,-161729l-236902 -1960726c-9600,-79493 -48815,-148845 -106305,-198312 -33638,-28944 -73565,-51150 -117554,-64704l74454 710322c9238,88137 -1414,171576 -29189,249260 -28663,80156 -75756,154159 -138171,220818 -61131,65284 -130407,114716 -206948,147905 -76857,33321 -160221,50171 -249223,50171l-814897 0c-89006,0 -172366,-16850 -249223,-50171 -76540,-33189 -145816,-82621 -206948,-147905 -62419,-66662 -109512,-140658 -138175,-220814 -27775,-77680 -38419,-161120 -29184,-249264l74662 -712303c-46739,13341 -89074,36381 -124399,66868 -57638,49749 -96854,119394 -106217,199055l-93254 793240z"/>
     <path class="fil5" d="M1472895 1483760l-131744 96708c-13764,10103 -24838,21463 -33314,34221 -8659,13032 -14907,27668 -18831,44045l-189081 788535c-5071,21151 -5372,41920 -1033,61684 4237,19295 13223,37870 26819,55108 13604,17250 29547,30313 47276,38907 17749,8609 37966,13047 60088,13047l114019 0c-1360,-25337 -735,-51150 1882,-77382l118 -1185 122 -1189 30 -327 92 -857 129 -1189 130 -1185 15 -160 114 -1028 137 -1185 137 -1185 122895 -1045383z"/>
     <path class="fil5" d="M4408852 1580468l-131745 -96708 122895 1045383c2972,25288 4046,50743 3235,76282l-446 10590 114137 0c22122,0 42339,-4438 60087,-13047 17730,-8594 33673,-21657 47276,-38907 13596,-17242 22583,-35813 26819,-55108 4339,-19764 4038,-40533 -1032,-61684l-189082 -788535c-3927,-16377 -10171,-31013 -18830,-44045 -8480,-12758 -19554,-24122 -33314,-34221z"/>
     <path class="fil6" d="M1193825 2610842c12240,3425 25372,5173 39250,5173l114019 0c-1360,-25337 -735,-51150 1882,-77382l118 -1185 122 -1189 30 -327 92 -857 129 -1189 130 -1185 15 -160 114 -1028 137 -1185 137 -1185 113086 -961951 -64792 47562c-13764,10102 -24838,21462 -33315,34220 -8659,13033 -14906,27669 -18830,44046l-189082 788535c-5070,21150 -5371,41920 -1032,61683 4236,19296 13223,37871 26819,55109 3505,4446 7166,8609 10971,12495z"/>
     <path class="fil7" d="M2125389 1459695c41280,36865 86217,65832 134492,86765 62697,27185 131870,40930 206807,40930l814897 0c74937,0 144111,-13745 206808,-40930 63001,-27318 120319,-68323 171245,-122708 52004,-55539 91226,-117158 115078,-183858 22556,-63090 31215,-130789 23725,-202228l-71988 -686814 -563946 0 -327 0 -484654 0 -328 0 -571831 0 -328 0 -32712 0 -76781 732528c-7486,71447 1166,139146 23722,202232 22457,62811 58556,121112 106121,174083z"/>
     <path class="fil6" d="M4335237 1526430l121908 1036999c2053,17459 3204,34998 3448,52586l56335 0c22122,0 42339,-4438 60087,-13047 17730,-8594 33673,-21657 47276,-38907 13596,-17242 22583,-35813 26819,-55108 4339,-19764 4038,-40533 -1032,-61684l-189082 -788535c-3927,-16377 -10171,-31013 -18830,-44045 -8480,-12758 -19554,-24122 -33314,-34221l-73615 -54038z"/>
     <path class="fil6" d="M1676270 2933725c4979,2423 10008,4731 15082,6929 50065,21673 105745,32690 166202,32690l2033154 0c60567,0 116362,-11067 166525,-32827 50080,-21725 95528,-54480 135482,-97877 39669,-43090 67874,-90294 84327,-140743 16408,-50305 21296,-104502 14381,-161729l-236902 -1960726c-9600,-79493 -48815,-148845 -106305,-198312 -5501,-4731 -11165,-9280 -16994,-13645 -13943,-6545 -28445,-12160 -43417,-16773l74453 710321c9238,88137 -1413,171577 -29188,249260 -28663,80156 -75756,154160 -138171,220819 -61132,65284 -130408,114716 -206949,147904 -76857,33322 -160220,50172 -249222,50172l-814897 0c-89006,0 -172366,-16850 -249223,-50172 -33760,-14640 -66106,-32438 -96963,-53363 -60907,-32042 -116781,-75059 -167128,-128827 -62419,-66662 -109512,-140658 -138175,-220814 -27775,-77680 -38419,-161120 -29184,-249264l68411 -652654c-22015,11570 -42476,25513 -61006,41505 -57638,49748 -96853,119394 -106217,199055l-93253 793239 0 4 -137276 1167715 -114 994 -114 990 -77 690 -34 301c-4312,39021 -3124,76636 3482,112567 434,1768 785,3566 1040,5398 2758,13798 6320,27341 10686,40617 16518,50240 44773,97276 84476,140270 19733,21364 40804,40141 63108,56286z"/>
     <path class="fil5" d="M3638727 2061887l-416612 0c-22118,0 -42267,9090 -56907,23730 -14640,14640 -23729,34796 -23729,56906l0 594681c0,14361 3832,27897 10529,39630 -6335,-3615 -12144,-8069 -17276,-13200 -14640,-14640 -23729,-34788 -23729,-56906l0 -594681c0,-22110 9089,-42266 23729,-56906 14640,-14640 34789,-23730 56907,-23730l416612 0c22111,0 42267,9090 56907,23730 5131,5131 9581,10945 13200,17276 -11737,-6697 -25272,-10530 -39631,-10530zm116816 -66655c5638,4484 11017,9280 16106,14370 34072,34072 55227,81127 55227,132921l0 594681c0,51798 -21155,98849 -55227,132921 -34072,34072 -81127,55227 -132922,55227l-416612 0c-51798,0 -98849,-21155 -132922,-55227 -5089,-5089 -9885,-10468 -14369,-16106 32125,25546 72750,40857 116815,40857l416612 0c51795,0 98850,-21155 132922,-55227 34072,-34072 55227,-81124 55227,-132921l0 -594681c0,-44060 -15311,-84685 -40857,-116815zm-279265 230548c-13394,-8061 -29082,-12701 -45855,-12701 -24590,0 -46853,9966 -62960,26073 -16106,16106 -26072,38373 -26072,62960 0,16773 4636,32464 12697,45858 -6240,-3756 -11981,-8255 -17101,-13375 -16107,-16106 -26072,-38369 -26072,-62960 0,-24586 9965,-46853 26072,-62959 16107,-16107 38370,-26073 62960,-26073 24587,0 46853,9966 62960,26073 5120,5120 9615,10864 13371,17104zm77048 -77047c5619,4507 10986,9318 16072,14404 35566,35565 57570,84708 57570,138975 0,54266 -22004,103409 -57570,138974 -35566,35566 -84708,57570 -138975,57570 -54266,0 -103409,-22004 -138975,-57570 -5086,-5085 -9897,-10453 -14404,-16072 33657,27006 76400,43166 122903,43166 54267,0 103409,-22004 138975,-57570 35566,-35565 57569,-84708 57569,-138975 0,-46502 -16160,-89245 -43165,-122902zm-849397 -153501c5638,4484 11017,9280 16107,14370 34072,34072 55226,81127 55226,132921l0 594681c0,51798 -21154,98849 -55226,132921 -34072,34072 -81128,55227 -132922,55227l-416612 0c-51798,0 -98850,-21155 -132922,-55227 -5089,-5089 -9886,-10468 -14369,-16106 32125,25546 72750,40857 116815,40857l416612 0c51794,0 98849,-21155 132922,-55227 34072,-34072 55226,-81124 55226,-132921l0 -594681c0,-44060 -15310,-84685 -40857,-116815zm-116815 66655l-416612 0c-22118,0 -42267,9090 -56907,23730 -14640,14640 -23729,34796 -23729,56906l0 594681c0,14361 3832,27897 10529,39630 -6335,-3615 -12145,-8069 -17276,-13200 -14640,-14640 -23729,-34788 -23729,-56906l0 -594681c0,-22110 9089,-42266 23729,-56906 14640,-14640 34789,-23730 56907,-23730l416612 0c22111,0 42267,9090 56907,23730 5131,5131 9581,10945 13200,17276 -11737,-6697 -25273,-10530 -39631,-10530zm-162449 163893c-13394,-8061 -29082,-12701 -45855,-12701 -24591,0 -46853,9966 -62960,26073 -16107,16106 -26072,38373 -26072,62960 0,16773 4636,32464 12697,45858 -6240,-3756 -11981,-8255 -17101,-13375 -16107,-16106 -26072,-38369 -26072,-62960 0,-24586 9965,-46853 26072,-62959 16107,-16107 38369,-26073 62960,-26073 24586,0 46853,9966 62960,26073 5120,5120 9615,10864 13371,17104zm77048 -77047c5619,4507 10986,9318 16072,14404 35566,35565 57569,84708 57569,138975 0,54266 -22003,103409 -57569,138974 -35566,35566 -84709,57570 -138975,57570 -54267,0 -103409,-22004 -138975,-57570 -5086,-5085 -9897,-10453 -14404,-16072 33657,27006 76400,43166 122903,43166 54266,0 103409,-22004 138975,-57570 35565,-35565 57569,-84708 57569,-138975 0,-46502 -16160,-89245 -43165,-122902z"/>
     <path class="fil3" d="M3608251 2031411l-416612 0c-22118,0 -42267,9090 -56907,23730 -14640,14640 -23729,34796 -23729,56906l0 594681c0,22118 9089,42266 23729,56906 14640,14640 34789,23729 56907,23729l416612 0c22111,0 42267,-9089 56907,-23729 14640,-14640 23729,-34788 23729,-56906l0 -594681c0,-22110 -9089,-42266 -23729,-56906 -14640,-14640 -34796,-23730 -56907,-23730zm-416612 -107512l416612 0c51795,0 98850,21155 132922,55227 34072,34072 55227,81127 55227,132921l0 594681c0,51797 -21155,98849 -55227,132921 -34072,34072 -81127,55227 -132922,55227l-416612 0c-51798,0 -98850,-21155 -132922,-55227 -34072,-34072 -55226,-81124 -55226,-132921l0 -594681c0,-51794 21154,-98849 55226,-132921 34072,-34072 81124,-55227 132922,-55227zm271268 284777c-16107,-16107 -38373,-26073 -62960,-26073 -24590,0 -46853,9966 -62960,26073 -16107,16106 -26072,38373 -26072,62959 0,24591 9965,46854 26072,62960 16107,16107 38370,26073 62960,26073 24587,0 46853,-9966 62960,-26073 16107,-16106 26072,-38369 26072,-62960 0,-24586 -9965,-46853 -26072,-62959zm-62960 -133585c54267,0 103409,22004 138975,57570 35566,35565 57569,84708 57569,138974 0,54267 -22003,103410 -57569,138975 -35566,35566 -84708,57570 -138975,57570 -54267,0 -103409,-22004 -138975,-57570 -35566,-35565 -57569,-84708 -57569,-138975 0,-54266 22003,-103409 57569,-138974 35566,-35566 84708,-57570 138975,-57570zm-1259921 -151192l416612 0c51794,0 98849,21155 132922,55227 34072,34072 55226,81127 55226,132921l0 594681c0,51797 -21154,98849 -55226,132921 -34073,34072 -81128,55227 -132922,55227l-416612 0c-51798,0 -98850,-21155 -132922,-55227 -34072,-34072 -55227,-81124 -55227,-132921l0 -594681c0,-51794 21155,-98849 55227,-132921 34072,-34072 81124,-55227 132922,-55227zm416612 107512l-416612 0c-22118,0 -42267,9090 -56907,23730 -14640,14640 -23729,34796 -23729,56906l0 594681c0,22118 9089,42266 23729,56906 14640,14640 34789,23729 56907,23729l416612 0c22111,0 42267,-9089 56907,-23729 14640,-14640 23729,-34788 23729,-56906l0 -594681c0,-22110 -9089,-42266 -23729,-56906 -14640,-14640 -34796,-23730 -56907,-23730zm-145344 177265c-16107,-16107 -38374,-26073 -62960,-26073 -24591,0 -46853,9966 -62960,26073 -16107,16106 -26072,38373 -26072,62959 0,24591 9965,46854 26072,62960 16107,16107 38369,26073 62960,26073 24586,0 46853,-9966 62960,-26073 16106,-16106 26072,-38369 26072,-62960 0,-24586 -9966,-46853 -26072,-62959zm-62960 -133585c54266,0 103409,22004 138975,57570 35565,35565 57569,84708 57569,138974 0,54267 -22004,103410 -57569,138975 -35566,35566 -84709,57570 -138975,57570 -54267,0 -103410,-22004 -138975,-57570 -35566,-35565 -57570,-84708 -57570,-138975 0,-54266 22004,-103409 57570,-138974 35565,-35566 84708,-57570 138975,-57570z"/>
     <path class="fil8" d="M2302471 2347967l4 3c13394,8058 29082,12698 45859,12698 24586,0 46853,-9966 62960,-26073 16106,-16106 26072,-38369 26072,-62960 0,-16780 -4640,-32476 -12701,-45855 -13394,-8061 -29082,-12701 -45855,-12701 -24591,0 -46853,9966 -62960,26073 -16107,16106 -26072,38373 -26072,62960 0,16773 4636,32460 12693,45855z"/>
     <path class="fil8" d="M3354084 2347967l4 3c13394,8058 29082,12698 45859,12698 24587,0 46853,-9966 62960,-26073 16107,-16106 26072,-38369 26072,-62960 0,-16780 -4640,-32476 -12701,-45855 -13394,-8061 -29082,-12701 -45855,-12701 -24590,0 -46853,9966 -62960,26073 -16106,16106 -26072,38373 -26072,62960 0,16773 4636,32460 12693,45855z"/>
    </g>
   </g>
   <rect class="fil2" width="5749999" height="4200000"/>
  </g>
 </g>
</svg>
