<?xml version="1.0" encoding="UTF-8"?>
<!DOCTYPE svg PUBLIC "-//W3C//DTD SVG 1.1//EN" "http://www.w3.org/Graphics/SVG/1.1/DTD/svg11.dtd">
<!-- Creator: CorelDRAW X8 -->
<svg xmlns="http://www.w3.org/2000/svg" xml:space="preserve" width="100%" height="100%" version="1.1" style="shape-rendering:geometricPrecision; text-rendering:geometricPrecision; image-rendering:optimizeQuality; fill-rule:evenodd; clip-rule:evenodd"
viewBox="0 0 1037405 851747"
 xmlns:xlink="http://www.w3.org/1999/xlink">
 <defs>
  <style type="text/css">
   <![CDATA[
    .str0 {stroke:#ED3237;stroke-width:762}
    .fil0 {fill:none}
    .fil3 {fill:#FEFEFE;fill-rule:nonzero}
    .fil5 {fill:#EE4698;fill-rule:nonzero}
    .fil6 {fill:#D12D90;fill-rule:nonzero}
    .fil4 {fill:#5CC6D0;fill-rule:nonzero}
    .fil1 {fill:#3E4095;fill-rule:nonzero}
    .fil2 {fill:#F6EEFA;fill-rule:nonzero}
    .fil7 {fill:#FFD234;fill-rule:nonzero}
   ]]>
  </style>
 </defs>
 <g id="Layer_x0020_1">
  <metadata id="CorelCorpID_0Corel-Layer"/>
  <g id="_2425317917104">
   <g>
    <path class="fil0 str0" d="M377569 6899l72085 0c13011,0 23655,10645 23655,23656l0 17608 -119395 0 0 -17608c0,-13011 10645,-23656 23655,-23656z"/>
    <path class="fil0 str0" d="M336936 42595l374076 0 17089 163032c3568,34040 -8566,64395 -31963,89382 -23397,24987 -52859,37762 -87091,37762l-170146 0c-34231,0 -63694,-12775 -87091,-37762 -23397,-24987 -35531,-55336 -31963,-89382l17089 -163032z"/>
    <path class="fil0 str0" d="M251109 276434l-48267 35431c-7894,5795 -12857,13264 -15140,22787l-39480 164642c-2936,12246 -352,24011 7445,33900 7799,9888 18636,15144 31230,15144l36444 0c-1731,-8981 -2037,-18369 -894,-28090l28662 -243814z"/>
    <path class="fil0 str0" d="M370696 403828l86986 0c15433,0 28060,12627 28060,28059l0 124168c0,15433 -12627,28060 -28060,28060l-86986 0c-15434,0 -28061,-12627 -28061,-28060l0 -124168c0,-15432 12627,-28059 28061,-28059z"/>
    <path class="fil0 str0" d="M414189 435396c16466,0 29814,13348 29814,29813 0,16466 -13348,29814 -29814,29814 -16466,0 -29813,-13348 -29813,-29814 0,-16465 13347,-29813 29813,-29813z"/>
    <path class="fil0 str0" d="M590267 403828l86987 0c15433,0 28060,12627 28060,28059l0 124168c0,15433 -12627,28060 -28060,28060l-86987 0c-15433,0 -28060,-12627 -28060,-28060l0 -124168c0,-15432 12627,-28059 28060,-28059z"/>
    <path class="fil0 str0" d="M633761 435396c16465,0 29813,13348 29813,29813 0,16466 -13348,29814 -29813,29814 -16466,0 -29814,-13348 -29814,-29814 0,-16465 13348,-29813 29814,-29813z"/>
    <path class="fil1" d="M798325 270453l44296 32515c4875,3580 8875,7721 12037,12476 3123,4703 5378,9990 6799,15917l38345 159912c1823,7603 1934,15054 379,22134 -1575,7173 -4796,13925 -9612,20032 -4815,6106 -10634,10813 -17252,14023 -6613,3207 -13894,4860 -21639,4860l-27223 0c-233,783 -476,1564 -730,2342 -4314,13227 -11600,25485 -21784,36548 -10127,10998 -21829,19379 -34886,25043 -13037,5656 -27235,8532 -42372,8532l-412316 0c-15109,0 -29283,-2866 -42307,-8504 -13032,-5640 -24723,-13995 -34856,-24967 -10174,-11018 -17471,-23242 -21814,-36452 -278,-843 -543,-1692 -796,-2542l-26869 0c-7745,0 -15027,-1653 -21639,-4860 -6618,-3210 -12437,-7917 -17253,-14023 -4816,-6107 -8037,-12859 -9612,-20032 -1554,-7080 -1444,-14531 379,-22134l38346 -159912c1420,-5927 3675,-11214 6799,-15917 3160,-4755 7161,-8896 12037,-12476l43049 -31600 18356 -156142c2560,-21772 13248,-40780 28951,-54334 15334,-13236 35411,-21266 57312,-21576l0 -5439c0,-9326 3809,-17799 9943,-23934 6134,-6135 14606,-9943 23934,-9943l70014 0c9326,0 17799,3808 23935,9943 6134,6135 9942,14608 9942,23934l0 5428 76616 0 0 -5428c0,-9326 3809,-17799 9943,-23934 6134,-6135 14607,-9943 23935,-9943l70013 0c9327,0 17799,3808 23935,9943 6134,6135 9943,14608 9943,23934l0 5466c21348,600 40885,8524 55880,21427 15714,13520 26431,32470 29054,54183l18788 155500zm-219688 -231148l94163 0 0 -5428c0,-3309 -1363,-6326 -3556,-8519 -2193,-2192 -5210,-3555 -8519,-3555l-70013 0c-3309,0 -6326,1362 -8519,3555 -2193,2193 -3556,5210 -3556,8519l0 5428zm-214384 0l94162 0 0 -5428c0,-3309 -1363,-6326 -3555,-8519 -2193,-2192 -5210,-3555 -8519,-3555l-70014 0c-3309,0 -6325,1362 -8519,3555 -2192,2193 -3555,5210 -3555,8519l0 5428z"/>
    <path class="fil2" d="M690401 61881l-6633 0 -67 0 -115965 0 -67 0 -98286 0 -66 0 -115966 0 -66 0 -6634 0 -15571 148554c-1518,14489 237,28218 4811,41012 4836,13526 12791,26021 23338,37285 10328,11029 21951,19345 34728,24885 12715,5513 26743,8300 41940,8300l165258 0c15197,0 29225,-2787 41940,-8300 12776,-5540 24400,-13856 34728,-24885 10546,-11263 18500,-23759 23337,-37286 4574,-12794 6330,-26523 4812,-41011l-15571 -148554z"/>
    <path class="fil3" d="M258909 278563l0 0 -27839 236809 -23 202 -24 200 -15 140 -7 61c-875,7914 -634,15542 706,22829 88,358 159,723 211,1094 559,2799 1282,5545 2167,8237 3350,10189 9080,19728 17131,28447 8095,8764 17300,15381 27445,19772 10153,4396 21445,6630 33706,6630l412316 0c12283,0 23598,-2245 33771,-6657 10156,-4406 19372,-11049 27475,-19850 8044,-8738 13764,-18311 17101,-28542 3328,-10201 4319,-21193 2917,-32798l-48043 -397628c-1947,-16121 -9900,-30186 -21559,-40217 -6821,-5870 -14918,-10373 -23839,-13122l15099 144051c1873,17874 -287,34795 -5920,50549 -5812,16255 -15363,31263 -28020,44781 -12397,13239 -26446,23264 -41969,29994 -15586,6758 -32492,10175 -50541,10175l-165258 0c-18050,0 -34955,-3417 -50542,-10175 -15522,-6730 -29571,-16755 -41968,-29994 -12658,-13519 -22209,-28525 -28021,-44780 -5633,-15754 -7792,-32675 -5919,-50550l15141 -144453c-9478,2706 -18064,7378 -25227,13561 -11689,10089 -19642,24212 -21541,40367l-18911 160867z"/>
    <path class="fil3" d="M234359 300901l-26717 19612c-2791,2049 -5037,4353 -6756,6940 -1756,2643 -3023,5611 -3819,8932l-38345 159913c-1028,4289 -1089,8501 -209,12509 859,3913 2681,7680 5439,11176 2758,3498 5992,6147 9587,7890 3599,1746 7699,2646 12186,2646l23122 0c-276,-5139 -149,-10373 382,-15693l24 -240 24 -242 7 -66 18 -174 26 -241 27 -240 3 -33 23 -208 28 -240 28 -241 24922 -212000z"/>
    <path class="fil3" d="M829761 320513l-26718 -19612 24923 212000c603,5129 820,10291 656,15470l-91 2148 23147 0c4486,0 8586,-900 12186,-2646 3595,-1743 6828,-4392 9587,-7890 2757,-3497 4580,-7263 5439,-11176 880,-4008 819,-8220 -210,-12509l-38345 -159913c-796,-3321 -2062,-6289 -3818,-8932 -1720,-2587 -3966,-4892 -6756,-6940z"/>
    <path class="fil4" d="M177765 529470c2482,694 5145,1049 7960,1049l23122 0c-276,-5139 -149,-10373 382,-15693l24 -240 24 -242 7 -66 18 -174 26 -241 27 -240 3 -33 23 -208 28 -240 28 -241 22933 -195080 -13140 9645c-2791,2049 -5037,4353 -6756,6940 -1756,2643 -3023,5611 -3818,8932l-38346 159913c-1028,4289 -1089,8501 -209,12509 859,3913 2682,7680 5439,11176 711,901 1453,1746 2225,2534z"/>
    <path class="fil5" d="M366683 296021c8371,7476 17484,13350 27274,17596 12715,5513 26743,8300 41940,8300l165258 0c15197,0 29225,-2787 41940,-8300 12776,-5540 24400,-13856 34728,-24885 10546,-11263 18500,-23759 23337,-37286 4574,-12794 6330,-26523 4812,-41011l-14599 -139284 -114367 0 -66 0 -98286 0 -67 0 -115965 0 -66 0 -6634 0 -15571 148554c-1518,14490 236,28219 4811,41012 4554,12738 11875,24561 21521,35304z"/>
    <path class="fil4" d="M814832 309555l24722 210299c417,3541 650,7098 699,10665l11425 0c4486,0 8586,-900 12186,-2646 3595,-1743 6828,-4392 9587,-7890 2757,-3497 4580,-7263 5439,-11176 880,-4008 819,-8220 -210,-12509l-38345 -159913c-796,-3321 -2062,-6289 -3818,-8932 -1720,-2587 -3966,-4892 -6756,-6940l-14929 -10958z"/>
    <path class="fil4" d="M275603 594949c1010,491 2029,960 3058,1405 10153,4396 21445,6630 33706,6630l412316 0c12283,0 23598,-2245 33771,-6657 10156,-4406 19372,-11049 27475,-19850 8044,-8738 13764,-18311 17101,-28542 3328,-10201 4319,-21193 2917,-32798l-48043 -397628c-1947,-16121 -9900,-30186 -21559,-40217 -1115,-960 -2264,-1882 -3446,-2768 -2828,-1327 -5769,-2466 -8805,-3401l15099 144051c1874,17874 -287,34795 -5919,50549 -5813,16255 -15363,31263 -28021,44781 -12397,13239 -26446,23264 -41968,29994 -15587,6758 -32492,10175 -50542,10175l-165258 0c-18050,0 -34955,-3417 -50541,-10175 -6847,-2968 -13406,-6578 -19664,-10821 -12352,-6498 -23683,-15222 -33893,-26126 -12658,-13519 -22209,-28525 -28021,-44780 -5633,-15754 -7792,-32675 -5919,-50550l13874 -132356c-4465,2346 -8614,5174 -12372,8417 -11689,10089 -19642,24212 -21540,40367l-18912 160867 0 0 -27839 236809 -23 202 -23 201 -16 139 -7 61c-874,7914 -633,15542 706,22829 88,358 160,723 211,1094 560,2799 1282,5545 2167,8237 3350,10189 9080,19728 17132,28447 4002,4332 8275,8140 12798,11414z"/>
    <path class="fil3" d="M673582 418143l-84487 0c-4486,0 -8572,1844 -11541,4813 -2969,2969 -4812,7056 -4812,11540l0 120599c0,2913 777,5658 2135,8037 -1284,-733 -2463,-1636 -3503,-2677 -2969,-2969 -4812,-7055 -4812,-11540l0 -120599c0,-4484 1843,-8572 4812,-11541 2969,-2969 7055,-4812 11540,-4812l84488 0c4484,0 8571,1843 11540,4812 1041,1041 1943,2220 2677,3504 -2380,-1358 -5125,-2136 -8037,-2136zm23690 -13517c1143,909 2234,1882 3266,2914 6910,6910 11200,16453 11200,26956l0 120599c0,10505 -4290,20047 -11200,26956 -6910,6910 -16452,11200 -26956,11200l-84487 0c-10505,0 -20047,-4290 -26956,-11200 -1033,-1032 -2005,-2123 -2914,-3266 6515,5181 14753,8286 23689,8286l84488 0c10503,0 20046,-4290 26956,-11200 6910,-6910 11200,-16452 11200,-26956l0 -120599c0,-8936 -3105,-17174 -8286,-23690zm-56634 46754c-2716,-1634 -5898,-2575 -9299,-2575 -4987,0 -9502,2021 -12768,5287 -3267,3266 -5288,7782 -5288,12768 0,3402 941,6584 2575,9300 -1265,-762 -2429,-1674 -3468,-2712 -3266,-3267 -5287,-7781 -5287,-12768 0,-4986 2021,-9502 5287,-12768 3267,-3267 7782,-5288 12768,-5288 4986,0 9502,2021 12768,5288 1039,1038 1950,2203 2712,3468zm15625 -15625c1140,914 2228,1890 3259,2921 7213,7213 11675,17179 11675,28184 0,11005 -4462,20971 -11675,28184 -7212,7212 -17178,11675 -28183,11675 -11005,0 -20971,-4463 -28184,-11675 -1031,-1032 -2007,-2120 -2921,-3260 6826,5477 15494,8754 24924,8754 11005,0 20971,-4462 28184,-11675 7213,-7212 11675,-17178 11675,-28183 0,-9431 -3277,-18099 -8754,-24925zm-172255 -31129c1144,909 2235,1882 3267,2914 6910,6910 11200,16453 11200,26956l0 120599c0,10505 -4290,20047 -11200,26956 -6910,6910 -16453,11200 -26956,11200l-84488 0c-10504,0 -20046,-4290 -26956,-11200 -1032,-1032 -2005,-2123 -2914,-3266 6515,5181 14754,8286 23690,8286l84487 0c10504,0 20047,-4290 26956,-11200 6910,-6910 11200,-16452 11200,-26956l0 -120599c0,-8936 -3105,-17174 -8286,-23690zm-23689 13517l-84488 0c-4485,0 -8571,1844 -11540,4813 -2969,2969 -4812,7056 -4812,11540l0 120599c0,2913 777,5658 2135,8037 -1285,-733 -2463,-1636 -3504,-2677 -2969,-2969 -4812,-7055 -4812,-11540l0 -120599c0,-4484 1843,-8572 4812,-11541 2969,-2969 7055,-4812 11541,-4812l84487 0c4484,0 8572,1843 11541,4812 1040,1041 1943,2220 2677,3504 -2381,-1358 -5125,-2136 -8037,-2136zm-32944 33237c-2717,-1634 -5898,-2575 -9300,-2575 -4986,0 -9501,2021 -12768,5287 -3266,3266 -5287,7782 -5287,12768 0,3402 940,6584 2575,9300 -1265,-762 -2430,-1674 -3468,-2712 -3266,-3267 -5287,-7781 -5287,-12768 0,-4986 2021,-9502 5287,-12768 3266,-3267 7781,-5288 12768,-5288 4986,0 9502,2021 12768,5288 1038,1038 1950,2203 2712,3468zm15625 -15625c1139,914 2228,1890 3259,2921 7213,7213 11675,17179 11675,28184 0,11005 -4462,20971 -11675,28184 -7213,7212 -17179,11675 -28184,11675 -11005,0 -20971,-4463 -28183,-11675 -1032,-1032 -2007,-2120 -2921,-3260 6825,5477 15493,8754 24924,8754 11005,0 20971,-4462 28184,-11675 7212,-7212 11674,-17178 11674,-28183 0,-9431 -3277,-18099 -8753,-24925z"/>
    <path class="fil1" d="M667402 411963l-84488 0c-4485,0 -8571,1843 -11540,4812 -2969,2969 -4812,7057 -4812,11541l0 120599c0,4485 1843,8571 4812,11540 2969,2969 7055,4813 11540,4813l84488 0c4484,0 8571,-1844 11540,-4813 2969,-2969 4812,-7055 4812,-11540l0 -120599c0,-4484 -1843,-8572 -4812,-11541 -2969,-2969 -7056,-4812 -11540,-4812zm-84488 -21803l84488 0c10503,0 20046,4290 26956,11200 6910,6909 11200,16452 11200,26956l0 120599c0,10504 -4290,20046 -11200,26956 -6910,6910 -16453,11200 -26956,11200l-84488 0c-10504,0 -20046,-4290 -26956,-11200 -6910,-6910 -11200,-16452 -11200,-26956l0 -120599c0,-10504 4290,-20047 11200,-26956 6910,-6910 16452,-11200 26956,-11200zm55012 57752c-3266,-3267 -7782,-5288 -12768,-5288 -4986,0 -9501,2021 -12768,5288 -3266,3266 -5287,7782 -5287,12768 0,4987 2021,9501 5287,12768 3267,3266 7782,5287 12768,5287 4986,0 9502,-2021 12768,-5287 3267,-3267 5288,-7781 5288,-12768 0,-4986 -2021,-9502 -5288,-12768zm-12768 -27091c11005,0 20971,4462 28184,11675 7213,7213 11675,17179 11675,28184 0,11005 -4462,20971 -11675,28183 -7213,7213 -17179,11675 -28184,11675 -11005,0 -20971,-4462 -28183,-11675 -7213,-7212 -11675,-17178 -11675,-28183 0,-11005 4462,-20971 11675,-28184 7212,-7213 17178,-11675 28183,-11675zm-255507 -30661l84487 0c10504,0 20047,4290 26956,11200 6910,6909 11200,16452 11200,26956l0 120599c0,10504 -4290,20046 -11200,26956 -6909,6910 -16452,11200 -26956,11200l-84487 0c-10505,0 -20046,-4290 -26956,-11200 -6910,-6910 -11200,-16452 -11200,-26956l0 -120599c0,-10504 4290,-20047 11200,-26956 6910,-6910 16451,-11200 26956,-11200zm84487 21803l-84487 0c-4486,0 -8572,1843 -11541,4812 -2969,2969 -4812,7057 -4812,11541l0 120599c0,4485 1843,8571 4812,11540 2969,2969 7055,4813 11541,4813l84487 0c4484,0 8572,-1844 11541,-4813 2969,-2969 4812,-7055 4812,-11540l0 -120599c0,-4484 -1843,-8572 -4812,-11541 -2969,-2969 -7057,-4812 -11541,-4812zm-29475 35949c-3266,-3267 -7782,-5288 -12768,-5288 -4987,0 -9502,2021 -12768,5288 -3266,3266 -5287,7782 -5287,12768 0,4987 2021,9501 5287,12768 3266,3266 7781,5287 12768,5287 4986,0 9502,-2021 12768,-5287 3266,-3267 5287,-7781 5287,-12768 0,-4986 -2021,-9502 -5287,-12768zm-12768 -27091c11005,0 20971,4462 28184,11675 7212,7213 11674,17179 11674,28184 0,11005 -4462,20971 -11674,28183 -7213,7213 -17179,11675 -28184,11675 -11005,0 -20971,-4462 -28184,-11675 -7212,-7212 -11675,-17178 -11675,-28183 0,-11005 4463,-20971 11675,-28184 7213,-7213 17179,-11675 28184,-11675z"/>
    <path class="fil6" d="M402594 476159l1 1c2716,1634 5898,2575 9300,2575 4986,0 9502,-2021 12768,-5287 3266,-3267 5287,-7781 5287,-12768 0,-3403 -941,-6586 -2575,-9300 -2717,-1634 -5898,-2575 -9300,-2575 -4986,0 -9501,2021 -12768,5287 -3266,3266 -5287,7782 -5287,12768 0,3402 940,6583 2574,9299z"/>
    <path class="fil6" d="M615858 476159l0 1c2717,1634 5898,2575 9300,2575 4986,0 9502,-2021 12768,-5287 3267,-3267 5288,-7781 5288,-12768 0,-3403 -941,-6586 -2576,-9300 -2716,-1634 -5898,-2575 -9299,-2575 -4987,0 -9502,2021 -12768,5287 -3267,3266 -5288,7782 -5288,12768 0,3402 941,6583 2575,9299z"/>
   </g>
   <g>
    <path class="fil3" d="M119345 809236c2904,-4752 263,-10297 -6602,-8977 -11353,15050 -35645,28516 -54655,28516 -14258,0 -25348,-7657 -25348,-28516 0,-38022 17163,-66273 31949,-66273 6600,0 9769,2640 9769,7656 0,3697 -1321,10826 -4225,17163 2904,2640 7129,3697 10562,3697 9769,0 18482,-6865 18482,-21651 0,-17163 -10561,-25612 -31948,-25612 -39605,0 -67329,48583 -67329,89245 0,32476 20066,47263 44886,47263 25612,0 56240,-15843 74459,-42511l0 0zm125417 -80267c-11089,8977 -20858,20331 -31420,26931 -4225,-7656 -11882,-12145 -20859,-12145 -15050,0 -20859,13202 -15314,27724 2904,1848 7393,2905 12145,3168 792,3697 1320,7393 1320,10826 0,23763 -16897,43302 -30364,43302 -9241,0 -17162,-8977 -17162,-32212 0,-25877 15578,-61257 39605,-61257 6338,0 11882,1056 16899,2904 3960,1584 8449,-1320 8977,-7393 -7921,-11882 -18483,-15578 -31684,-15578 -39870,0 -67594,49903 -67594,89773 0,24819 11618,46735 38814,46735 31684,0 68914,-39870 68914,-80268 0,-793 0,-1849 -265,-2904 10826,-6866 21123,-19275 27988,-25085 3697,-3167 5017,-10297 0,-14521zm0 14521c2377,-2111 3960,-3167 5281,-3167 2376,0 3696,2376 2640,6601l-21651 101390c3169,2112 7658,3433 12410,3433 9506,0 19539,-4489 22179,-16636l16106 -75250c5810,-7129 16371,-13730 23500,-13730 5809,0 9505,4489 7129,15578l-11090 52544c-6601,30892 7394,37494 20595,37494 17691,0 35381,-12147 47791,-26140 1584,-1848 2376,-3961 2376,-5809 0,-2641 -1584,-5017 -4489,-6338 -6600,6602 -17954,13203 -27723,13203 -5281,0 -8714,-3169 -7129,-10825l12938 -60729c6072,-27725 -3961,-38814 -17955,-38814 -15314,0 -32212,10561 -43302,26404l2641 -11882c2376,-10033 -3169,-14522 -12675,-14522 -11089,0 -20595,5544 -29572,12674 -5281,4224 -3433,12410 0,14521zm216246 -2904c0,-11882 -6072,-25347 -30100,-25347 -43566,0 -66273,54919 -66273,89245 0,32476 20067,47263 44886,47263 25612,0 56241,-15843 74459,-42511 2904,-4752 264,-10297 -6601,-8977 -11354,15050 -35646,28516 -54656,28516 -12145,0 -21915,-5281 -24555,-19539 50958,-28252 62840,-46206 62840,-68650zm-28251 -4752c4488,0 7657,4224 7657,10297 0,17162 -17427,35646 -43039,51752 793,-18483 9242,-62049 35382,-62049zm160799 73402c2904,-4752 264,-10297 -6601,-8977 -11354,15050 -35646,28516 -54656,28516 -14258,0 -25348,-7657 -25348,-28516 0,-38022 17163,-66273 31949,-66273 6601,0 9770,2640 9770,7656 0,3697 -1321,10826 -4226,17163 2905,2640 7130,3697 10562,3697 9770,0 18482,-6865 18482,-21651 0,-17163 -10561,-25612 -31948,-25612 -39605,0 -67329,48583 -67329,89245 0,32476 20066,47263 44886,47263 25612,0 56240,-15843 74459,-42511l0 0zm88360 -91621l-45586 0 7393 -34852c-3168,-2113 -7657,-3433 -12410,-3433 -9505,0 -19538,4489 -22179,16634l-4753 21651 -5280 0c-8186,0 -12410,6865 -11090,15314l13203 0 -16899 79740c-6601,31420 11882,39078 25083,39078 14786,0 36437,-12410 36437,-30894 0,-4487 -2904,-7128 -7921,-7128 -3960,9506 -10033,12673 -14786,12673 -5280,0 -8713,-5808 -5808,-19274l15577 -74195 23499 0 2498 0c505,-1472 1398,-2852 2783,-3960 6357,-5048 12978,-9300 20239,-11354z"/>
    <path class="fil7" d="M669863 744282c-9506,30629 -8714,107464 19275,107464 28516,0 71818,-64689 71818,-125154 0,-19275 -11089,-29044 -21387,-29309 -8713,-264 -17162,6601 -17691,20331 11090,5017 16371,20596 16371,38286 0,24820 -13202,52544 -33269,68386 -11090,-21651 -7921,-60993 -1056,-93470 2376,-10033 -3169,-14522 -12674,-14522 -11090,0 -20595,5545 -29572,12674 -5281,4225 -3433,12410 0,14522 2376,-2112 3960,-3168 5280,-3168 2377,0 3433,1848 2905,3960zm187204 -3696c0,-11882 -6073,-25348 -30101,-25348 -43566,0 -66273,54920 -66273,89245 0,2641 264,5017 528,7393 -5545,2377 -10826,3697 -16899,2905 -1848,10297 7657,17955 17955,15314 1056,-264 2112,-792 3168,-1320 7393,15842 22708,22971 40134,22971 25612,0 56241,-15842 74459,-42510 2905,-4753 264,-10297 -6601,-8977 -11353,15050 -35645,28516 -54656,28516 -12146,0 -21915,-5281 -24555,-19539 50959,-28252 62841,-46207 62841,-68650zm-28252 -4753c4488,0 7657,4225 7657,10298 0,17162 -17427,35645 -43039,51751 793,-18482 9242,-62049 35382,-62049zm61257 115913c38813,0 54128,-19010 54128,-44622 0,-33533 -43303,-27460 -43303,-55448 0,-14259 8185,-21388 15315,-21388 6336,0 11881,4489 11881,14258 0,5281 -1848,11090 -4488,14259 3432,2376 7129,3432 10561,3696 9770,528 18483,-6865 18483,-21651 0,-17163 -10826,-25612 -33269,-25612 -30629,0 -45151,19539 -45151,40662 0,39606 43567,37230 43567,57297 0,12938 -10826,21123 -20859,21123 -8450,0 -16635,-5281 -16635,-17427 0,-6337 2113,-12674 5545,-16634 -2904,-2641 -6337,-3697 -10562,-3697 -12937,0 -20595,9506 -22443,20331 -2904,17691 8977,34853 37230,34853l0 0zm134396 -118817c8185,0 12409,-6865 11089,-15315l-19275 0 7393 -34853c-3168,-2112 -7657,-3432 -12409,-3432 -9506,0 -19539,4489 -22180,16634l-4752 21651 -5281 0c-8185,0 -12410,6866 -11090,15315l13202 0 -16898 79740c-6073,29044 4488,39077 20595,39077 17690,0 37757,-12145 50167,-26140 1584,-1848 2376,-3960 2376,-5808 0,-2641 -1584,-5017 -4488,-6337 -6601,6601 -17955,13202 -27724,13202 -6865,0 -11090,-4753 -7921,-19539l15578 -74195 11618 0z"/>
   </g>
  </g>
 </g>
</svg>
