<?xml version="1.0" encoding="UTF-8"?>
<!DOCTYPE svg PUBLIC "-//W3C//DTD SVG 1.1//EN" "http://www.w3.org/Graphics/SVG/1.1/DTD/svg11.dtd">
<!-- Creator: CorelDRAW X8 -->
<svg xmlns="http://www.w3.org/2000/svg" xml:space="preserve" width="100%" height="100%" version="1.1" style="shape-rendering:geometricPrecision; text-rendering:geometricPrecision; image-rendering:optimizeQuality; fill-rule:evenodd; clip-rule:evenodd"
viewBox="0 0 1037405 172418"
 xmlns:xlink="http://www.w3.org/1999/xlink">
 <defs>
  <style type="text/css">
   <![CDATA[
    .fil0 {fill:#FEFEFE;fill-rule:nonzero}
    .fil1 {fill:#FFD234;fill-rule:nonzero}
   ]]>
  </style>
 </defs>
 <g id="Layer_x0020_1">
  <metadata id="CorelCorpID_0Corel-Layer"/>
  <g id="_2425326273072">
   <path class="fil0" d="M119345 129907c2904,-4752 263,-10297 -6602,-8977 -11353,15050 -35645,28516 -54655,28516 -14258,0 -25348,-7657 -25348,-28516 0,-38022 17163,-66273 31949,-66273 6600,0 9769,2640 9769,7656 0,3697 -1321,10826 -4225,17163 2904,2640 7129,3697 10562,3697 9769,0 18482,-6865 18482,-21651 0,-17163 -10561,-25612 -31948,-25612 -39605,0 -67329,48583 -67329,89245 0,32476 20066,47263 44886,47263 25612,0 56240,-15843 74459,-42511l0 0zm125417 -80267c-11089,8977 -20858,20331 -31420,26931 -4225,-7656 -11882,-12145 -20859,-12145 -15050,0 -20859,13202 -15314,27724 2904,1848 7393,2905 12145,3168 792,3697 1320,7393 1320,10826 0,23763 -16897,43302 -30364,43302 -9241,0 -17162,-8977 -17162,-32212 0,-25877 15578,-61257 39605,-61257 6338,0 11882,1056 16899,2904 3960,1584 8449,-1320 8977,-7393 -7921,-11882 -18483,-15578 -31684,-15578 -39870,0 -67594,49903 -67594,89773 0,24819 11618,46735 38814,46735 31684,0 68914,-39870 68914,-80268 0,-793 0,-1849 -265,-2904 10826,-6866 21123,-19275 27988,-25085 3697,-3167 5017,-10297 0,-14521zm0 14521c2377,-2111 3960,-3167 5281,-3167 2376,0 3696,2376 2640,6601l-21651 101390c3169,2112 7658,3433 12410,3433 9506,0 19539,-4489 22179,-16636l16106 -75250c5810,-7129 16371,-13730 23500,-13730 5809,0 9505,4489 7129,15578l-11090 52544c-6601,30892 7394,37494 20595,37494 17691,0 35381,-12147 47791,-26140 1584,-1848 2376,-3961 2376,-5809 0,-2641 -1584,-5017 -4489,-6338 -6600,6602 -17954,13203 -27723,13203 -5281,0 -8714,-3169 -7129,-10825l12938 -60729c6072,-27725 -3961,-38814 -17955,-38814 -15314,0 -32212,10561 -43302,26404l2641 -11882c2376,-10033 -3169,-14522 -12675,-14522 -11089,0 -20595,5544 -29572,12674 -5281,4224 -3433,12410 0,14521zm216246 -2904c0,-11882 -6072,-25347 -30100,-25347 -43566,0 -66273,54919 -66273,89245 0,32476 20067,47263 44886,47263 25612,0 56241,-15843 74459,-42511 2904,-4752 264,-10297 -6601,-8977 -11354,15050 -35646,28516 -54656,28516 -12145,0 -21915,-5281 -24555,-19539 50958,-28252 62840,-46206 62840,-68650zm-28251 -4752c4488,0 7657,4224 7657,10297 0,17162 -17427,35646 -43039,51752 793,-18483 9242,-62049 35382,-62049zm160799 73402c2904,-4752 264,-10297 -6601,-8977 -11354,15050 -35646,28516 -54656,28516 -14258,0 -25348,-7657 -25348,-28516 0,-38022 17163,-66273 31949,-66273 6601,0 9770,2640 9770,7656 0,3697 -1321,10826 -4226,17163 2905,2640 7130,3697 10562,3697 9770,0 18482,-6865 18482,-21651 0,-17163 -10561,-25612 -31948,-25612 -39605,0 -67329,48583 -67329,89245 0,32476 20066,47263 44886,47263 25612,0 56240,-15843 74459,-42511l0 0zm88360 -91621l-45586 0 7393 -34852c-3168,-2113 -7657,-3433 -12410,-3433 -9505,0 -19538,4489 -22179,16634l-4753 21651 -5280 0c-8186,0 -12410,6865 -11090,15314l13203 0 -16899 79740c-6601,31420 11882,39078 25083,39078 14786,0 36437,-12410 36437,-30894 0,-4487 -2904,-7128 -7921,-7128 -3960,9506 -10033,12673 -14786,12673 -5280,0 -8713,-5808 -5808,-19274l15577 -74195 23499 0 2498 0c505,-1472 1398,-2852 2783,-3960 6357,-5048 12978,-9300 20239,-11354z"/>
   <path class="fil1" d="M669863 64953c-9506,30629 -8714,107464 19275,107464 28516,0 71818,-64689 71818,-125154 0,-19275 -11089,-29044 -21387,-29309 -8713,-264 -17162,6601 -17691,20331 11090,5017 16371,20596 16371,38286 0,24820 -13202,52544 -33269,68386 -11090,-21651 -7921,-60993 -1056,-93470 2376,-10033 -3169,-14522 -12674,-14522 -11090,0 -20595,5545 -29572,12674 -5281,4225 -3433,12410 0,14522 2376,-2112 3960,-3168 5280,-3168 2377,0 3433,1848 2905,3960zm187204 -3696c0,-11882 -6073,-25348 -30101,-25348 -43566,0 -66273,54920 -66273,89245 0,2641 264,5017 528,7393 -5545,2377 -10826,3697 -16899,2905 -1848,10297 7657,17955 17955,15314 1056,-264 2112,-792 3168,-1320 7393,15842 22708,22971 40134,22971 25612,0 56241,-15842 74459,-42510 2905,-4753 264,-10297 -6601,-8977 -11353,15050 -35645,28516 -54656,28516 -12146,0 -21915,-5281 -24555,-19539 50959,-28252 62841,-46207 62841,-68650zm-28252 -4753c4488,0 7657,4225 7657,10298 0,17162 -17427,35645 -43039,51751 793,-18482 9242,-62049 35382,-62049zm61257 115913c38813,0 54128,-19010 54128,-44622 0,-33533 -43303,-27460 -43303,-55448 0,-14259 8185,-21388 15315,-21388 6336,0 11881,4489 11881,14258 0,5281 -1848,11090 -4488,14259 3432,2376 7129,3432 10561,3696 9770,528 18483,-6865 18483,-21651 0,-17163 -10826,-25612 -33269,-25612 -30629,0 -45151,19539 -45151,40662 0,39606 43567,37230 43567,57297 0,12938 -10826,21123 -20859,21123 -8450,0 -16635,-5281 -16635,-17427 0,-6337 2113,-12674 5545,-16634 -2904,-2641 -6337,-3697 -10562,-3697 -12937,0 -20595,9506 -22443,20331 -2904,17691 8977,34853 37230,34853l0 0zm134396 -118817c8185,0 12409,-6865 11089,-15315l-19275 0 7393 -34853c-3168,-2112 -7657,-3432 -12409,-3432 -9506,0 -19539,4489 -22180,16634l-4752 21651 -5281 0c-8185,0 -12410,6866 -11090,15315l13202 0 -16898 79740c-6073,29044 4488,39077 20595,39077 17690,0 37757,-12145 50167,-26140 1584,-1848 2376,-3960 2376,-5808 0,-2641 -1584,-5017 -4488,-6337 -6601,6601 -17955,13202 -27724,13202 -6865,0 -11090,-4753 -7921,-19539l15578 -74195 11618 0z"/>
  </g>
 </g>
</svg>
