<?xml version="1.0" encoding="UTF-8"?>
<!DOCTYPE svg PUBLIC "-//W3C//DTD SVG 1.1//EN" "http://www.w3.org/Graphics/SVG/1.1/DTD/svg11.dtd">
<!-- Creator: CorelDRAW X8 -->
<svg xmlns="http://www.w3.org/2000/svg" xml:space="preserve" width="100%" height="100%" version="1.1" style="shape-rendering:geometricPrecision; text-rendering:geometricPrecision; image-rendering:optimizeQuality; fill-rule:evenodd; clip-rule:evenodd"
viewBox="0 0 152572 172574"
 xmlns:xlink="http://www.w3.org/1999/xlink">
 <defs>
  <style type="text/css">
   <![CDATA[
    .fil13 {fill:#FEFEFE;fill-rule:nonzero}
    .fil5 {fill:#FFF3D0;fill-rule:nonzero}
    .fil14 {fill:#F6936B;fill-rule:nonzero}
    .fil3 {fill:#F26839;fill-rule:nonzero}
    .fil0 {fill:#FAC02F;fill-rule:nonzero}
    .fil9 {fill:#CC5939;fill-rule:nonzero}
    .fil11 {fill:#CCC3A8;fill-rule:nonzero}
    .fil6 {fill:#C89C3C;fill-rule:nonzero}
    .fil16 {fill:#C1CFD9;fill-rule:nonzero}
    .fil1 {fill:#A8DDE4;fill-rule:nonzero}
    .fil12 {fill:#A6BBCA;fill-rule:nonzero}
    .fil7 {fill:#85B6BC;fill-rule:nonzero}
    .fil15 {fill:#6487A2;fill-rule:nonzero}
    .fil4 {fill:#2AB7C6;fill-rule:nonzero}
    .fil8 {fill:#2D96A1;fill-rule:nonzero}
    .fil2 {fill:#2F587D;fill-rule:nonzero}
    .fil10 {fill:#2D4B68;fill-rule:nonzero}
   ]]>
  </style>
 </defs>
 <g id="Layer_x0020_1">
  <metadata id="CorelCorpID_0Corel-Layer"/>
  <g id="_1816434750000">
   <path class="fil0" d="M69929 145365c1513,-5676 9133,-8562 17021,-6453 7881,2110 13039,8421 11519,14097 -1521,5680 -9141,8562 -17025,6456 -7885,-2113 -13036,-8428 -11515,-14100zm-36604 -49036c36876,29351 5912,53558 32032,70523 23449,15230 67754,1637 84279,-60053 12170,-45434 -14676,-90117 -58766,-103914 -58501,-18313 -105767,55054 -57545,93444z"/>
   <path class="fil1" d="M27327 41722c-2017,7536 2452,15268 9981,17286 7524,2015 15268,-2452 17286,-9980 2014,-7532 -2452,-15268 -9977,-17282 -7532,-2018 -15268,2451 -17290,9976z"/>
   <path class="fil2" d="M56481 21949c-2011,7525 2445,15258 9977,17279 7524,2011 15271,-2452 17286,-9984 2014,-7524 -2456,-15264 -9977,-17275 -7535,-2022 -15268,2452 -17286,9980z"/>
   <path class="fil3" d="M91163 33079c-2015,7532 2444,15265 9976,17286 7528,2015 15268,-2452 17286,-9983 2015,-7529 -2455,-15262 -9980,-17279 -7528,-2018 -15265,2451 -17282,9976z"/>
   <path class="fil4" d="M111909 63090c-2021,7532 2445,15272 9973,17283 7529,2021 15269,-2449 17287,-9977 2014,-7525 -2452,-15268 -9988,-17279 -7517,-2018 -15257,2448 -17272,9973z"/>
   <path class="fil5" d="M111486 99595c-2018,7532 2452,15262 9977,17279 7535,2018 15264,-2448 17286,-9980 2018,-7521 -2456,-15264 -9987,-17279 -7525,-2018 -15258,2452 -17276,9980z"/>
   <path class="fil6" d="M40966 59492c-1207,0 -2434,-156 -3658,-484 -15,-3 -29,-7 -43,-10 18,3 28,7 43,10 1224,328 2451,484 3658,484 6230,0 11934,-4160 13628,-10464l0 0c-1694,6304 -7398,10464 -13628,10464zm-3711 -498c-11,-3 -18,-7 -29,-7 11,0 18,4 29,7zm-57 -17c-3,0 -7,0 -7,0 0,0 4,0 7,0zm17410 -10009c3,-7 3,-10 7,-17 -4,7 -4,10 -7,17zm21 -74c0,-7 3,-10 3,-17 0,7 -3,10 -3,17zm14 -60c4,-7 4,-14 7,-21 -3,7 -3,14 -7,21zm18 -74c3,-10 3,-18 7,-25 0,7 -4,15 -7,25zm17 -70c0,-4 4,-8 4,-11 0,3 -4,7 -4,11zm18 -71c0,-7 3,-11 3,-14 0,3 -3,7 -3,14z"/>
   <path class="fil7" d="M40966 59492c-1207,0 -2434,-156 -3658,-484 -15,-3 -25,-7 -43,-10 -3,-4 -7,-4 -10,-4 -11,-3 -18,-7 -29,-7 -10,-3 -17,-7 -28,-10 -3,0 -7,0 -7,0 -3295,-914 -5941,-2960 -7754,-5564 1295,896 2731,1634 4343,2068 1224,328 2448,483 3658,483 6230,0 11935,-4159 13628,-10464 1118,-4184 187,-8392 -2110,-11691 4650,3218 7105,9014 5743,14796 0,3 -3,7 -3,14 -4,18 -11,39 -14,60 0,3 -4,7 -4,11 -3,17 -7,31 -10,45 -4,7 -4,15 -7,25 -4,18 -7,32 -11,53 -3,7 -3,14 -7,21 -3,14 -7,28 -11,43 0,7 -3,10 -3,17 -7,18 -11,35 -14,57 -4,7 -4,10 -7,17 -4,21 -11,39 -14,60l0 0c-1694,6304 -7398,10464 -13628,10464z"/>
   <path class="fil6" d="M125551 80859c-1210,0 -2444,-158 -3669,-486 -14,-4 -24,-8 -38,-11 14,3 24,7 38,11 1225,328 2459,486 3669,486 6227,0 11928,-4162 13618,-10463l0 0c-1690,6301 -7391,10463 -13618,10463zm13635 -10527c0,-3 4,-10 4,-14 0,4 -4,11 -4,14zm21 -74c0,-3 0,-7 0,-10 0,3 0,7 0,10zm15 -63c0,-4 3,-11 3,-14 0,3 -3,10 -3,14zm17 -74c4,-4 4,-7 4,-11 0,4 0,7 -4,11z"/>
   <path class="fil8" d="M125551 80859c-1210,0 -2444,-158 -3669,-486 -14,-4 -24,-8 -38,-11 -3327,-900 -6005,-2956 -7832,-5581 1298,896 2731,1633 4343,2064 1227,328 2455,487 3669,487 6226,0 11927,-4163 13617,-10464 1118,-4180 183,-8392 -2110,-11687 4689,3242 7140,9108 5712,14929 0,4 0,7 -4,11 -3,21 -7,42 -14,60 0,3 -3,10 -3,14 -4,18 -8,35 -15,53 0,3 0,7 0,10 -7,22 -10,39 -17,60 0,4 -4,11 -4,14 -3,22 -10,43 -17,64l0 0c-1690,6301 -7391,10463 -13618,10463z"/>
   <path class="fil6" d="M104797 50849c-1206,0 -2437,-156 -3658,-484 -14,-3 -25,-7 -39,-10 14,3 25,7 39,10 1221,328 2452,484 3658,484 6234,0 11938,-4156 13628,-10467l0 0c-1690,6311 -7394,10467 -13628,10467zm13642 -10524c0,-7 4,-14 4,-21 0,7 -4,14 -4,21zm18 -74c4,-10 7,-18 7,-25 0,7 -3,15 -7,25zm18 -60c0,-7 3,-18 7,-28 -4,10 -7,21 -7,28zm17 -74c4,-11 4,-21 7,-32 -3,11 -3,21 -7,32zm14 -63c4,-8 4,-15 7,-25 -3,10 -3,17 -7,25zm22 -75c0,-10 3,-17 3,-24 0,7 -3,14 -3,24zm14 -74c3,-3 3,-10 3,-17 0,7 0,14 -3,17zm17 -70c0,-4 0,-11 4,-14 -4,3 -4,10 -4,14z"/>
   <path class="fil9" d="M104797 50849c-1206,0 -2437,-156 -3658,-484 -14,-3 -25,-7 -39,-10 -3326,-903 -6000,-2960 -7828,-5585 1295,900 2731,1637 4339,2067 1225,329 2452,484 3659,484 6233,0 11938,-4156 13627,-10467 1119,-4181 184,-8393 -2113,-11688 4618,3193 7066,8922 5779,14655 -4,3 -4,10 -4,14 -3,17 -7,35 -14,53 0,7 0,14 -3,17 -4,18 -7,32 -11,50 0,7 -3,14 -3,24 -7,15 -11,32 -15,50 -3,10 -3,17 -7,25 0,10 -3,21 -7,31 -3,11 -3,21 -7,32 -3,14 -7,32 -10,46 -4,10 -7,21 -7,28 -4,11 -7,25 -11,35 0,7 -3,15 -7,25 -4,18 -7,35 -14,53 0,7 -4,14 -4,21 -3,18 -10,39 -14,57l0 0c-1690,6311 -7394,10467 -13628,10467z"/>
   <path class="fil6" d="M83758 29188c3,-7 3,-14 3,-18 0,4 0,11 -3,18zm21 -78c0,-3 0,-7 3,-14 -3,7 -3,11 -3,14zm14 -63c4,-4 4,-11 4,-14 0,3 0,10 -4,14zm18 -74c3,-4 3,-7 3,-14 0,7 0,10 -3,14zm21 -71c0,-3 0,-3 0,-3 0,0 0,0 0,3zm14 -70l0 -4c0,4 0,4 0,4z"/>
   <path class="fil10" d="M70116 39708c-1210,0 -2438,-155 -3658,-480l0 0c-3345,-900 -6033,-2960 -7867,-5595 1294,900 2730,1633 4339,2067 1220,325 2448,480 3658,480 6230,0 11942,-4152 13628,-10463 1118,-4181 183,-8393 -2110,-11688 4650,3217 7105,9021 5740,14799l0 4c-4,21 -11,46 -14,67 0,0 0,0 0,3 -7,18 -11,39 -18,57 0,7 0,10 -3,14 -4,21 -7,39 -14,60 0,3 0,10 -4,14 -3,18 -7,35 -11,49 -3,7 -3,11 -3,14 -7,22 -11,39 -18,60 0,4 0,11 -3,18 -4,18 -11,39 -14,56l0 0c-1687,6312 -7398,10464 -13628,10464z"/>
   <path class="fil6" d="M125125 117358c-1211,0 -2438,-155 -3662,-484 -14,-3 -29,-7 -43,-10 14,3 29,7 43,10 1224,329 2451,484 3662,484 6233,3 11930,-4152 13624,-10464l0 0c-1694,6312 -7391,10467 -13624,10464zm-3722 -498c-7,-3 -14,-3 -21,-7 7,4 14,4 21,7zm17363 -10022c0,-7 4,-14 4,-25 0,11 -4,18 -4,25zm15 -67c3,-11 7,-25 10,-35 -3,10 -7,24 -10,35zm17 -64c11,-38 21,-77 28,-116 -7,39 -17,78 -28,116zm32 -127c7,-28 14,-53 21,-81 -7,28 -14,53 -21,81zm21 -81c4,-14 7,-28 7,-42 0,14 -3,28 -7,42zm11 -56c7,-21 10,-43 14,-60 -4,17 -7,39 -14,60zm21 -85c3,-10 3,-21 7,-32 -4,11 -4,22 -7,32zm17 -81c4,-7 4,-14 4,-21 0,7 0,14 -4,21zm15 -67c0,-4 3,-7 3,-11 0,4 -3,7 -3,11z"/>
   <path class="fil11" d="M125125 117358c-1211,0 -2438,-155 -3662,-484 -14,-3 -29,-7 -43,-10 -7,0 -10,-4 -17,-4 -7,-3 -14,-3 -21,-7 -3310,-910 -5966,-2960 -7790,-5570 1302,896 2734,1633 4343,2064 1224,328 2452,483 3662,483 6233,0 11931,-4156 13624,-10463 1122,-4177 187,-8389 -2110,-11684 4576,3168 7028,8833 5807,14516 0,4 -3,7 -3,11 -4,18 -7,32 -11,46 0,7 0,14 -4,21 -3,18 -7,32 -10,49 -4,11 -4,22 -7,32 -4,7 -4,18 -7,25 -4,17 -7,39 -14,60 0,7 0,10 -4,14 0,14 -3,28 -7,42l0 0c-7,28 -14,53 -21,81 0,4 0,7 -4,11 -7,39 -17,78 -28,116 0,11 -3,18 -7,29 -3,10 -7,24 -10,35 -4,14 -8,28 -11,42 0,11 -4,18 -4,25 -7,18 -10,39 -17,56l0 0c-1694,6312 -7391,10467 -13624,10464z"/>
   <path class="fil2" d="M27758 106323c-12884,22317 -18863,42993 -13367,46168 5507,3178 20415,-12347 33302,-34664 12884,-22320 18874,-42986 13367,-46165 -5503,-3175 -20412,12337 -33302,34661z"/>
   <path class="fil3" d="M7519 149954c1397,-913 2896,-1876 4209,-1714 16347,2102 6759,27894 -9621,23918 -1467,-367 -2106,-931 -2106,-878 -28,-32 716,-529 1404,-1521 731,-970 1020,-2384 872,-3834 -81,-1443 -399,-3140 -402,-5133 14,-1919 218,-4470 2053,-7197 1086,-1457 2328,-2702 3591,-3641z"/>
   <polygon class="fil12" points="20180,156841 7731,149655 13326,139981 25765,147164 "/>
   <path class="fil13" d="M1 171280l0 -4 0 4c0,0 0,0 0,-4 0,4 0,4 0,4zm7860 -21548l-130 -77 130 74c0,3 0,3 0,3z"/>
   <path class="fil14" d="M1920 172095c-1255,-342 -1859,-819 -1915,-819l-4 0c0,4 0,4 0,4l0 -4c-3,-46 727,-539 1404,-1517 604,-804 907,-1912 907,-3090 4,-247 -11,-494 -35,-744 -81,-1443 -399,-3140 -402,-5133 14,-1919 218,-4470 2053,-7197 1086,-1457 2328,-2702 3591,-3641l346 -222 -4 0c0,0 0,0 0,-3l5020 2896c-257,981 -494,1937 -709,2864l-8721 15085 216 124 -537 342c-409,303 -807,713 -1210,1055z"/>
   <path class="fil13" d="M7731 149655l5549 -9603c0,3 -4,7 -4,11l-5545 9592zm20027 -43332c21,-35 39,-64 56,-99 -17,35 -35,64 -56,99z"/>
   <path class="fil15" d="M16314 141706l-2988 -1725 -50 82c0,-4 4,-8 4,-11l17 -32c1997,-8720 7091,-20930 14461,-33697l0 0c21,-35 39,-64 56,-99 9307,-16090 19639,-28589 26734,-33108 -6512,8385 -13282,18447 -19731,29619 -8043,13931 -14355,27439 -18503,38971z"/>
   <path class="fil16" d="M12881 152625l-5020 -2896 -130 -74 5545 -9592 50 -82 2988 1725c-1397,3885 -2547,7543 -3433,10919z"/>
  </g>
 </g>
</svg>
