<?xml version="1.0" encoding="UTF-8"?>
<!DOCTYPE svg PUBLIC "-//W3C//DTD SVG 1.1//EN" "http://www.w3.org/Graphics/SVG/1.1/DTD/svg11.dtd">
<!-- Creator: CorelDRAW X8 -->
<svg xmlns="http://www.w3.org/2000/svg" xml:space="preserve" width="100%" height="100%" version="1.1" style="shape-rendering:geometricPrecision; text-rendering:geometricPrecision; image-rendering:optimizeQuality; fill-rule:evenodd; clip-rule:evenodd"
viewBox="0 0 189157 214224"
 xmlns:xlink="http://www.w3.org/1999/xlink">
 <defs>
  <style type="text/css">
   <![CDATA[
    .fil0 {fill:#D12D90;fill-rule:nonzero}
    .fil2 {fill:#AADDE3;fill-rule:nonzero}
    .fil1 {fill:#5CC6D0;fill-rule:nonzero}
   ]]>
  </style>
 </defs>
 <g id="Layer_x0020_1">
  <metadata id="CorelCorpID_0Corel-Layer"/>
  <g id="_1816451785408">
   <path class="fil0" d="M94587 7055c-12884,0 -27240,41092 -27240,100058 0,58964 14356,100055 27240,100055 12881,0 27235,-41091 27235,-100055 0,-58966 -14354,-100058 -27235,-100058zm0 207169c-22275,0 -34296,-55189 -34296,-107111 0,-51925 12021,-107113 34296,-107113 22273,0 34292,55188 34292,107113 0,51922 -12019,107111 -34292,107111z"/>
   <path class="fil0" d="M21789 52384c-5084,0 -11614,814 -13858,4699 -3164,5485 2406,16629 14904,29820 13812,14573 34456,30127 58132,43797 33266,19205 66378,31140 86409,31140 5085,0 11617,-815 13859,-4703 3165,-5478 -2406,-16626 -14904,-29813 -13811,-14577 -34455,-30131 -58131,-43797 -33267,-19209 -66377,-31143 -86411,-31143zm145587 116511c-21199,0 -55659,-12294 -89937,-32085 -24249,-14001 -45460,-30000 -59725,-45053 -15426,-16281 -20923,-29489 -15893,-38202 3154,-5458 9871,-8227 19968,-8227 21200,0 55663,12294 89940,32089 24248,13998 45458,30000 59723,45053 15428,16277 20924,29485 15893,38195 -3154,5461 -9869,8230 -19969,8230z"/>
   <path class="fil0" d="M167379 52384c-20033,0 -53144,11934 -86412,31143 -51064,29478 -79477,62459 -73037,73617 2242,3881 8772,4696 13856,4696 20031,0 53144,-11931 86414,-31143 23676,-13667 44318,-29221 58130,-43794 12497,-13187 18070,-24335 14902,-29820 -2242,-3885 -8770,-4699 -13853,-4699zm-145593 116511c-10097,0 -16813,-2765 -19966,-8223 -11134,-19297 30653,-57294 75619,-83255 34278,-19791 68741,-32089 89940,-32089 10097,0 16812,2769 19963,8227 5030,8713 -462,21921 -15891,38202 -14266,15053 -35475,31052 -59722,45053 -34281,19791 -68746,32085 -89943,32085z"/>
   <path class="fil1" d="M72397 107113c0,-12252 9933,-22182 22185,-22182 12251,0 22181,9930 22181,22182 0,12252 -9930,22183 -22181,22183 -12252,0 -22185,-9931 -22185,-22183z"/>
   <path class="fil2" d="M90765 118131c-7944,0 -14385,-6442 -14385,-14383 0,-7945 6441,-14386 14385,-14386 7944,0 14384,6441 14384,14386 0,7941 -6440,14383 -14384,14383z"/>
   <path class="fil1" d="M38650 49219c0,5750 -4661,10414 -10412,10414 -5749,0 -10411,-4664 -10411,-10414 0,-5750 4662,-10410 10411,-10410 5751,0 10412,4660 10412,10410z"/>
   <path class="fil1" d="M79558 165368c0,5753 -4661,10414 -10413,10414 -5748,0 -10411,-4661 -10411,-10414 0,-5751 4663,-10411 10411,-10411 5752,0 10413,4660 10413,10411z"/>
   <path class="fil1" d="M147091 54550c0,5750 -4663,10410 -10414,10410 -5749,0 -10411,-4660 -10411,-10410 0,-5751 4662,-10414 10411,-10414 5751,0 10414,4663 10414,10414z"/>
   <path class="fil2" d="M135014 59633c-3915,0 -7090,-3175 -7090,-7091 0,-3916 3175,-7091 7090,-7091 3915,0 7090,3175 7090,7091 0,3916 -3175,7091 -7090,7091z"/>
   <path class="fil2" d="M26783 54550c-3915,0 -7090,-3175 -7090,-7091 0,-3913 3175,-7088 7090,-7088 3915,0 7090,3175 7090,7088 0,3916 -3175,7091 -7090,7091z"/>
   <path class="fil2" d="M67139 171016c-3915,0 -7090,-3175 -7090,-7088 0,-3916 3175,-7091 7090,-7091 3913,0 7088,3175 7088,7091 0,3913 -3175,7088 -7088,7088z"/>
  </g>
 </g>
</svg>
