<?xml version="1.0" encoding="UTF-8"?>
<!DOCTYPE svg PUBLIC "-//W3C//DTD SVG 1.1//EN" "http://www.w3.org/Graphics/SVG/1.1/DTD/svg11.dtd">
<!-- Creator: CorelDRAW X8 -->
<svg xmlns="http://www.w3.org/2000/svg" xml:space="preserve" width="100%" height="100%" version="1.1" style="shape-rendering:geometricPrecision; text-rendering:geometricPrecision; image-rendering:optimizeQuality; fill-rule:evenodd; clip-rule:evenodd"
viewBox="0 0 1201022 177919"
 xmlns:xlink="http://www.w3.org/1999/xlink">
 <defs>
  <style type="text/css">
   <![CDATA[
    .fil0 {fill:#FEFEFE;fill-rule:nonzero}
    .fil1 {fill:#FFD234;fill-rule:nonzero}
   ]]>
  </style>
 </defs>
 <g id="Layer_x0020_1">
  <metadata id="CorelCorpID_0Corel-Layer"/>
  <g id="_1709419820064">
   <path class="fil0" d="M123154 134052c2997,-4904 272,-10626 -6812,-9264 -11716,15531 -36783,29426 -56400,29426 -14713,0 -26157,-7901 -26157,-29426 0,-39235 17711,-68388 32969,-68388 6811,0 10081,2724 10081,7901 0,3815 -1363,11171 -4360,17710 2997,2725 7357,3815 10899,3815 10081,0 19072,-7084 19072,-22342 0,-17710 -10898,-26429 -32968,-26429 -40869,0 -69478,50133 -69478,92093 0,33513 20707,48771 46319,48771 26429,0 58035,-16348 76835,-43867l0 0zm129420 -82829c-11443,9264 -21524,20980 -32423,27791 -4359,-7901 -12261,-12533 -21524,-12533 -15531,0 -21525,13623 -15803,28609 2997,1907 7629,2997 12533,3269 817,3815 1362,7629 1362,11171 0,24522 -17437,44684 -31333,44684 -9536,0 -17710,-9263 -17710,-33240 0,-26702 16075,-63212 40869,-63212 6540,0 12261,1090 17438,2997 4087,1635 8719,-1362 9264,-7629 -8174,-12261 -19073,-16075 -32696,-16075 -41142,0 -69751,51496 -69751,92638 0,25611 11989,48226 40053,48226 32695,0 71113,-41142 71113,-82829 0,-818 0,-1908 -273,-2997 11171,-7085 21797,-19890 28881,-25885 3815,-3269 5177,-10626 0,-14985zm0 14985c2453,-2179 4087,-3269 5450,-3269 2452,0 3814,2452 2724,6812l-22342 104626c3270,2179 7902,3542 12806,3542 9809,0 20163,-4632 22887,-17166l16620 -77652c5995,-7356 16893,-14168 24250,-14168 5994,0 9808,4632 7356,16075l-11443 54221c-6812,31878 7629,38690 21252,38690 18255,0 36510,-12534 49316,-26974 1635,-1907 2452,-4087 2452,-5994 0,-2725 -1635,-5177 -4632,-6540 -6811,6812 -18527,13624 -28608,13624 -5450,0 -8992,-3270 -7357,-11171l13351 -62667c6266,-28609 -4087,-40052 -18528,-40052 -15803,0 -33240,10898 -44684,27246l2725 -12261c2452,-10353 -3270,-14985 -13079,-14985 -11443,0 -21252,5721 -30516,13078 -5449,4359 -3542,12806 0,14985zm130510 0c2453,-2179 4087,-3269 5450,-3269 2452,0 3814,2452 2724,6812l-22342 104626c3270,2179 7902,3542 12806,3542 9809,0 20163,-4632 22887,-17166l16620 -77652c5995,-7356 16893,-14168 24250,-14168 5994,0 9808,4632 7356,16075l-11443 54221c-6812,31878 7629,38690 21252,38690 18255,0 36510,-12534 49316,-26974 1635,-1907 2452,-4087 2452,-5994 0,-2725 -1635,-5177 -4632,-6540 -6811,6812 -18527,13624 -28608,13624 -5450,0 -8992,-3270 -7357,-11171l13351 -62667c6266,-28609 -4087,-40052 -18528,-40052 -15803,0 -33240,10898 -44684,27246l2725 -12261c2452,-10353 -3270,-14985 -13079,-14985 -11443,0 -21252,5721 -30516,13078 -5449,4359 -3542,12806 0,14985zm223148 -2997c0,-12261 -6266,-26156 -31061,-26156 -44956,0 -68388,56672 -68388,92093 0,33513 20707,48771 46319,48771 26429,0 58035,-16348 76835,-43867 2997,-4904 272,-10626 -6812,-9264 -11716,15531 -36783,29426 -56400,29426 -12533,0 -22615,-5449 -25339,-20162 52585,-29154 64846,-47681 64846,-70841zm-29153 -4904c4631,0 7901,4359 7901,10626 0,17710 -17983,36783 -44412,53403 818,-19072 9537,-64029 36511,-64029zm165931 75745c2997,-4904 272,-10626 -6812,-9264 -11716,15531 -36783,29426 -56400,29426 -14713,0 -26157,-7901 -26157,-29426 0,-39235 17711,-68388 32969,-68388 6811,0 10081,2724 10081,7901 0,3815 -1363,11171 -4360,17710 2997,2725 7357,3815 10899,3815 10081,0 19072,-7084 19072,-22342 0,-17710 -10898,-26429 -32968,-26429 -40869,0 -69478,50133 -69478,92093 0,33513 20707,48771 46319,48771 26429,0 58035,-16348 76835,-43867l0 0zm91180 -94545l-47041 0 7629 -35965c-3269,-2180 -7901,-3542 -12806,-3542 -9808,0 -20162,4632 -22887,17165l-4904 22342 -5449 0c-8447,0 -12806,7084 -11444,15803l13624 0 -17438 82284c-6812,32423 12261,40325 25884,40325 15258,0 37600,-12806 37600,-31879 0,-4631 -2997,-7356 -8174,-7356 -4087,9809 -10354,13078 -15258,13078 -5449,0 -8991,-5994 -5994,-19890l16075 -76562 26826 0c521,-1519 1443,-2944 2872,-4087 6560,-5209 13392,-9597 20885,-11716z"/>
   <path class="fil1" d="M821752 67026c-9809,31606 -8991,110893 19890,110893 29426,0 74110,-66754 74110,-129148 0,-19890 -11444,-29971 -22070,-30244 -8991,-272 -17710,6812 -18255,20980 11444,5177 16893,21252 16893,39507 0,25612 -13623,54221 -34330,70568 -11444,-22342 -8174,-62939 -1090,-96452 2452,-10353 -3270,-14985 -13079,-14985 -11443,0 -21252,5721 -30516,13078 -5449,4359 -3542,12806 0,14985 2453,-2179 4087,-3269 5450,-3269 2452,0 3542,1907 2997,4087zm193177 -3815c0,-12261 -6266,-26156 -31061,-26156 -44956,0 -68388,56672 -68388,92093 0,2724 272,5176 545,7629 -5722,2452 -11171,3814 -17438,2997 -1907,10626 7902,18527 18528,15803 1090,-273 2179,-818 3269,-1363 7629,16348 23432,23705 41415,23705 26429,0 58035,-16348 76835,-43867 2997,-4904 272,-10626 -6812,-9264 -11716,15531 -36783,29426 -56400,29426 -12533,0 -22615,-5449 -25339,-20162 52585,-29154 64846,-47681 64846,-70841zm-29153 -4904c4631,0 7901,4359 7901,10626 0,17710 -17983,36783 -44412,53403 818,-19072 9537,-64029 36511,-64029zm63212 119612c40052,0 55855,-19618 55855,-46047 0,-34603 -44684,-28336 -44684,-57217 0,-14713 8446,-22070 15803,-22070 6539,0 12260,4632 12260,14713 0,5450 -1907,11444 -4631,14713 3542,2453 7356,3542 10898,3815 10081,545 19073,-7084 19073,-22342 0,-17710 -11171,-26429 -34331,-26429 -31606,0 -46591,20162 -46591,41959 0,40870 44956,38418 44956,59125 0,13351 -11171,21797 -21524,21797 -8719,0 -17166,-5449 -17166,-17983 0,-6539 2180,-13078 5722,-17165 -2997,-2724 -6539,-3814 -10898,-3814 -13351,0 -21253,9808 -23160,20979 -2997,18256 9264,35966 38418,35966l0 0zm138684 -122609c8446,0 12805,-7084 11443,-15803l-19890 0 7629 -35965c-3269,-2180 -7901,-3542 -12806,-3542 -9808,0 -20162,4632 -22887,17165l-4904 22342 -5449 0c-8447,0 -12806,7084 -11444,15803l13624 0 -17438 82284c-6267,29971 4632,40325 21252,40325 18255,0 38962,-12534 51768,-26974 1635,-1907 2452,-4087 2452,-5994 0,-2725 -1634,-5177 -4632,-6540 -6811,6812 -18527,13624 -28608,13624 -7084,0 -11444,-4905 -8174,-20163l16075 -76562 11989 0z"/>
  </g>
 </g>
</svg>
